<svg id="b6296545-15a2-4ec8-a1c6-686832055d2d" 
    data-name="Layer 1" xmlns="http://www.w3.org/2000/svg" 
     viewBox="0 0 933.5 903.3">
    <defs>
      <linearGradient id="fae2e99f-e2ea-4fa9-b023-ead61ef1eacd" x1="35.7" y1="401.65" x2="955.2" y2="401.65" gradientTransform="matrix(1, 0, 0, -1, -28.7, 853.3)" gradientUnits="userSpaceOnUse">
        <stop offset="0.01" stop-color="#f6e8d7"/>
        <stop offset="1" stop-color="#d8cdbb"/>
      </linearGradient>
      <radialGradient id="a44ef6ea-0d07-4a53-9d5d-dadacb64e988" cx="972.04" cy="651.6" r="65.46" gradientTransform="matrix(0.39, 0, 0, -1, 434.02, 853.3)" gradientUnits="userSpaceOnUse">
        <stop offset="0" stop-color="#5c5e5e"/>
        <stop offset="0.25" stop-color="#575959"/>
        <stop offset="0.54" stop-color="#494b4b"/>
        <stop offset="0.86" stop-color="#323333"/>
        <stop offset="1" stop-color="#262626"/>
      </radialGradient>
      <linearGradient id="b788027d-6d6e-42ae-a045-3387ccf2220f" x1="411.4" y1="837.8" x2="411.4" y2="138.5" gradientTransform="matrix(1, 0, 0, -1, -28.7, 853.3)" gradientUnits="userSpaceOnUse">
        <stop offset="0.01" stop-color="#f6e8d7"/>
        <stop offset="0.46" stop-color="#f3e6d5"/>
        <stop offset="0.7" stop-color="#ece0cf"/>
        <stop offset="0.9" stop-color="#e2d7c6"/>
        <stop offset="1" stop-color="#dcd1bf"/>
      </linearGradient>
      <linearGradient id="bc923e37-e7bd-4ea8-8828-4305c5fac390" x1="788.6" y1="766.9" x2="788.6" y2="766.9" />
      <radialGradient id="bb72bc32-cf63-4cb4-a939-64f651961836" cx="1090.33" cy="138.69" r="65.42" gradientTransform="matrix(0.34, 0, 0, -0.89, 505.9, 829.49)" />
      <radialGradient id="bff8e4e4-56ec-4dd6-9b41-05f1749a004f" cx="991.28" cy="292.4" r="65.39" gradientTransform="matrix(0, 0.39, 1, -0.01, -95.6, 386.11)" />
      <radialGradient id="b2bf9455-62cb-4dfd-85d8-6c59c2303c38" cx="1055.65" cy="620.14" r="65.43" gradientTransform="matrix(0, 0.34, 0.89, 0.01, -72.29, 452.27)"  />
      <radialGradient id="abbc4dec-238d-4eb9-b153-1e59257e2f3c" cx="730" cy="861.6" r="48.33" gradientTransform="matrix(1, 0, 0, 1, 0, 0)"  />
      <radialGradient id="a979a223-327d-4cf4-bdad-dcac00a7123d" cx="412.2" cy="477.2" r="75.1" gradientTransform="matrix(1, 0, 0, -1, -28.7, 853.3)"  />
    </defs>
    <path d="M730.5,7H76.1A69,69,0,0,0,7,75.9V695.5a68.78,68.78,0,0,0,19.3,47.9c11.4,11.9,22.9,23.7,34.3,35.6,11.8,12.2,23.5,24.4,35.3,36.7l57.4,59.5A69.15,69.15,0,0,0,203,896.3H857.4a69,69,0,0,0,69.1-68.9V207.9A68.78,68.78,0,0,0,907.2,160L780.3,28.1A69.31,69.31,0,0,0,730.5,7Z" transform="translate(0 0)" stroke="#85878a" stroke-miterlimit="10" stroke-width="14" fill="url(#fae2e99f-e2ea-4fa9-b023-ead61ef1eacd)"/>
    <path d="M7,667.9V52A45,45,0,0,1,52,7H706.8a53,53,0,0,1,53,53V659.2a64.1,64.1,0,0,1-64.1,64.1H62.4A55.4,55.4,0,0,1,7,667.9Z" transform="translate(0 0)" fill="none" stroke="#85878a" stroke-miterlimit="10" stroke-width="10"/>
    <ellipse cx="814.3" cy="201.7" rx="21.3" ry="74.8" fill="url(#a44ef6ea-0d07-4a53-9d5d-dadacb64e988)"/>
    <path d="M60.1,15.5H705.3a44.9,44.9,0,0,1,44.9,44.9h0V669.9a44.9,44.9,0,0,1-44.9,44.9H60.1a44.9,44.9,0,0,1-44.9-44.9h0V60.4A44.9,44.9,0,0,1,60.1,15.5Z" transform="translate(0 0)" stroke="#85878a" stroke-miterlimit="10" stroke-width="10" fill="url(#b788027d-6d6e-42ae-a045-3387ccf2220f)"/>
    <path d="M19.7,360.2,39.7,62A23.23,23.23,0,0,1,62.3,40.3L703.1,20.4H57.6A37.86,37.86,0,0,0,19.7,58.2Z" transform="translate(0 0)" fill="#fffbfd"/>
    <path d="M34.3,693.1c12,12.6,38,16,38,16,.5.3-18.7,0-18.7,0a33.4,33.4,0,0,1-33.4-33.4h0v-24C20.2,651.1,27.4,685.7,34.3,693.1Z" transform="translate(0 0)" fill="#fffbfd"/>
    <path d="M744.3,86.4,727.6,635.3a291.42,291.42,0,0,1-12.4,72.9h0c22.9-5.3,29.7-23.9,29.5-37.2Z" transform="translate(0 0)" fill="#fffbfd"/>
    <path d="M159.9,714.9S-5,703.9,51.5,769.2" transform="translate(0 0)" fill="none" stroke="#85878a" stroke-miterlimit="10" stroke-width="10"/>
    <path d="M20.2,810.9" transform="translate(0 0)" fill="none" stroke="#c2b59b" stroke-miterlimit="10" stroke-width="14"/>
    <path d="M54.2,723.3,718.8,722a68,68,0,0,1,46.9,18.7L906.9,875.6" transform="translate(0 0)" fill="none" stroke="#85878a" stroke-miterlimit="10" stroke-width="14"/>
    <path d="M759.9,660.8v48.9a47.55,47.55,0,0,0,7,24.9l9.9,14.5" transform="translate(0 0)" fill="none" stroke="#85878a" stroke-miterlimit="10" stroke-width="10"/>
    <path d="M759.9,86.4" transform="translate(0 0)" stroke="#c2b59b" stroke-miterlimit="10" stroke-width="14" fill="url(#bc923e37-e7bd-4ea8-8828-4305c5fac390)"/>
    <path d="M757.5,67.1s-2.3-58.8,37.4-23.8" transform="translate(0 0)" fill="none" stroke="#85878a" stroke-miterlimit="10" stroke-width="14"/>
    <path d="M843.2,17.7" transform="translate(0 0)" fill="none" stroke="#c2b59b" stroke-miterlimit="10" stroke-width="14"/>
    <ellipse cx="879.7" cy="704.9" rx="18.7" ry="66.9" fill="url(#bb72bc32-cf63-4cb4-a939-64f651961836)"/>
    <path d="M273.4,771.4c.1,11.8-33.4,21.5-74.6,21.7S124,784,123.9,772.2s33.4-21.5,74.6-21.7S273.4,759.6,273.4,771.4Z" transform="translate(0 0)" fill="url(#bff8e4e4-56ec-4dd6-9b41-05f1749a004f)"/>
    <path d="M547.4,817.9c-.1,10.3-30.1,18.5-67,18.3s-66.9-8.8-66.8-19.1,30.1-18.5,67-18.3S547.5,807.6,547.4,817.9Z" transform="translate(0 0)" fill="url(#b2bf9455-62cb-4dfd-85d8-6c59c2303c38)"/>
    <path d="M796.9,862c0,7.7-30,13.8-67,13.6s-66.9-6.7-66.8-14.4,30-13.8,67-13.6S797,854.3,796.9,862Z" transform="translate(0 0)" fill="url(#abbc4dec-238d-4eb9-b153-1e59257e2f3c)"/>
    <circle cx="383.5" cy="376.1" r="75.1" fill="url(#a979a223-327d-4cf4-bdad-dcac00a7123d)"/>
  </svg>  