<svg id="Layer_1" data-name="Layer 1" xmlns="http://www.w3.org/2000/svg" xmlns:xlink="http://www.w3.org/1999/xlink" viewBox="0 0 933.5 903.3"><defs><linearGradient id="linear-gradient" x1="35.7" y1="504.35" x2="955.2" y2="504.35" gradientTransform="translate(-28.7 -52.7)" gradientUnits="userSpaceOnUse"><stop offset="0.01" stop-color="#f6e8d7"/><stop offset="1" stop-color="#d8cdbb"/></linearGradient><radialGradient id="radial-gradient" cx="921.99" cy="254.4" r="65.46" gradientTransform="translate(453.54 -52.7) scale(0.39 1)" gradientUnits="userSpaceOnUse"><stop offset="0" stop-color="#5c5e5e"/><stop offset="0.25" stop-color="#575959"/><stop offset="0.54" stop-color="#494b4b"/><stop offset="0.86" stop-color="#323333"/><stop offset="1" stop-color="#262626"/></radialGradient><linearGradient id="linear-gradient-2" x1="411.4" y1="68.2" x2="411.4" y2="767.5" gradientTransform="translate(-28.7 -52.7)" gradientUnits="userSpaceOnUse"><stop offset="0.01" stop-color="#f6e8d7"/><stop offset="0.46" stop-color="#f3e6d5"/><stop offset="0.7" stop-color="#ece0cf"/><stop offset="0.9" stop-color="#e2d7c6"/><stop offset="1" stop-color="#dcd1bf"/></linearGradient><linearGradient id="linear-gradient-3" x1="788.6" y1="139.1" x2="788.6" y2="139.1" xlink:href="#linear-gradient"/><radialGradient id="radial-gradient-2" cx="1028.21" cy="761.5" r="65.42" gradientTransform="translate(527.02 28.32) scale(0.34 0.89)" xlink:href="#radial-gradient"/><radialGradient id="radial-gradient-3" cx="901.95" cy="692.6" r="65.39" gradientTransform="matrix(0, 0.39, -1, 0.01, 889.4, 411.1)" xlink:href="#radial-gradient"/><radialGradient id="radial-gradient-4" cx="950.47" cy="368.82" r="65.43" gradientTransform="matrix(0, 0.34, -0.89, -0.01, 807.88, 497.92)" xlink:href="#radial-gradient"/><radialGradient id="radial-gradient-5" cx="1831.96" cy="89.67" r="65.43" gradientTransform="matrix(0, 0.26, -0.89, -0.01, 808.47, 395.33)" xlink:href="#radial-gradient"/><radialGradient id="radial-gradient-6" cx="412.2" cy="428.8" r="75.1" gradientTransform="translate(-28.7 -52.7)" xlink:href="#radial-gradient"/></defs><path d="M730.5,7H76.1A69,69,0,0,0,7,76V695.5a68.8,68.8,0,0,0,19.3,47.9c11.4,11.9,22.9,23.7,34.3,35.6,11.8,12.2,23.5,24.4,35.3,36.7l57.4,59.5A69.15,69.15,0,0,0,203,896.3H857.4a69,69,0,0,0,69.1-69V207.9A68.8,68.8,0,0,0,907.2,160L780.3,28.1A69.31,69.31,0,0,0,730.5,7Z" transform="translate(0 0)" stroke="#85878a" stroke-miterlimit="10" stroke-width="14" fill="url(#linear-gradient)"/><path d="M7,667.9V52A45,45,0,0,1,52,7H706.8a53,53,0,0,1,53,53V659.2a64.1,64.1,0,0,1-64.1,64.1H62.4A55.4,55.4,0,0,1,7,667.9Z" transform="translate(0 0)" fill="none" stroke="#85878a" stroke-miterlimit="10" stroke-width="10"/><ellipse cx="814.3" cy="201.7" rx="21.3" ry="74.8" fill="url(#radial-gradient)"/><path d="M60.1,15.5H705.3a44.9,44.9,0,0,1,44.9,44.9h0V669.9a44.9,44.9,0,0,1-44.9,44.9H60.1a44.9,44.9,0,0,1-44.9-44.9h0V60.4A44.9,44.9,0,0,1,60.1,15.5Z" transform="translate(0 0)" stroke="#85878a" stroke-miterlimit="10" stroke-width="10" fill="url(#linear-gradient-2)"/><path d="M19.7,360.2,39.7,62A23.23,23.23,0,0,1,62.3,40.3L703.1,20.4H57.6A37.86,37.86,0,0,0,19.7,58.2Z" transform="translate(0 0)" fill="#fffbfd"/><path d="M34.3,693.1c12,12.6,38,16,38,16,.5.3-18.7,0-18.7,0a33.4,33.4,0,0,1-33.4-33.4h0v-24C20.2,651.1,27.4,685.7,34.3,693.1Z" transform="translate(0 0)" fill="#fffbfd"/><path d="M744.3,86.4,727.6,635.3a291.42,291.42,0,0,1-12.4,72.9h0c22.9-5.3,29.7-23.9,29.5-37.2Z" transform="translate(0 0)" fill="#fffbfd"/><path d="M159.9,714.9S-5,703.9,51.5,769.2" transform="translate(0 0)" fill="none" stroke="#85878a" stroke-miterlimit="10" stroke-width="10"/><path d="M20.2,810.9" transform="translate(0 0)" fill="none" stroke="#c2b59b" stroke-miterlimit="10" stroke-width="14"/><path d="M54.2,723.3,718.8,722a68,68,0,0,1,46.9,18.7L906.9,875.6" transform="translate(0 0)" fill="none" stroke="#85878a" stroke-miterlimit="10" stroke-width="14"/><path d="M759.9,660.8v48.9a47.55,47.55,0,0,0,7,24.9l9.9,14.5" transform="translate(0 0)" fill="none" stroke="#85878a" stroke-miterlimit="10" stroke-width="10"/><path d="M759.9,86.4" transform="translate(0 0)" stroke="#c2b59b" stroke-miterlimit="10" stroke-width="14" fill="url(#linear-gradient-3)"/><path d="M757.5,67.1s-2.3-58.8,37.4-23.8" transform="translate(0 0)" fill="none" stroke="#85878a" stroke-miterlimit="10" stroke-width="14"/><path d="M843.2,17.7" transform="translate(0 0)" fill="none" stroke="#c2b59b" stroke-miterlimit="10" stroke-width="14"/><ellipse cx="879.7" cy="704.9" rx="18.7" ry="66.9" fill="url(#radial-gradient-2)"/><path d="M273.4,771.4c.1,11.8-33.4,21.5-74.6,21.7S124,784,123.9,772.2s33.4-21.5,74.6-21.7S273.4,759.6,273.4,771.4Z" transform="translate(0 0)" fill="url(#radial-gradient-3)"/><path d="M547.4,817.9c-.1,10.3-30.1,18.5-67,18.3s-66.9-8.8-66.8-19.1,30.1-18.5,67-18.3S547.5,807.6,547.4,817.9Z" transform="translate(0 0)" fill="url(#radial-gradient-4)"/><path d="M796.9,862c0,7.7-30,13.8-67,13.6s-66.9-6.7-66.8-14.4,30-13.8,67-13.6S797,854.3,796.9,862Z" transform="translate(0 0)" fill="url(#radial-gradient-5)"/><circle cx="383.5" cy="376.1" r="75.1" fill="url(#radial-gradient-6)"/></svg>