<svg id="Layer_1" data-name="Layer 1" xmlns="http://www.w3.org/2000/svg" xmlns:xlink="http://www.w3.org/1999/xlink" viewBox="0 0 933.5 903.3"><defs><style>.cls-1,.cls-2,.cls-4,.cls-9{stroke:#85878a;}.cls-1,.cls-10,.cls-2,.cls-4,.cls-8,.cls-9{stroke-miterlimit:10;}.cls-1,.cls-10,.cls-8,.cls-9{stroke-width:14px;}.cls-1{fill:url(#linear-gradient);}.cls-2,.cls-8,.cls-9{fill:none;}.cls-2,.cls-4{stroke-width:10px;}.cls-3{fill:url(#radial-gradient);}.cls-4{fill:url(#linear-gradient-2);}.cls-5{fill:url(#radial-gradient-2);}.cls-6{fill:url(#radial-gradient-3);}.cls-7{fill:#fffbfd;}.cls-10,.cls-8{stroke:#c2b59b;}.cls-10{fill:url(#linear-gradient-3);}.cls-11{fill:url(#radial-gradient-4);}.cls-12{fill:url(#radial-gradient-5);}.cls-13{fill:url(#radial-gradient-6);}.cls-14{fill:url(#radial-gradient-7);}.cls-15{fill:url(#radial-gradient-8);}.cls-16{fill:url(#radial-gradient-9);}.cls-17{fill:url(#radial-gradient-10);}.cls-18{fill:url(#radial-gradient-11);}.cls-19{fill:url(#radial-gradient-12);}</style><linearGradient id="linear-gradient" x1="35.7" y1="495.65" x2="955.2" y2="495.65" gradientTransform="matrix(1, 0, 0, -1, 0, 1000)" gradientUnits="userSpaceOnUse"><stop offset="0.01" stop-color="#f6e8d7"/><stop offset="1" stop-color="#d8cdbb"/></linearGradient><radialGradient id="radial-gradient" cx="871.94" cy="713" r="65.46" gradientTransform="matrix(0.39, 0, 0, -1, 473.06, 947.3)" gradientUnits="userSpaceOnUse"><stop offset="0" stop-color="#5c5e5e"/><stop offset="0.25" stop-color="#575959"/><stop offset="0.54" stop-color="#494b4b"/><stop offset="0.86" stop-color="#323333"/><stop offset="1" stop-color="#262626"/></radialGradient><linearGradient id="linear-gradient-2" x1="411.4" y1="931.8" x2="411.4" y2="232.5" gradientTransform="matrix(1, 0, 0, -1, 0, 1000)" gradientUnits="userSpaceOnUse"><stop offset="0.01" stop-color="#f6e8d7"/><stop offset="0.46" stop-color="#f3e6d5"/><stop offset="0.7" stop-color="#ece0cf"/><stop offset="0.9" stop-color="#e2d7c6"/><stop offset="1" stop-color="#dcd1bf"/></linearGradient><radialGradient id="radial-gradient-2" cx="589.4" cy="389.2" r="75.1" gradientTransform="matrix(1, 0, 0, -1, -28.7, 947.3)" xlink:href="#radial-gradient"/><radialGradient id="radial-gradient-3" cx="225.6" cy="745.6" r="75.1" gradientTransform="matrix(1, 0, 0, -1, -28.7, 947.3)" xlink:href="#radial-gradient"/><linearGradient id="linear-gradient-3" x1="788.6" y1="860.9" x2="788.6" y2="860.9" xlink:href="#linear-gradient"/><radialGradient id="radial-gradient-4" cx="871.94" cy="343.1" r="65.46" xlink:href="#radial-gradient"/><radialGradient id="radial-gradient-5" cx="990.71" cy="301.2" r="65.36" gradientTransform="matrix(0.34, 0, 0, -0.89, 548.14, 923.49)" xlink:href="#radial-gradient"/><radialGradient id="radial-gradient-6" cx="992.9" cy="708.49" r="65.42" gradientTransform="matrix(0.34, 0, 0, -0.89, 548.14, 923.49)" xlink:href="#radial-gradient"/><radialGradient id="radial-gradient-7" cx="809.21" cy="634.36" r="65.41" gradientTransform="matrix(0, 0.39, 1, -0.01, -2.9, 507.85)" xlink:href="#radial-gradient"/><radialGradient id="radial-gradient-8" cx="803.7" cy="264.42" r="65.39" gradientTransform="matrix(0, 0.39, 1, -0.01, -2.9, 507.85)" xlink:href="#radial-gradient"/><radialGradient id="radial-gradient-9" cx="857.02" cy="334.32" r="65.42" gradientTransform="matrix(0, 0.34, 0.89, 0.01, 20.41, 577.21)" xlink:href="#radial-gradient"/><radialGradient id="radial-gradient-10" cx="850.77" cy="741.6" r="65.42" gradientTransform="matrix(0, 0.34, 0.89, 0.01, 20.41, 577.21)" xlink:href="#radial-gradient"/><radialGradient id="radial-gradient-11" cx="1694.38" cy="804.92" r="65.37" gradientTransform="matrix(0, 0.26, 0.89, 0.01, 21, 477.18)" xlink:href="#radial-gradient"/><radialGradient id="radial-gradient-12" cx="1702.75" cy="396.42" r="65.38" gradientTransform="matrix(0, 0.26, 0.89, 0.01, 21, 477.18)" xlink:href="#radial-gradient"/></defs><path class="cls-1" d="M759.2,59.7H104.8a69.05,69.05,0,0,0-69.1,69.1V748.2A68.82,68.82,0,0,0,55,796.1c11.4,11.9,22.9,23.7,34.3,35.6,11.8,12.2,23.5,24.4,35.3,36.7L182,927.9A69.14,69.14,0,0,0,231.7,949H886.1a69.05,69.05,0,0,0,69.1-69.1V260.6a68.82,68.82,0,0,0-19.3-47.9L809,80.8A69.29,69.29,0,0,0,759.2,59.7Z" transform="translate(-28.7 -52.7)"/><path class="cls-2" d="M35.7,720.6V104.7a45,45,0,0,1,45-45H735.5a53,53,0,0,1,53,53V711.9A64.1,64.1,0,0,1,724.4,776H91.1A55.4,55.4,0,0,1,35.7,720.6Z" transform="translate(-28.7 -52.7)"/><ellipse class="cls-3" cx="814.3" cy="234.3" rx="21.3" ry="74.8"/><path class="cls-4" d="M88.8,68.2H734a44.9,44.9,0,0,1,44.9,44.9V722.6A44.9,44.9,0,0,1,734,767.5H88.8a44.9,44.9,0,0,1-44.9-44.9V113.1A44.9,44.9,0,0,1,88.8,68.2Z" transform="translate(-28.7 -52.7)"/><circle class="cls-5" cx="560.7" cy="558.1" r="75.1"/><circle class="cls-6" cx="196.9" cy="201.7" r="75.1"/><path class="cls-7" d="M48.4,412.9l20-298.2A23.24,23.24,0,0,1,91,93L731.8,73.1H86.3a37.86,37.86,0,0,0-37.9,37.8v302Z" transform="translate(-28.7 -52.7)"/><path class="cls-7" d="M63,745.8c12,12.6,38,16,38,16,.5.3-18.7,0-18.7,0a33.4,33.4,0,0,1-33.4-33.4v-24C48.9,703.8,56.1,738.4,63,745.8Z" transform="translate(-28.7 -52.7)"/><path class="cls-7" d="M773,139.1,756.3,688a291.42,291.42,0,0,1-12.4,72.9h0c22.9-5.3,29.7-23.9,29.5-37.2Z" transform="translate(-28.7 -52.7)"/><path class="cls-2" d="M188.6,767.6s-164.9-11-108.4,54.3" transform="translate(-28.7 -52.7)"/><path class="cls-8" d="M48.9,863.6" transform="translate(-28.7 -52.7)"/><path class="cls-9" d="M82.9,776l664.6-1.3a68,68,0,0,1,46.9,18.7L935.6,928.3" transform="translate(-28.7 -52.7)"/><path class="cls-2" d="M788.6,713.5v48.9a47.55,47.55,0,0,0,7,24.9l9.9,14.5" transform="translate(-28.7 -52.7)"/><path class="cls-10" d="M788.6,139.1" transform="translate(-28.7 -52.7)"/><path class="cls-9" d="M786.2,119.8S783.9,61,823.6,96" transform="translate(-28.7 -52.7)"/><path class="cls-8" d="M871.9,70.4" transform="translate(-28.7 -52.7)"/><ellipse class="cls-11" cx="814.3" cy="604.2" rx="21.3" ry="74.8"/><ellipse class="cls-12" cx="888.1" cy="654" rx="18.7" ry="66.9"/><ellipse class="cls-13" cx="888.9" cy="289.6" rx="18.7" ry="66.9"/><path class="cls-14" d="M708.1,820.4c.1,11.8-33.4,21.5-74.7,21.7s-74.8-9.1-74.9-20.9,33.4-21.5,74.7-21.7S708,808.6,708.1,820.4Z" transform="translate(-28.7 -52.7)"/><path class="cls-15" d="M338.1,820.4c.1,11.8-33.4,21.5-74.6,21.7s-74.8-9.1-74.9-20.9,33.4-21.5,74.6-21.7S338.1,808.6,338.1,820.4Z" transform="translate(-28.7 -52.7)"/><path class="cls-16" d="M384.7,873.5c-.1,10.3-30.1,18.5-67,18.3s-66.9-8.8-66.8-19.1,30.1-18.5,67-18.3S384.8,863.2,384.7,873.5Z" transform="translate(-28.7 -52.7)"/><path class="cls-17" d="M749.1,873.5c-.1,10.3-30.1,18.5-67,18.3s-66.9-8.8-66.8-19.1,30.1-18.5,67-18.3S749.2,863.2,749.1,873.5Z" transform="translate(-28.7 -52.7)"/><path class="cls-18" d="M805.5,917.2c0,7.7-30,13.8-67,13.6s-66.9-6.7-66.8-14.4,30-13.8,67-13.6S805.5,909.4,805.5,917.2Z" transform="translate(-28.7 -52.7)"/><path class="cls-19" d="M440,917.2c0,7.7-30,13.8-67,13.6s-66.9-6.7-66.8-14.4,30-13.8,67-13.6S440,909.4,440,917.2Z" transform="translate(-28.7 -52.7)"/></svg>