<svg id="Layer_1" data-name="Layer 1" xmlns="http://www.w3.org/2000/svg" viewBox="0 0 722.9 822.54"><defs><style>.cls-1{fill:#f1dca7;}.cls-2{fill:#e2cd96;}.cls-3{fill:#e2cd95;}.cls-4{fill:#f0deaf;}.cls-5{fill:#f8efd9;}.cls-6{fill:#f7edd4;}.cls-7{fill:#e1cd95;}.cls-8{fill:#d58572;}.cls-9{fill:#fff0ca;}.cls-10{fill:#fff0cb;}.cls-11{fill:#fff1cd;}.cls-12{fill:#f0dfb2;}.cls-13{fill:#f0dba7;}.cls-14{fill:#252320;}.cls-15{fill:#262421;}.cls-16{fill:#7f7767;}.cls-17{fill:#857d6c;}.cls-18{fill:#b38162;}.cls-19{fill:#caa47c;}</style></defs><path class="cls-1" d="M567.62,446.54c0-.63-.1-1.26-.14-1.9l-.87-5.09c0-2.34,0-4.69,0-7,1.45-2.56,2.19-5-.77-7.11-.72-7.22-1.72-14.42-2.09-21.65-.67-13,3.63-24.36,11.73-34.45,1.12-1.41,2.3-3.68,2-5.21-2.29-9.8,2.14-17.18,8.32-23.8,2.55-2.72,3.15-4.47,1.06-8-4.43-7.43-2.6-16.46,3.44-22.91,2.18-2.33,3.76-5.22,5.62-7.85,1.24,2.37,2.36,4.82,3.74,7.11,1.86,3.09,3.6,6.36,6,8.95.92,1,3.61.28,5.5.35a28.48,28.48,0,0,0-1.39-4.74c-1.64-3.41-4.32-6.52-5.14-10.08-2.35-10.13-4.14-20.39-5.86-30.65-2.35-14-4-28.14-6.75-42.06-2.78-14.08-9-27.52-7.38-42.38.1-.82-.72-1.74-1.11-2.61,4.94-8.45,15.48-10.26,25.22-4,10.6,6.77,18.3,16.52,24.61,27C646,229.49,657.9,251,670,272.41c1.3,2.29,2.32,3.68,5.35,2.57,6.83-2.49,13.44-1.38,19.61,2.27,2.55,1.5,4.57,1.52,7.27-.2,5.39-3.44,11.44-3.51,17.17-.84,2.82,1.31,4.27.58,6.47-1.18,10.06-8,21.17-13,34.49-10.41a28.16,28.16,0,0,1,16,9.39c2.05,2.31,3.59,2.84,6.71,1.16,10.57-5.69,20.46-4,29.17,4.29,6.71-4.23,13.61-3.25,20.71-1.72,2.57.55,5.93.68,8-.54,7.13-4.12,14.67-5.05,22.6-4.49-.4,1.42-1.15,2.85-1.11,4.26a24.68,24.68,0,0,0,1.21,5.1c1.47-.86,3.49-1.36,4.33-2.63,5.67-8.56,10.63-17.62,16.68-25.89,12.73-17.43,25.89-34.63,45.56-45,8.9-4.7,17.81-9.67,28.31-9.9,5.78,4.1,4.07,10,3.54,15.5a14.44,14.44,0,0,1-1.95,5.1c-12.79,24.4-18.36,51.19-25.6,77.43-.79,2.88-1.13,5.89-2,8.73-3.43,11,.94,21.94.43,32.92-.06,1.46.55,3,.49,4.43-.42,11.28-1,22.56-1.34,33.85a8.81,8.81,0,0,0,1.31,4.6c3.72,6.15,5.07,12.76,5.34,19.93.19,5,2,9.93,3.06,14.9.24,1.12.85,2.47.48,3.39-2.72,6.74-.31,12.63,1.94,19,2.69,7.64,1.68,15.69-.81,23.5a19,19,0,0,0-.61,7.79,79.59,79.59,0,0,1-5,40c-.48,1.22-.89,3-.34,4,5.61,9.85,4.64,20.12,2.24,30.5-.56,2.43-1.26,4.83-2.05,7.19-1.28,3.84-.18,7.14,1,10.93a76.9,76.9,0,0,1,3.62,20.79c.13,5.78,1.84,10.74,5.3,14.55,8.45,9.3,8,19.28,4.31,30.16a16.46,16.46,0,0,0-.4,8.53c2.17,9.61.79,18.4-4.67,26.6-4,6-4.42,12.51-3.94,19.53.4,6-.4,12.14-1,18.19-.59,6.24-.83,12.64-2.48,18.62-3,10.85,2.91,21.14,1.19,31.81-.15.95,1,2.51,1.9,3.16,8.05,5.52,11.29,13.84,12.76,22.85.81,5-.17,10.22.38,15.26.6,5.44,2.58,10.75,3,16.19.49,6.55,0,13.18-.17,19.77-.09,3-1.2,6-.81,8.84,1.71,12.3-1.8,24-3.27,36a64.22,64.22,0,0,0,1.94,23.42c2.81,10.81,3.45,21.15-.17,31.77a16.24,16.24,0,0,0-.4,7.12c1.08,8.18,3.23,16.3,3.4,24.48.09,4.57-2.89,9.22-4.58,13.8-.55,1.49-2.11,2.94-2,4.3a40.79,40.79,0,0,1-4.07,22.23H239.91q0-67.66,0-135.33c0-6.52.54-7,6.84-5.84a8.93,8.93,0,0,1,2,.24c6,2.59,11.55,2.35,18,.41a18.77,18.77,0,0,1,19.66,5.59c1.93,2.1,3.56,1.9,5.54.31,6.79-5.44,14.61-7.46,23.23-7.51a16.83,16.83,0,0,0,8.12-2.5,35.78,35.78,0,0,1,25.84-4.76,20.51,20.51,0,0,0,7.37,0c8.3-1.54,15.76-.61,22.24,5.51,1.23,1.15,4.08,1.13,6,.83,4.68-.71,9.3-2.79,13.92-2.74a82.57,82.57,0,0,0,31.6-5.33c8-3.13,16.49-4.73,25.28-2.23,1.73.5,4.18-.61,6-1.54,10.87-5.57,21.87-7,33.63-2.66,3.24,1.21,7.24.3,10.87.57,4.78.34,9.57,1.43,14.3,1.19,3.81-.2,7.5-2.39,11.34-2.83,5.59-.62,4.86-4.78,6.29-8.42,3.07-7.81,7.38-15.13,11-22.72,1.16-2.44,2.43-5.09,2.58-7.71.5-8.89-.45-17.85,3.75-26.33,1.2-2.43.51-5.91.33-8.88-.62-10.68,1.7-20.47,8.23-29.09,2.56-3.31-.15-5.18-2-7.28,0-1.9,0-3.8,0-5.7,2.53-1.47,2.58-2.89-.09-4.24-.45-1.26-.9-2.52-1.34-3.78l-.9-2.12,0-6c.78-2.33,3.9-4.57.31-7.1l-3.06-8.87v-4c1.84-4,3.85-7.93,5.47-12a68.61,68.61,0,0,0,2.37-8.42c.16-.63-.2-1.49.11-2,7.84-12.35-.71-24-1.4-36,0-.48-.49-1-.36-1.43,2.66-8.17-2.64-14.63-4.69-21.77-3.8-13.23-.77-25.61,4.63-37.67,2.17-4.84,4-9.06,1.15-14.83-3.43-6.87-1-14.35,3.18-20.27,6.63-9.31,5.52-19.5,3.41-29.16-2.43-11.11-2.5-21.23,3.39-31.16,2.47-4.17,2.11-8.35-.22-12.74-2.23-4.2-3.64-8.83-5.41-13.27C568.19,448,567.9,447.25,567.62,446.54Zm328,4.69h0c0-10.49.46-21-.13-31.46-.56-9.81-.29-19.85-4.92-29.09-2.07-4.12-4.7-5.15-9-3.71A54.37,54.37,0,0,1,869,389.45c-4.1.37-8.06-.07-11.66,3-1.77,1.52-4.9,1.54-7.45,2.06-1.61.33-3.41,0-4.9.54-5.8,2.18-11.43,4.84-17.28,6.84-3.07,1.06-6.47,1.2-9.74,1.61-3.83.49-7.69.69-11.51,1.27-2.11.32-4.12,1.62-6.2,1.67a162.67,162.67,0,0,0-36.75,5.09c-12.49,3.21-24.61-1.75-37-1.61a7.21,7.21,0,0,1-4.24-1.21c-3.56-2.73-7.35-2.29-11.56-2.48-7.78-.34-15.92-1.37-23.07-4.23a69.89,69.89,0,0,0-18-4.63c-5.87-.69-11.82-1.85-16.32-6.51-.83-.86-2.73-1.14-4.05-1-10.51,1.32-20.8.71-30.65-3.44-3.4-1.43-5.41-.34-5.78,2.9-1.21,10.68-3,21.39-2.94,32.08q.18,38.61,2,77.19a236.82,236.82,0,0,0,4.5,34.86c4.34,22,10,43.56,19.39,64.08,10,21.84,23.82,40.9,42.15,56.13,19.25,16,41.24,27.2,66.53,30.41,6,.76,12.43,1.74,18.21.51a216.19,216.19,0,0,0,29.81-9.13c22.93-8.5,41.13-23.89,56.41-42.33,13.63-16.45,23-35.67,29.92-55.95,11.19-32.58,15.45-66.3,16.74-100.5C895.86,468.23,895.59,459.73,895.59,451.23ZM606.38,200.72c-8.46.08-12.78,6.17-11.18,13.3q7.8,34.92,15.94,69.76c1.8,7.72,7.07,10.16,14.15,6.89,4.53-2.09,9.31-3.9,13.34-6.74,4.39-3.09,8.13-7.14,12-10.95,2.1-2.08,2.2-4.49.71-7.26-7.93-14.78-15.45-29.79-23.7-44.39a68.2,68.2,0,0,0-11.79-14.66C612.8,203.69,608.49,202,606.38,200.72ZM941.57,232c.15-12.59-6.23-16.52-14.13-12.16a31.63,31.63,0,0,0-4.89,3.43c-14.9,12.48-27.21,27.32-38.56,43-4.66,6.43-4.35,12.48,1.45,18.47a91.79,91.79,0,0,0,15,12.23c9.62,6.47,14.41,3.82,19.22-6.62a15.27,15.27,0,0,0,1.59-5.74c.38-13.36,6.78-24.41,12.94-35.69C937.62,242.57,940,235.66,941.57,232Zm-1.09,376.33c.11-7.45-2.24-11.86-7.05-12.63-1.38-.22-3,.76-4.45,1.2.7,1.27,1.1,3.22,2.16,3.68,3.84,1.69,4.29,5,4,8.25a20.21,20.21,0,0,1-2.79,7.88c-1.82,3.2-1.89,5.46.95,8.27,1.38,1.38,1.8,4.4,1.55,6.54s-2.26,4.06-2.83,6.24c-.64,2.42-5.61,3.73-2.1,6.8.48.42,4.91-2.29,6.11-4.36,2.3-4,6-9.46,4.78-12.71-2.1-5.66-3-10.32-.4-15.71C940.87,610.83,940.48,609.48,940.48,608.32Zm8.09,340.53.89-.39a62.38,62.38,0,0,0-3.72-8.18c-.43-.7-2.72-.65-3.94-.26-.48.15-.94,2.67-.43,3.25,3,3.43,2.08,7.06,1.09,10.79-.37,1.42-1.3,3.3-.75,4.26,2.67,4.64,1,8.39-1.59,12.26-.42.61.3,2,.48,3,.88-.19,2-.09,2.6-.6,3.25-2.71,5.79-5.74,5.44-10.51C948.32,958,948.57,953.4,948.57,948.85Z" transform="translate(-239.91 -177.71)"/><path class="cls-2" d="M583.54,185.45c.39.87,1.21,1.79,1.11,2.61-1.66,14.86,4.6,28.3,7.38,42.38,2.75,13.92,4.4,28.05,6.75,42.06,1.72,10.26,3.51,20.52,5.86,30.65.82,3.56,3.5,6.67,5.14,10.08a28.48,28.48,0,0,1,1.39,4.74c-1.89-.07-4.58.63-5.5-.35-2.42-2.59-4.16-5.86-6-8.95-1.38-2.29-2.5-4.74-3.74-7.11-1.66-12.26-3.18-24.53-5-36.76-1.9-12.61-3.83-25.22-6.29-37.72-1.65-8.45-4.77-16.62-6.23-25.08C577.34,196,577.74,189.68,583.54,185.45Z" transform="translate(-239.91 -177.71)"/><path class="cls-3" d="M958.62,198.63c-10.5.23-19.41,5.2-28.31,9.9-19.67,10.39-32.83,27.59-45.56,45-6,8.27-11,17.33-16.68,25.89-.84,1.27-2.86,1.77-4.33,2.63a24.68,24.68,0,0,1-1.21-5.1c0-1.41.71-2.84,1.11-4.26q2.08-3.51,4.15-7l1.7-2.24a2.4,2.4,0,0,1,.22-.78l1.73-2.26a2.59,2.59,0,0,1,.21-.77,19.29,19.29,0,0,0,2.84-2.47c6.77-8.72,13.43-17.52,20.23-26.22,3.52-4.5,7.26-8.83,10.9-13.24,11.72-10.69,24.82-19.09,40.19-23.47C951.54,192.6,956.12,194.46,958.62,198.63Z" transform="translate(-239.91 -177.71)"/><path class="cls-4" d="M905.62,217.71c-3.64,4.41-7.38,8.74-10.9,13.24-6.8,8.7-13.46,17.5-20.23,26.22a19.29,19.29,0,0,1-2.84,2.47c5.45-8.25,10.58-16.74,16.46-24.68,3.93-5.29,8.87-9.84,13.49-14.6A21.2,21.2,0,0,1,905.62,217.71Z" transform="translate(-239.91 -177.71)"/><path class="cls-5" d="M565.88,425.41c3,2.08,2.22,4.55.77,7.11Q566.26,429,565.88,425.41Z" transform="translate(-239.91 -177.71)"/><path class="cls-6" d="M559.9,702.28c3.59,2.53.47,4.77-.31,7.1Q559.74,705.84,559.9,702.28Z" transform="translate(-239.91 -177.71)"/><path class="cls-6" d="M561.94,731.24c1.83,2.1,4.54,4,2,7.28Z" transform="translate(-239.91 -177.71)"/><path class="cls-5" d="M566.61,439.55l.87,5.09Z" transform="translate(-239.91 -177.71)"/><path class="cls-6" d="M556.84,689.4v0Z" transform="translate(-239.91 -177.71)"/><path class="cls-6" d="M561.86,721.3c2.67,1.35,2.62,2.77.09,4.24Z" transform="translate(-239.91 -177.71)"/><path class="cls-4" d="M871.44,260.41l-1.73,2.26Z" transform="translate(-239.91 -177.71)"/><path class="cls-4" d="M869.49,263.45l-1.7,2.24Z" transform="translate(-239.91 -177.71)"/><path class="cls-5" d="M567.62,446.54c.28.71.57,1.41.85,2.11C568.18,448,567.9,447.25,567.62,446.54Z" transform="translate(-239.91 -177.71)"/><path class="cls-6" d="M559.62,715.4l.9,2.12Z" transform="translate(-239.91 -177.71)"/><path class="cls-7" d="M895.59,451.23c0,8.5.27,17-.05,25.48-1.29,34.2-5.55,67.92-16.74,100.5-7,20.28-16.29,39.5-29.92,55.95C833.6,651.6,815.4,667,792.47,675.49a216.19,216.19,0,0,1-29.81,9.13c-5.78,1.23-12.19.25-18.21-.51-25.29-3.21-47.28-14.41-66.53-30.41-18.33-15.23-32.14-34.29-42.15-56.13-9.39-20.52-15-42.12-19.39-64.08a236.82,236.82,0,0,1-4.5-34.86q-1.78-38.56-2-77.19c0-10.69,1.73-21.4,2.94-32.08.37-3.24,2.38-4.33,5.78-2.9,9.85,4.15,20.14,4.76,30.65,3.44,1.32-.17,3.22.11,4.05,1,4.5,4.66,10.45,5.82,16.32,6.51a69.89,69.89,0,0,1,18,4.63c7.15,2.86,15.29,3.89,23.07,4.23,4.21.19,8-.25,11.56,2.48a7.21,7.21,0,0,0,4.24,1.21c12.35-.14,24.47,4.82,37,1.61a162.67,162.67,0,0,1,36.75-5.09c2.08-.05,4.09-1.35,6.2-1.67,3.82-.58,7.68-.78,11.51-1.27,3.27-.41,6.67-.55,9.74-1.61,5.85-2,11.48-4.66,17.28-6.84,1.49-.56,3.29-.21,4.9-.54,2.55-.52,5.68-.54,7.45-2.06,3.6-3.08,7.56-2.64,11.66-3A54.37,54.37,0,0,0,881.51,387c4.31-1.44,6.94-.41,9,3.71,4.63,9.24,4.36,19.28,4.92,29.09.59,10.45.13,21,.13,31.46Zm-276.87-8.7v13c.32,9,.42,17.93,1,26.87.77,11.21,1.44,22.46,3.09,33.55,3.65,24.63,8.92,48.86,18.76,71.95,8.51,20,20,38,35.44,53.14a121,121,0,0,0,46.75,28.76c15.88,5.28,31.83,9.52,49,4,20.44-6.59,38.74-16.51,54.65-30.77,26.4-23.67,40.12-54.64,48.92-88,7.94-30.1,10-61.11,10.89-92.06.57-20-1.06-40.13-1.82-60.2a75.31,75.31,0,0,0-1.4-8.9c-9.53,4.27-20.68.68-29.27,7.48-.11.1-.32.08-.48.12-7.1,2-14.29,3.73-21.28,6.07-6.2,2.07-12.23,4.19-18.91,2.44-1-.26-2.2.36-3.31.55-5.83,1-11.65,2.09-17.49,3-2.12.34-4.33.11-6.42.51-7.43,1.43-14.91,2.68-22.21,4.62-12.48,3.32-24.5-1.41-36.77-1.74-7.49-.2-14.47-5.08-22.55-3.55-2,.39-4.42-1.15-6.65-1.75-1.43-.38-2.91-.55-4.32-1-4.52-1.38-9-2.82-13.51-4.29-1.4-.46-2.78-1.68-4.1-1.59-14.38,1-26.63-9.28-41.11-7.67a16.36,16.36,0,0,1-2.93-.47c-13.07-1-13.07-1-13,12.49,0,.5,0,1,0,1.49l-.05,2Z" transform="translate(-239.91 -177.71)"/><path class="cls-8" d="M606.38,200.72c2.11,1.29,6.42,3,9.45,5.95a68.2,68.2,0,0,1,11.79,14.66c8.25,14.6,15.77,29.61,23.7,44.39,1.49,2.77,1.39,5.18-.71,7.26-3.85,3.81-7.59,7.86-12,10.95-4,2.84-8.81,4.65-13.34,6.74-7.08,3.27-12.35.83-14.15-6.89Q603,248.94,595.2,214C593.6,206.89,597.92,200.8,606.38,200.72Z" transform="translate(-239.91 -177.71)"/><path class="cls-8" d="M941.57,232c-1.58,3.67-4,10.58-7.41,16.9-6.16,11.28-12.56,22.33-12.94,35.69a15.27,15.27,0,0,1-1.59,5.74c-4.81,10.44-9.6,13.09-19.22,6.62a91.79,91.79,0,0,1-15-12.23c-5.8-6-6.11-12-1.45-18.47,11.35-15.66,23.66-30.5,38.56-43a31.63,31.63,0,0,1,4.89-3.43C935.34,215.47,941.72,219.4,941.57,232Z" transform="translate(-239.91 -177.71)"/><path class="cls-9" d="M940.48,608.32c0,1.16.39,2.51-.06,3.45-2.58,5.39-1.7,10.05.4,15.71,1.2,3.25-2.48,8.71-4.78,12.71-1.2,2.07-5.63,4.78-6.11,4.36-3.51-3.07,1.46-4.38,2.1-6.8.57-2.18,2.57-4.08,2.83-6.24s-.17-5.16-1.55-6.54c-2.84-2.81-2.77-5.07-.95-8.27a20.21,20.21,0,0,0,2.79-7.88c.28-3.21-.17-6.56-4-8.25-1.06-.46-1.46-2.41-2.16-3.68,1.49-.44,3.07-1.42,4.45-1.2C938.24,596.46,940.59,600.87,940.48,608.32Z" transform="translate(-239.91 -177.71)"/><path class="cls-10" d="M948.57,948.85c0,4.55-.25,9.12.07,13.65.35,4.77-2.19,7.8-5.44,10.51-.61.51-1.72.41-2.6.6-.18-1-.9-2.42-.48-3,2.63-3.87,4.26-7.62,1.59-12.26-.55-1,.38-2.84.75-4.26,1-3.73,1.9-7.36-1.09-10.79-.51-.58,0-3.1.43-3.25,1.22-.39,3.51-.44,3.94.26a62.38,62.38,0,0,1,3.72,8.18Z" transform="translate(-239.91 -177.71)"/><path class="cls-11" d="M619.73,410.54c0-.5,0-1,0-1.49,0-13.45,0-13.46,13-12.49a16.36,16.36,0,0,0,2.93.47c14.48-1.61,26.73,8.69,41.11,7.67,1.32-.09,2.7,1.13,4.1,1.59,4.49,1.47,9,2.91,13.51,4.29,1.41.44,2.89.61,4.32,1,2.23.6,4.62,2.14,6.65,1.75,8.08-1.53,15.06,3.35,22.55,3.55,12.27.33,24.29,5.06,36.77,1.74,7.3-1.94,14.78-3.19,22.21-4.62,2.09-.4,4.3-.17,6.42-.51,5.84-.93,11.66-2,17.49-3,1.11-.19,2.32-.81,3.31-.55,6.68,1.75,12.71-.37,18.91-2.44,7-2.34,14.18-4.07,21.28-6.07.16,0,.37,0,.48-.12,8.59-6.8,19.74-3.21,29.27-7.48a75.31,75.31,0,0,1,1.4,8.9c.76,20.07,2.39,40.17,1.82,60.2-.89,31-2.95,62-10.89,92.06-8.8,33.39-22.52,64.36-48.92,88-15.91,14.26-34.21,24.18-54.65,30.77-17.2,5.55-33.15,1.31-49-4A121,121,0,0,1,677.05,641c-15.48-15.16-26.93-33.16-35.44-53.14-9.84-23.09-15.11-47.32-18.76-71.95-1.65-11.09-2.32-22.34-3.09-33.55-.61-8.94-.71-17.91-1-26.87q0-6.5,0-13l1-30C619.7,411.88,619.71,411.21,619.73,410.54Zm198.16,64,.66,18c.07.66.15,1.33.22,2,.65,6.17,7.27,13.6,13.86,15.54,5.57,1.64,13.27-1.21,17.37-6.75,8.93-12.07,5.67-25.77,4.62-39-.25-3.17-.94-5.08,2.57-7s7.53-4.08,5.86-10.33a60.83,60.83,0,0,0-6.78,2.59c-3.17,1.67-5.76,2.48-9.56.56-6.87-3.48-14.43-4.86-20.47,1.73-3.09,3.37-5.1,7.75-7.59,11.67,0,.67-.08,1.34-.11,2l-.52,3.61Zm-169.37-9.71-.57,3.74c0,1.65,0,3.31-.05,5,.18,5.48.26,11,.54,16.44.54,10.42,6.79,16.59,15.72,20.67a6.45,6.45,0,0,0,2.72.77c8.62-.33,17.6-6.61,18.44-14.89,1.07-10.54,1.73-21.51,0-31.87-2.63-15.7-16.23-21.31-29.08-14.66-2.92,1.51-5.94,2.1-9.12-.24-1.89-1.4-4.5-1.84-7.1-2.83-1.36,6.81,3.38,8.36,6.62,10.81,1.74,1.31,3.77,2.17,2.07,4.82C648.65,463.28,648.58,464,648.52,464.79Zm58,91.21c.49,5.67.93,15.12,2.19,24.46,2.69,20,8.16,39,21,55.08,15.23,19,34.13,19.88,50.88,2.12,10.06-10.66,15.06-24.37,18.7-38.12,5.22-19.72,6.38-39.9,4.58-60.45a146.23,146.23,0,0,0-10.82-44.72,86.47,86.47,0,0,0-16-24.36c-8.6-9.31-19.82-13.18-32.45-7.6-12.9,5.69-19.66,17-25.34,29C710.24,510.57,706.92,531.11,706.55,556Z" transform="translate(-239.91 -177.71)"/><path class="cls-12" d="M618.72,442.53q0,6.5,0,13Q618.73,449,618.72,442.53Z" transform="translate(-239.91 -177.71)"/><path class="cls-12" d="M619.73,410.54c0,.67,0,1.34-.05,2C619.69,411.88,619.71,411.21,619.73,410.54Z" transform="translate(-239.91 -177.71)"/><path class="cls-13" d="M706.55,556c.37-24.89,3.69-45.43,12.81-64.62,5.68-11.93,12.44-23.28,25.34-29,12.63-5.58,23.85-1.71,32.45,7.6a86.47,86.47,0,0,1,16,24.36A146.23,146.23,0,0,1,804,539.09c1.8,20.55.64,40.73-4.58,60.45-3.64,13.75-8.64,27.46-18.7,38.12-16.75,17.76-35.65,16.84-50.88-2.12-12.89-16-18.36-35.11-21-55.08C707.48,571.12,707,561.67,706.55,556Zm54.29-30c7.43-1.94,14-5.13,17.95-12.21,3.11-5.54.73-12.53-4.77-13.17-2.95-.34-6.6-1.06-8.86.25-6.77,3.89-13.21,3.55-20,.67a9,9,0,0,0-3.26-.94c-3.86-.09-7.56.44-10.06,3.93-2.28,3.2-1.32,6.08.59,9.11,4.7,7.49,11.75,11.26,20.07,13.16-.25,5-.67,9.94-.7,14.91-.08,15.75.09,31.51,0,47.27-.09,12.05-6.73,17.11-17.57,14.19-1.76-.47-4.13,1.37-6.22,2.13,1.11,1.8,1.8,4.34,3.41,5.26a17.51,17.51,0,0,0,20.65-2.94c1.62-1.57,3.11-3.27,4.69-4.94,7.79,10.21,15.57,10.43,23.77,7.39,1.77-.66,4-4.19,3.58-5.82-.76-3.18-3.78-2.84-6.57-1.6-4.57,2-9.14,1.77-11.92-2.69-2.17-3.49-4.35-7.65-4.52-11.6-.44-10.26.22-20.57.44-30.85l0-8q-.09-11-.16-21.92c-.07-.41-.15-.82-.22-1.23l0-.31Z" transform="translate(-239.91 -177.71)"/><path class="cls-14" d="M648.71,462.52c1.7-2.65-.33-3.51-2.07-4.82-3.24-2.45-8-4-6.62-10.81,2.6,1,5.21,1.43,7.1,2.83,3.18,2.34,6.2,1.75,9.12.24,12.85-6.65,26.45-1,29.08,14.66,1.73,10.36,1.07,21.33,0,31.87-.84,8.28-9.82,14.56-18.44,14.89a6.45,6.45,0,0,1-2.72-.77c-8.93-4.08-15.18-10.25-15.72-20.67-.28-5.48-.36-11-.54-16.44,0-1.66,0-3.32.05-5l.57-3.74C648.58,464,648.65,463.28,648.71,462.52Z" transform="translate(-239.91 -177.71)"/><path class="cls-15" d="M818.65,463.52c2.49-3.92,4.5-8.3,7.59-11.67,6-6.59,13.6-5.21,20.47-1.73,3.8,1.92,6.39,1.11,9.56-.56a60.83,60.83,0,0,1,6.78-2.59c1.67,6.25-2.49,8.52-5.86,10.33s-2.82,3.79-2.57,7c1,13.26,4.31,27-4.62,39-4.1,5.54-11.8,8.39-17.37,6.75-6.59-1.94-13.21-9.37-13.86-15.54-.08-.67-.15-1.34-.22-2l-.66-18,.13-5.36c.17-1.2.34-2.41.52-3.61C818.57,464.86,818.61,464.19,818.65,463.52Z" transform="translate(-239.91 -177.71)"/><path class="cls-16" d="M648,468.53c0,1.65,0,3.31-.05,5C647.92,471.84,647.94,470.18,648,468.53Z" transform="translate(-239.91 -177.71)"/><path class="cls-17" d="M818,469.14l-.13,5.36C817.93,472.71,818,470.93,818,469.14Z" transform="translate(-239.91 -177.71)"/><path class="cls-16" d="M648.71,462.52c-.06.76-.13,1.51-.19,2.27C648.58,464,648.65,463.28,648.71,462.52Z" transform="translate(-239.91 -177.71)"/><path class="cls-17" d="M818.65,463.52c0,.67-.08,1.34-.11,2C818.57,464.86,818.61,464.19,818.65,463.52Z" transform="translate(-239.91 -177.71)"/><path class="cls-17" d="M818.55,492.5c.07.66.14,1.33.22,2C818.7,493.83,818.62,493.16,818.55,492.5Z" transform="translate(-239.91 -177.71)"/><path class="cls-18" d="M761.39,527.57q.08,10.95.16,21.92l0,8c-.22,10.28-.88,20.59-.44,30.85.17,4,2.35,8.11,4.52,11.6,2.78,4.46,7.35,4.73,11.92,2.69,2.79-1.24,5.81-1.58,6.57,1.6.39,1.63-1.81,5.16-3.58,5.82-8.2,3-16,2.82-23.77-7.39-1.58,1.67-3.07,3.37-4.69,4.94a17.51,17.51,0,0,1-20.65,2.94c-1.61-.92-2.3-3.46-3.41-5.26,2.09-.76,4.46-2.6,6.22-2.13,10.84,2.92,17.48-2.14,17.57-14.19.12-15.76,0-31.52,0-47.27,0-5,.45-9.94.7-14.91l8.33-.8.3.08,0,.31c-.09.14-.26.31-.23.41A5.47,5.47,0,0,0,761.39,527.57Z" transform="translate(-239.91 -177.71)"/><path class="cls-15" d="M760.84,526l-8.33.8c-8.32-1.9-15.37-5.67-20.07-13.16-1.91-3-2.87-5.91-.59-9.11,2.5-3.49,6.2-4,10.06-3.93a9,9,0,0,1,3.26.94c6.78,2.88,13.22,3.22,20-.67,2.26-1.31,5.91-.59,8.86-.25,5.5.64,7.88,7.63,4.77,13.17C774.82,520.82,768.27,524,760.84,526Z" transform="translate(-239.91 -177.71)"/><path class="cls-19" d="M761.52,557.46l0-8Z" transform="translate(-239.91 -177.71)"/><path class="cls-19" d="M761.39,527.57a5.47,5.47,0,0,1-.45-.82c0-.1.14-.27.23-.41C761.24,526.75,761.32,527.16,761.39,527.57Z" transform="translate(-239.91 -177.71)"/></svg>