<svg id="ff44b669-82b0-41a1-b04d-dc62a2297adb" data-name="bronze" xmlns="http://www.w3.org/2000/svg" viewBox="0 0 148.88 171.19"><path id="fb7ddbf3-bdd3-49e9-9616-575e81dc6e2d" data-name="bronze handle r" d="M168.52,88.3l24.87-.25c3,0,5.46,1.55,5.53,3.5.55,14.64-1,70.19-55.5,70.62h0s1.64-5.69,4-5.77c14.58-.46,40.29-11.65,44.42-60,.09-1-1.19-1.92-2.8-1.92H167.92" transform="translate(-50.11 -77.04)" fill="#d1a66c"/><path id="f8103fac-dce4-4922-a20c-8b5276a9a165" data-name="bronze handle l" d="M80.59,87.69l-24.88-.25c-3,0-5.46,1.55-5.53,3.5-.55,14.64,1,70.19,55.5,70.62h0s-1.63-5.69-4-5.77c-14.59-.46-40.3-11.65-44.43-60-.09-1,1.2-1.92,2.8-1.92H81.18" transform="translate(-50.11 -77.04)" fill="#d1a66c"/><path id="b1e15ddc-4b15-411f-8c7b-1b7fdd1dcbdb" data-name="bronze base" d="M153,245.06V234.17a1.4,1.4,0,0,0-1.44-1.34H99.86a1.4,1.4,0,0,0-1.45,1.34v10.89h-1a1.45,1.45,0,0,0-1.51,1.39v.84a1,1,0,0,0,1,.94h57.78a.88.88,0,0,0,.91-.85v-.92a1.46,1.46,0,0,0-1.51-1.4Z" transform="translate(-50.11 -77.04)" fill="#58595b"/><path id="ac06ce76-8095-4dd9-94c6-8777d663b2e6" data-name="bronze shaft" d="M140.15,225.1v-8.91a.34.34,0,0,0-.08-.23c-.84-1.11-8.19-11.16-6.72-23.51,0,0,0,0,0-.07.2-.69,3.49-12.21.09-20.83a.4.4,0,0,0-.37-.25h-14.7a.41.41,0,0,0-.38.25c-3.4,8.62-.11,20.14.09,20.83,0,0,0,.05,0,.07,1.46,12.35-5.88,22.4-6.73,23.51a.4.4,0,0,0-.08.23v8.91a.4.4,0,0,1-.17.33l-9.7,6.68a.4.4,0,0,0,.23.72H149.8a.39.39,0,0,0,.22-.72l-9.7-6.68A.43.43,0,0,1,140.15,225.1Z" transform="translate(-50.11 -77.04)" fill="#e9b778"/><path id="f63d0c57-6be9-4f28-86b7-44bff03e8d41" data-name="bronze cup" d="M175.28,86.89H75.6s-1.19,75.29,42.5,80.51h14.68C176.47,162.18,175.28,86.89,175.28,86.89Z" transform="translate(-50.11 -77.04)" fill="#e9b778"/><path id="bd9c4f92-dcc1-44e4-b23c-8d4b2f16ab45" data-name="bronze shade 1" d="M75.82,86.89h99.8s1.14,74-42,80.8l-15.5-.29s44.11-17.53,44.53-75.65Z" transform="translate(-50.11 -77.04)" fill="#d9ab70"/><path id="a561a6d6-179e-4191-8ae1-2634df67195b" data-name="bronze band" d="M117.82,171.17v-3.48a.29.29,0,0,1,.28-.29h15.22a.28.28,0,0,1,.28.29l0,3.48a.27.27,0,0,1-.28.28H118.1A.28.28,0,0,1,117.82,171.17Z" transform="translate(-50.11 -77.04)" fill="#d3a76d"/><rect id="eadb2042-68d4-4e39-b697-018641ce14a2" data-name="bronze rim" x="22.23" width="106.75" height="9.85" rx="3.48" fill="#f3c98e"/><rect id="e06d23c9-673c-48b3-a665-af31fd284c3e" data-name="bronze shade 2" x="61.19" y="139.15" width="28.85" height="8.91" fill="#d9ab70"/><path id="a4512bf4-1685-448d-ae10-f21a56830164" data-name="bronze highlight 1" d="M83.15,86.89S78.71,132,97.42,149.67c0,0-13.36-31.39-8.54-62.78Z" transform="translate(-50.11 -77.04)" fill="#ffd294"/></svg>