<svg width="313" height="151" viewBox="0 0 313 151" fill="none" xmlns="http://www.w3.org/2000/svg">
<path d="M0.851562 139.774L42.0998 140.374H44.8896L53.0595 140.474H53.9562L68.5027 140.674H71.0932L106.563 141.174H107.459L122.404 141.374H124.995L159.767 141.874V81.6742C157.376 76.4742 151.298 74.3742 145.818 72.7742C142.032 71.6742 137.947 70.5742 134.062 70.5742C133.165 70.5742 132.368 70.5742 131.471 70.6742C129.678 70.8742 127.884 71.3742 126.19 72.2742C123.6 73.6742 121.508 75.8742 119.615 78.0742C118.419 79.5742 117.124 81.0742 116.028 82.5742C115.829 82.7742 115.629 83.0742 115.43 83.2742C109.153 91.7742 104.271 101.374 101.183 111.474C100.884 111.274 100.485 111.074 100.186 110.874C97.5957 109.374 95.0052 107.974 92.4147 106.574C92.1158 106.374 91.8169 106.274 91.5181 106.074C85.8389 103.274 80.0602 100.974 73.9825 99.3742C73.1854 99.1742 72.2887 98.9742 71.4917 98.7742C69.0008 98.2742 66.5101 97.8742 63.82 97.5742C63.1225 97.4742 62.3254 97.4742 61.628 97.4742C61.2295 97.4742 60.8309 97.4742 60.4324 97.4742C58.4397 97.5742 56.447 98.0742 55.0522 99.4742C53.6573 100.874 53.1591 102.874 52.9599 104.874C52.661 108.374 53.458 112.074 55.2514 115.174C53.8566 114.174 52.4617 113.274 50.9672 112.474C50.6683 112.274 50.3694 112.174 50.0705 111.974C44.1921 108.974 37.6163 107.474 31.0405 107.674C30.1438 107.674 29.2471 107.774 28.2508 107.874C26.7563 107.974 25.3614 108.274 23.8669 108.574C18.7856 109.674 13.4053 112.474 12.2097 117.574C12.1101 118.074 12.0105 118.674 12.0105 119.174C12.0105 119.474 12.0105 119.774 12.0105 120.074C12.2098 124.174 15.1988 128.074 17.9885 131.374C11.3131 131.174 4.73727 134.474 0.851562 139.774Z" fill="#76AAA4"/>
<path d="M126.987 105.274L122.304 141.574H124.895L127.784 119.174L155.283 104.074L154.885 103.374L127.884 118.174L133.962 70.5742C133.065 70.5742 132.268 70.5742 131.371 70.6742L127.087 103.674C123.699 96.4742 120.013 89.3742 115.928 82.5742C115.729 82.7742 115.529 83.0742 115.33 83.2742C119.614 90.3742 123.5 97.7742 126.987 105.274Z" fill="#5C9E9B"/>
<path d="M70.4946 110.474L68.4023 140.774H70.9928L72.4873 118.274L92.3144 106.674C92.0155 106.474 91.7165 106.374 91.4176 106.174L72.6865 117.174L73.8822 99.4742C73.0851 99.2742 72.1884 99.0742 71.3913 98.8742L70.6939 108.974C68.0038 104.874 64.9151 101.074 61.5276 97.5742C61.1291 97.5742 60.7306 97.5742 60.332 97.5742C64.1181 101.574 67.5056 105.874 70.4946 110.474Z" fill="#5C9E9B"/>
<path d="M49.8701 112.074C51.3646 121.474 52.3609 130.974 52.9587 140.474H53.8555C53.2577 131.174 52.2613 121.774 50.8665 112.574C50.5676 112.474 50.2687 112.274 49.8701 112.074Z" fill="#5C9E9B"/>
<path d="M100.085 110.974L106.362 141.374H107.259L101.081 111.574C100.782 111.274 100.483 111.074 100.085 110.974Z" fill="#5C9E9B"/>
<path d="M11.9102 119.274C11.9102 119.574 11.9102 119.874 11.9102 120.174L35.5233 124.574C37.8149 129.874 40.0068 135.074 42.0991 140.374H44.8889C40.505 129.474 35.8222 118.574 30.9402 107.774C30.0435 107.774 29.1467 107.874 28.1504 107.974C30.5416 113.174 32.8332 118.374 35.1248 123.574L11.9102 119.274Z" fill="#5C9E9B"/>
<path d="M313 10.5785V116.411L312.999 121.835V150H86.1572C86.3603 143.098 88.8989 135.995 93.062 130.093C93.2651 129.893 93.3667 129.593 93.5698 129.393C95.499 126.692 97.8344 124.191 100.373 122.191C101.185 121.59 101.998 120.99 102.911 120.39C103.521 119.99 104.13 119.59 104.739 119.29C112.253 114.988 121.493 113.388 130.023 114.988C132.46 100.783 141.7 87.879 154.291 80.7766C154.799 80.4765 155.205 80.2764 155.713 79.9763C155.916 79.8763 156.22 79.6762 156.525 79.5762C167.39 74.1743 180.286 72.8739 192.064 75.975C192.877 76.175 193.79 76.4751 194.603 76.6752C195.314 76.8753 196.024 77.1754 196.634 77.3754C198.563 71.7735 202.624 66.5718 207.702 63.1706C207.905 62.9705 208.108 62.8705 208.412 62.6704C210.951 61.0699 213.794 59.8695 216.637 59.1693C218.262 58.7691 219.886 58.569 221.511 58.569C222.323 58.569 223.136 58.569 223.948 58.569C227.096 58.7691 230.345 59.4693 233.29 60.5697C233.493 60.6698 233.798 60.7698 234.001 60.8698C237.047 62.1703 239.89 64.0709 242.225 66.3717C242.53 66.3717 240.804 57.2686 241.007 53.2673C241.108 51.3666 241.616 49.466 242.632 47.8654C242.936 47.2652 243.342 46.665 243.85 46.1649C244.866 45.0645 246.084 44.1642 247.607 43.764C247.81 43.664 248.013 43.664 248.115 43.664C248.318 43.564 248.622 43.564 248.826 43.564C251.567 43.1638 254.512 44.1642 257.152 45.1645C254.207 39.5626 250.856 32.9604 249.638 26.7583C249.029 23.6573 248.927 20.2561 249.638 17.155C249.638 16.955 249.739 16.6549 249.841 16.4548C250.45 13.6539 251.669 11.053 253.598 8.85225C257.253 4.65083 262.94 2.65014 268.524 1.54976H268.626C269.235 1.44973 269.946 1.34971 270.555 1.24967C287.614 -1.35121 299.799 -0.625241 313 10.5785Z" fill="#568481"/>
<path d="M138.044 150.374H135.055C128.48 144.274 122.103 138.074 115.826 131.674C109.151 131.074 102.376 130.674 95.7002 130.474C95.8995 130.274 95.9991 129.974 96.1984 129.774C102.475 129.974 108.852 130.374 115.129 130.874C111.841 127.574 108.553 124.174 105.365 120.774C105.962 120.374 106.56 119.974 107.158 119.674C117.022 130.274 127.384 140.474 138.044 150.374Z" fill="#5C9E9B"/>
<path d="M313 116.874L312.702 122.574C309.414 112.674 305.926 102.874 302.439 92.9742C289.387 104.274 277.033 116.474 265.475 129.274C269.361 136.274 273.147 143.274 276.833 150.274H274.642C268.365 138.474 261.888 126.674 255.313 114.974C254.715 126.674 254.516 138.474 254.615 150.274H253.918C253.818 138.174 254.017 125.974 254.715 113.874C250.032 105.574 245.15 97.2742 240.268 89.0742C233.393 106.274 226.817 123.774 220.74 141.274L224.227 150.174H222.035L212.869 126.974C190.949 115.174 169.827 101.574 149.9 86.5742L150.299 85.9742C169.927 100.774 190.85 114.174 212.47 125.974L202.208 100.074C186.765 94.6742 171.62 87.9742 157.174 80.2742C157.373 80.1742 157.672 79.9742 157.971 79.8742C172.019 87.4742 186.864 93.9742 201.909 99.2742L192.842 76.2742C193.64 76.4742 194.536 76.7742 195.333 76.9742L210.179 114.474L208.186 63.4742C208.385 63.2742 208.585 63.1742 208.883 62.9742L210.976 116.374L220.441 140.274C226.519 122.874 232.995 105.374 239.869 88.2742C233.991 78.3742 227.913 68.4742 221.736 58.7742C222.533 58.7742 223.33 58.7742 224.127 58.7742C227.116 63.4742 230.006 68.1742 232.895 72.8742L233.294 60.8742C233.493 60.9742 233.792 61.0742 233.991 61.1742L233.593 73.9742C244.552 91.8742 255.113 110.074 265.376 128.574C276.933 115.774 289.387 103.574 302.439 92.1742C301.343 89.0742 300.247 86.0742 299.151 82.9742C280.52 71.0742 261.59 59.3742 242.56 48.1742C242.858 47.5742 243.257 46.9742 243.755 46.4742C246.645 48.1742 249.534 49.8742 252.423 51.5742C250.829 49.0742 249.335 46.4742 247.94 43.8742C248.139 43.7742 248.438 43.7742 248.637 43.7742C250.231 46.6742 251.925 49.5742 253.719 52.3742C268.664 61.2742 283.509 70.4742 298.055 79.7742C291.48 61.5742 284.505 43.3742 277.431 25.3742C267.866 23.8742 258.401 21.1742 249.434 17.4742C249.434 17.2742 249.534 16.9742 249.634 16.7742C258.501 20.4742 267.767 23.0742 277.132 24.6742C274.143 17.0742 271.055 9.47424 267.866 1.87424H267.966C268.564 1.77424 269.261 1.67422 269.859 1.57422C280.719 27.9742 291.081 54.6742 300.845 81.6742L301.244 81.8742L301.044 82.1742C302.041 84.9742 303.137 87.8742 304.133 90.6742C304.93 89.9742 305.727 89.2742 306.624 88.5742L307.022 89.0742C306.126 89.8742 305.229 90.5742 304.332 91.3742C307.222 99.9742 310.111 108.374 313 116.874Z" fill="#5C9E9B"/>
</svg>
