<svg width="297" height="107" viewBox="0 0 297 107" fill="none" xmlns="http://www.w3.org/2000/svg">
<path d="M296.908 98.4651L259.41 98.9894H256.874L249.446 99.0767H248.631L235.407 99.2515H233.052L200.807 99.6884H199.992L186.406 99.8631H184.051L152.44 100.3V47.6989C154.613 43.1553 160.139 41.3203 165.12 39.9223C168.562 38.9612 172.276 38 175.808 38C176.623 38 177.348 38 178.163 38.0874C179.794 38.2621 181.424 38.699 182.964 39.4854C185.319 40.7087 187.221 42.631 188.942 44.5533C190.029 45.864 191.206 47.1746 192.202 48.4853C192.384 48.66 192.565 48.9222 192.746 49.0969C198.452 56.524 202.89 64.9122 205.698 73.7373C205.97 73.5625 206.332 73.3878 206.604 73.2131C208.959 71.9024 211.314 70.6791 213.669 69.4558C213.941 69.2811 214.212 69.1937 214.484 69.0189C219.647 66.5724 224.9 64.5627 230.426 63.1647C231.15 62.9899 231.965 62.8152 232.69 62.6404C234.954 62.2035 237.219 61.854 239.664 61.5919C240.298 61.5045 241.023 61.5045 241.657 61.5045C242.019 61.5045 242.382 61.5045 242.744 61.5045C244.555 61.5919 246.367 62.0287 247.635 63.252C248.903 64.4753 249.356 66.2229 249.537 67.9704C249.809 71.0286 249.084 74.2616 247.454 76.9703C248.722 76.0965 249.99 75.3101 251.349 74.6111C251.62 74.4363 251.892 74.3489 252.164 74.1742C257.508 71.5529 263.486 70.2422 269.464 70.417C270.279 70.417 271.094 70.5044 272 70.5917C273.358 70.6791 274.627 70.9412 275.985 71.2034C280.605 72.1645 285.496 74.6111 286.583 79.0673C286.673 79.5042 286.764 80.0285 286.764 80.4654C286.764 80.7275 286.764 80.9896 286.764 81.2518C286.583 84.8342 283.865 88.242 281.329 91.1254C287.398 90.9506 293.376 93.8341 296.908 98.4651Z" fill="#76AAA4"/>
<path d="M182.24 68.3199L186.497 100.038H184.142L181.515 80.4654L156.516 67.2714L156.878 66.6598L181.424 79.5916L175.899 38C176.714 38 177.439 38 178.254 38.0874L182.149 66.9219C185.228 60.6307 188.58 54.4269 192.293 48.4853C192.475 48.66 192.656 48.9222 192.837 49.0969C188.942 55.3007 185.41 61.7666 182.24 68.3199Z" fill="#5C9E9B"/>
<path d="M233.596 72.8635L235.498 99.3388H233.143L231.785 79.6789L213.76 69.5431C214.032 69.3684 214.304 69.281 214.575 69.1062L231.604 78.7178L230.517 63.252C231.241 63.0772 232.056 62.9025 232.781 62.7277L233.415 71.5528C235.861 67.9703 238.669 64.65 241.748 61.5918C242.11 61.5918 242.473 61.5918 242.835 61.5918C239.393 65.0869 236.314 68.8441 233.596 72.8635Z" fill="#5C9E9B"/>
<path d="M252.346 74.2617C250.987 82.4752 250.081 90.776 249.538 99.0769H248.723C249.266 90.9508 250.172 82.7373 251.44 74.6986C251.712 74.6112 251.983 74.4365 252.346 74.2617Z" fill="#5C9E9B"/>
<path d="M206.693 73.3003L200.987 99.863H200.172L205.788 73.8246C206.059 73.5624 206.331 73.3877 206.693 73.3003Z" fill="#5C9E9B"/>
<path d="M286.854 80.5528C286.854 80.8149 286.854 81.077 286.854 81.3392L265.388 85.1838C263.305 89.8148 261.312 94.3584 259.41 98.9894H256.874C260.859 89.4653 265.116 79.9411 269.554 70.5044C270.37 70.5044 271.185 70.5918 272.091 70.6791C269.917 75.2228 267.834 79.7664 265.75 84.31L286.854 80.5528Z" fill="#5C9E9B"/>
<path d="M238.323 103.3L176.75 104.2L172.565 104.3L160.41 104.5H159.114L137.295 104.8L133.509 104.9L80.6033 105.7H79.308L56.8905 106L53.0048 106.1L0 106V17C4 9.5 13.6495 5.69999 21.8195 3.29999C27.4986 1.69999 33.4766 0.1 39.355 0C40.6502 0 41.9455 -1.83135e-05 43.2407 0.199982C45.9308 0.499982 48.6209 1.19998 51.1117 2.59998C54.9975 4.59998 58.0861 7.89999 60.8758 11.3C62.7689 13.5 64.5623 15.7 66.256 18C66.5549 18.4 66.8538 18.7 67.0531 19.1C76.4186 31.8 83.6919 46.2 88.3747 61.3C88.8728 61 89.371 60.7 89.8692 60.4C93.7549 58.1 97.6406 56 101.526 54C102.024 53.8 102.423 53.5 102.921 53.3C111.39 49.1 120.058 45.7 129.125 43.4C130.42 43.1 131.616 42.8 132.911 42.5C136.597 41.7 140.383 41.1 144.369 40.7C145.465 40.6 146.561 40.5 147.756 40.5C148.354 40.5 148.952 40.5 149.55 40.5C152.539 40.6 155.528 41.4 157.62 43.5C159.712 45.6 160.509 48.6 160.709 51.5C161.107 56.8 159.912 62.2 157.221 66.8C159.214 65.3 161.406 64 163.598 62.8C164.096 62.5 164.495 62.3 164.993 62.1C173.761 57.7 183.624 55.4 193.388 55.7C194.783 55.7 196.078 55.8 197.473 55.9C199.665 56.1 201.857 56.4 204.049 56.9C211.621 58.5 219.692 62.7 221.485 70.3C221.684 71.1 221.784 71.9 221.784 72.7C221.784 73.1 221.784 73.6 221.784 74C221.485 80.2 217.002 86 212.917 90.9C222.681 90.5 232.544 95.3 238.323 103.3Z" fill="#568481"/>
<path d="M49.9165 51.7L56.8909 105.9L53.0051 106L48.7209 72.6L7.57227 50L8.17007 48.9L48.5216 71.1L39.3554 0C40.6506 0 41.9458 -1.83135e-05 43.2411 0.199982L49.6176 49.5C54.5993 38.7 60.1788 28.1 66.356 17.9C66.6549 18.3 66.9538 18.6 67.1531 19C60.7766 29.5 54.9978 40.5 49.9165 51.7Z" fill="#5C9E9B"/>
<path d="M134.206 59.4999L137.295 104.8L133.509 104.9L131.217 71.2999L101.726 53.8999C102.224 53.6999 102.622 53.3999 103.12 53.1999L131.117 69.6999L129.324 43.2999C130.619 42.9999 131.815 42.6999 133.11 42.3999L134.106 57.4999C138.191 51.3999 142.775 45.6999 147.856 40.3999C148.454 40.3999 149.051 40.3999 149.649 40.3999C143.871 46.1999 138.69 52.5999 134.206 59.4999Z" fill="#5C9E9B"/>
<path d="M164.993 62C162.801 76 161.207 90.2 160.31 104.4H159.015C159.911 90.5 161.406 76.5 163.498 62.7C164.096 62.4 164.494 62.2 164.993 62Z" fill="#5C9E9B"/>
<path d="M89.9694 60.2002L80.5042 105.6H79.209L88.4749 61.1002C88.9731 60.8002 89.4712 60.5002 89.9694 60.2002Z" fill="#5C9E9B"/>
<path d="M221.783 72.6001C221.783 73.0001 221.783 73.5001 221.783 73.9001L186.513 80.5001C183.126 88.4001 179.838 96.3001 176.649 104.2L172.465 104.3C179.041 88.0001 186.015 71.7001 193.288 55.6001C194.683 55.6001 195.978 55.7001 197.373 55.8001C193.786 63.5001 190.399 71.3001 187.011 79.1001L221.783 72.6001Z" fill="#5C9E9B"/>
</svg>
