<svg width="1000" height="1000" viewBox="0 0 1000 1000" fill="none" xmlns="http://www.w3.org/2000/svg">
<g clip-path="url(#clip0)">
<g clip-path="url(#clip1)">
<path d="M792.08 609.88C792.67 653.03 793.53 696.18 793.76 739.33C793.93 770.82 793.76 802.33 792.84 833.8C792.2 856.8 795.27 879.18 800.46 901.56C805.61 923.75 809.59 946.25 812.92 968.78C814.43 979.03 813.15 989.68 813.13 1000.15H785.08C783 985.21 781.71 970.15 778.61 955.38C775.93 942.66 770.74 930.74 760.37 921.74C756.74 918.6 755.14 919.1 752.86 922.81C749.351 928.509 747.611 935.122 747.86 941.81C748.31 961.26 748.67 980.71 749.07 1000.16H624.08C623.81 995.86 623.36 991.56 623.29 987.25C622.857 961.51 622.48 935.773 622.16 910.04C622.02 899.04 622.09 888.11 621.94 877.15C621.94 875.61 621.64 873.28 620.65 872.67C612.6 867.67 604.83 860.87 594.35 866.97C591.59 862.24 588.58 857.64 586.11 852.77C578.91 838.52 573.9 823.65 574.93 807.38C575.04 805.61 576.14 803.04 577.54 802.33C611.32 785.17 639.09 760.87 663.17 731.83C668.51 725.4 671.33 719.28 669.6 711.18C669.773 686.513 669.94 661.847 670.1 637.18C677.49 635.99 679.1 634.18 679.1 626.7C679.1 596.74 679.1 566.773 679.1 536.8C679.1 529.46 678.1 528.22 670.79 526.02C669.88 514.02 669.48 502.02 667.88 490.19C666.94 483.24 664.3 476.48 662.03 469.78C660.72 465.9 657.61 464.95 653.36 464.78C630.92 463.84 608.36 463.85 586.13 460.78C556.13 456.63 528.76 445.08 506.76 423.1C505.507 422.007 504.131 421.064 502.66 420.29C491.98 432.39 482.35 444.29 471.66 455.19C456.96 470.11 439.32 481.31 421.39 491.99C417.18 493.99 413.01 495.99 408.74 497.86C395.39 503.64 381.63 507.69 366.87 507.09L361.17 507.86L358.41 508.71C350.21 510.53 346.14 516.71 342.85 523.59L341.54 525.93C336.07 527.2 334.14 529.73 334.14 535.86C334.14 565.1 334.14 594.347 334.14 623.6C334.14 634.32 335.19 635.49 345.64 636.49C345.78 638.71 345.93 640.94 346.07 643.16L346.17 645.16C346.483 651.827 346.787 658.493 347.08 665.16L347.17 667.16L350.26 718.16C350.55 723.54 349.31 729.16 353.21 733.91C373.6 758.91 396.93 780.72 425.4 796.18C433.27 800.45 434.97 805.35 434.55 813.37C433.63 830.9 429.43 846.88 416.25 859.43C411.84 855.43 407.14 855.22 402.05 858.13C397.43 860.77 392.66 863.13 388.05 865.87C386.97 866.51 385.69 867.96 385.66 869.06C385.4 879.06 385.25 889 385.35 898.96C385.57 923.6 385.81 948.23 386.35 972.86C386.54 981.98 387.52 991.09 388.14 1000.2H274.08C273.37 980.78 272.88 961.35 271.87 941.95C271.719 937.436 270.654 932.999 268.739 928.908C266.824 924.818 264.1 921.158 260.73 918.15C258.05 915.72 255.63 915.37 252.73 917.41C241.46 925.41 231.86 934.88 225.11 947.06C215.95 963.62 214.52 981.78 214.11 1000.15H192.08C184.78 982.6 186.86 964.21 189.08 946.39C192.01 922.81 197.5 899.55 201.58 876.11C204.86 857.24 208.44 838.38 210.47 819.36C211.84 806.51 210.74 793.36 210.76 780.36C210.84 735.04 210.59 689.72 211.13 644.36C211.51 613.23 212.27 582.06 214.13 550.98C216.35 514.55 222.47 478.6 229.42 442.76C234.31 417.57 239.1 392.44 248.02 368.27C267.02 316.92 297.73 275.09 345.61 247.05C375.69 229.44 408.42 219.76 442.76 215.31C468.714 211.84 494.906 210.475 521.08 211.23C544.81 212.01 567.98 216.51 591.27 220.65C613.02 224.51 634.35 229.3 654.42 238.71C699.21 259.71 729.62 294.48 750.07 338.71C765.66 372.44 774.46 408.12 778.73 444.83C783.04 481.83 786.06 519.07 789.65 556.19C788.377 554.6 787.208 552.93 786.15 551.19C776.48 532.86 764.38 517.36 742.67 512.54C734.67 510.78 733.33 511.14 728.12 518.07C720.48 528.4 712.76 538.69 705.27 549.13C704.242 550.821 703.722 552.772 703.77 554.75C703.68 559.86 703.96 564.99 704.09 570.11C704.003 575.11 703.917 580.11 703.83 585.11C703.49 595.777 703.157 606.417 702.83 617.03L702.31 626.03C701.997 640.03 701.69 654.03 701.39 668.03V679.42C710.161 680.603 719.084 679.897 727.56 677.35C757.32 668.07 775.96 647.08 788.09 619.35C789.43 616.29 790.7 613.07 792.08 609.88ZM311.38 620.29C311.267 612.243 311.16 604.197 311.06 596.15C310.633 582.15 310.207 568.15 309.78 554.15C309.36 551.41 309.68 548.23 308.38 545.99C302.89 536.55 296.9 527.39 291.1 518.12C289.61 516.5 288.28 513.67 286.61 513.47C277.08 512.29 267.08 512.95 259.08 518.15C236.67 532.47 224.48 553.65 221.3 579.88C216.18 622.1 249.36 668.19 288.38 678.77C296.072 680.936 304.114 681.568 312.05 680.63V664.15L311.6 624.15L311.38 620.29ZM696.38 295.97C693.89 298.12 691.38 299.53 689.98 301.67C687.69 305.22 689.44 308.77 691.58 311.87C697.06 319.777 702.607 327.637 708.22 335.45C710.43 338.54 713.04 341.45 717.32 339.45C721.6 337.45 721.58 333.68 720.32 329.64C717.203 319.446 712.015 310.006 705.08 301.91C703.08 299.54 699.78 298.24 696.38 295.97ZM646.32 458.41L646.6 457.02C639.23 455.69 631.9 453.51 624.49 453.19C595.03 451.93 566.24 447.82 538.96 435.94C537.73 435.4 536.26 435.42 533.9 435C569.37 456.45 607.81 457.64 646.32 458.41ZM768.08 772.45H767.78C768.22 778.07 768.78 783.69 769.04 789.32C769.17 792.46 769.96 795.52 773.26 795.58C776.86 795.65 777.88 792.44 778.09 789.16C778.29 786.03 778.82 782.9 778.92 779.76C779.08 774.44 779.61 769.01 778.76 763.82C778.37 761.43 775.31 758.07 773.05 757.71C769.86 757.21 768.17 760.56 768.05 763.93C767.98 766.79 768.08 769.62 768.08 772.45ZM703.43 347.96C699.71 339.57 696.38 331.35 692.31 323.52C691.61 322.18 686.79 321.31 685.62 322.3C684 323.65 682.81 327.5 683.62 329.38C686.766 336.646 690.329 343.724 694.29 350.58C694.872 351.303 695.621 351.873 696.473 352.241C697.326 352.609 698.255 352.763 699.18 352.69C700.55 352.41 701.55 350.15 703.43 347.96ZM762.38 783.15H762.16C762.16 781.66 762.52 780.04 762.07 778.7C761.5 777.06 760.25 775.7 759.3 774.16C757.8 775.31 755.09 776.38 755 777.63C754.807 782.035 755.035 786.448 755.68 790.81C755.79 791.66 757.62 792.92 758.61 792.88C759.217 792.732 759.778 792.438 760.246 792.023C760.713 791.608 761.071 791.085 761.29 790.5C761.823 788.078 762.187 785.622 762.38 783.15V783.15Z" fill="#464443"/>
<path d="M512.08 1000.15H495.08C486.18 990.09 477.24 980.08 468.4 969.97C458.14 958.24 448 946.41 437.78 934.66C430.94 926.79 424.05 918.97 417.18 911.12C417.18 900.807 417.18 890.473 417.18 880.12C418.91 878.85 420.72 877.68 422.34 876.28C432.15 867.86 438.58 857.15 443.08 845.15C446.63 847.77 449.95 850.82 453.79 852.92C465.91 859.52 478.89 859.4 492.36 858.41C509.61 857.14 525.36 851.72 540.52 844.2C548.15 840.42 554.91 834.9 562.06 830.2C565.73 843.42 569.65 856.66 578.06 867.71C582.23 873.18 588.06 877.44 593.06 882.24L593.14 896.11C587.99 902.75 582.86 909.42 577.69 916.05C555.83 944.083 533.96 972.117 512.08 1000.15Z" fill="#FDD1B3"/>
<path d="M417.2 880.15C417.2 890.47 417.2 900.803 417.2 911.15C416.57 940.87 417.873 970.599 421.1 1000.15H388.08C387.46 991.04 386.48 981.93 386.29 972.81C385.78 948.18 385.54 923.55 385.29 898.91C385.19 888.91 385.34 878.97 385.6 869.01C385.6 867.91 386.91 866.46 387.99 865.82C392.57 863.11 397.34 860.72 401.99 858.08C407.08 855.17 411.78 855.37 416.19 859.38C416.53 866.313 416.867 873.237 417.2 880.15Z" fill="#9A9A7A"/>
<path d="M512.08 1000.15C533.953 972.11 555.827 944.067 577.7 916.02C582.87 909.39 588 902.72 593.15 896.08C593.77 930.793 594.413 965.483 595.08 1000.15H512.08Z" fill="#E5E5E4"/>
<path d="M214.08 1000.15C214.53 981.78 215.96 963.62 225.08 947.06C231.83 934.88 241.43 925.38 252.7 917.41C255.59 915.41 258.01 915.72 260.7 918.15C264.064 921.152 266.785 924.804 268.699 928.886C270.614 932.967 271.682 937.394 271.84 941.9C272.84 961.3 273.34 980.73 274.05 1000.15H214.08Z" fill="#999A7A"/>
<path d="M595.08 1000.15C594.413 965.483 593.77 930.793 593.15 896.08C593.15 891.447 593.123 886.823 593.07 882.21C593.497 877.13 593.923 872.047 594.35 866.96C604.83 860.86 612.6 867.71 620.65 872.66C621.65 873.27 621.91 875.6 621.94 877.14C622.09 888.14 622.02 899.07 622.16 910.03C622.48 935.77 622.857 961.507 623.29 987.24C623.36 991.55 623.81 995.85 624.08 1000.15H595.08Z" fill="#9A9A7A"/>
<path d="M421.08 1000.15C417.853 970.599 416.55 940.87 417.18 911.15C424.05 919 430.94 926.82 437.78 934.69C448 946.44 458.14 958.27 468.4 970C477.24 980.11 486.18 990.12 495.08 1000.18L421.08 1000.15Z" fill="#E5E5E4"/>
<path d="M749.08 1000.15C748.68 980.7 748.32 961.25 747.87 941.8C747.621 935.112 749.361 928.5 752.87 922.8C755.15 919.09 756.75 918.59 760.38 921.73C770.75 930.73 775.94 942.65 778.62 955.37C781.72 970.09 783.01 985.2 785.09 1000.14L749.08 1000.15Z" fill="#999A7A"/>
<path d="M792.08 609.88C790.75 613.07 789.48 616.29 788.08 619.46C775.95 647.19 757.31 668.18 727.55 677.46C719.074 680.007 710.151 680.713 701.38 679.53V668.15C709.99 665.3 718.91 663.15 727.15 659.47C745.28 651.37 757.82 637.12 767.15 619.99C774.64 606.2 779.94 591.99 778.42 575.51C776.76 557.51 770.42 542.44 756.36 530.95C748.08 524.22 738.79 519.57 728.08 518.15C733.29 511.22 734.67 510.86 742.63 512.62C764.34 517.44 776.44 532.94 786.11 551.27C787.168 553.01 788.337 554.68 789.61 556.27C791.12 567.91 793.13 579.5 793.95 591.18C794.4 597.3 792.74 603.62 792.08 609.88Z" fill="#F7B98E"/>
<path d="M670.08 637.15C669.913 661.817 669.747 686.483 669.58 711.15C664.87 716.51 660.51 722.23 655.38 727.15C640.53 741.43 625.97 756.15 610.08 769.15C598.336 778.893 585.548 787.305 571.95 794.23C555.86 802.31 538.72 808.3 520.57 810.92C505.46 813.09 490.71 813.35 475.96 808.65C437.52 796.4 405.96 773.27 376.96 746.25C367.5 737.45 359.11 727.51 350.23 718.08L347.08 667.15L346.99 665.15C346.69 658.483 346.387 651.817 346.08 645.15C346.08 644.48 346.01 643.81 345.98 643.15C345.84 640.93 345.69 638.7 345.55 636.48L476.08 636.34L479.19 642.09C477.896 643.81 476.691 645.596 475.58 647.44C471.58 654.85 469.47 662.44 473.34 670.67C480.73 686.47 505.23 693.19 520.89 678.9C525.74 674.47 529.47 669.44 528.89 662.58C528.77 661.04 526.47 659.67 525.16 658.22C523.82 659.44 521.64 660.46 521.29 661.93C519.9 667.67 515.65 670.5 511.1 673.19C509.719 672.103 508.273 671.101 506.77 670.19C498.53 665.88 493.32 662.19 497.54 651.4C498.83 648.11 500.36 642.88 495.1 640.12C495.1 637.12 495.58 634.05 494.97 631.19C493.55 624.44 495.97 616.71 489.97 611.08L489.1 598.34L518.1 598.89C518.14 598.982 518.211 599.056 518.301 599.1C518.391 599.144 518.493 599.155 518.59 599.13C518.7 608.93 518.76 618.74 518.95 628.54C519.05 633.86 521.53 636.43 526.82 636.91C528.47 637.06 530.14 636.97 531.82 636.98L670.08 637.15ZM458.87 720.15C454.76 717.75 450.79 715.05 446.5 713.02C443.03 711.38 439.73 712.62 438.32 716.25C436.91 719.88 438.79 722.58 442.23 723.63C447.08 725.06 452.08 726.01 457.08 727.15C458.69 731.2 459.37 736.15 462.14 739.06C465.51 742.65 470.37 745.26 475.05 747.14C491.34 753.69 508.05 753.42 524.91 749.28C534.69 746.88 543.53 738.38 545.41 728.5C548.564 728.348 551.708 728.035 554.83 727.56C558.69 726.8 562.62 725.31 562.9 720.73C563.02 718.92 560.79 715.33 559.9 715.41C556.319 715.855 552.826 716.839 549.54 718.33C547.54 719.17 545.9 720.96 544.1 722.33C540.339 716.638 534.555 712.588 527.92 711C512.641 707.179 496.728 706.624 481.22 709.37C472.92 710.77 464.59 712.99 458.87 720.15Z" fill="#FDD1B3"/>
<path d="M421.34 491.96C439.27 481.28 456.91 470.08 471.61 455.16C482.32 444.3 491.95 432.36 502.61 420.26C504.082 421.034 505.458 421.977 506.71 423.07C528.71 445.07 556.04 456.6 586.08 460.75C608.26 463.81 630.87 463.75 653.31 464.75C657.56 464.92 660.67 465.87 661.98 469.75C664.25 476.45 666.89 483.21 667.83 490.16C669.43 502.01 669.83 514.04 670.74 525.99C668.74 526.1 666.74 526.31 664.74 526.31C619.827 526.31 574.917 526.31 530.01 526.31C521.01 526.31 518.92 528.46 518.91 537.52C518.91 552.653 518.91 567.787 518.91 582.92L482.23 582.63C482.23 567.737 482.23 552.84 482.23 537.94C482.23 527.84 481.03 526.57 471.05 525.83C470.037 522.67 469.037 519.507 468.05 516.34C472.82 516.2 476.57 514.56 477.54 509.34C478.3 505.34 475.26 501.34 470.2 499.34C469.12 498.92 468 498.59 466.9 498.23C452.18 493.565 436.773 491.445 421.34 491.96V491.96ZM582.34 493.39C573.93 494.39 565.46 495.01 557.13 496.47C550.932 497.684 544.832 499.355 538.88 501.47C533.01 503.47 530.27 508.36 531.88 512.91C533.59 517.66 538.54 519.63 544.43 517.25C573.43 505.55 602.21 509.86 630.95 518.04C636.79 519.71 640.51 519.04 642.09 515.04C643.67 511.04 641.59 507.71 636.17 505.11C635.42 504.75 634.65 504.43 633.89 504.11C617.62 496.53 600.25 494.23 582.39 493.39H582.34Z" fill="#FACFB2"/>
<path d="M350.2 718.15C359.08 727.58 367.47 737.52 376.93 746.32C405.93 773.32 437.54 796.47 475.93 808.72C490.68 813.42 505.43 813.16 520.54 810.99C538.69 808.37 555.83 802.38 571.92 794.3C585.531 787.355 598.33 778.92 610.08 769.15C625.95 756.08 640.51 741.4 655.38 727.15C660.51 722.23 664.87 716.51 669.58 711.15C671.31 719.25 668.49 725.37 663.15 731.8C639.07 760.8 611.3 785.14 577.52 802.3C576.12 803.01 575.02 805.58 574.91 807.35C573.91 823.62 578.91 838.49 586.09 852.74C588.56 857.61 591.57 862.21 594.33 866.94C593.91 872.02 593.483 877.103 593.05 882.19C588.05 877.39 582.22 873.13 578.05 867.66C569.63 856.66 565.71 843.37 562.05 830.15C561.73 826.03 561.12 821.92 561.15 817.81C561.18 813.7 559.69 813.07 555.98 814.07C549.3 815.86 542.51 817.24 535.76 818.75C516.63 823.01 497.37 823.75 478.11 820.07C469.11 818.33 460.33 815.59 451.43 813.29L443.08 845.15C438.58 857.15 432.15 867.86 422.35 876.33C420.73 877.73 418.92 878.9 417.19 880.17C416.857 873.243 416.523 866.313 416.19 859.38C429.37 846.83 433.57 830.85 434.49 813.32C434.91 805.32 433.21 800.4 425.34 796.13C396.87 780.67 373.54 758.89 353.15 733.86C349.25 729.08 350.49 723.49 350.2 718.15Z" fill="#F7B98E"/>
<path d="M311.55 624.15L312 664.15C307.56 663.72 303 663.82 298.7 662.78C269.7 655.72 249.81 638.18 240.24 609.78C235.82 596.68 236.8 583.18 238.78 569.52C240.78 555.69 247.9 545.52 258 536.92C267.8 528.61 278.72 522.01 291.1 518.11C296.9 527.38 302.89 536.54 308.38 545.98C309.68 548.22 309.38 551.4 309.78 554.14C307.726 552.288 305.573 550.548 303.33 548.93C300.62 547.16 297.81 544.99 294.76 544.36C282.07 541.71 264.27 554.65 262.17 567.65C261.41 572.38 263.29 576.76 266.48 576.94C271.19 577.21 271.09 573.13 272.07 570.12C275.33 571.45 278.5 573.56 281.87 573.96C289.25 574.85 294.61 578.54 299.06 584.08C287.28 584.46 280.39 592.85 281.06 605.99C281.88 620.94 298.94 631.15 311.55 624.15Z" fill="#FDD1B2"/>
<path d="M728.08 518.15C738.76 519.59 748.08 524.24 756.26 530.96C770.32 542.45 776.66 557.48 778.32 575.52C779.84 592.01 774.54 606.21 767.05 620C757.76 637.13 745.22 651.38 727.05 659.48C718.81 663.16 709.89 665.31 701.28 668.16C701.593 654.16 701.9 640.16 702.2 626.16C704.85 626.16 707.51 626.06 710.15 626.24C717.82 626.794 725.427 624.525 731.54 619.86C742.42 611.86 745.26 593.76 731.02 587.18C732.32 583.44 734.02 579.78 734.81 575.95C735.224 573.741 736.203 571.677 737.653 569.959C739.102 568.242 740.972 566.929 743.08 566.15C744.77 568.39 746.4 571.4 749.79 569.55C753.18 567.7 752.5 564.14 751.45 561.12C750.668 558.572 749.472 556.17 747.91 554.01C744.21 549.35 740.52 544.24 734.12 543.24C724.17 541.69 715.89 544.99 710.83 553.87C707.95 558.93 706.29 564.7 704.09 570.16C703.96 565.04 703.68 559.91 703.77 554.8C703.722 552.822 704.243 550.871 705.27 549.18C712.75 538.75 720.47 528.46 728.08 518.15Z" fill="#FDD1B2"/>
<path d="M518.98 582.93C518.98 567.803 518.98 552.67 518.98 537.53C518.98 528.47 521.11 526.32 530.08 526.32C574.993 526.32 619.903 526.32 664.81 526.32C666.81 526.32 668.81 526.11 670.81 526C678.11 528.2 679.12 529.44 679.12 536.78C679.12 566.78 679.12 596.747 679.12 626.68C679.12 634.21 677.54 635.97 670.12 637.16L531.87 637.03C530.21 637.03 528.54 637.11 526.87 636.96C521.58 636.48 519.1 633.96 519 628.59C518.81 618.79 518.75 608.98 518.64 599.18C518.77 598.991 518.843 598.769 518.85 598.54C518.89 593.333 518.933 588.13 518.98 582.93ZM666.98 537.81H530.34V625.59H666.93L666.98 537.81Z" fill="#283139"/>
<path d="M471.08 525.84C481.08 526.58 482.26 527.84 482.26 537.95C482.26 552.85 482.26 567.747 482.26 582.64C482.26 587.88 482.223 593.117 482.15 598.35C482.15 608.09 482.1 617.82 482.21 627.56C482.26 632.1 480.58 635.19 476 636.34L345.54 636.46C335.09 635.46 334.04 634.29 334.04 623.57C334.04 594.323 334.04 565.077 334.04 535.83C334.04 529.7 335.97 527.17 341.44 525.9L343.05 525.84H446.05H471.08ZM471.57 608.22V603.22C471.61 581.7 471.647 560.177 471.68 538.65C471.68 538.39 471.35 538.12 471.14 537.8H454.98C453.83 537.69 452.67 537.49 451.52 537.49C419.52 537.49 387.52 537.49 355.52 537.49H345.34V625.49H471.61L471.57 608.22Z" fill="#262F38"/>
<path d="M291.08 518.15C278.7 522.05 267.78 528.65 257.98 536.96C247.88 545.52 240.77 555.73 238.76 569.56C236.76 583.22 235.76 596.72 240.22 609.82C249.79 638.18 269.66 655.72 298.68 662.82C302.97 663.82 307.54 663.76 311.98 664.19V680.65C304.044 681.588 296.002 680.956 288.31 678.79C249.31 668.21 216.11 622.12 221.23 579.9C224.41 553.67 236.6 532.49 259.01 518.17C267.1 513 277.01 512.34 286.59 513.54C288.28 513.69 289.61 516.52 291.08 518.15Z" fill="#F8B98E"/>
<path d="M446.08 525.88H343.08L342.78 523.6C346.07 516.67 350.14 510.54 358.34 508.73L361.1 507.87L366.79 507.1C366.17 514.98 369.57 518.33 376.12 516.72C386.72 514.12 397.29 511.26 408.04 509.51C420.66 507.45 433.45 506.83 446.04 510.18C446.067 515.407 446.08 520.64 446.08 525.88Z" fill="#F8CEB1"/>
<path d="M731.08 587.15C745.32 593.73 742.48 611.85 731.6 619.83C725.481 624.471 717.879 626.718 710.22 626.15C707.58 625.97 704.92 626.09 702.27 626.07C702.437 623.07 702.61 620.07 702.79 617.07C712.9 620.23 721.13 616.29 727.95 609.42C729.023 608.134 729.802 606.629 730.232 605.01C730.662 603.392 730.733 601.699 730.44 600.05C729.92 597.94 725.95 595.71 723.23 595.29C715.49 594.06 707.75 593.45 703.82 585.15C703.907 580.15 703.993 575.15 704.08 570.15C706.28 564.69 707.94 558.92 710.82 553.86C715.88 544.98 724.16 541.68 734.11 543.23C740.51 544.23 744.2 549.34 747.9 554C749.462 556.16 750.658 558.562 751.44 561.11C752.44 564.11 753.3 567.62 749.78 569.54C746.26 571.46 744.78 568.38 743.07 566.14C742.36 564.46 741.74 562.74 740.92 561.14C736.84 552.99 728.27 547.84 720.11 557.56C714.83 563.86 713.89 571.17 713.97 579.01C714.02 583.4 716.05 584.78 719.97 585.21C723.89 585.64 727.38 586.47 731.08 587.15Z" fill="#F9BB8F"/>
<path d="M446.08 510.15C433.47 506.8 420.68 507.42 408.08 509.48C397.33 511.23 386.76 514.09 376.16 516.69C369.61 518.3 366.21 514.95 366.83 507.07C381.6 507.67 395.36 503.62 408.71 497.84C412.98 495.99 417.15 493.93 421.36 491.97C436.811 491.459 452.236 493.589 466.97 498.27C468.07 498.63 469.19 498.96 470.27 499.38C475.33 501.38 478.37 505.38 477.61 509.38C476.61 514.57 472.89 516.21 468.12 516.38L446.08 510.15Z" fill="#292623"/>
<path d="M272.08 570.15C271.08 573.15 271.2 577.24 266.49 576.97C263.3 576.79 261.42 572.41 262.18 567.68C264.28 554.68 282.08 541.74 294.77 544.39C297.82 545.02 300.63 547.19 303.34 548.96C305.579 550.572 307.729 552.305 309.78 554.15C310.213 568.15 310.64 582.15 311.06 596.15C308.65 595.62 306.23 595.15 303.84 594.54C295.94 592.6 290.43 595.94 290.96 603.76C291.49 611.58 298.08 618.64 306.08 619.15C307.877 619.39 309.655 619.757 311.4 620.25C311.45 621.55 311.51 622.84 311.57 624.13C298.96 631.13 281.9 620.9 281.11 605.98C280.41 592.84 287.3 584.45 299.11 584.08L307.33 584.9C309.05 577.14 302.56 559.22 296.43 555.09C294.824 553.912 292.882 553.281 290.89 553.29C284.97 553.94 272.41 561.06 272.08 570.15Z" fill="#F7BA8F"/>
<path d="M696.38 295.97C699.78 298.24 703.04 299.54 705.03 301.91C711.997 309.988 717.219 319.419 720.37 329.61C721.58 333.61 721.69 337.38 717.37 339.42C713.05 341.46 710.48 338.54 708.27 335.42C702.67 327.6 697.123 319.74 691.63 311.84C689.49 308.74 687.74 305.19 690.03 301.64C691.35 299.53 693.89 298.15 696.38 295.97Z" fill="#79746F"/>
<path d="M703.82 585.15C707.75 593.45 715.49 594.06 723.23 595.29C725.95 595.71 729.92 597.94 730.44 600.05C730.733 601.699 730.662 603.392 730.232 605.01C729.802 606.629 729.023 608.134 727.95 609.42C721.13 616.29 712.95 620.23 702.79 617.07C703.13 606.457 703.473 595.817 703.82 585.15Z" fill="#FDD1B2"/>
<path d="M646.32 458.41C607.81 457.64 569.32 456.41 533.9 435C536.26 435.42 537.73 435.4 538.96 435.94C566.24 447.82 595.03 451.94 624.49 453.19C631.9 453.51 639.23 455.69 646.6 457.02L646.32 458.41Z" fill="#EBC4A9"/>
<path d="M311.38 620.29C309.643 619.785 307.872 619.404 306.08 619.15C298.08 618.6 291.5 611.57 290.98 603.72C290.46 595.87 295.98 592.56 303.86 594.5C306.25 595.09 308.67 595.58 311.08 596.11C311.167 604.183 311.267 612.243 311.38 620.29Z" fill="#FDD1B2"/>
<path d="M768.08 772.45C768.08 769.62 768.02 766.79 768.08 763.96C768.16 760.59 769.85 757.24 773.08 757.74C775.34 758.1 778.4 761.46 778.79 763.85C779.64 769.04 779.11 774.47 778.95 779.79C778.85 782.93 778.32 786.06 778.12 789.19C777.91 792.47 776.89 795.68 773.29 795.61C769.99 795.55 769.2 792.49 769.07 789.35C768.83 783.72 768.25 778.1 767.81 772.48L768.08 772.45Z" fill="#79746F"/>
<path d="M703.43 347.96C701.55 350.16 700.55 352.41 699.15 352.69C698.225 352.763 697.296 352.609 696.443 352.241C695.591 351.874 694.842 351.303 694.26 350.58C690.299 343.724 686.736 336.646 683.59 329.38C682.81 327.5 684 323.65 685.59 322.3C686.76 321.3 691.59 322.18 692.28 323.52C696.38 331.35 699.71 339.57 703.43 347.96Z" fill="#79746F"/>
<path d="M762.38 783.15C762.186 785.612 761.822 788.058 761.29 790.47C761.071 791.055 760.713 791.578 760.246 791.993C759.778 792.408 759.217 792.702 758.61 792.85C757.61 792.85 755.79 791.63 755.68 790.78C755.035 786.418 754.808 782.005 755 777.6C755.09 776.35 757.8 775.28 759.3 774.13C760.25 775.63 761.5 777.03 762.07 778.67C762.52 780.01 762.16 781.67 762.16 783.12L762.38 783.15Z" fill="#79746F"/>
<path d="M361.08 507.83L358.32 508.69L361.08 507.83Z" fill="#EBBFA0"/>
<path d="M347.02 665.15L347.11 667.15L347.02 665.15Z" fill="#DDB599"/>
<path d="M342.8 523.56L343.1 525.84L341.49 525.9L342.8 523.56Z" fill="#EBBFA0"/>
<path d="M346.01 643.15L346.11 645.15C346.08 644.47 346.08 643.8 346.01 643.15Z" fill="#DDB599"/>
<path d="M443.08 845.15L451.44 813.31C460.34 815.61 469.13 818.31 478.12 820.09C497.38 823.81 516.64 823.03 535.77 818.77C542.52 817.26 549.31 815.88 555.99 814.09C559.7 813.09 561.18 813.75 561.16 817.83C561.14 821.91 561.74 826.05 562.06 830.17C554.91 834.9 548.15 840.42 540.52 844.17C525.39 851.69 509.61 857.11 492.36 858.38C478.89 859.38 465.91 859.49 453.79 852.89C449.95 850.82 446.63 847.77 443.08 845.15Z" fill="#FCCAA5"/>
<path d="M545.39 728.53C543.51 738.41 534.67 746.91 524.89 749.31C508 753.45 491.32 753.72 475.03 747.17C470.35 745.29 465.49 742.68 462.12 739.09C459.35 736.09 458.67 731.23 457.06 727.18C457.916 726.965 458.799 726.884 459.68 726.94C481.34 731.82 503.21 730.41 525.08 729.35C531.85 729.03 538.62 728.8 545.39 728.53Z" fill="#D88470"/>
<path d="M511.08 673.15C515.63 670.46 519.88 667.63 521.27 661.89C521.62 660.42 523.8 659.4 525.14 658.18C526.45 659.63 528.75 661 528.87 662.54C529.42 669.4 525.69 674.43 520.87 678.86C505.21 693.15 480.71 686.43 473.32 670.63C469.45 662.35 471.56 654.81 475.56 647.4C476.671 645.556 477.876 643.77 479.17 642.05C479.782 641.512 480.453 641.046 481.17 640.66C484.83 639.23 486.31 637.29 485.27 632.87C484.11 628 484.27 622.79 484.1 617.72C483.96 613.79 485.37 610.92 490 611.07C495.93 616.7 493.54 624.43 495 631.18C495.61 634.04 495.12 637.12 495.13 640.11C493.54 642.38 492.44 645.62 490.26 646.74C484.59 649.63 482.02 654.31 481.26 660.02C480.5 665.73 484.39 672.02 489.92 674.4C496.96 677.48 505.08 679.01 511.08 673.15Z" fill="#FBBC90"/>
<path d="M458.87 720.15C464.59 713.03 472.87 710.81 481.19 709.43C496.698 706.684 512.611 707.239 527.89 711.06C534.522 712.636 540.309 716.671 544.08 722.35C543.24 722.94 542.43 724.01 541.57 724.05C524.37 724.81 507.17 725.87 489.97 725.94C481.13 725.94 472.26 724.31 463.44 723.1C461.81 722.88 460.39 721.15 458.87 720.15Z" fill="#D88470"/>
<path d="M458.87 720.15C460.39 721.15 461.81 722.92 463.43 723.15C472.25 724.36 481.12 726.02 489.96 725.99C507.16 725.92 524.36 724.86 541.56 724.1C542.42 724.1 543.23 722.99 544.07 722.4C545.87 721.04 547.49 719.25 549.51 718.4C552.796 716.909 556.289 715.925 559.87 715.48C560.77 715.4 563 718.99 562.87 720.8C562.59 725.38 558.66 726.87 554.8 727.63C551.678 728.104 548.534 728.418 545.38 728.57C538.61 728.84 531.84 729.07 525.07 729.39C503.2 730.45 481.33 731.86 459.67 726.98C458.803 726.904 457.93 726.961 457.08 727.15C452.08 725.98 447.08 725.03 442.25 723.56C438.81 722.51 436.96 719.72 438.34 716.18C439.72 712.64 443.05 711.31 446.52 712.95C450.79 715.01 454.76 717.71 458.87 720.15Z" fill="#B86A57"/>
<path d="M482.19 598.35C482.23 593.117 482.267 587.88 482.3 582.64L518.98 582.93C518.933 588.13 518.89 593.327 518.85 598.52C518.708 598.519 518.569 598.555 518.446 598.625C518.323 598.696 518.221 598.797 518.15 598.92L489.15 598.37L482.19 598.35Z" fill="#474544"/>
<path d="M511.08 673.15C505.08 678.97 496.95 677.44 489.83 674.4C484.3 672.03 480.37 665.75 481.17 660.02C481.97 654.29 484.54 649.63 490.17 646.74C492.35 645.62 493.45 642.38 495.04 640.11C500.3 642.87 498.77 648.11 497.48 651.39C493.26 662.17 498.48 665.87 506.71 670.18C508.226 671.08 509.685 672.072 511.08 673.15V673.15Z" fill="#FCCAA5"/>
<path d="M482.19 598.35H489.13L490 611.09C485.37 610.94 484 613.81 484.1 617.74C484.27 622.81 484.1 628.02 485.27 632.89C486.27 637.31 484.83 639.25 481.17 640.68C480.453 641.066 479.782 641.532 479.17 642.07L476.08 636.34C480.66 635.19 482.34 632.1 482.29 627.56C482.14 617.82 482.2 608.09 482.19 598.35Z" fill="#DDB599"/>
<path d="M518.15 598.92C518.221 598.797 518.323 598.696 518.446 598.625C518.569 598.555 518.708 598.519 518.85 598.52C518.843 598.749 518.77 598.971 518.64 599.16C518.543 599.185 518.441 599.174 518.351 599.13C518.261 599.086 518.19 599.012 518.15 598.92Z" fill="#DDB599"/>
<path d="M582.39 493.39C600.25 494.23 617.62 496.53 633.96 504.08C634.72 504.42 635.49 504.74 636.24 505.08C641.66 507.68 643.72 511.14 642.16 515.01C640.6 518.88 636.86 519.65 631.02 518.01C602.28 509.83 573.48 505.52 544.5 517.22C538.61 519.6 533.66 517.63 531.95 512.88C530.32 508.33 533.06 503.4 538.95 501.44C544.902 499.325 551.002 497.654 557.2 496.44C565.51 495.01 573.98 494.38 582.39 493.39Z" fill="#292623"/>
<path d="M446.08 510.15L468.08 516.36C469.087 519.52 470.087 522.683 471.08 525.85H446.02C446.06 520.623 446.08 515.39 446.08 510.15Z" fill="#EBBFA0"/>
<path d="M272.08 570.15C272.42 561.06 284.98 553.94 290.85 553.33C292.842 553.321 294.784 553.952 296.39 555.13C302.52 559.26 309.01 577.13 307.29 584.94L299.08 584.15C294.63 578.6 289.27 574.91 281.89 574.02C278.5 573.59 275.33 571.48 272.08 570.15Z" fill="#FCCAA5"/>
<path d="M731.08 587.15C727.37 586.49 723.67 585.63 719.92 585.22C716.17 584.81 714.01 583.41 713.92 579.02C713.84 571.18 714.78 563.87 720.06 557.57C728.22 547.85 736.79 553 740.87 561.15C741.69 562.78 742.31 564.5 743.02 566.15C740.935 566.935 739.086 568.244 737.652 569.949C736.218 571.655 735.246 573.701 734.83 575.89C734.08 579.73 732.39 583.39 731.08 587.15Z" fill="#FCCAA5"/>
<path d="M666.93 537.81V625.59H530.34V537.81H666.93ZM559.82 581.91C560.21 589.37 560.15 594.91 560.82 600.31C562.44 612.78 570.62 620.85 581.69 621.41C592.76 621.97 601.69 614.94 605.03 602.89C608.1 592.01 606.29 581.09 605.36 570.21C605.13 567.4 605.57 565.8 607.68 563.85C611.11 560.756 614.116 557.222 616.62 553.34C617.68 551.65 617.62 547.64 616.4 546.46C613.75 543.95 611.8 546.87 610.1 548.95C605.16 554.95 600.8 555.83 594 552.14C580.64 544.88 564.86 551.31 561.16 566.06C559.78 571.76 560.13 577.91 559.82 581.91Z" fill="#F7CDB0"/>
<path d="M471.61 603.23V625.46H345.34V537.46H355.56C387.56 537.46 419.56 537.46 451.56 537.46C452.71 537.46 453.87 537.66 455.02 537.77C456.65 542.1 458.89 546.3 459.8 550.77C463.16 567.22 466.05 583.77 469.25 600.26C469.42 601.4 470.78 602.26 471.61 603.23ZM449.31 582.39H449.04C449.04 577.9 449.28 573.39 449.04 568.91C447.96 552.13 430.7 542.14 416.04 549.67C407.73 553.94 404.64 553.22 398.35 546.27C397.17 544.97 394.81 544.74 393 544.02C392.58 546.02 391.13 548.77 391.93 550.02C394.69 554.307 397.913 558.277 401.54 561.86C402.443 562.633 403.128 563.628 403.528 564.747C403.928 565.866 404.029 567.07 403.82 568.24C402.82 580.11 400.82 592.06 405.05 603.78C408.89 614.29 417.95 620.35 428.52 619.34C438.64 618.34 446.64 610.66 448.16 599.79C448.9 594.04 448.93 588.15 449.31 582.39V582.39Z" fill="#F8CEB1"/>
<path d="M471.61 603.23C470.78 602.23 469.42 601.4 469.21 600.31C466.01 583.82 463.12 567.31 459.76 550.82C458.85 546.34 456.61 542.14 454.98 537.82H471.18C471.39 538.14 471.72 538.41 471.72 538.67C471.7 560.183 471.663 581.703 471.61 603.23Z" fill="#DEB496"/>
<path d="M559.82 581.91C560.13 577.91 559.82 571.76 561.2 566.06C564.9 551.31 580.68 544.88 594.04 552.14C600.84 555.83 605.2 554.98 610.14 548.95C611.84 546.87 613.79 543.95 616.44 546.46C617.68 547.64 617.72 551.65 616.66 553.34C614.156 557.222 611.15 560.756 607.72 563.85C605.61 565.8 605.17 567.4 605.4 570.21C606.33 581.09 608.14 592.01 605.07 602.89C601.68 614.89 592.92 621.97 581.73 621.41C570.54 620.85 562.48 612.78 560.86 600.31C560.15 594.89 560.21 589.37 559.82 581.91Z" fill="#272421"/>
<path d="M449.31 582.39C448.93 588.19 448.9 594.04 448.09 599.78C446.57 610.65 438.57 618.36 428.45 619.33C417.88 620.33 408.82 614.33 404.98 603.77C400.71 592.05 402.73 580.1 403.75 568.23C403.959 567.06 403.858 565.856 403.458 564.737C403.058 563.618 402.373 562.623 401.47 561.85C397.843 558.267 394.62 554.297 391.86 550.01C391.06 548.75 392.51 546.01 392.93 544.01C394.74 544.73 397.1 544.96 398.28 546.26C404.57 553.21 407.66 553.93 415.97 549.66C430.65 542.13 447.91 552.12 448.97 568.9C449.26 573.38 448.97 577.9 448.97 582.38L449.31 582.39Z" fill="#272421"/>
</g>
</g>
<defs>
<clipPath id="clip0">
<rect width="1000" height="1000" fill="white"/>
</clipPath>
<clipPath id="clip1">
<rect width="626.6" height="789.15" fill="white" transform="translate(187 211)"/>
</clipPath>
</defs>
</svg>
