<svg id="ee826586-5069-475d-b153-26147cd498ff" data-name="gold" xmlns="http://www.w3.org/2000/svg" xmlns:xlink="http://www.w3.org/1999/xlink" viewBox="0 0 196.51 231.49"><defs><linearGradient id="f54544b0-b6ec-48bc-8df2-500f8a09fb87" x1="164.55" y1="85.7" x2="227.41" y2="85.7" gradientUnits="userSpaceOnUse"><stop offset="0" stop-color="#fbc73b"/><stop offset="1" stop-color="#fccf3f"/></linearGradient><linearGradient id="a90c0fe6-ae75-48d6-a595-63ae5b0fc667" x1="298.19" y1="85.7" x2="361.06" y2="85.7" gradientTransform="matrix(-1, 0, 0, 1, 391.96, 0)" xlink:href="#f54544b0-b6ec-48bc-8df2-500f8a09fb87"/><linearGradient id="b7c6aa5e-4a2b-480b-95f1-a517cfb3f595" x1="101.28" y1="195.37" x2="157.07" y2="195.37" gradientUnits="userSpaceOnUse"><stop offset="0" stop-color="#fcce3b"/><stop offset="1" stop-color="#fccf3f"/></linearGradient><linearGradient id="a98ae13c-6e35-4eaa-96eb-429e47b2916a" x1="72.04" y1="109.97" x2="185.66" y2="109.97" xlink:href="#b7c6aa5e-4a2b-480b-95f1-a517cfb3f595"/></defs><path id="a7f21a77-c097-4809-8fdf-85e9f130a6e7" data-name="gold handle r" d="M222.77,52.84A76.63,76.63,0,0,1,207.61,16.5c-19.78,39.88-9.34,40-9.34,40,22.1,9.3,20.7,19,18.42,23.49a2.67,2.67,0,0,1-3.77.89c-4.89-3.08-11.79-2.55-11.79-2.55-13.43-.47-19.4,6.55-19.4,6.55l-3.08,10.86c5.95-10.18,22.76-11.94,22.76-11.94,17.1,1.27,5.56,14.32,5.56,14.32C185,120,171,131.44,171,131.44c-12.77,13.39-2.74,19.74-2.74,19.74,3.85,2,9.72,3,12.53,2.64.29,0,3.19.9,3.48,1a3.91,3.91,0,0,0,1.89,0,3.17,3.17,0,0,0,2.28-2.1,3.12,3.12,0,0,0-3.27-3.8,3.51,3.51,0,0,0-2.55,1.06,5,5,0,0,1-2.57.87c-10.79-.45-14-6.77-7.52-12.53,18.86-16.77,47.26-43.69,45.92-43.54C235.66,71.47,222.77,52.84,222.77,52.84Z" transform="translate(-30.9 -16.5)" fill="url(#f54544b0-b6ec-48bc-8df2-500f8a09fb87)"/><path id="a77fdd0f-d010-4650-bae3-97ddf70bc633" data-name="gold handle l" d="M35.54,52.84A76.63,76.63,0,0,0,50.7,16.5c19.78,39.88,9.34,40,9.34,40-22.1,9.3-20.7,19-18.42,23.49a2.68,2.68,0,0,0,3.77.89c4.89-3.08,11.79-2.55,11.79-2.55,13.43-.47,19.41,6.55,19.41,6.55l3.07,10.86c-6-10.18-22.76-11.94-22.76-11.94-17.1,1.27-5.56,14.32-5.56,14.32C73.28,120,87.28,131.44,87.28,131.44,100.05,144.83,90,151.18,90,151.18c-3.85,2-9.72,3-12.53,2.64-.29,0-3.19.9-3.48,1a3.91,3.91,0,0,1-1.89,0,3.17,3.17,0,0,1-2.28-2.1,3.12,3.12,0,0,1,3.27-3.8,3.51,3.51,0,0,1,2.55,1.06,5,5,0,0,0,2.57.87c10.79-.45,14-6.77,7.52-12.53C66.89,121.5,38.49,94.58,39.83,94.73,22.65,71.47,35.54,52.84,35.54,52.84Z" transform="translate(-30.9 -16.5)" fill="url(#a90c0fe6-ae75-48d6-a595-63ae5b0fc667)"/><path id="a56b6035-ebfd-462a-b937-b2ca888b5bf6" data-name="gold base" d="M160.31,244.38V232a1.59,1.59,0,0,0-1.65-1.53h-59A1.59,1.59,0,0,0,98,232v12.41H96.87A1.66,1.66,0,0,0,95.14,246v.95A1.12,1.12,0,0,0,96.31,248h65.86a1,1,0,0,0,1-1V246a1.66,1.66,0,0,0-1.73-1.59Z" transform="translate(-30.9 -16.5)" fill="#58595b"/><path id="affa887e-981b-4006-a981-d90502f21b5d" data-name="gold shaft" d="M145.62,221.63V211.48a.42.42,0,0,0-.09-.27c-1-1.27-9.34-12.72-7.67-26.8l0-.08c.23-.79,4-13.92.1-23.74a.44.44,0,0,0-.42-.29H120.8a.46.46,0,0,0-.43.29c-3.88,9.82-.13,22.95.1,23.74a.24.24,0,0,1,0,.08c1.67,14.08-6.7,25.53-7.67,26.8a.42.42,0,0,0-.09.27v10.15a.44.44,0,0,1-.19.37l-11.06,7.62a.45.45,0,0,0,.26.82h54.87a.45.45,0,0,0,.26-.82L145.82,222A.43.43,0,0,1,145.62,221.63Z" transform="translate(-30.9 -16.5)" fill="url(#b7c6aa5e-4a2b-480b-95f1-a517cfb3f595)"/><path id="f6a491ab-1ed0-4f5b-8876-f9a4c7d120df" data-name="gold cup" d="M185.66,64.08H72s-1.36,85.83,48.45,91.78h16.72C187,149.91,185.66,64.08,185.66,64.08Z" transform="translate(-30.9 -16.5)" fill="url(#a98ae13c-6e35-4eaa-96eb-429e47b2916a)"/><path id="e515fa3d-703c-42a6-9998-45178f4c8da2" data-name="gold shade 1" d="M72.29,64.08H186.05s1.3,84.36-47.9,92.1l-17.66-.32s50.28-20,50.75-86.24Z" transform="translate(-30.9 -16.5)" fill="#fbb040"/><path id="b2476a9d-d1fa-4901-8e5d-40df14514b3c" data-name="gold  band" d="M120.16,160.15v-4a.32.32,0,0,1,.33-.32h17.34a.32.32,0,0,1,.32.32l0,4a.33.33,0,0,1-.32.33H120.49A.33.33,0,0,1,120.16,160.15Z" transform="translate(-30.9 -16.5)" fill="#eaa43c"/><rect id="e40605aa-eb0c-4af7-be70-afb76cccfef5" data-name="gold rim" x="37.42" y="36.35" width="121.69" height="11.23" rx="3.97" fill="#f6f083"/><rect id="a58d3fb8-3fd3-4e5a-968a-fe1013a922b2" data-name="gold shade 2" x="81.83" y="194.97" width="32.89" height="10.15" fill="#fbb040"/><path id="b0d47e6a-eccc-4998-9fc6-39029300f0c3" data-name="gold highlight 1" d="M80.64,64.08s-5.06,51.46,16.27,71.56c0,0-15.23-35.78-9.74-71.56Z" transform="translate(-30.9 -16.5)" fill="#f8ee56"/></svg>