<svg id="b9b3d76a-327c-4092-b45a-c0a7d464a93f" data-name="Layer 2" xmlns="http://www.w3.org/2000/svg" viewBox="0 0 684 550"><polygon points="342.82 550 0 207 171.41 207 342.82 550" fill="#ed5aa1"/><polygon points="342.82 550 512.47 207 171.41 207 342.82 550" fill="#fe7ab3"/><polygon points="342.82 550 684 207 512.47 207 342.82 550" fill="#c84f85"/><polygon points="0 207 101.82 0 171.41 207 0 207" fill="#c55085"/><polygon points="101.82 0 268.94 0 342.82 78.94 171.41 207 101.82 0" fill="#f35f91"/><polygon points="171.41 207 342.82 78.94 512.47 207 171.41 207" fill="#f7b0d2"/><polygon points="580.82 0 416.05 0 343.21 78.94 512.21 207 580.82 0" fill="#fe83af"/><polygon points="580.82 0 512.21 207 684 207 580.82 0" fill="#ed5f91"/></svg>