<svg width="15" height="16" viewBox="0 0 15 16" fill="none" xmlns="http://www.w3.org/2000/svg">
<g clip-path="url(#clip0)">
<path d="M13.3292 3.30349C12.7978 2.11442 11.2671 1.14154 9.48659 1.70797C8.63577 1.97594 7.89345 2.55061 7.3809 3.33808C6.86836 2.55061 6.12603 1.97594 5.27522 1.70797C3.49074 1.15019 1.96402 2.11442 1.43264 3.30349C0.687124 4.9682 0.996434 6.84045 2.35264 8.86836C3.41539 10.4552 4.93418 12.0637 7.13901 13.9317C7.20869 13.9909 7.29452 14.0231 7.38289 14.0231C7.47125 14.0231 7.55709 13.9909 7.62676 13.9317C9.82762 12.0681 11.3504 10.4725 12.4131 8.86836C13.7654 6.84045 14.0747 4.9682 13.3292 3.30349V3.30349Z" fill="#FB6D4C"/>
</g>
<defs>
<clipPath id="clip0">
<rect width="14.2758" height="15.5661" fill="white" transform="translate(0.243408)"/>
</clipPath>
</defs>
</svg>
