<svg id="Layer_1" data-name="Layer 1" xmlns="http://www.w3.org/2000/svg" xmlns:xlink="http://www.w3.org/1999/xlink" viewBox="0 0 1951.01 1091"><defs><style>.cls-1,.cls-26{fill:none;}.cls-2{clip-path:url(#clip-path);}.cls-3{fill:url(#linear-gradient);}.cls-4{fill:url(#linear-gradient-2);}.cls-5{fill:url(#linear-gradient-3);}.cls-6{fill:url(#linear-gradient-4);}.cls-7{fill:url(#linear-gradient-5);}.cls-8{fill:#1e394c;}.cls-9{fill:url(#linear-gradient-6);}.cls-10{fill:#8baaad;}.cls-11{fill:#bfddd5;}.cls-12{fill:url(#linear-gradient-7);}.cls-13{fill:#dfefe4;}.cls-14{fill:url(#linear-gradient-8);}.cls-15{fill:url(#linear-gradient-9);}.cls-16{fill:url(#linear-gradient-10);}.cls-17{fill:url(#linear-gradient-11);}.cls-18{fill:#fdfde5;}.cls-19{fill:url(#linear-gradient-12);}.cls-20{stroke:#3b684d;stroke-width:3px;fill:url(#linear-gradient-13);}.cls-20,.cls-25,.cls-26,.cls-27,.cls-28,.cls-29,.cls-30,.cls-31,.cls-35,.cls-36,.cls-37,.cls-38,.cls-39{stroke-miterlimit:10;}.cls-21{fill:url(#linear-gradient-14);}.cls-22{fill:#483318;}.cls-23{fill:url(#linear-gradient-15);}.cls-24{fill:#413000;}.cls-25,.cls-26,.cls-35,.cls-36,.cls-37,.cls-38,.cls-39{stroke:#c2b59b;}.cls-25,.cls-26,.cls-27,.cls-28,.cls-29,.cls-30,.cls-31,.cls-35,.cls-36,.cls-37,.cls-38,.cls-39{stroke-width:5px;}.cls-25{fill:url(#linear-gradient-16);}.cls-27,.cls-28,.cls-29,.cls-30,.cls-31{stroke:#939598;}.cls-27{fill:url(#linear-gradient-17);}.cls-28{fill:url(#linear-gradient-18);}.cls-29{fill:url(#linear-gradient-19);}.cls-30{fill:url(#linear-gradient-20);}.cls-31{fill:url(#linear-gradient-21);}.cls-32{fill:url(#linear-gradient-22);}.cls-33{fill:url(#linear-gradient-23);}.cls-34{fill:url(#linear-gradient-24);}.cls-35{fill:url(#linear-gradient-25);}.cls-36{fill:url(#linear-gradient-26);}.cls-37{fill:url(#linear-gradient-27);}.cls-38{fill:url(#linear-gradient-28);}.cls-39{fill:url(#linear-gradient-29);}.cls-40{fill:url(#radial-gradient);}.cls-41{fill:url(#radial-gradient-2);}.cls-42{fill:url(#radial-gradient-3);}.cls-43{fill:url(#radial-gradient-4);}.cls-44{fill:url(#radial-gradient-5);}.cls-45{fill:#f8f8f9;}.cls-46{fill:#fff;}.cls-47{fill:#fffbfd;}</style><clipPath id="clip-path" transform="translate(17 125)"><rect class="cls-1" width="1920" height="928"/></clipPath><linearGradient id="linear-gradient" x1="1488.99" y1="303.5" x2="1488.99" y2="789.63" gradientTransform="matrix(1, 0, 0, -1, 0, 930)" gradientUnits="userSpaceOnUse"><stop offset="0.01" stop-color="#1e394c"/><stop offset="1" stop-color="#2d4c61"/></linearGradient><linearGradient id="linear-gradient-2" x1="1197.85" y1="809" x2="1197.85" y2="505.3" gradientTransform="matrix(1, 0, 0, -1, 0, 930)" gradientUnits="userSpaceOnUse"><stop offset="0.01" stop-color="#204356"/><stop offset="0.63" stop-color="#1f4053"/><stop offset="1" stop-color="#1e394c"/></linearGradient><linearGradient id="linear-gradient-3" x1="1544.21" y1="809" x2="1544.21" y2="504.5" gradientTransform="matrix(1, 0, 0, -1, 0, 930)" gradientUnits="userSpaceOnUse"><stop offset="0.01" stop-color="#617762"/><stop offset="0.58" stop-color="#456061"/><stop offset="1" stop-color="#2d4c61"/></linearGradient><linearGradient id="linear-gradient-4" x1="837.72" y1="631.5" x2="837.72" y2="809" gradientTransform="matrix(1, 0, 0, -1, 0, 930)" gradientUnits="userSpaceOnUse"><stop offset="0.01" stop-color="#1e394c"/><stop offset="0.86" stop-color="#1e394c"/><stop offset="1" stop-color="#1e394c"/></linearGradient><linearGradient id="linear-gradient-5" x1="1060.3" y1="849" x2="1060.3" y2="720.26" xlink:href="#linear-gradient-3"/><linearGradient id="linear-gradient-6" x1="255.78" y1="822" x2="255.78" y2="627.93" gradientTransform="matrix(1, 0, 0, -1, 0, 930)" gradientUnits="userSpaceOnUse"><stop offset="0.01" stop-color="#2d4c61"/><stop offset="0.45" stop-color="#2a495d"/><stop offset="0.86" stop-color="#223e52"/><stop offset="1" stop-color="#1e394c"/></linearGradient><linearGradient id="linear-gradient-7" x1="228.55" y1="656.4" x2="228.55" y2="178.59" gradientTransform="matrix(1, 0, 0, -1, 0, 930)" gradientUnits="userSpaceOnUse"><stop offset="0.01" stop-color="#204356"/><stop offset="1" stop-color="#1e394c"/></linearGradient><linearGradient id="linear-gradient-8" x1="192.23" y1="656.75" x2="192.23" y2="523.56" xlink:href="#linear-gradient-3"/><linearGradient id="linear-gradient-9" x1="160.12" y1="486.7" x2="160.12" y2="417.84" xlink:href="#linear-gradient-3"/><linearGradient id="linear-gradient-10" x1="221.58" y1="399.18" x2="221.58" y2="237.87" xlink:href="#linear-gradient-3"/><linearGradient id="linear-gradient-11" x1="436.46" y1="277.76" x2="436.46" y2="-25" gradientTransform="matrix(1, 0, 0, -1, 0, 930)" gradientUnits="userSpaceOnUse"><stop offset="0" stop-color="#2d4c61"/><stop offset="0.48" stop-color="#28465a"/><stop offset="1" stop-color="#1e394c"/></linearGradient><linearGradient id="linear-gradient-12" x1="248.14" y1="822" x2="248.14" y2="724.96" xlink:href="#linear-gradient-3"/><linearGradient id="linear-gradient-13" x1="977.22" y1="639.51" x2="977.22" y2="-25.5" gradientTransform="matrix(1, 0, 0, -1, 0, 930)" gradientUnits="userSpaceOnUse"><stop offset="0" stop-color="#3d5e38"/><stop offset="0.46" stop-color="#76904f"/><stop offset="0.81" stop-color="#9bb15d"/><stop offset="1" stop-color="#a9bd63"/></linearGradient><linearGradient id="linear-gradient-14" x1="315.63" y1="301.5" x2="1485.21" y2="301.5" gradientTransform="matrix(1, 0, 0, -1, 0, 930)" gradientUnits="userSpaceOnUse"><stop offset="0" stop-color="#83a7a5"/><stop offset="0.02" stop-color="#85a9a6"/><stop offset="0.45" stop-color="#aeccc3"/><stop offset="0.79" stop-color="#c8e1d5"/><stop offset="1" stop-color="#d1e9dc"/></linearGradient><linearGradient id="linear-gradient-15" x1="489.49" y1="459.78" x2="1430.49" y2="459.78" gradientTransform="matrix(1, 0, 0, -1, 0, 930)" gradientUnits="userSpaceOnUse"><stop offset="0.01" stop-color="#886441"/><stop offset="0.14" stop-color="#634522"/><stop offset="0.31" stop-color="#735229"/><stop offset="0.65" stop-color="#603b0f"/><stop offset="0.8" stop-color="#886441"/><stop offset="1" stop-color="#5f4421"/></linearGradient><linearGradient id="linear-gradient-16" x1="678.31" y1="334.15" x2="920.86" y2="334.15" gradientTransform="matrix(1, 0, 0, -1, 0, 930)" gradientUnits="userSpaceOnUse"><stop offset="0.01" stop-color="#f6e8d7"/><stop offset="1" stop-color="#d8cdbb"/></linearGradient><linearGradient id="linear-gradient-17" x1="1022.5" y1="737.7" x2="1022.5" y2="474.17" gradientTransform="matrix(1, 0, 0, -1, 0, 930)" gradientUnits="userSpaceOnUse"><stop offset="0.01" stop-color="#f3f4f4"/><stop offset="0.29" stop-color="#d7d5d6"/><stop offset="0.49" stop-color="#cecccd"/><stop offset="0.5" stop-color="#c8c6c7"/><stop offset="0.5" stop-color="#c3c2c2"/><stop offset="0.51" stop-color="#c2c1c0"/><stop offset="0.54" stop-color="#c2c1c0"/><stop offset="0.58" stop-color="#c9c8c8"/><stop offset="0.68" stop-color="#d5d5d5"/><stop offset="0.8" stop-color="#ddd"/><stop offset="1" stop-color="#dfdfe0"/></linearGradient><linearGradient id="linear-gradient-18" x1="719.91" y1="737.7" x2="719.91" y2="480.02" xlink:href="#linear-gradient-17"/><linearGradient id="linear-gradient-19" x1="879.37" y1="743.44" x2="879.37" y2="474.28" xlink:href="#linear-gradient-17"/><linearGradient id="linear-gradient-20" x1="1131.8" y1="763.57" x2="1131.8" y2="716.36" xlink:href="#linear-gradient-17"/><linearGradient id="linear-gradient-21" x1="1245.5" y1="729.64" x2="1245.5" y2="460.82" xlink:href="#linear-gradient-17"/><linearGradient id="linear-gradient-22" x1="798.94" y1="248.69" x2="798.94" y2="227.59" gradientTransform="matrix(1, 0, 0, -1, 0, 930)" gradientUnits="userSpaceOnUse"><stop offset="0.03" stop-color="#d3d1d3"/><stop offset="0.26" stop-color="#cac8cb"/><stop offset="0.62" stop-color="#b4b1b5"/><stop offset="1" stop-color="#989498"/></linearGradient><linearGradient id="linear-gradient-23" x1="886.72" y1="381.72" x2="911.02" y2="381.72" gradientTransform="matrix(1, 0, 0, -1, 0, 930)" gradientUnits="userSpaceOnUse"><stop offset="0" stop-color="#d3d1d3"/><stop offset="0.24" stop-color="#cac8cb"/><stop offset="0.61" stop-color="#b4b1b5"/><stop offset="1" stop-color="#989498"/></linearGradient><linearGradient id="linear-gradient-24" x1="886.72" y1="297.41" x2="911.02" y2="297.41" xlink:href="#linear-gradient-23"/><linearGradient id="linear-gradient-25" x1="1011.58" y1="477.47" x2="1011.58" y2="179.71" gradientTransform="matrix(1, 0, 0, -1, 0, 930)" gradientUnits="userSpaceOnUse"><stop offset="0.01" stop-color="#f6e8d7"/><stop offset="0.46" stop-color="#f3e6d5"/><stop offset="0.7" stop-color="#ece0cf"/><stop offset="0.9" stop-color="#e2d7c6"/><stop offset="1" stop-color="#dcd1bf"/></linearGradient><linearGradient id="linear-gradient-26" x1="1352.27" y1="474.16" x2="1352.27" y2="178.55" xlink:href="#linear-gradient-25"/><linearGradient id="linear-gradient-27" x1="588.05" y1="505.02" x2="588.05" y2="158.61" xlink:href="#linear-gradient-25"/><linearGradient id="linear-gradient-28" x1="1191.67" y1="486.43" x2="1191.67" y2="177.19" xlink:href="#linear-gradient-25"/><linearGradient id="linear-gradient-29" x1="777.4" y1="449.2" x2="777.4" y2="264.73" xlink:href="#linear-gradient-25"/><radialGradient id="radial-gradient" cx="436.78" cy="963.23" r="1" gradientTransform="matrix(19.81, 0, 0, -19.81, -7830.42, 19616.11)" gradientUnits="userSpaceOnUse"><stop offset="0.03" stop-color="#d3d1d3"/><stop offset="0.44" stop-color="#cececf"/><stop offset="0.79" stop-color="#c1c3c5"/><stop offset="1" stop-color="#b4b9bb"/></radialGradient><radialGradient id="radial-gradient-2" cx="436.78" cy="963.23" r="1" gradientTransform="matrix(19.81, 0, 0, -19.81, -7926.38, 19710.12)" xlink:href="#radial-gradient"/><radialGradient id="radial-gradient-3" cx="436.78" cy="963.23" r="1" gradientTransform="matrix(19.81, 0, 0, -19.81, -7879.99, 19659.22)" xlink:href="#radial-gradient"/><radialGradient id="radial-gradient-4" cx="436.78" cy="963.23" r="1" gradientTransform="matrix(19.81, 0, 0, -19.81, -7830.42, 19710.12)" xlink:href="#radial-gradient"/><radialGradient id="radial-gradient-5" cx="436.78" cy="963.23" r="1" gradientTransform="matrix(19.81, 0, 0, -19.81, -7926.38, 19616.11)" xlink:href="#radial-gradient"/></defs><g class="cls-2"><path class="cls-3" d="M1046,482.5l162.38-57s93.8-23,128.09-51l104.89-45,105.9-37,22.19-31,114-51,62.53-39,134.14-28S1869,135,1932,146V626l-174,.5-17.15-23-51.44,11-34.29-22-62.53,5-85.73-5L1558.3,561h-75.36s-69.43-14.5-89.8,0l-104.6-39-.5-1H1177.1L1168,504.5Z" transform="translate(17 125)"/><path class="cls-4" d="M686.43,363H746.7l45.57,19,125.3-9.5,45.57,9.5h45.21l74.18,26.29,125.71,16.41,93.4-64.14-24.53-12.16,38.66-27.61V304H1282s14-22.52-20-81.42L1333.8,260l-18-37.46-43.67-11.23,12.37-39.73,20.19,22.87,100,6,11.11,30.83,29.13,12.45L1445,219l3.8-27.82-47-20.18,224.73,9,82.7-28-22.66-13.39,5.52-17.61-74.63,36H1281.64s-18.15,18-57.49,35l-26.22,13.29L1106.14,188l-43.37,17h-56.63l-74.63,43-72.62,27-60.51,18Z" transform="translate(17 125)"/><path class="cls-5" d="M1208.36,425.5s88.25-17.5,128.09-51l210.79-82,22.19-31,114-51,62.53-39,134.14-28L1763.33,121H1692l-5.52,17.61L1709.1,152l-77.66,26-233-10,32.27,29,14,46.52L1415.6,231l-10.09-34-100.86-6-20.17-20-12.35,39.94,61.63,49L1258.26,220l23.79,84.12L1311.71,321l-34.58,27.77L1297.59,361Z" transform="translate(17 125)"/><path class="cls-6" d="M-16.53,298l820.77-6.45,55.28-16.94s78.4-19.93,144.74-68.77l57.29,2,44.23-19.93,91.47,18.94s30.67-10,46.75-18.94l44-26.9h332.35L1692,121l-159.29,17.61L1410.22,121H1299.63l-91.27,30.57s-195.15-76.45-162.88,19.3l.5.41-31.59-32.71L755,173.87l-36.31-11L604.33,209.5l82.11-57.94L638.5,121S111.56,309.44-16.53,298Z" transform="translate(17 125)"/><path class="cls-7" d="M766.64,145.37,1046,121l207.26-15,79.68-25,199.69,58-233.45-18h.47l-87.74,36c-180-56.65-166.41,14-166.41,14l.5.41L1014.21,139,753,178l-35.3-11L588,216.5,676,149l-48-25" transform="translate(17 125)"/><path class="cls-8" d="M1106,188l-50.43,48v48l-32.27,61,37.32-56,7.85,24.41,5.26-81.41L1106,222Z" transform="translate(17 125)"/><path class="cls-8" d="M842.76,310l66.11-5.41,69-75.59-67.58,92Z" transform="translate(17 125)"/><path class="cls-8" d="M917.57,372.78,911.52,345l6.05,13.89,40.16-8.77L920.42,363Z" transform="translate(17 125)"/><path class="cls-9" d="M-16.53,298.47V108s139.65,67,336.09,13h93.55l115,38s-182.53,63.37-306.6,98C103.72,289.87-4.25,310.87-16.53,298.47Z" transform="translate(17 125)"/><path class="cls-10" d="M1373.26,93l170.45-12S1692,116,1793.83,56L1926,26l4,131-166.41-35-74.63-1-82.7,9-73.62,9Z" transform="translate(17 125)"/><path class="cls-10" d="M926.47,55.82,738.53,145.19l56.83,10.63,457.88-50L1287.73,95,1094.9,91.82S1008.16,80.82,926.47,55.82Z" transform="translate(17 125)"/><path class="cls-11" d="M-10.47,56,164,113,448.06,78.34,549.27,108l94.81-22,71.66,14.68,57-18.43,85.8,6.07-120,57.05L626.93,125,523.05,161,412.43,121H342.34L231.58,145l-109.93,6L28.86,129l-45.39-21V81Z" transform="translate(17 125)"/><path class="cls-12" d="M-10.47,273.6,421,415.35,205.26,438H66.47l-76.94,25.41s692.69,55.94,139.59,95.94l76.14,17,60.55,50.5,201.77,70.5L231.46,751.41-10.47,652.59Z" transform="translate(17 125)"/><path class="cls-13" d="M-10,56,1932,26V-125H-10.47" transform="translate(17 125)"/><path class="cls-14" d="M-10.47,273.25,69.2,356l5-40,108.63,40,212.07,50.44Z" transform="translate(17 125)"/><path class="cls-15" d="M-10.47,463.06l58.05,31.06,97.2-15.53,185.93,33.57S55.08,463.59-10.47,443.3Z" transform="translate(17 125)"/><path class="cls-16" d="M-10.47,530.82,100.65,559h28.47l76.13,17,60.56,50.5,187.82,65.63L314.28,664l-71.61,16-11.21-53.5-119.78-15Z" transform="translate(17 125)"/><path class="cls-17" d="M-10.47,652.24l241.93,98.82,163.48,73.41L889.45,927,550.57,955H-16.53Z" transform="translate(17 125)"/><path class="cls-8" d="M9.7,677.61l139.36,73.06L296.78,780h-162Z" transform="translate(17 125)"/><path class="cls-8" d="M221.57,847l108.77-14.17,64.6-8.42L528.09,852Z" transform="translate(17 125)"/><path class="cls-8" d="M-16.53,838.27s27.58,87.19,299.15,101.3q7,.36,14.15.66C581.55,952-16.53,955-16.53,955Z" transform="translate(17 125)"/><path class="cls-8" d="M1359.32,406.44l162.32-66.59L1548.75,293Z" transform="translate(17 125)"/><path class="cls-8" d="M1745.41,174,1701,239l20.64,82.41-64,101.59,77.66-95,21.18,39-15.43-46.36L1732.3,265l21-65.75L1817,157Z" transform="translate(17 125)"/><path class="cls-8" d="M1925.94,157l-27.23,29,16.14,34-45.56,99.19L1912.83,262,1932,377V158" transform="translate(17 125)"/><path class="cls-8" d="M1740.88,603.5l33.78-42.5,22.19-49-12.1-79,22.37,85.25L1779.7,563Z" transform="translate(17 125)"/><path class="cls-8" d="M1398.47,547l52-28.75L1466,464l47-49-34.94,52L1464,534Z" transform="translate(17 125)"/><path class="cls-18" d="M1932,25.82l-138.17,30s-84.72,65-245.08,25l-175.49,12-40.34-12L1287.73,95,1094.9,91.82s-68.58-5-168.43-36l-68,32.32-85.81-6.07-57,18.43L644.07,85.82l-94.8,22L448.06,78.16,164,112.82l-174.48-57L-11,44,1932,26Z" transform="translate(17 125)"/><path class="cls-8" d="M1082.8,409l17.14-40,87.81-19.28L1243.16,308l-45.39,46.35,29.84-4.63L1170.54,369,1106,374Z" transform="translate(17 125)"/><path class="cls-19" d="M341.86,121,231.1,145l-109.93,6L28.38,129-17,108,7.21,136l79.43,15s22.43,13,24.45,30l11.15-20,96.82,20,17.08-21,95.51-19.12s-9.71,48.2-32.95,64.16l54.91-44v21.82L370.28,133l31.27,19,65.56-1.65,46.16,7.28L412,121Z" transform="translate(17 125)"/><path class="cls-20" d="M63.73,297.94l330.56,108.6L65.57,437.76,21.94,452.17s48,11.54,97.84,22c79.83,16.7,187.36,31.4,210.23,38.18,0,0,24.25,11-202.15,46.89l76.61,17,60.6,50.54,188,65.68-222.34,59,163.62,73.47L889.17,927.49,550,955.5H1932.51v-329l-174,1-17.15-23.85-51.94,10.66-33.79-21.82H1507.48l51.77-31.72-159.94-10.07-7.11,10.07L1287.58,521.5l-110.7-.5-9.05-16.95-121.65-21.93L1208,425.3l-125.17-16.45L1009,382.49H963.13l-45.57-10-125.3,10-45.56-20H686.85l120.69-72Z" transform="translate(17 125)"/><path class="cls-21" d="M1176.59,772s434.69-43,106.91-100c-60.61-10.54-857.27-35-218.86-79,0,0,271.3-38-51.44-69,0,0-638.41-28-300.55-81,0,0,232-37-14.12-60-9.45-.88-679.76-45,108.92-92,0,0-836.09,11-328,91.56,0,0,409.72,32.44,48.66,60.74,0,0-569.6,25.24,330.42,104.47,0,0,168.82,11.24,0,31.06,0,0-772.15,38.17-94.41,101.17,0,0,624.29,51,94.8,71,0,0-637.4,45,49.42,125,0,0,85.36,20.43-14.92,49.78L550.57,955,1462,966s139.18-70-264.24-131.79C883.35,786.05,1181.35,779.51,1176.59,772Z" transform="translate(17 125)"/><path class="cls-22" d="M601.87,427l58.38-230.78a6.55,6.55,0,0,1,6.63-4.94l130.29,5.63a6.57,6.57,0,0,1,5.9,4.37l12.79,36.34C818.92,242.88,821,193,821,193c.16-3.5,93.38,3.55,93.38,3.55a5.49,5.49,0,0,0,.81,0l76.4-1.21c2.69-.08,7.86.87,8.71,3.42l7.55,18.37c1.77,5.32,8.06,6.79,10.21,2.31a5.65,5.65,0,0,0,.49-2l1.45-17a6.26,6.26,0,0,1,.41-1.81c.86-2.16,2.44-3.68,4.86-3.63l74.13,1.47a6.53,6.53,0,0,0,5.71-3.12l9.41-15.34a6.54,6.54,0,0,1,5.58-3.12h37.06c4.34,0-3.06,18.35-4.24,22.53v5.59c-1.19,4.24,8.82,2.12,13.22,2l186.6-4.69a6.55,6.55,0,0,1,6.71,6.55V333.37a6.55,6.55,0,0,1-6.55,6.55h-41.06a6.55,6.55,0,0,0-6.55,6.55V456.2a6.56,6.56,0,0,0,6.13,6.54l31.51,2a57.44,57.44,0,0,1,25.33,7.76l56.55,33.15a6.55,6.55,0,0,1,3.24,5.65l-2.15,105,2.15,112a6.56,6.56,0,0,1-2.59,5.22l-66.13,50.22a6.54,6.54,0,0,1-4.22,1.33l-69.9-2.72a6.51,6.51,0,0,1-.76-.07l-73.29-11.49a6.58,6.58,0,0,1-5.15-4.24l-14.25-39.44c-2.4-6.63-12.14-5.31-12.69,1.71l-2.43,31a6.55,6.55,0,0,1-4.92,5.84l-71,18a6.54,6.54,0,0,1-8.15-6.35v-5.11a6.55,6.55,0,0,0-6.24-6.54l-41.8-2a6.56,6.56,0,0,1-6.14-5.4l-3.07-17.4a6.55,6.55,0,0,0-6.53-5.41l-25.93.33a6.55,6.55,0,0,0-6.35,5.33L991.6,766.7a6.55,6.55,0,0,1-5.7,5.28l-67.1,7.53a6.55,6.55,0,0,1-7.27-7l1.5-22.34a6.55,6.55,0,0,0-6.53-7l-195.19-.1a6.53,6.53,0,0,1-4.69-2l-13.56-14a6.55,6.55,0,0,0-10.9,2.47l-6,17.77a6.46,6.46,0,0,1-2.33,3.18l-69.19,50.78a6.59,6.59,0,0,1-5.42,1.09L502.3,779a6.54,6.54,0,0,1-5-7c3.18-34.67,24.45-218-.65-315.26-1-3.79-4.26-10.45-.39-11L596.41,431.9A6.56,6.56,0,0,0,601.87,427Z" transform="translate(17 125)"/><path class="cls-23" d="M601.16,411.06l60-237a2.24,2.24,0,0,1,2.27-1.69l136.7,5.91a2.23,2.23,0,0,1,2,1.5l13.75,39.08c3.06,5.24,5.16-44.6,5.16-44.6.16-3.5,93.38,3.55,93.38,3.55a5.49,5.49,0,0,0,.81,0l76.4-1.21c2.69-.08,7.86.87,8.71,3.42l7.55,18.37c1.88,5.64,8.85,7,10.55,1.42l.09-.49,1.55-18.11a1.86,1.86,0,0,1,.09-.47c.76-2.58,2.42-4.5,5.14-4.45l76.59,1.52a2.24,2.24,0,0,0,2-1.07l12-19.5a2.25,2.25,0,0,1,1.91-1.07h45.16a2.24,2.24,0,0,1,2.16,2.85l-6.9,24.58a2.25,2.25,0,0,0,2.22,2.85l196.85-5a2.24,2.24,0,0,1,2.3,2.24V318.9a2.24,2.24,0,0,1-2.24,2.24h-49.67a2.24,2.24,0,0,0-2.24,2.24V441.47a2.25,2.25,0,0,0,2.1,2.24l37.09,2.39a50.9,50.9,0,0,1,22.3,6.79l.26.17,62.52,47.73a2.25,2.25,0,0,1,.88,1.81l-4.64,102.13c-.07,1.62-.09,3.25-.06,4.87l2.31,102.1a2.26,2.26,0,0,1-.89,1.76l-69.07,52.45a2.26,2.26,0,0,1-1.44.46l-71.7-2.78a1.15,1.15,0,0,1-.26,0l-76-11.92a2.24,2.24,0,0,1-1.76-1.45l-21.9-60.6a2.25,2.25,0,0,0-4.35.59l-4.24,53.92a2.25,2.25,0,0,1-1.69,2l-79.41,20.08a2.24,2.24,0,0,1-2.79-2.17V749.26a2.24,2.24,0,0,0-2.14-2.24l-49.34-2.37a2.24,2.24,0,0,1-2.1-1.85l-4.3-24.39a2.24,2.24,0,0,0-2.24-1.85l-33.11.42a2.25,2.25,0,0,0-2.18,1.82L991,751a2.24,2.24,0,0,1-2,1.81l-75.38,8.46a2.24,2.24,0,0,1-2.49-2.38l2.15-32.08a2.24,2.24,0,0,0-2.24-2.39l-201.61-.1a2.25,2.25,0,0,1-1.61-.68l-19.74-20.32a2.24,2.24,0,0,0-3.73.85l-8.69,25.74a2.24,2.24,0,0,1-.8,1.09L603,783.8a2.24,2.24,0,0,1-1.86.37l-102.5-24.83A2.25,2.25,0,0,1,497,757c2.1-22,20.64-226.46-7.37-326.44a2.25,2.25,0,0,1,1.85-2.84l107.84-14.94A2.23,2.23,0,0,0,601.16,411.06Z" transform="translate(17 125)"/><path class="cls-24" d="M876.62,484.11H702.22a18.32,18.32,0,0,0-18.41,18.22V665.7A18.16,18.16,0,0,0,689,678.35l33.85,34.76a18.53,18.53,0,0,0,13.26,5.58h174.4a18.32,18.32,0,0,0,18.41-18.22V537.1a18.16,18.16,0,0,0-5.15-12.65l-33.85-34.76A18.55,18.55,0,0,0,876.62,484.11Z" transform="translate(17 125)"/><path class="cls-24" d="M1107.66,733.46l-12.09-65.1a.14.14,0,0,0,0-.06l-38.22-208.08a6.12,6.12,0,0,0-8.45-4.47l-6.09,2.62-.41.16L978,480.88a6.07,6.07,0,0,0-4,4.7l-31.3,182.76a.14.14,0,0,1,0,.06L929,747.29a4.92,4.92,0,0,0,5.53,5.68l48.45-6.41a4.91,4.91,0,0,0,4.22-4l5.72-33.46a4.92,4.92,0,0,1,4.87-4.08h47.34a4.93,4.93,0,0,1,4.87,4l4.21,23.6a4.94,4.94,0,0,0,4.58,4l43.78,2.58A4.92,4.92,0,0,0,1107.66,733.46ZM1028.41,590.2l12.78,68.16a6.07,6.07,0,0,1-6,7.16h-32a1.44,1.44,0,0,1-1.43-1.72l14.65-73.67C1017.7,583.59,1027.17,583.64,1028.41,590.2Z" transform="translate(17 125)"/><path class="cls-24" d="M1290.37,752.29c10.25-96.74,11.05-194.21.48-293,.61-.05,1.09-.11,1.57-.11,10.48,0,21,0,31.45-.09,9.79-.05,31.25,0,32.11.5,17.76,9.87,69.28,48.41,69.18,54-.44,24-1.74,88.05-1.89,93.33-.3,10,1.57,91.93,1.33,101.7,0,1.5-10,8.37-14.41,11.34l-25.76,17.43q-12.4,8.4-24.83,16.75a4,4,0,0,1-2.15.59c-1.28,0-2.55-.2-3.83-.24l-23.76-.64c-4.77-.14-9.54-.31-14.31-.47l-13.58-.46c-3.49-.12-7-.27-10.47-.41C1291.2,752.43,1290.91,752.36,1290.37,752.29ZM1343.23,683l22.62-10c5.28-2.34,8.81-8.49,8.83-15.39.12-32.17.34-64.22.31-96.24,0-6.86-3.49-13-8.73-15.39l-26.65-12.16c0,.82-.09,1.42-.08,2,.06,2.4.17,4.8.23,7.21q.32,12.57.61,25.13.29,11.52.57,23,.32,12.57.61,25.13.29,11.63.57,23.26.33,14.08.65,28.16.17,7,.32,14C1343.1,682.06,1343.16,682.43,1343.23,683Z" transform="translate(17 125)"/><path class="cls-24" d="M515,441.69c-.18-3.24,1.86-6.06,4.63-6.39,10.53-1.26,34.26-4,36.91-4.32,5.79-.67,39.21-4.47,44.58-5.13,2.28-.28,64.82,40.25,64.91,42.47.46,11.44,4.56,53,4.18,60.84-.14,3-13.52,43.25-17,51.26a6.9,6.9,0,0,0-.12,5.15c3.09,8.21,11.9,31.5,15.63,41.26.66,1.73,7.56,45.75,7.79,51.65.32,8.29-9,49.26-10.48,50.24-6.07,4.1-14,12.67-24.39,21.52q-16.41,11-32.8,22c-.8.54-45.59-8.66-50.92-9.78-4.27-.9-26.84-5.72-36.54-7.86-2.55-.56-4.34-3.23-4.2-6.25,1.17-24.78,6.3-129.61,6.19-144.76S516.58,469.48,515,441.69ZM574.2,672c0,3.49-3,46.33,0,46.1,9.67-.75,28.76,5.14,31.14,4.94,0,0,.4-88.08,0-93.86-.15-2.12-13.77-1.88-24.32-6-3.35-1.32-6.82,1.6-6.82,5.73Zm28-120.76c.72-10,1.5-71.46-1.4-71.67-8.18-.58-17.39.47-25.57,0-2.93-.17.08,54.21,0,64.49C575.19,547.38,602,554.48,602.19,551.28Z" transform="translate(17 125)"/><path class="cls-24" d="M1228,612.66l36.43-38.38a2.87,2.87,0,0,0,.69-2.74c-1.28-4.81-4.29-23.17.36-81.69a2.88,2.88,0,0,0-1.31-2.65c-7.05-4.52-38.15-24.46-56.41-36.09a2.86,2.86,0,0,0-.8-.35c-4.86-1.27-49.57-12.09-93.79,8.43h0a2.86,2.86,0,0,0-1.55,3.48c5.15,16.26,32.92,116.18,0,291.2a1.8,1.8,0,0,0,2.21,2.08l56-14.73a2.91,2.91,0,0,0,2.15-2.44l10.36-82.38a2.9,2.9,0,0,1,5.54-.76L1224,741a2.88,2.88,0,0,0,2.11,1.7l58.15,11.23a1.79,1.79,0,0,0,2-2.48l-58.84-135.61A2.89,2.89,0,0,1,1228,612.66Zm-48.38-40.11-4.3-78.64a1.8,1.8,0,0,1,2.37-1.8l29.65,10.2a2.9,2.9,0,0,1,2,2.85l-2.46,60.8a2.87,2.87,0,0,1-2.2,2.67l-22.81,5.56A1.78,1.78,0,0,1,1179.61,572.55Z" transform="translate(17 125)"/><path class="cls-24" d="M1112.87,385.16c-2.23-93.42,2-191,2-191,0-2.64-.07-4.12-.22-4.12h-73.88a2.5,2.5,0,0,0-2.5,2.55l2.06,90a2.5,2.5,0,0,1-4.82,1l-36.92-92a2.5,2.5,0,0,0-2.32-1.57H943.36l4.87,275.2h53.46a2.5,2.5,0,0,0,2.5-2.5v-48.8a2.5,2.5,0,0,1,4.44-1.57l42.25,51.94a2.51,2.51,0,0,0,1.94.92h61.86a2.49,2.49,0,0,0,2.49-2.63Z" transform="translate(17 125)"/><path class="cls-24" d="M776.56,458.27l62-15.64a3.15,3.15,0,0,0,2.25-3.72L789,190.83a3.06,3.06,0,0,0-3-2.48H679.58a3.05,3.05,0,0,0-2.94,2.38L616,442.38a3.14,3.14,0,0,0,2.44,3.86l70.32,12.15a3,3,0,0,0,3.5-2.68l4.48-34a3.07,3.07,0,0,1,3-2.72h58.12a3,3,0,0,1,2.85,2.07L773,456.29A3,3,0,0,0,776.56,458.27ZM705.29,371l19.78-36.63a3,3,0,0,1,5.49.47l12.8,36.63a3.13,3.13,0,0,1-2.85,4.21H707.93A3.14,3.14,0,0,1,705.29,371Z" transform="translate(17 125)"/><path class="cls-24" d="M849.64,185.41l70.64,4.84a5.33,5.33,0,0,1,4.91,5.21l3.51,127.37,4.67,128.26a5.33,5.33,0,0,1-4.93,5.56l-33.8,2.16-37.33,4.29a5.3,5.3,0,0,1-5.85-5.34V286.41c0-.14,0-.29,0-.43L844,191.19A5.33,5.33,0,0,1,849.64,185.41Z" transform="translate(17 125)"/><path class="cls-24" d="M1135.12,165,1122,214.32a1.54,1.54,0,0,0,2.61,1.44l22.58-23a1.58,1.58,0,0,0,.36-.58l8.94-26.39a1.52,1.52,0,0,0-1.47-2h-18.38A1.55,1.55,0,0,0,1135.12,165Z" transform="translate(17 125)"/><path class="cls-24" d="M1153,221.06v80.48a7.1,7.1,0,0,0,7.12,7.08h44.68a7.1,7.1,0,0,1,7.12,7.08V466.13a7.09,7.09,0,0,0,6.6,7.06l69.69,5.06a7.1,7.1,0,0,0,7.64-7.06v-154a7.11,7.11,0,0,1,7.28-7.08l41.39.94a7.1,7.1,0,0,0,7.28-7.08V215.13a7.1,7.1,0,0,0-7.35-7.08L1159.82,214A7.12,7.12,0,0,0,1153,221.06Z" transform="translate(17 125)"/><path class="cls-25" d="M869.14,478.56H696.53a18.22,18.22,0,0,0-18.22,18.22V660.15a18.25,18.25,0,0,0,5.1,12.65l33.5,34.76A18.23,18.23,0,0,0,730,713.14H902.64a18.22,18.22,0,0,0,18.22-18.22V531.55a18.25,18.25,0,0,0-5.1-12.65l-33.5-34.76A18.25,18.25,0,0,0,869.14,478.56Z" transform="translate(17 125)"/><path class="cls-26" d="M678.31,652.9V495a16.46,16.46,0,0,1,16.46-16.46H862.92a14,14,0,0,1,14,14V654.67a12.83,12.83,0,0,1-12.83,12.83H692.92A14.59,14.59,0,0,1,678.31,652.9Z" transform="translate(17 125)"/><path class="cls-26" d="M918.22,707.68,880.85,672a11.27,11.27,0,0,0-8.77-4.53h-155" transform="translate(17 125)"/><path class="cls-27" d="M1104.21,379.15c-2.21-89.46,2-182.9,2-182.9,0-2.52-.07-3.95-.21-3.95h-73.1a2.42,2.42,0,0,0-2.47,2.44l2,86.17a2.49,2.49,0,0,1-4.77.94L991.2,193.8a2.47,2.47,0,0,0-2.29-1.5H936.53l4.81,263.53h52.89a2.43,2.43,0,0,0,2.47-2.39V406.71a2.49,2.49,0,0,1,4.39-1.51l41.8,49.74a2.49,2.49,0,0,0,1.92.88H1106a2.42,2.42,0,0,0,2.47-2.52Z" transform="translate(17 125)"/><path class="cls-28" d="M767.58,449.81l61.34-14.92a3,3,0,0,0,2.22-3.55L779.92,194.66A3,3,0,0,0,777,192.3H671.63a3,3,0,0,0-2.91,2.27l-60,240.09a3,3,0,0,0,2.42,3.69l69.57,11.59a3,3,0,0,0,3.46-2.55l4.43-32.48a3,3,0,0,1,3-2.59h57.5a3,3,0,0,1,2.82,2l12.19,33.63A3,3,0,0,0,767.58,449.81Zm-70.52-83.25,19.57-34.95a3,3,0,0,1,5.44.44L734.73,367a3,3,0,0,1-2.82,4H699.68A3,3,0,0,1,697.06,366.56Z" transform="translate(17 125)"/><path class="cls-29" d="M840.71,186.57l69.89,4.69a5.22,5.22,0,0,1,4.86,5.05l3.48,123.44,4.63,124.3a5.2,5.2,0,0,1-4.88,5.39l-33.44,2.09-36.93,4.16a5.21,5.21,0,0,1-5.79-5.18v-166c0-.14,0-.28,0-.41l-7.33-91.86A5.2,5.2,0,0,1,840.71,186.57Z" transform="translate(17 125)"/><path class="cls-30" d="M1128.15,167.45l-11.64,44.46a1.37,1.37,0,0,0,2.31,1.3l20-20.68a1.56,1.56,0,0,0,.32-.52l7.92-23.77a1.38,1.38,0,0,0-1.3-1.81h-16.29A1.37,1.37,0,0,0,1128.15,167.45Z" transform="translate(17 125)"/><path class="cls-31" d="M1147.14,213.29v80.06a7,7,0,0,0,7,7h44.21a7,7,0,0,1,7,7.05V457.1a7.05,7.05,0,0,0,6.53,7l69,5a7,7,0,0,0,7.56-7V308.88a7,7,0,0,1,7.21-7l41,.94a7.05,7.05,0,0,0,7.21-7V207.4a7,7,0,0,0-7.27-7L1154,206.25A7.06,7.06,0,0,0,1147.14,213.29Z" transform="translate(17 125)"/><path class="cls-32" d="M798.94,702.41c10.34,0,18.73-4.72,18.73-10.55s-8.39-10.55-18.73-10.55-18.73,4.72-18.73,10.55S788.6,702.41,798.94,702.41Z" transform="translate(17 125)"/><path class="cls-33" d="M898.87,565c6.71,0,12.15-7.48,12.15-16.7s-5.44-16.7-12.15-16.7-12.15,7.48-12.15,16.7S892.16,565,898.87,565Z" transform="translate(17 125)"/><path class="cls-34" d="M898.87,649.29c6.71,0,12.15-7.48,12.15-16.7s-5.44-16.7-12.15-16.7-12.15,7.48-12.15,16.7S892.16,649.29,898.87,649.29Z" transform="translate(17 125)"/><path class="cls-35" d="M1100.08,730.74l-12-65.1a.14.14,0,0,0,0-.06L1050.22,457.5a6.06,6.06,0,0,0-8.37-4.47l-6,2.62-.41.16-63.82,22.35a6.06,6.06,0,0,0-4,4.7l-31,182.76a.14.14,0,0,1,0,.06l-13.54,78.89a4.89,4.89,0,0,0,5.47,5.68l48-6.41a4.89,4.89,0,0,0,4.18-4l5.66-33.46a4.9,4.9,0,0,1,4.83-4.08h46.89a4.88,4.88,0,0,1,4.82,4l4.17,23.6a4.9,4.9,0,0,0,4.53,4l43.36,2.58A4.91,4.91,0,0,0,1100.08,730.74Zm-78.5-143.26,12.65,68.16a6.06,6.06,0,0,1-6,7.16H996.6a1.45,1.45,0,0,1-1.42-1.72l14.51-73.67C1011,580.87,1020.36,580.92,1021.58,587.48Z" transform="translate(17 125)"/><path class="cls-36" d="M1284.87,749.08c10.25-96.74,11.05-194.21.48-293,.61-.05,1.09-.11,1.57-.11,10.48,0,21,0,31.45-.09,9.79-.05,31.25,0,32.11.5,17.76,9.87,69.28,48.41,69.18,54-.44,24-1.74,88.05-1.89,93.33-.3,10,1.57,91.93,1.33,101.7,0,1.5-10,8.37-14.41,11.34l-25.76,17.43q-12.4,8.4-24.83,16.75a4,4,0,0,1-2.15.59c-1.28,0-2.55-.2-3.83-.24l-23.76-.64c-4.77-.14-9.54-.31-14.31-.47l-13.58-.46c-3.49-.12-7-.27-10.47-.41C1285.7,749.22,1285.41,749.15,1284.87,749.08Zm52.86-69.27,22.62-10c5.28-2.34,8.81-8.49,8.83-15.39.12-32.17.34-64.22.31-96.24,0-6.86-3.49-13-8.73-15.39l-26.65-12.16c0,.82-.09,1.42-.08,2,.06,2.4.17,4.8.23,7.21q.32,12.57.61,25.13.29,11.52.57,23,.32,12.57.61,25.13.29,11.63.57,23.26.33,14.08.65,28.16.17,7,.32,14A12.73,12.73,0,0,0,1337.73,679.81Z" transform="translate(17 125)"/><path class="cls-37" d="M508,440.82c-.18-3.24,1.84-6.06,4.59-6.39,10.43-1.26,34-4,36.57-4.32,5.74-.67,38.86-4.47,44.18-5.13,2.26-.28,64.23,40.25,64.32,42.47.45,11.44,4.51,53,4.15,60.84-.14,3-13.4,43.25-16.85,51.26a7,7,0,0,0-.12,5.15c3.06,8.21,11.79,31.5,15.49,41.26.66,1.73,7.49,45.75,7.71,51.65.31,8.29-9,49.26-10.38,50.24-6,4.1-13.91,12.67-24.17,21.52q-16.26,11-32.5,22c-.79.54-45.18-8.66-50.46-9.78-4.23-.9-26.6-5.72-36.21-7.86-2.53-.56-4.3-3.23-4.16-6.25,1.16-24.78,6.24-129.61,6.14-144.76S509.56,468.61,508,440.82Zm58.63,230.35c0,3.49-3,46.33,0,46.1,9.58-.75,28.5,5.14,30.86,4.94,0,0,.4-88.08,0-93.86-.15-2.12-13.65-1.88-24.1-6-3.32-1.32-6.76,1.6-6.76,5.73Zm27.73-120.76c.72-10,1.49-71.46-1.39-71.67-8.1-.58-17.23.47-25.34,0-2.91-.17.08,54.21,0,64.49C567.64,546.52,594.17,553.61,594.39,550.41Z" transform="translate(17 125)"/><path class="cls-38" d="M1220.44,609.45l36.1-38.38a2.93,2.93,0,0,0,.69-2.74c-1.27-4.81-4.25-23.17.35-81.69a2.9,2.9,0,0,0-1.3-2.65c-7-4.52-37.81-24.46-55.9-36.09a2.93,2.93,0,0,0-.79-.35c-4.81-1.27-49.13-12.09-92.95,8.43h0a2.86,2.86,0,0,0-1.53,3.48c5.11,16.26,32.63,116.18,0,291.2a1.79,1.79,0,0,0,2.19,2.08L1162.7,738a2.9,2.9,0,0,0,2.13-2.44l10.27-82.38a2.87,2.87,0,0,1,5.49-.76l36,85.3a2.85,2.85,0,0,0,2.09,1.7l57.63,11.23a1.8,1.8,0,0,0,2-2.48l-58.32-135.61A2.85,2.85,0,0,1,1220.44,609.45Zm-48-40.11-4.26-78.64a1.78,1.78,0,0,1,2.35-1.8L1200,499.1a2.89,2.89,0,0,1,1.94,2.85l-2.44,60.8a2.86,2.86,0,0,1-2.18,2.67L1174.68,571A1.76,1.76,0,0,1,1172.49,569.34Z" transform="translate(17 125)"/><path class="cls-39" d="M692.32,480.8H862.49a11.85,11.85,0,0,1,11.85,11.85V653.42a11.85,11.85,0,0,1-11.85,11.85H692.32a11.85,11.85,0,0,1-11.85-11.85V492.65A11.84,11.84,0,0,1,692.32,480.8Z" transform="translate(17 125)"/><path class="cls-40" d="M824.34,549.74a19.81,19.81,0,1,0-19.81-19.81A19.81,19.81,0,0,0,824.34,549.74Z" transform="translate(17 125)"/><path class="cls-41" d="M728.38,643.75a19.81,19.81,0,1,0-19.81-19.81A19.81,19.81,0,0,0,728.38,643.75Z" transform="translate(17 125)"/><path class="cls-42" d="M774.77,592.85A19.81,19.81,0,1,0,755,573,19.81,19.81,0,0,0,774.77,592.85Z" transform="translate(17 125)"/><path class="cls-43" d="M824.34,643.75a19.81,19.81,0,1,0-19.81-19.81A19.81,19.81,0,0,0,824.34,643.75Z" transform="translate(17 125)"/><path class="cls-44" d="M728.38,549.74a19.81,19.81,0,1,0-19.81-19.81A19.81,19.81,0,0,0,728.38,549.74Z" transform="translate(17 125)"/><path class="cls-45" d="M751.14,194.76l19.76,1.41,46.24,182.12L777.61,194.76Z" transform="translate(17 125)"/><path class="cls-45" d="M733.05,373.23l-34.72.44,43.95,3.14-8-23.54-14.38-38.51-25.71,51.41,24-37.7a1.54,1.54,0,0,1,2.71.35l9.63,26.33,4.94,13.37C736.56,370.92,735.66,373.19,733.05,373.23Z" transform="translate(17 125)"/><path class="cls-45" d="M843.14,253.47l-2.35-61.17h50.35L841.64,189a3.57,3.57,0,0,0-3.79,3.87Z" transform="translate(17 125)"/><path class="cls-45" d="M845,441.12v9.56a3.66,3.66,0,0,0,4.23,3.61l14.12-3.17S850.32,451.35,845,441.12Z" transform="translate(17 125)"/><path class="cls-45" d="M912.32,194.76l4.24,252.18A4.79,4.79,0,0,0,922,442Z" transform="translate(17 125)"/><path class="cls-45" d="M941,264.29l4.24-63.93H986.2l40.94,86.17-37.41-91.77H939.61" transform="translate(17 125)"/><path class="cls-46" d="M1086,194.76s15.58,1.07,17.41,5.59v-5.59Z" transform="translate(17 125)"/><path class="cls-46" d="M943.38,421l6.54,32.47h-6.54Z" transform="translate(17 125)"/><path class="cls-45" d="M1103.38,213.64s-11.73,157.91,1.57,238.88C1105,452.52,1100.08,262.75,1103.38,213.64Z" transform="translate(17 125)"/><path class="cls-46" d="M994,452.52l-3.53-66.81L1042.31,450l-41.18-46.89a3.06,3.06,0,0,0-5.35,1.9Z" transform="translate(17 125)"/><path class="cls-46" d="M1130.12,168.76l11.73,7.73,2.82-7.73Z" transform="translate(17 125)"/><path class="cls-46" d="M1150,240.65l8.86-26.74,178.9-9.84-181.17,3.48a6.72,6.72,0,0,0-6.59,6.72Z" transform="translate(17 125)"/><path class="cls-46" d="M1341.29,285.35c-.74,3.77-4.62,13.08-10.18,14.74l4.36.36a5.59,5.59,0,0,0,6-5.71S1341.58,283.88,1341.29,285.35Z" transform="translate(17 125)"/><path class="cls-46" d="M1152.79,297.47l52.57-2.2a6,6,0,0,1,6.22,6.11L1208.2,445l-.68-140a6.27,6.27,0,0,0-6.11-6.24Z" transform="translate(17 125)"/><path class="cls-47" d="M511,447.91a18.33,18.33,0,0,1,13.85-10.6L572,429.82l-56.26,5.64a5.63,5.63,0,0,0-5.29,6.19Z" transform="translate(17 125)"/><path class="cls-47" d="M625.85,447.91,656,478.56l-.54-9.92S628.67,448.17,625.85,447.91Z" transform="translate(17 125)"/><path class="cls-47" d="M597.28,501.85l2.5,54.09a1.61,1.61,0,0,1-2.11,1.61l-23.22-7.25L592,553.58a4,4,0,0,0,4.88-3.78Z" transform="translate(17 125)"/><path class="cls-47" d="M658,510.11l1.18,18.42s-15.29,49.41-16.71,50.82Z" transform="translate(17 125)"/><path class="cls-47" d="M652.25,611l13.33,66.59-6.44-49.07Z" transform="translate(17 125)"/><path class="cls-47" d="M563.73,626.41l-2.4,93.22a2.72,2.72,0,0,0,2.52,2.78L600,725c-.58-.82-18-5.43-32-5.42a2.7,2.7,0,0,1-2.72-2.66Z" transform="translate(17 125)"/><path class="cls-47" d="M513.26,735.82l2.22,9.54a6.05,6.05,0,0,0,2.21,3.42l5.45,4.16-5.53-.88a5.39,5.39,0,0,1-5.36-5.9Z" transform="translate(17 125)"/><path class="cls-47" d="M683.14,573l5.27-78.66a6.13,6.13,0,0,1,6-5.72l169-5.24H693.14a10,10,0,0,0-10,10V573Z" transform="translate(17 125)"/><path class="cls-47" d="M682.91,646.76l3.58,8.27a8.67,8.67,0,0,0,3.1,3.73l5.79,3.89h-3.82a8.65,8.65,0,0,1-8.65-8.65Z" transform="translate(17 125)"/><path class="cls-47" d="M870.55,512.65l-3.9,148.72a7.57,7.57,0,0,0,5.69-7.44Z" transform="translate(17 125)"/><path class="cls-47" d="M926,744.53l48.7-254.91a14.22,14.22,0,0,1,6.59-9.49l10.59-6.43-18,6.17a4.85,4.85,0,0,0-3.2,3.76Z" transform="translate(17 125)"/><path class="cls-47" d="M994,699.59l50.72-3.18a1.81,1.81,0,0,1,1.92,1.64l3,31.78-4-23.85a7.65,7.65,0,0,0-7.55-6.39Z" transform="translate(17 125)"/><path class="cls-47" d="M1096.76,726.73l-.33,2.4a11.23,11.23,0,0,1-1.31,4l-.48.88h.52a2.47,2.47,0,0,0,2.43-3Z" transform="translate(17 125)"/><path class="cls-47" d="M995.15,665.27l42.19,2.09a2.31,2.31,0,0,0,2.38-2.77l-12.58-61.71,9.22,54.31a6.92,6.92,0,0,1-6.83,8.08Z" transform="translate(17 125)"/><path class="cls-47" d="M1049.61,469.17s25.94,179.87,45,244Z" transform="translate(17 125)"/><path class="cls-47" d="M1111.85,473.7v-7.82a7.88,7.88,0,0,1,4.25-7c9.11-4.74,33.52-13.7,79.45-6.6a8,8,0,0,1,2.77,1l56.12,32.67-56-36.29s-47.53-12.88-91.29,8.53Z" transform="translate(17 125)"/><path class="cls-47" d="M1254.43,493.88s-7.24,45.53,0,75.18C1254.43,569.06,1250.91,529.88,1254.43,493.88Z" transform="translate(17 125)"/><path class="cls-47" d="M1219,607.17l34.73-41.46.74,3.35Z" transform="translate(17 125)"/><path class="cls-47" d="M1174.2,573.7l30.82-5.65V495.11l-27.29-6.31,22.59,7.15a4.6,4.6,0,0,1,3.21,4.5L1202,562.71a4.07,4.07,0,0,1-3,3.83Z" transform="translate(17 125)"/><path class="cls-47" d="M1123.49,586.44s.86,113.53-10.1,155.22a2,2,0,0,0,2.24,2.48l31.86-5.15-37.9,10.64a1.44,1.44,0,0,1-1.81-1.69C1110.55,735.06,1123.49,670.5,1123.49,586.44Z" transform="translate(17 125)"/><path class="cls-47" d="M1193.14,674.76,1220.9,734,1246,742l-26.72-4.43a2.6,2.6,0,0,1-2-1.62Z" transform="translate(17 125)"/><path class="cls-47" d="M1288.32,744.53s27.85-102.21.16-282.4C1288.48,462.13,1303.14,617,1288.32,744.53Z" transform="translate(17 125)"/><path class="cls-47" d="M1349.38,458.76l61.07,50.67a9.56,9.56,0,0,1,3.44,6.72l2.19,32.25,1.33-35.81a5,5,0,0,0-1.64-3.85C1406.81,500.78,1365.39,464.41,1349.38,458.76Z" transform="translate(17 125)"/><path class="cls-47" d="M1336.67,683.41,1367,670.5a9.34,9.34,0,0,0,5.67-8.65L1372,584.4,1371.2,657a16.69,16.69,0,0,1-9.69,15Z" transform="translate(17 125)"/><path class="cls-47" d="M1416.51,686.23s-1.63,19.86-7,24.09l7.15-5.74Z" transform="translate(17 125)"/></g></svg>