<svg id="Layer_1" data-name="Layer 1" xmlns="http://www.w3.org/2000/svg" xmlns:xlink="http://www.w3.org/1999/xlink" viewBox="0 0 940.95 646.37"><defs><linearGradient id="linear-gradient" x1="29.54" y1="506.2" x2="970.49" y2="506.2" gradientTransform="translate(-29.49 -192.21)" gradientUnits="userSpaceOnUse"><stop offset="0.01" stop-color="#886441"/><stop offset="0.14" stop-color="#634522"/><stop offset="0.31" stop-color="#735229"/><stop offset="0.65" stop-color="#603b0f"/><stop offset="0.8" stop-color="#886441"/><stop offset="1" stop-color="#603b0f"/><stop offset="1" stop-color="#5f4421"/></linearGradient><linearGradient id="linear-gradient-2" x1="460.79" y1="477.12" x2="460.79" y2="477.12" xlink:href="#linear-gradient"/><linearGradient id="linear-gradient-3" x1="218.31" y1="631.85" x2="460.86" y2="631.85" gradientTransform="translate(-29.49 -192.21)" gradientUnits="userSpaceOnUse"><stop offset="0.01" stop-color="#f6e8d7"/><stop offset="1" stop-color="#d8cdbb"/></linearGradient><linearGradient id="linear-gradient-4" x1="562.5" y1="228.3" x2="562.5" y2="491.83" gradientTransform="translate(-29.49 -192.21)" gradientUnits="userSpaceOnUse"><stop offset="0.01" stop-color="#f3f4f4"/><stop offset="0.29" stop-color="#d7d5d6"/><stop offset="0.49" stop-color="#cecccd"/><stop offset="0.5" stop-color="#c8c6c7"/><stop offset="0.5" stop-color="#c3c2c2"/><stop offset="0.51" stop-color="#c2c1c0"/><stop offset="0.54" stop-color="#c2c1c0"/><stop offset="0.58" stop-color="#c9c8c8"/><stop offset="0.68" stop-color="#d5d5d5"/><stop offset="0.8" stop-color="#ddd"/><stop offset="1" stop-color="#dfdfe0"/></linearGradient><linearGradient id="linear-gradient-5" x1="259.92" y1="228.3" x2="259.92" y2="485.98" xlink:href="#linear-gradient-4"/><linearGradient id="linear-gradient-6" x1="419.38" y1="222.56" x2="419.38" y2="491.72" xlink:href="#linear-gradient-4"/><linearGradient id="linear-gradient-7" x1="671.8" y1="202.43" x2="671.8" y2="249.63" xlink:href="#linear-gradient-4"/><linearGradient id="linear-gradient-8" x1="785.5" y1="236.39" x2="785.5" y2="505.12" xlink:href="#linear-gradient-4"/><linearGradient id="linear-gradient-9" x1="338.94" y1="717.31" x2="338.94" y2="738.41" gradientTransform="translate(-29.54 -192.17)" gradientUnits="userSpaceOnUse"><stop offset="0.03" stop-color="#d3d1d3"/><stop offset="0.26" stop-color="#cac8cb"/><stop offset="0.62" stop-color="#b4b1b5"/><stop offset="1" stop-color="#989498"/></linearGradient><linearGradient id="linear-gradient-10" x1="426.72" y1="584.28" x2="451.02" y2="584.28" gradientTransform="translate(-29.54 -192.17)" gradientUnits="userSpaceOnUse"><stop offset="0" stop-color="#d3d1d3"/><stop offset="0.24" stop-color="#cac8cb"/><stop offset="0.61" stop-color="#b4b1b5"/><stop offset="1" stop-color="#989498"/></linearGradient><linearGradient id="linear-gradient-11" x1="426.72" y1="668.59" x2="451.02" y2="668.59" xlink:href="#linear-gradient-10"/><linearGradient id="linear-gradient-12" x1="551.58" y1="488.53" x2="551.58" y2="786.29" gradientTransform="translate(-29.49 -192.21)" gradientUnits="userSpaceOnUse"><stop offset="0.01" stop-color="#f6e8d7"/><stop offset="0.46" stop-color="#f3e6d5"/><stop offset="0.7" stop-color="#ece0cf"/><stop offset="0.9" stop-color="#e2d7c6"/><stop offset="1" stop-color="#dcd1bf"/></linearGradient><linearGradient id="linear-gradient-13" x1="892.27" y1="491.86" x2="892.27" y2="787.52" xlink:href="#linear-gradient-12"/><linearGradient id="linear-gradient-14" x1="128.02" y1="460.98" x2="128.02" y2="807.39" xlink:href="#linear-gradient-12"/><linearGradient id="linear-gradient-15" x1="731.66" y1="479.57" x2="731.66" y2="788.79" xlink:href="#linear-gradient-12"/><linearGradient id="linear-gradient-16" x1="317.4" y1="516.8" x2="317.4" y2="701.27" xlink:href="#linear-gradient-12"/><radialGradient id="radial-gradient" cx="364.34" cy="565.93" r="19.81" gradientTransform="translate(-29.54 -192.17)" gradientUnits="userSpaceOnUse"><stop offset="0.03" stop-color="#d3d1d3"/><stop offset="0.44" stop-color="#cececf"/><stop offset="0.79" stop-color="#c1c3c5"/><stop offset="1" stop-color="#b4b9bb"/></radialGradient><radialGradient id="radial-gradient-2" cx="268.38" cy="307.94" r="19.81" gradientTransform="matrix(0.16, 0.99, 0.99, -0.16, 22.68, 260.8)" xlink:href="#radial-gradient"/><radialGradient id="radial-gradient-3" cx="314.77" cy="257.04" r="19.81" gradientTransform="matrix(1, 0, 0, -1, -0.05, 648.04)" xlink:href="#radial-gradient"/><radialGradient id="radial-gradient-4" cx="364.34" cy="307.94" r="19.81" gradientTransform="matrix(1, 0, 0, -1, -0.05, 648.04)" xlink:href="#radial-gradient"/><radialGradient id="radial-gradient-5" cx="268.38" cy="213.93" r="19.81" gradientTransform="matrix(0.16, 0.99, 0.99, -0.16, -70.11, 181.85)" xlink:href="#radial-gradient"/><radialGradient id="radial-gradient-6" cx="-68.53" cy="434.41" r="0" gradientTransform="translate(-29.49 -192.21)" xlink:href="#radial-gradient"/></defs><g id="Layer_7" data-name="Layer 7"><path d="M112.38,270.79,170.76,40a6.55,6.55,0,0,1,6.63-4.94L307.68,40.7a6.57,6.57,0,0,1,5.9,4.37l12.79,36.34c3.06,5.26,5.14-44.62,5.14-44.62.16-3.5,93.38,3.55,93.38,3.55a5.47,5.47,0,0,0,.81,0l76.4-1.21c2.69-.08,7.86.87,8.71,3.42l7.55,18.37c1.77,5.32,8.06,6.79,10.21,2.31a5.76,5.76,0,0,0,.49-2l1.45-17a6.26,6.26,0,0,1,.41-1.81c.86-2.16,2.44-3.68,4.86-3.63l74.13,1.47a6.53,6.53,0,0,0,5.71-3.12L625,21.8a6.54,6.54,0,0,1,5.58-3.12h37.06c4.34,0-3.06,18.35-4.24,22.53V46.8c-1.19,4.24,8.82,2.12,13.22,2l186.6-4.69A6.55,6.55,0,0,1,870,50.5V177.16a6.55,6.55,0,0,1-6.55,6.55h-41a6.55,6.55,0,0,0-6.55,6.55V300a6.56,6.56,0,0,0,6.13,6.54l31.51,2a57.4,57.4,0,0,1,25.33,7.76l56.55,33.15a6.54,6.54,0,0,1,3.24,5.65l-2.15,105,2.15,112a6.56,6.56,0,0,1-2.59,5.22l-66.13,50.22a6.54,6.54,0,0,1-4.22,1.33l-69.9-2.72a6.51,6.51,0,0,1-.76-.07l-73.29-11.49a6.58,6.58,0,0,1-5.15-4.24L702.29,570.9c-2.4-6.63-12.14-5.31-12.69,1.71l-2.43,31a6.55,6.55,0,0,1-4.92,5.84l-71,18a6.54,6.54,0,0,1-8-4.73,6.78,6.78,0,0,1-.2-1.62V616a6.55,6.55,0,0,0-6.24-6.54l-41.8-2a6.56,6.56,0,0,1-6.14-5.4l-3.07-17.4a6.55,6.55,0,0,0-6.53-5.41l-25.93.33A6.55,6.55,0,0,0,507,584.9l-4.93,25.59a6.55,6.55,0,0,1-5.7,5.28l-67.1,7.53a6.56,6.56,0,0,1-7.25-5.77,7.22,7.22,0,0,1,0-1.23l1.5-22.34a6.54,6.54,0,0,0-6.08-7l-.45,0-195.19-.1a6.54,6.54,0,0,1-4.69-2l-13.56-14a6.55,6.55,0,0,0-10.9,2.47l-6,17.77a6.46,6.46,0,0,1-2.33,3.18l-69.19,50.78a6.59,6.59,0,0,1-5.42,1.09L12.81,622.79a6.53,6.53,0,0,1-5-7c3.18-34.67,24.45-218-.65-315.26-1-3.79-4.26-10.45-.39-11l100.15-13.84A6.56,6.56,0,0,0,112.38,270.79Z" transform="translate(-0.05 0.04)" fill="#483318"/><path d="M111.67,254.85l60-237a2.24,2.24,0,0,1,2.27-1.69l136.7,5.91a2.23,2.23,0,0,1,2,1.5l13.75,39.08c3.06,5.24,5.16-44.6,5.16-44.6.16-3.5,93.38,3.55,93.38,3.55a5.47,5.47,0,0,0,.81,0l76.4-1.21c2.69-.08,7.86.87,8.71,3.42l7.55,18.37c1.88,5.64,8.85,7,10.55,1.42l.09-.49L530.59,25a1.86,1.86,0,0,1,.09-.47c.76-2.58,2.42-4.5,5.14-4.45l76.59,1.52a2.25,2.25,0,0,0,2-1.07l12-19.5A2.25,2.25,0,0,1,628.32,0h45.16a2.24,2.24,0,0,1,2.24,2.24,1.83,1.83,0,0,1-.08.61l-6.9,24.58a2.25,2.25,0,0,0,1.57,2.77,2,2,0,0,0,.65.08l196.85-5a2.24,2.24,0,0,1,2.3,2.18V162.69a2.24,2.24,0,0,1-2.24,2.24H818.09a2.24,2.24,0,0,0-2.24,2.24V285.26a2.25,2.25,0,0,0,2.1,2.24L855,289.89a50.9,50.9,0,0,1,22.3,6.79l.26.17,62.52,47.73a2.25,2.25,0,0,1,.88,1.81l-4.64,102.13c-.07,1.62-.09,3.25-.06,4.87l2.31,102.1a2.26,2.26,0,0,1-.89,1.76L868.65,609.7a2.26,2.26,0,0,1-1.44.46l-71.7-2.78h-.26l-76-11.92a2.24,2.24,0,0,1-1.76-1.45l-22-60.63a2.25,2.25,0,0,0-4.35.59l-4.24,53.92a2.26,2.26,0,0,1-1.69,2L605.82,610a2.24,2.24,0,0,1-2.72-1.62,2,2,0,0,1-.07-.55V593.05a2.24,2.24,0,0,0-2.14-2.24l-49.34-2.37a2.24,2.24,0,0,1-2.1-1.85l-4.3-24.39a2.24,2.24,0,0,0-2.24-1.85l-33.11.42a2.24,2.24,0,0,0-2.18,1.82l-6.11,32.2a2.24,2.24,0,0,1-2,1.81l-75.38,8.46a2.24,2.24,0,0,1-2.48-2,1.88,1.88,0,0,1,0-.41l2.15-32.08a2.25,2.25,0,0,0-2.08-2.39h-.16l-201.61-.1a2.25,2.25,0,0,1-1.61-.68l-19.74-20.32a2.23,2.23,0,0,0-3.17,0,2.18,2.18,0,0,0-.56.89l-8.69,25.74a2.24,2.24,0,0,1-.8,1.09l-71.86,52.8a2.24,2.24,0,0,1-1.86.37L9.17,603.13a2.25,2.25,0,0,1-1.66-2.34c2.1-22,20.64-226.46-7.37-326.44a2.25,2.25,0,0,1,1.55-2.78l.3-.06,107.84-14.94A2.23,2.23,0,0,0,111.67,254.85Z" transform="translate(-0.05 0.04)" fill="url(#linear-gradient)"/><path d="M431.3,284.91" transform="translate(-0.05 0.04)" fill="url(#linear-gradient-2)"/></g><g id="Layer_6" data-name="Layer 6"><path d="M387.13,327.9H212.73a18.33,18.33,0,0,0-18.41,18.22V509.49a18.19,18.19,0,0,0,5.19,12.65l33.85,34.76a18.54,18.54,0,0,0,13.26,5.58H421a18.33,18.33,0,0,0,18.41-18.22V380.89a18.17,18.17,0,0,0-5.15-12.65l-33.85-34.76A18.55,18.55,0,0,0,387.13,327.9Z" transform="translate(-0.05 0.04)" fill="#413000"/><path d="M618.17,577.25l-12.09-65.1v-.06L567.84,304a6.13,6.13,0,0,0-7.16-4.87,6.63,6.63,0,0,0-1.29.4l-6.09,2.62-.41.16-64.38,22.35a6.07,6.07,0,0,0-4,4.7l-31.3,182.76v.06l-13.7,78.89a4.92,4.92,0,0,0,5.53,5.68l48.45-6.41a4.91,4.91,0,0,0,4.22-4l5.72-33.46a4.92,4.92,0,0,1,4.87-4.08h47.34a4.94,4.94,0,0,1,4.87,4l4.21,23.6a4.94,4.94,0,0,0,4.58,4L613.08,583a4.92,4.92,0,0,0,5.15-4.67A4.77,4.77,0,0,0,618.17,577.25ZM538.92,434l12.78,68.16a6.07,6.07,0,0,1-4.88,7.06,6,6,0,0,1-1.12.1h-32a1.44,1.44,0,0,1-1.46-1.42,1.53,1.53,0,0,1,0-.3l14.65-73.67C528.21,427.38,537.68,427.43,538.92,434Z" transform="translate(-0.05 0.04)" fill="#413000"/><path d="M800.88,596.08c10.25-96.74,11-194.21.48-293,.61-.05,1.09-.11,1.57-.11,10.48,0,21,0,31.45-.09,9.79-.05,31.25,0,32.11.5,17.76,9.87,69.28,48.41,69.18,54-.44,24-1.74,88.05-1.89,93.33-.3,10,1.57,91.93,1.33,101.7,0,1.5-10,8.37-14.41,11.34l-25.76,17.43q-12.41,8.4-24.83,16.75a4,4,0,0,1-2.15.59c-1.28,0-2.55-.2-3.83-.24l-23.76-.64c-4.77-.14-9.54-.31-14.31-.47l-13.55-.53c-3.49-.12-7-.27-10.47-.41C801.71,596.22,801.42,596.15,800.88,596.08Zm52.86-69.29,22.62-10c5.28-2.34,8.81-8.49,8.83-15.39.12-32.17.34-64.22.31-96.24,0-6.86-3.49-13-8.73-15.39l-26.65-12.18c0,.82-.09,1.42-.08,2,.06,2.4.17,4.8.23,7.21q.32,12.57.61,25.13.29,11.52.57,23,.31,12.57.61,25.13l.57,23.26q.33,14.08.65,28.16.16,7,.32,14C853.61,525.85,853.67,526.22,853.74,526.79Z" transform="translate(-0.05 0.04)" fill="#413000"/><path d="M25.51,285.48c-.18-3.24,1.86-6.06,4.63-6.39,10.53-1.26,34.26-4,36.91-4.32,5.79-.67,39.21-4.47,44.58-5.13,2.28-.28,64.82,40.25,64.91,42.47.46,11.44,4.56,53,4.18,60.84-.14,3-13.52,43.25-17,51.26a6.9,6.9,0,0,0-.12,5.15c3.09,8.21,11.9,31.5,15.63,41.26.66,1.73,7.56,45.75,7.79,51.65.32,8.29-9,49.26-10.48,50.24-6.07,4.1-14,12.67-24.39,21.52l-32.8,22c-.8.54-45.59-8.66-50.92-9.78-4.27-.9-26.84-5.72-36.54-7.86-2.55-.56-4.34-3.23-4.2-6.25,1.17-24.78,6.3-129.61,6.19-144.76S27.09,313.27,25.51,285.48Zm59.2,230.31c0,3.49-3,46.33,0,46.1,9.67-.75,28.76,5.14,31.14,4.94,0,0,.4-88.08,0-93.86-.15-2.12-13.77-1.88-24.32-6-3.35-1.32-6.82,1.6-6.82,5.73Zm28-120.76c.72-10,1.5-71.46-1.4-71.67-8.18-.58-17.39.47-25.57,0-2.93-.17.08,54.21,0,64.49,0,3.32,26.77,10.42,27,7.22Z" transform="translate(-0.05 0.04)" fill="#413000"/><path d="M738.51,456.45l36.43-38.38a2.87,2.87,0,0,0,.69-2.74c-1.28-4.81-4.29-23.17.36-81.69a2.88,2.88,0,0,0-1.31-2.65c-7-4.52-38.15-24.46-56.41-36.09a2.71,2.71,0,0,0-.8-.35c-4.86-1.27-49.57-12.09-93.79,8.43h0a2.86,2.86,0,0,0-1.55,3.48c5.15,16.26,32.92,116.18,0,291.2a1.8,1.8,0,0,0,1.43,2.1,1.86,1.86,0,0,0,.78,0l56-14.73a2.9,2.9,0,0,0,2.15-2.44l10.36-82.38a2.9,2.9,0,0,1,5.54-.76l36.12,85.36a2.9,2.9,0,0,0,2.11,1.7l58.15,11.23a1.79,1.79,0,0,0,2.12-1.39,1.85,1.85,0,0,0-.12-1.09L738,459.58A2.87,2.87,0,0,1,738.51,456.45Zm-48.38-40.11-4.3-78.64a1.8,1.8,0,0,1,1.7-1.89,1.87,1.87,0,0,1,.67.09l29.65,10.2a2.9,2.9,0,0,1,2,2.85l-2.51,60.84a2.87,2.87,0,0,1-2.2,2.67L692.33,418a1.78,1.78,0,0,1-2.16-1.3,1.58,1.58,0,0,1,0-.38Z" transform="translate(-0.05 0.04)" fill="#413000"/><path d="M623.38,229c-2.23-93.42,2-191,2-191h0c0-2.64-.07-4.12-.22-4.12H551.32a2.5,2.5,0,0,0-2.5,2.5v.05l2.06,90a2.5,2.5,0,0,1-4.82,1l-36.92-92a2.5,2.5,0,0,0-2.32-1.57H453.87L458.74,309H512.2a2.5,2.5,0,0,0,2.5-2.5v-48.8a2.5,2.5,0,0,1,4.44-1.57l42.25,51.94a2.52,2.52,0,0,0,1.94.92h61.86a2.48,2.48,0,0,0,2.49-2.49v-.14Z" transform="translate(-0.05 0.04)" fill="#413000"/><path d="M287.07,302.06l62-15.64a3.16,3.16,0,0,0,2.25-3.72L299.51,34.62a3.06,3.06,0,0,0-3-2.48H190.09a3.05,3.05,0,0,0-2.94,2.38L126.51,286.17a3.14,3.14,0,0,0,2.26,3.82l.18,0,70.32,12.15a3,3,0,0,0,3.47-2.44l0-.24,4.48-34a3.08,3.08,0,0,1,3-2.72h58.12a3,3,0,0,1,2.85,2.07l12.29,35.23A3,3,0,0,0,287.07,302.06ZM215.8,214.79l19.78-36.63a3,3,0,0,1,5.49.47l12.8,36.63a3.13,3.13,0,0,1-1.86,4,3,3,0,0,1-1,.19H218.44a3.13,3.13,0,0,1-3-3.23A3.06,3.06,0,0,1,215.8,214.79Z" transform="translate(-0.05 0.04)" fill="#413000"/><path d="M360.15,29.2,430.79,34a5.33,5.33,0,0,1,4.91,5.21l3.51,127.37,4.67,128.26a5.33,5.33,0,0,1-4.93,5.56l-33.8,2.16-37.33,4.29a5.3,5.3,0,0,1-5.82-4.72c0-.21,0-.41,0-.62V129.77L354.51,35a5.33,5.33,0,0,1,4.85-5.77A5.21,5.21,0,0,1,360.15,29.2Z" transform="translate(-0.05 0.04)" fill="#413000"/><path d="M645.63,8.79,632.51,58.11A1.54,1.54,0,0,0,633.62,60a1.52,1.52,0,0,0,1.5-.43l22.58-23a1.58,1.58,0,0,0,.36-.58L667,9.58a1.52,1.52,0,0,0-1.47-2h-18.4A1.56,1.56,0,0,0,645.63,8.79Z" transform="translate(-0.05 0.04)" fill="#413000"/><path d="M663.51,64.85v80.48a7.1,7.1,0,0,0,7.12,7.08h44.68a7.1,7.1,0,0,1,7.12,7.08h0V309.92A7.1,7.1,0,0,0,729,317L798.72,322a7.1,7.1,0,0,0,7.62-6.54c0-.17,0-.35,0-.52V161a7.11,7.11,0,0,1,7.14-7.08h.14l41.39.94a7.1,7.1,0,0,0,7.28-6.92v-89a7.1,7.1,0,0,0-7.12-7.08H855L670.33,57.79A7.13,7.13,0,0,0,663.51,64.85Z" transform="translate(-0.05 0.04)" fill="#413000"/><path d="M379.65,322.35H207a18.22,18.22,0,0,0-18.22,18.22V503.94a18.25,18.25,0,0,0,5.1,12.65l33.5,34.76a18.22,18.22,0,0,0,13.09,5.58H413.15a18.22,18.22,0,0,0,18.22-18.22V375.34a18.25,18.25,0,0,0-5.1-12.65l-33.5-34.76A18.25,18.25,0,0,0,379.65,322.35Z" transform="translate(-0.05 0.04)" stroke="#c2b59b" stroke-miterlimit="10" stroke-width="5" fill="url(#linear-gradient-3)"/><path d="M188.82,496.69V338.79a16.46,16.46,0,0,1,16.46-16.46H373.43a14,14,0,0,1,14,14V498.46a12.82,12.82,0,0,1-12.83,12.83H203.43a14.59,14.59,0,0,1-14.61-14.57Z" transform="translate(-0.05 0.04)" fill="none" stroke="#c2b59b" stroke-miterlimit="10" stroke-width="5"/><path d="M428.73,551.47l-37.37-35.68a11.26,11.26,0,0,0-8.77-4.53h-155" transform="translate(-0.05 0.04)" fill="none" stroke="#c2b59b" stroke-miterlimit="10" stroke-width="5"/><path d="M614.72,222.94c-2.21-89.46,2-182.9,2-182.9h0c0-2.52-.07-3.95-.21-3.95h-73.1a2.42,2.42,0,0,0-2.47,2.37v.07l2,86.17a2.49,2.49,0,0,1-4.77.94l-36.46-88a2.45,2.45,0,0,0-2.29-1.5H447l4.81,263.53h52.89a2.43,2.43,0,0,0,2.47-2.39h0V250.5A2.49,2.49,0,0,1,511.6,249l41.8,49.74a2.49,2.49,0,0,0,1.92.88h61.19a2.42,2.42,0,0,0,2.47-2.37v-.15Z" transform="translate(-0.05 0.04)" stroke="#939598" stroke-miterlimit="10" stroke-width="5" fill="url(#linear-gradient-4)"/><path d="M278.09,293.6l61.34-14.92a3,3,0,0,0,2.22-3.55L290.43,38.45a3,3,0,0,0-2.92-2.36H182.14a3,3,0,0,0-2.91,2.27l-60,240.09a3,3,0,0,0,2.18,3.64l.24.05,69.57,11.59a3,3,0,0,0,3.45-2.47s0-.05,0-.08l4.43-32.48a3,3,0,0,1,3-2.59h57.5a3,3,0,0,1,2.82,2l12.19,33.63A3,3,0,0,0,278.09,293.6Zm-70.52-83.25,19.57-34.95a3,3,0,0,1,5.44.44l12.66,34.95a3,3,0,0,1-2.82,4H210.19a3,3,0,0,1-2.62-4.44Z" transform="translate(-0.05 0.04)" stroke="#939598" stroke-miterlimit="10" stroke-width="5" fill="url(#linear-gradient-5)"/><path d="M351.22,30.36l69.89,4.69A5.22,5.22,0,0,1,426,40.1l3.48,123.44,4.63,124.3a5.2,5.2,0,0,1-4.88,5.39l-33.44,2.09-36.93,4.16a5.21,5.21,0,0,1-5.76-4.6,5.63,5.63,0,0,1,0-.58V127.89L345.71,36a5.2,5.2,0,0,1,4.7-5.66A5.48,5.48,0,0,1,351.22,30.36Z" transform="translate(-0.05 0.04)" stroke="#939598" stroke-miterlimit="10" stroke-width="5" fill="url(#linear-gradient-6)"/><path d="M638.66,11.24,627,55.7a1.37,1.37,0,0,0,1,1.67,1.34,1.34,0,0,0,1.33-.37l20-20.68a1.56,1.56,0,0,0,.32-.52L657.57,12a1.38,1.38,0,0,0-.88-1.74,1.23,1.23,0,0,0-.42-.07H640A1.38,1.38,0,0,0,638.66,11.24Z" transform="translate(-0.05 0.04)" stroke="#939598" stroke-miterlimit="10" stroke-width="5" fill="url(#linear-gradient-7)"/><path d="M657.65,57.08v80.06a7,7,0,0,0,7,7h44.26a7,7,0,0,1,7.05,7v149.8a7.05,7.05,0,0,0,6.53,7l69,5a7,7,0,0,0,7.54-6.42c0-.19,0-.39,0-.58V152.67a7,7,0,0,1,7-7h.21l40.95.94a7.06,7.06,0,0,0,7.21-6.89V51.19a7,7,0,0,0-7-7h-.28L664.51,50A7.07,7.07,0,0,0,657.65,57.08Z" transform="translate(-0.05 0.04)" stroke="#939598" stroke-miterlimit="10" stroke-width="5" fill="url(#linear-gradient-8)"/><path d="M11.91,329.86" transform="translate(-0.05 0.04)" fill="#f0daac"/><ellipse cx="309.4" cy="535.69" rx="18.73" ry="10.55" fill="url(#linear-gradient-9)"/><ellipse cx="409.33" cy="392.11" rx="12.15" ry="16.7" fill="url(#linear-gradient-10)"/><ellipse cx="409.33" cy="476.42" rx="12.15" ry="16.7" fill="url(#linear-gradient-11)"/><path d="M610.59,574.53l-12-65.1v-.06L560.73,301.29a6.06,6.06,0,0,0-8.37-4.47l-6,2.62-.41.16L482.13,322a6.07,6.07,0,0,0-4,4.7l-31,182.76v.06l-13.54,78.89a4.89,4.89,0,0,0,4,5.65,4.66,4.66,0,0,0,1.49,0l48-6.41a4.89,4.89,0,0,0,4.18-4l5.66-33.46a4.9,4.9,0,0,1,4.83-4.08h46.89a4.89,4.89,0,0,1,4.82,4l4.17,23.6a4.89,4.89,0,0,0,4.53,4l43.37,2.62a4.9,4.9,0,0,0,5.15-4.65A4.74,4.74,0,0,0,610.59,574.53Zm-78.5-143.26,12.65,68.16a6.06,6.06,0,0,1-4.86,7.06,6.27,6.27,0,0,1-1.14.1H507.11a1.45,1.45,0,0,1-1.45-1.45,1.24,1.24,0,0,1,0-.27L520.2,431.2C521.51,424.66,530.87,424.71,532.09,431.27Z" transform="translate(-0.05 0.04)" stroke="#c2b59b" stroke-miterlimit="10" stroke-width="5" fill="url(#linear-gradient-12)"/><path d="M795.38,592.87c10.25-96.74,11-194.21.48-293,.61-.05,1.09-.11,1.57-.11,10.48,0,21,0,31.45-.09,9.79-.05,31.25,0,32.11.5,17.76,9.87,69.28,48.41,69.18,54-.44,24-1.74,88.05-1.89,93.33-.3,10,1.57,91.93,1.33,101.7,0,1.5-10,8.37-14.41,11.34L889.44,578q-12.41,8.4-24.83,16.75a4,4,0,0,1-2.15.59c-1.28,0-2.55-.2-3.83-.24l-23.76-.64c-4.77-.14-9.54-.31-14.31-.47L807,593.5c-3.49-.12-7-.27-10.47-.41A7.76,7.76,0,0,0,795.38,592.87Zm52.86-69.27,22.62-10c5.28-2.34,8.81-8.49,8.83-15.39C879.81,466,880,434,880,402c0-6.86-3.49-13-8.73-15.39l-26.65-12.16c0,.82-.09,1.42-.08,2,.06,2.4.17,4.8.23,7.21q.32,12.57.61,25.13.29,11.52.57,23,.31,12.57.61,25.13l.57,23.26q.33,14.09.65,28.16.16,7,.32,14A11.3,11.3,0,0,0,848.24,523.6Z" transform="translate(-0.05 0.04)" stroke="#c2b59b" stroke-miterlimit="10" stroke-width="5" fill="url(#linear-gradient-13)"/><path d="M18.51,284.61c-.18-3.24,1.84-6.06,4.59-6.39,10.43-1.26,33.95-4,36.57-4.32,5.74-.67,38.86-4.47,44.18-5.13,2.26-.28,64.23,40.25,64.32,42.47.45,11.44,4.51,53,4.15,60.84-.14,3-13.4,43.25-16.85,51.26a7,7,0,0,0-.12,5.15c3.06,8.21,11.79,31.5,15.49,41.26.66,1.73,7.49,45.75,7.71,51.65.31,8.29-9,49.26-10.38,50.24-6,4.1-13.91,12.67-24.17,21.52l-32.5,22c-.79.54-45.18-8.66-50.46-9.78-4.23-.9-26.6-5.72-36.21-7.86-2.53-.56-4.3-3.23-4.16-6.25,1.16-24.78,6.24-129.61,6.14-144.76S20.07,312.4,18.51,284.61ZM77.14,515c0,3.49-3,46.33,0,46.1,9.58-.75,28.5,5.14,30.86,4.94,0,0,.4-88.08,0-93.86-.15-2.12-13.65-1.88-24.1-6-3.32-1.32-6.76,1.6-6.76,5.73ZM104.87,394.2c.72-10,1.49-71.46-1.39-71.67-8.1-.58-17.23.47-25.34,0-2.91-.17.08,54.21,0,64.49,0,3.29,26.54,10.38,26.76,7.18Z" transform="translate(-0.05 0.04)" stroke="#c2b59b" stroke-miterlimit="10" stroke-width="5" fill="url(#linear-gradient-14)"/><path d="M731,453.24l36.1-38.38a3,3,0,0,0,.69-2.74c-1.27-4.81-4.25-23.17.35-81.69a2.92,2.92,0,0,0-1.3-2.65c-7-4.52-37.81-24.46-55.9-36.09a2.8,2.8,0,0,0-.79-.35c-4.81-1.27-49.13-12.09-93,8.43h0a2.85,2.85,0,0,0-1.53,3.48c5.11,16.26,32.63,116.18,0,291.2a1.79,1.79,0,0,0,1.41,2.1,1.86,1.86,0,0,0,.78,0l55.45-14.74a2.9,2.9,0,0,0,2.13-2.44L685.61,497a2.87,2.87,0,0,1,5.49-.76l35.95,85.3a2.85,2.85,0,0,0,2.09,1.7l57.63,11.23a1.79,1.79,0,0,0,2.11-1.42,1.83,1.83,0,0,0-.11-1.06L730.42,456.37A2.85,2.85,0,0,1,731,453.24Zm-48-40.11-4.26-78.64a1.78,1.78,0,0,1,1.66-1.89,1.63,1.63,0,0,1,.69.09l29.47,10.2a2.9,2.9,0,0,1,1.94,2.85L710,406.54a2.86,2.86,0,0,1-2.18,2.67l-22.64,5.58a1.76,1.76,0,0,1-2.14-1.28,1.58,1.58,0,0,1,0-.38Z" transform="translate(-0.05 0.04)" stroke="#c2b59b" stroke-miterlimit="10" stroke-width="5" fill="url(#linear-gradient-15)"/><path d="M714.12,314" transform="translate(-0.05 0.04)" fill="#726658"/><path d="M387.39,511.3" transform="translate(-0.05 0.04)" fill="none" stroke="#c2b59b" stroke-miterlimit="10" stroke-width="5"/><path d="M431.37,556.93" transform="translate(-0.05 0.04)" fill="none" stroke="#c2b59b" stroke-miterlimit="10" stroke-width="5"/><path d="M202.83,324.59H373a11.86,11.86,0,0,1,11.85,11.85V497.21A11.86,11.86,0,0,1,373,509.06H202.83A11.86,11.86,0,0,1,191,497.21V336.44a11.84,11.84,0,0,1,11.83-11.85Z" transform="translate(-0.05 0.04)" stroke="#c2b59b" stroke-miterlimit="10" stroke-width="5" fill="url(#linear-gradient-16)"/><circle cx="334.8" cy="373.76" r="19.81" fill="url(#radial-gradient)"/><circle cx="238.89" cy="467.73" r="19.81" transform="translate(-261.12 628.65) rotate(-80.78)" fill="url(#radial-gradient-2)"/><circle cx="285.23" cy="416.87" r="19.81" fill="url(#radial-gradient-3)"/><circle cx="334.8" cy="467.77" r="19.81" fill="url(#radial-gradient-4)"/><circle cx="238.89" cy="373.72" r="19.81" transform="translate(-168.32 549.7) rotate(-80.78)" fill="url(#radial-gradient-5)"/><path d="M-98,242.2" transform="translate(-0.05 0.04)" fill="url(#radial-gradient-6)"/></g><g id="Layer_5" data-name="Layer 5"><polygon points="261.6 38.59 281.36 40 327.6 222.12 288.06 38.59 261.6 38.59" fill="#f8f8f9"/><path d="M243.56,217l-34.72.44,43.95,3.14-8-23.54-14.38-38.51L204.7,210l24-37.7a1.55,1.55,0,0,1,2.71.35L241,198.94,246,212.31C247.07,214.71,246.17,217,243.56,217Z" transform="translate(-0.05 0.04)" fill="#f8f8f9"/><path d="M353.65,97.26,351.3,36.09h50.35l-49.5-3.3a3.57,3.57,0,0,0-3.8,3.33,3.25,3.25,0,0,0,0,.54Z" transform="translate(-0.05 0.04)" fill="#f8f8f9"/><path d="M355.51,284.91v9.56a3.65,3.65,0,0,0,3.67,3.65,3.6,3.6,0,0,0,.56,0l14.12-3.17S360.83,295.14,355.51,284.91Z" transform="translate(-0.05 0.04)" fill="#f8f8f9"/><path d="M422.83,38.55l4.24,252.18h0a4.79,4.79,0,0,0,5.4-4.09,4.84,4.84,0,0,0,0-.85Z" transform="translate(-0.05 0.04)" fill="#f8f8f9"/><polyline points="451.48 108.12 455.71 44.19 496.65 44.19 537.6 130.36 500.19 38.59 450.06 38.59" fill="#f8f8f9"/><path d="M596.51,38.55s15.58,1.07,17.41,5.59V38.55Z" transform="translate(-0.05 0.04)" fill="#fff"/><polygon points="453.83 264.83 460.38 297.3 453.83 297.3 453.83 264.83" fill="#fff"/><path d="M613.89,57.43s-11.73,157.91,1.62,238.88C615.51,296.31,610.59,106.54,613.89,57.43Z" transform="translate(-0.05 0.04)" fill="#f8f8f9"/><path d="M504.51,296.31,501,229.5l51.84,64.29-41.18-46.9a3.06,3.06,0,0,0-5.35,1.9Z" transform="translate(-0.05 0.04)" fill="#fff"/><polygon points="640.58 12.59 652.3 20.32 655.13 12.59 640.58 12.59" fill="#fff"/><path d="M660.51,84.44l8.86-26.74,178.9-9.84L667.1,51.34a6.72,6.72,0,0,0-6.59,6.72Z" transform="translate(-0.05 0.04)" fill="#fff"/><path d="M851.8,129.14c-.74,3.77-4.62,13.08-10.18,14.74l4.36.36a5.59,5.59,0,0,0,6-5.16c0-.19,0-.37,0-.55C852,138.53,852.09,127.67,851.8,129.14Z" transform="translate(-0.05 0.04)" fill="#fff"/><path d="M663.3,141.26l52.57-2.2a6,6,0,0,1,6.22,5.77v.34l-3.38,143.62-.68-140a6.27,6.27,0,0,0-6.11-6.24Z" transform="translate(-0.05 0.04)" fill="#fff"/><path d="M21.51,291.7h0a18.33,18.33,0,0,1,13.85-10.6l47.15-7.49-56.26,5.64a5.63,5.63,0,0,0-5.31,5.93,2.28,2.28,0,0,0,0,.26Z" transform="translate(-0.05 0.04)" fill="#fffbfd"/><path d="M136.36,291.7l30.15,30.65-.54-9.92S139.18,292,136.36,291.7Z" transform="translate(-0.05 0.04)" fill="#fffbfd"/><path d="M107.79,345.64l2.5,54.09a1.62,1.62,0,0,1-1.53,1.69,1.66,1.66,0,0,1-.58-.08L85,394.09l17.55,3.28a4,4,0,0,0,4.78-3,3.86,3.86,0,0,0,.1-.76Z" transform="translate(-0.05 0.04)" fill="#fffbfd"/><path d="M168.51,353.9l1.18,18.42S154.4,421.73,153,423.14Z" transform="translate(-0.05 0.04)" fill="#fffbfd"/><polygon points="162.71 454.84 176.03 521.43 169.59 472.36 162.71 454.84" fill="#fffbfd"/><path d="M74.24,470.2l-2.4,93.22a2.72,2.72,0,0,0,2.52,2.78l36.15,2.59c-.58-.82-18-5.43-32-5.42a2.7,2.7,0,0,1-2.72-2.66Z" transform="translate(-0.05 0.04)" fill="#fffbfd"/><path d="M23.77,579.61,26,589.15a6.05,6.05,0,0,0,2.21,3.42l5.45,4.16-5.53-.88a5.38,5.38,0,0,1-5.38-5.4,4.26,4.26,0,0,1,0-.5Z" transform="translate(-0.05 0.04)" fill="#fffbfd"/><path d="M193.65,416.79l5.27-78.66a6.13,6.13,0,0,1,6-5.72l169-5.24H203.65a10,10,0,0,0-10,10Z" transform="translate(-0.05 0.04)" fill="#fffbfd"/><path d="M193.42,490.55l3.58,8.27a8.67,8.67,0,0,0,3.1,3.73l5.79,3.89h-3.82a8.65,8.65,0,0,1-8.65-8.65h0Z" transform="translate(-0.05 0.04)" fill="#fffbfd"/><path d="M381.06,356.44l-3.9,148.72h0a7.57,7.57,0,0,0,5.69-7.44Z" transform="translate(-0.05 0.04)" fill="#fffbfd"/><path d="M212.71,398.91" transform="translate(-0.05 0.04)" fill="#fffbfd"/><path d="M436.51,588.32l48.7-254.91a14.22,14.22,0,0,1,6.59-9.49l10.59-6.43-18,6.17a4.86,4.86,0,0,0-3.2,3.76Z" transform="translate(-0.05 0.04)" fill="#fffbfd"/><path d="M504.51,543.38l50.72-3.18a1.81,1.81,0,0,1,1.92,1.64l3,31.78-4-23.85a7.65,7.65,0,0,0-7.55-6.39Z" transform="translate(-0.05 0.04)" fill="#fffbfd"/><path d="M607.27,570.52l-.33,2.4a11.35,11.35,0,0,1-1.31,4l-.48.88h.52a2.48,2.48,0,0,0,2.49-2.45,2.51,2.51,0,0,0-.06-.55Z" transform="translate(-0.05 0.04)" fill="#fffbfd"/><path d="M505.66,509.06l42.19,2.09a2.31,2.31,0,0,0,2.42-2.19,2.27,2.27,0,0,0,0-.58l-12.58-61.71L546.87,501a6.91,6.91,0,0,1-5.66,8,6.6,6.6,0,0,1-1.17.1Z" transform="translate(-0.05 0.04)" fill="#fffbfd"/><path d="M560.12,313s25.94,179.87,45,244Z" transform="translate(-0.05 0.04)" fill="#fffbfd"/><path d="M622.36,317.49v-7.82a7.9,7.9,0,0,1,4.25-7c9.11-4.74,33.52-13.7,79.45-6.6a8,8,0,0,1,2.77,1L765,329.74l-56-36.29s-47.53-12.88-91.29,8.53Z" transform="translate(-0.05 0.04)" fill="#fffbfd"/><path d="M764.94,337.67s-7.24,45.53,0,75.18C764.94,412.85,761.42,373.67,764.94,337.67Z" transform="translate(-0.05 0.04)" fill="#fffbfd"/><polygon points="729.41 451 764.14 409.54 764.88 412.89 729.41 451" fill="#fffbfd"/><path d="M684.71,417.49l30.8-5.65V338.9l-27.29-6.31,22.61,7.2a4.6,4.6,0,0,1,3.21,4.5l-1.53,62.21a4.06,4.06,0,0,1-3,3.83Z" transform="translate(-0.05 0.04)" fill="#fffbfd"/><path d="M634,430.23s.86,113.53-10.1,155.22a2,2,0,0,0,2.24,2.48L658,582.79l-37.9,10.64a1.45,1.45,0,0,1-1.79-1,1.55,1.55,0,0,1,0-.71C621.06,578.85,634,514.29,634,430.23Z" transform="translate(-0.05 0.04)" fill="#fffbfd"/><path d="M703.65,518.55l27.76,59.24,25.1,8-26.72-4.43a2.58,2.58,0,0,1-2-1.62Z" transform="translate(-0.05 0.04)" fill="#fffbfd"/><path d="M798.83,588.32s27.85-102.21.16-282.4C799,305.92,813.65,460.79,798.83,588.32Z" transform="translate(-0.05 0.04)" fill="#fffbfd"/><path d="M859.89,302.55,921,353.22a9.56,9.56,0,0,1,3.44,6.72l2.19,32.25,1.33-35.81a5,5,0,0,0-1.64-3.85C917.32,344.57,875.9,308.2,859.89,302.55Z" transform="translate(-0.05 0.04)" fill="#fffbfd"/><path d="M847.18,527.2l30.33-12.91a9.35,9.35,0,0,0,5.67-8.65l-.67-77.45-.8,72.6a16.7,16.7,0,0,1-9.69,15Z" transform="translate(-0.05 0.04)" fill="#fffbfd"/><path d="M927,530s-1.63,19.86-7,24.09l7.15-5.74Z" transform="translate(-0.05 0.04)" fill="#fffbfd"/></g></svg>