<svg xmlns="http://www.w3.org/2000/svg" xmlns:xlink="http://www.w3.org/1999/xlink" viewBox="0 0 243.4 167.2">
  <defs>
    <linearGradient id="d" x1="114.86" y1="44.34" x2="114.86" y2="44.34" gradientTransform="matrix(1 0 0 -1 -3.3 118.05)" gradientUnits="userSpaceOnUse">
      <stop offset=".01" stop-color="#886441"/>
      <stop offset=".14" stop-color="#634522"/>
      <stop offset=".31" stop-color="#735229"/>
      <stop offset=".65" stop-color="#603b0f"/>
      <stop offset=".8" stop-color="#886441"/>
      <stop offset="1" stop-color="#603b0f"/>
      <stop offset="1" stop-color="#5f4421"/>
    </linearGradient>
    <linearGradient id="e" x1="52.13" y1="4.33" x2="114.88" y2="4.33" gradientTransform="matrix(1 0 0 -1 -3.3 118.05)" gradientUnits="userSpaceOnUse">
      <stop offset=".01" stop-color="#f6e8d7"/>
      <stop offset="1" stop-color="#d8cdbb"/>
    </linearGradient>
    <linearGradient id="a" x1="141.17" y1="108.68" x2="141.17" y2="40.51" gradientTransform="matrix(1 0 0 -1 -3.3 118.05)" gradientUnits="userSpaceOnUse">
      <stop offset=".01" stop-color="#f3f4f4"/>
      <stop offset=".12" stop-color="#e7e7e7"/>
      <stop offset=".34" stop-color="#d5d3d4"/>
      <stop offset=".49" stop-color="#cecccd"/>
      <stop offset=".5" stop-color="#cac8c9"/>
      <stop offset=".51" stop-color="#c4c3c2"/>
      <stop offset=".54" stop-color="#c2c1c0"/>
      <stop offset=".57" stop-color="#c8c7c7"/>
      <stop offset=".67" stop-color="#d5d5d5"/>
      <stop offset=".8" stop-color="#ddd"/>
      <stop offset="1" stop-color="#dfdfe0"/>
    </linearGradient>
    <linearGradient id="f" x1="62.89" y1="108.71" x2="62.89" y2="41.99" xlink:href="#a"/>
    <linearGradient id="g" x1="104.14" y1="110.19" x2="104.14" y2="40.59" xlink:href="#a"/>
    <linearGradient id="h" x1="169.43" y1="115.4" x2="169.43" y2="103.18" xlink:href="#a"/>
    <linearGradient id="i" x1="198.85" y1="106.62" x2="198.85" y2="37.09" xlink:href="#a"/>
    <linearGradient id="c" x1="138.38" y1="41.37" x2="138.38" y2="-35.61" gradientTransform="matrix(1 0 0 -1 -3.3 118.05)" gradientUnits="userSpaceOnUse">
      <stop offset=".01" stop-color="#f6e8d7"/>
      <stop offset=".5" stop-color="#f4e6d5"/>
      <stop offset=".76" stop-color="#ecdfcd"/>
      <stop offset=".98" stop-color="#ded3c1"/>
      <stop offset="1" stop-color="#dcd1bf"/>
    </linearGradient>
    <linearGradient id="l" x1="226.43" y1="40.48" x2="226.43" y2="-36.02" xlink:href="#c"/>
    <linearGradient id="m" x1="28.79" y1="48.52" x2="28.79" y2="-41.12" xlink:href="#c"/>
    <linearGradient id="n" x1="184.98" y1="43.71" x2="184.98" y2="-36.28" xlink:href="#c"/>
    <linearGradient id="o" x1="74.47" y1="86.03" x2="74.47" y2="38.31" gradientTransform="matrix(1 0 0 -1 0 169.97)" xlink:href="#c"/>
    <radialGradient id="b" cx="80.04" cy="31.44" r="3.93" gradientTransform="matrix(1 0 0 -1 0 169.97)" gradientUnits="userSpaceOnUse">
      <stop offset="0" stop-color="#a97c50"/>
      <stop offset=".2" stop-color="#a5794e"/>
      <stop offset=".4" stop-color="#987046"/>
      <stop offset=".61" stop-color="#84603b"/>
      <stop offset=".82" stop-color="#674a2a"/>
      <stop offset="1" stop-color="#483318"/>
    </radialGradient>
    <radialGradient id="j" cx="105.89" cy="68.58" r="3.78" xlink:href="#b"/>
    <radialGradient id="k" cx="105.89" cy="46.77" r="3.78" xlink:href="#b"/>
    <radialGradient id="p" cx="86.61" cy="73.32" r="5.13" xlink:href="#b"/>
    <radialGradient id="q" cx="61.79" cy="49" r="5.13" xlink:href="#b"/>
    <radialGradient id="r" cx="73.79" cy="62.17" r="5.13" xlink:href="#b"/>
    <radialGradient id="s" cx="86.61" cy="49" r="5.13" xlink:href="#b"/>
    <radialGradient id="t" cx="61.79" cy="73.32" r="5.13" xlink:href="#b"/>
    <radialGradient id="u" cx="-18.77" cy="55.39" r="0" gradientTransform="matrix(1 0 0 -1 -3.3 118.05)" gradientUnits="userSpaceOnUse">
      <stop offset=".03" stop-color="#d3d1d3"/>
      <stop offset=".4" stop-color="#d0ced0"/>
      <stop offset=".71" stop-color="#c5c6c8"/>
      <stop offset="1" stop-color="#b4b9bb"/>
    </radialGradient>
  </defs>
  <path d="M29.06 70.02l15.1-59.7a1.68 1.68 0 011.72-1.3l33.7 1.45a1.71 1.71 0 011.53 1.13l3.3 9.4c.8 1.36 1.34-11.54 1.34-11.54 0-.9 24.15.92 24.15.92h.21l19.77-.31c.69 0 2 .22 2.25.88l2 4.75c.46 1.38 2.09 1.76 2.64.6a1.28 1.28 0 00.13-.51l.38-4.4a1.52 1.52 0 01.1-.47 1.31 1.31 0 011.26-.94l19.17.38a1.67 1.67 0 001.48-.8l2.44-4a1.64 1.64 0 011.44-.81h9.58c1.12 0-.8 4.75-1.1 5.83v1.44c-.31 1.1 2.28.55 3.42.52l48.27-1.21a1.7 1.7 0 011.66 1.64v32.75a1.7 1.7 0 01-1.7 1.7h-10.6a1.69 1.69 0 00-1.7 1.69V77.5a1.69 1.69 0 001.58 1.69l8.16.53a14.87 14.87 0 016.55 2l14.63 8.58a1.68 1.68 0 01.83 1.46l-.53 27.26.55 29a1.67 1.67 0 01-.67 1.35l-17.1 13a1.71 1.71 0 01-1.09.35l-18.07-.75h-.2l-19-3a1.66 1.66 0 01-1.33-1.1l-3.61-10.25a1.69 1.69 0 00-3.28.44l-.63 8a1.67 1.67 0 01-1.27 1.51l-18.38 4.65a1.7 1.7 0 01-2.06-1.24 1.83 1.83 0 01-.05-.4v-1.33a1.69 1.69 0 00-1.61-1.69l-10.82-.52a1.7 1.7 0 01-1.59-1.4l-.79-4.5a1.7 1.7 0 00-1.69-1.4l-6.71.09a1.7 1.7 0 00-1.64 1.38l-1.26 6.63a1.7 1.7 0 01-1.48 1.37l-17.35 1.95a1.68 1.68 0 01-1.87-1.48 1.15 1.15 0 010-.32l.38-5.78a1.69 1.69 0 00-1.57-1.81H57.41a1.73 1.73 0 01-1.21-.51l-3.5-3.62a1.7 1.7 0 00-2.39-.05 1.68 1.68 0 00-.43.68l-1.55 4.6a1.65 1.65 0 01-.6.82l-17.9 13.18a1.66 1.66 0 01-1.4.28L3.3 161.08a1.7 1.7 0 01-1.3-1.8c.83-9 6.33-56.41-.16-81.56-.26-1-1.11-2.7-.1-2.84l26-3.59a1.68 1.68 0 001.32-1.27z" fill="#483318"/>
  <path d="M28.87 65.9L44.38 4.6a.58.58 0 01.62-.44l35.33 1.53a.58.58 0 01.53.39l3.55 10.11c.8 1.35 1.34-11.54 1.34-11.54 0-.91 24.15.92 24.15.92h.21l19.77-.32c.69 0 2 .23 2.25.89l2 4.75c.49 1.46 2.29 1.8 2.73.36v-.12l.4-4.69v-.12a1.38 1.38 0 011.33-1.15l19.81.39a.57.57 0 00.51-.28l3.09-5a.61.61 0 01.5-.28h11.68a.58.58 0 01.58.6.68.68 0 010 .14L172.9 7.1a.58.58 0 00.4.72h.17l50.92-1.28a.58.58 0 01.6.56V42a.58.58 0 01-.58.58h-12.8a.58.58 0 00-.58.58v30.57a.58.58 0 00.54.58l9.6.62a13.09 13.09 0 015.77 1.76h.06l16.18 12.35a.55.55 0 01.22.46l-1.2 26.52v1.26l.6 26.42a.6.6 0 01-.23.45L224.7 157.7a.63.63 0 01-.37.12l-18.55-.72h-.08l-19.7-3.08a.61.61 0 01-.46-.38l-5.63-15.67a.58.58 0 00-.75-.34.59.59 0 00-.37.49l-1.09 13.91a.59.59 0 01-.44.52l-20.56 5.22a.58.58 0 01-.7-.4.88.88 0 010-.16v-3.81a.57.57 0 00-.55-.58l-12.73-.62a.58.58 0 01-.54-.47l-1.11-6.31a.58.58 0 00-.58-.48l-8.57.11a.58.58 0 00-.56.47l-1.64 8.34a.55.55 0 01-.5.46l-19.5 2.19a.57.57 0 01-.64-.49v-.12l.55-8.3a.57.57 0 00-.52-.62H56.88a.58.58 0 01-.41-.17l-5.11-5.26a.57.57 0 00-1 .22l-2.25 6.66a.58.58 0 01-.21.28l-18.54 13.61a.59.59 0 01-.48.1l-26.51-6.4a.6.6 0 01-.45-.62c.55-5.69 5.34-58.58-1.92-84.43a.57.57 0 01.4-.71h.08l27.89-3.86a.59.59 0 00.5-.5z" fill="#754c29"/>
  <path d="M100.13 84.8H55a4.74 4.74 0 00-4.77 4.71v42.27a4.69 4.69 0 001.34 3.24l8.75 9a4.8 4.8 0 003.43 1.44h45.12a4.75 4.75 0 004.76-4.71V98.51a4.73 4.73 0 00-1.33-3.28l-8.76-9a4.79 4.79 0 00-3.41-1.43zM159.9 149.3l-3.13-16.84-9.88-53.82a1.59 1.59 0 00-1.89-1.26 1.39 1.39 0 00-.33.1l-1.58.68H143l-16.65 5.81a1.62 1.62 0 00-1 1.22l-8.09 47.28-3.56 20.44a1.26 1.26 0 001 1.46 1 1 0 00.39 0l12.53-1.66a1.28 1.28 0 001.09-1l1.45-8.67a1.29 1.29 0 011.26-1.06h12.28a1.28 1.28 0 011.26 1l1.09 6.1a1.28 1.28 0 001.18 1.05l11.32.66a1.27 1.27 0 001.37-1.16 1.45 1.45 0 00-.02-.33zm-20.5-37.06l3.3 17.64a1.57 1.57 0 01-1.26 1.82 1.43 1.43 0 01-.29 0h-8.28a.38.38 0 01-.38-.38v-.07l3.79-19a1.59 1.59 0 013.11 0zM207.16 154.17a355.68 355.68 0 00.12-75.8h8.55c2.53 0 8.08 0 8.3.13 4.6 2.55 17.92 12.52 17.9 14-.12 6.21-.45 22.77-.49 24.14-.08 2.58.4 23.78.34 26.3 0 .39-2.59 2.17-3.73 2.94l-6.66 4.51c-2.14 1.44-4.28 2.9-6.42 4.33a1 1 0 01-.56.15 5.65 5.65 0 01-1-.06l-6.15-.16-3.7-.13-3.51-.11-2.71-.11zm13.67-17.92l5.86-2.59a4.3 4.3 0 002.28-4c0-8.32.09-16.61.08-24.9a4.31 4.31 0 00-2.26-4l-6.89-3.15a4.69 4.69 0 000 .53c0 .62 0 1.24.06 1.86l.15 6.5.15 6q.09 3.24.16 6.5l.15 6c.05 2.42.11 4.85.16 7.28l.09 3.61a1.47 1.47 0 00.01.36zM6.6 73.83a1.51 1.51 0 011.19-1.66l9.55-1.15c1.5-.18 10.15-1.16 11.53-1.33.59-.07 16.77 10.41 16.79 11 .12 3 1.18 13.71 1.09 15.73 0 .77-3.5 11.19-4.4 13.26a1.82 1.82 0 000 1.34c.8 2.12 3.08 8.15 4 10.67.17.45 2 11.83 2 13.36.08 2.14-2.34 12.74-2.72 13-1.57 1.06-3.63 3.27-6.3 5.56l-8.49 5.69c-.21.14-11.79-2.24-13.17-2.53-1.11-.23-6.94-1.48-9.45-2a1.54 1.54 0 01-1.09-1.62c.3-6.41 1.63-33.53 1.6-37.45S7 81.02 6.6 73.83zm15.3 59.58c0 .91-.77 12 0 11.93 2.5-.2 7.44 1.33 8.06 1.28 0 0 .1-22.79 0-24.28 0-.55-3.57-.49-6.29-1.56a1.38 1.38 0 00-1.72.92 1.51 1.51 0 00-.05.56zm7.24-31.24c.19-2.6.39-18.48-.36-18.54-2.12-.15-4.5.13-6.62 0-.76 0 0 14 0 16.69 0 .85 6.92 2.7 6.98 1.85zM191 118.02l9.42-9.93a.73.73 0 00.18-.7c-.33-1.25-1.11-6 .09-21.14a.75.75 0 00-.34-.68c-1.82-1.17-9.87-6.33-14.59-9.34a1 1 0 00-.21-.09c-1.25-.33-12.82-3.12-24.26 2.18a.74.74 0 00-.4.89c1.34 4.21 8.52 30.06 0 75.33a.47.47 0 00.35.55.54.54 0 00.22 0l14.54-3.82a.76.76 0 00.56-.63l2.68-21.31a.74.74 0 01.84-.64.73.73 0 01.59.44L190 151.2a.75.75 0 00.55.44l15 2.9a.46.46 0 00.51-.64l-15.22-35.08a.73.73 0 01.16-.8zm-12.52-10.37L177.4 87.3a.46.46 0 01.43-.48.37.37 0 01.18 0l7.67 2.64a.72.72 0 01.51.73l-.64 15.81a.76.76 0 01-.57.7l-5.9 1.43a.46.46 0 01-.56-.34.53.53 0 010-.13z" fill="#413000"/>
  <path d="M161.25 59.2c-.58-24.16.52-49.41.52-49.41a3.76 3.76 0 000-1.06h-19.16a.64.64 0 00-.65.63l.53 23.28a.64.64 0 01-1.24.25L131.7 9.13a.66.66 0 00-.6-.4h-13.7l1.3 71.24h13.83a.65.65 0 00.64-.65V66.65a.64.64 0 01.66-.64.62.62 0 01.49.23l10.93 13.44a.65.65 0 00.5.24h16a.65.65 0 00.65-.65zM74.25 78.11l16-4a.81.81 0 00.58-1L77.47 8.97a.78.78 0 00-.76-.64H49.16a.79.79 0 00-.76.62L32.7 74.02a.82.82 0 00.58 1l18.19 3.14a.8.8 0 00.9-.67l1.16-8.81a.81.81 0 01.78-.7h15a.78.78 0 01.74.53l3.19 9.12a.78.78 0 001.01.48zM55.81 55.54l5.12-9.52a.76.76 0 011-.33.74.74 0 01.38.45l3.35 9.52a.81.81 0 01-.48 1 .75.75 0 01-.26.05h-8.43a.82.82 0 01-.78-.86.88.88 0 01.1-.31zM93.15 7.53l18.27 1.25a1.39 1.39 0 011.28 1.35l.91 33 1.21 33.18a1.39 1.39 0 01-1.27 1.44l-8.75.55-9.65 1.11a1.37 1.37 0 01-1.52-1.2 1.21 1.21 0 010-.19V33.55L91.7 9.02A1.38 1.38 0 0193 7.53zM167 2.24l-3.4 12.78a.4.4 0 00.29.48.38.38 0 00.39-.11l5.84-5.94a.38.38 0 00.09-.15l2.31-6.82a.39.39 0 00-.24-.5h-4.89a.41.41 0 00-.39.26zM171.61 16.75v20.82a1.85 1.85 0 001.84 1.83H185a1.83 1.83 0 011.84 1.82v38.93a1.84 1.84 0 001.72 1.82l18 1.3a1.84 1.84 0 002-1.67.76.76 0 000-.15V41.61a1.83 1.83 0 011.83-1.83h.05l10.71.24a1.84 1.84 0 001.88-1.8v-23a1.83 1.83 0 00-1.85-1.83h-.05l-47.74 1.58a1.83 1.83 0 00-1.78 1.78z" fill="#413000"/>
  <path d="M98.2 83.39H53.55a4.72 4.72 0 00-4.72 4.72h0v42.26a4.7 4.7 0 001.32 3.27l8.67 9a4.7 4.7 0 003.39 1.41h44.65a4.71 4.71 0 004.72-4.7h0V97.1a4.74 4.74 0 00-1.32-3.27l-8.67-9a4.71 4.71 0 00-3.39-1.44z" transform="translate(0 -.03)" stroke="#c2b59b" stroke-miterlimit="10" fill="url(#e)"/>
  <path d="M48.83 128.46V87.62a4.26 4.26 0 014.26-4.26h43.49a3.62 3.62 0 013.62 3.61v42a3.32 3.32 0 01-3.32 3.32H52.61a3.78 3.78 0 01-3.78-3.83z" fill="none" stroke="#c2b59b" stroke-miterlimit="10"/>
  <path d="M110.89 142.63l-9.67-9.22a2.89 2.89 0 00-2.22-1.17H58.87" fill="none" stroke="#c2b59b" stroke-miterlimit="10"/>
  <path d="M159 57.68c-.57-23.14.53-47.31.53-47.31h0a3.37 3.37 0 00-.06-1h-18.91a.64.64 0 00-.64.64l.53 22.29a.63.63 0 01-.65.63.64.64 0 01-.58-.39l-9.45-22.78a.65.65 0 00-.59-.39h-13.55l1.24 68.17h13.68a.62.62 0 00.64-.6h0V64.81a.65.65 0 01.68-.61.67.67 0 01.46.22l10.81 12.87a.68.68 0 00.5.22h15.83a.62.62 0 00.64-.6v0z" transform="translate(0 -.03)" stroke="#939598" stroke-miterlimit="10" fill="url(#a)"/>
  <path d="M71.92 76l15.87-3.9a.78.78 0 00.58-.92L75.12 10a.79.79 0 00-.76-.62H47.1a.8.8 0 00-.75.59L30.82 72.05a.77.77 0 00.52 1 .35.35 0 00.11 0l18 3a.77.77 0 00.89-.63v0L51.49 67a.77.77 0 01.77-.67h14.87a.77.77 0 01.73.51L71 75.53a.77.77 0 00.92.47zM53.7 54.42l5.07-9a.78.78 0 011-.31.8.8 0 01.35.42l3.28 9a.78.78 0 01-.53 1 .64.64 0 01-.2 0h-8.31a.78.78 0 01-.74-.8.84.84 0 01.08-.31z" transform="translate(0 -.03)" stroke="#939598" stroke-miterlimit="10" fill="url(#f)"/>
  <path d="M90.84 7.86l18.08 1.19a1.35 1.35 0 011.26 1.3l.9 31.93 1.19 32.16a1.34 1.34 0 01-1.27 1.39l-8.65.54-9.55 1.08a1.35 1.35 0 01-1.49-1.19.76.76 0 010-.15V33l-1.9-23.7a1.34 1.34 0 011.22-1.45z" transform="translate(0 -.03)" stroke="#939598" stroke-miterlimit="10" fill="url(#g)"/>
  <path d="M165.2 2.92l-3 11.5a.35.35 0 00.23.44.36.36 0 00.37-.11L168 9.4a.35.35 0 00.08-.13l2-6.15a.35.35 0 00-.21-.45h-4.34a.34.34 0 00-.33.25z" transform="translate(0 -.03)" stroke="#939598" stroke-miterlimit="10" fill="url(#h)"/>
  <path d="M170.11 14.77v20.71a1.83 1.83 0 001.82 1.83h11.44a1.81 1.81 0 011.82 1.82h0v38.71a1.82 1.82 0 001.69 1.82L204.72 81a1.83 1.83 0 001.95-1.69V39.5a1.81 1.81 0 011.82-1.82h0l10.59.24a1.82 1.82 0 001.92-1.78V13.25a1.81 1.81 0 00-1.82-1.82h-.06L171.87 13a1.82 1.82 0 00-1.76 1.77z" transform="translate(0 -.03)" stroke="#939598" stroke-miterlimit="10" fill="url(#i)"/>
  <ellipse cx="80.04" cy="138.53" rx="4.84" ry="2.73" fill="url(#b)"/>
  <ellipse cx="105.89" cy="101.39" rx="3.14" ry="4.32" fill="url(#j)"/>
  <ellipse cx="105.89" cy="123.2" rx="3.14" ry="4.32" fill="url(#k)"/>
  <path d="M157.94 148.63l-3.1-16.84h0L145.05 78a1.56 1.56 0 00-1.81-1.26 2 2 0 00-.35.11l-1.57.67h-.1l-16.52 5.77a1.57 1.57 0 00-1 1.21l-8 47.28h0l-3.5 20.4a1.25 1.25 0 001 1.46 1.28 1.28 0 00.39 0l12.37-1.6a1.24 1.24 0 001.08-1l1.46-8.66a1.28 1.28 0 011.25-1h12.15a1.27 1.27 0 011.25 1l1.08 6.1a1.26 1.26 0 001.17 1l11.22.67A1.26 1.26 0 00158 149a1.1 1.1 0 00-.06-.37zm-20.31-37.06l3.27 17.63a1.56 1.56 0 01-1.24 1.82h-8.49a.38.38 0 01-.38-.36v-.08l3.75-19.06a1.57 1.57 0 013.08 0z" transform="translate(0 -.03)" stroke="#c2b59b" stroke-miterlimit="10" fill="url(#c)"/>
  <path d="M205.7 153.37a355.68 355.68 0 00.12-75.8h8.54c2.54 0 8.09 0 8.31.13 4.59 2.55 17.92 12.52 17.89 14-.11 6.21-.44 22.77-.49 24.14-.07 2.58.41 23.78.35 26.3 0 .39-2.6 2.17-3.73 2.94l-6.69 4.51c-2.14 1.44-4.28 2.9-6.43 4.33a1.06 1.06 0 01-.55.15c-.33 0-.66 0-1-.06l-6.15-.16-3.7-.13-3.51-.11-2.66-.11zm13.67-17.92l5.85-2.59a4.33 4.33 0 002.29-4c0-8.32.09-16.61.08-24.9a4.33 4.33 0 00-2.26-4l-6.9-3.15v2.39c.06 2.17.11 4.33.16 6.5l.15 6q.08 3.24.16 6.5c0 2 .1 4 .14 6q.09 3.63.17 7.28c0 1.2.06 2.41.08 3.61a1.77 1.77 0 01.07.36z" transform="translate(0 -.03)" stroke="#c2b59b" stroke-miterlimit="10" fill="url(#l)"/>
  <path d="M4.78 73.63A1.5 1.5 0 016 72c2.7-.33 8.78-1 9.46-1.12 1.49-.17 10.05-1.15 11.43-1.33.58-.07 16.62 10.42 16.64 11 .12 3 1.17 13.72 1.07 15.74 0 .76-3.46 11.19-4.36 13.26a1.8 1.8 0 000 1.33c.8 2.13 3 8.15 4 10.67.17.45 1.94 11.84 2 13.37.09 2.14-2.31 12.74-2.68 13-1.56 1.06-3.6 3.28-6.25 5.57q-4.22 2.84-8.41 5.69c-.21.14-11.69-2.24-13-2.53-1.1-.23-6.88-1.48-9.37-2A1.54 1.54 0 015.42 153c.3-6.4 1.58-33.52 1.58-37.44S5.18 80.82 4.78 73.63zM20 133.22c0 .9-.77 12 0 11.92 2.48-.19 7.37 1.34 8 1.28 0 0 .11-22.78 0-24.28 0-.55-3.53-.48-6.23-1.56-.86-.34-1.75.41-1.75 1.48zM27.12 102c.19-2.6.39-18.49-.35-18.54-2.1-.15-4.46.12-6.56 0-.75 0 0 14 0 16.68-.01.86 6.86 2.67 6.91 1.86z" transform="translate(0 -.03)" stroke="#c2b59b" stroke-miterlimit="10" fill="url(#m)"/>
  <path d="M189.07 117.25l9.34-9.93a.73.73 0 00.18-.7c-.33-1.25-1.1-6 .09-21.14a.75.75 0 00-.34-.68c-1.8-1.17-9.78-6.33-14.46-9.34a.72.72 0 00-.2-.09c-1.25-.33-12.71-3.12-24 2.18h0a.73.73 0 00-.4.89c1.32 4.21 8.44 30.06 0 75.33a.47.47 0 00.35.55.54.54 0 00.22 0l14.34-3.81a.72.72 0 00.55-.63l2.66-21.31a.75.75 0 01.82-.65.76.76 0 01.6.46l9.3 22.06a.73.73 0 00.54.44l14.91 2.9a.46.46 0 00.53-.37.42.42 0 000-.27l-15.14-35.08a.76.76 0 01.11-.81zm-12.37-10.37l-1.1-20.35a.44.44 0 01.41-.48.4.4 0 01.19 0l7.61 2.64a.74.74 0 01.5.73l-.61 15.73a.78.78 0 01-.57.7l-5.84 1.43a.46.46 0 01-.57-.31.43.43 0 01-.02-.09z" transform="translate(0 -.03)" stroke="#c2b59b" stroke-miterlimit="10" fill="url(#n)"/>
  <rect x="49.39" y="83.94" width="50.15" height="47.72" rx="3.06" stroke="#c2b59b" stroke-miterlimit="10" fill="url(#o)"/>
  <circle cx="86.61" cy="96.65" r="5.13" fill="url(#p)"/>
  <circle cx="61.79" cy="120.97" r="5.13" fill="url(#q)"/>
  <circle cx="73.79" cy="107.8" r="5.13" fill="url(#r)"/>
  <circle cx="86.61" cy="120.97" r="5.13" fill="url(#s)"/>
  <circle cx="61.79" cy="96.65" r="5.13" fill="url(#t)"/>
  <g>
    <path fill="#f8f8f9" d="M67.68 9.95l5.11.36 11.96 47.11L74.52 9.95h-6.84zM63 56.12l-9 .11 11.37.81-2.08-6.07-3.7-9.93-6.65 13.3 6.21-9.75a.41.41 0 01.57-.09.49.49 0 01.14.18l2.49 6.81 1.27 3.48c.28.55.08 1.14-.62 1.15zM91.47 25.14l-.61-15.83h13l-12.81-.84a.92.92 0 00-1 .83.49.49 0 000 .17zM92 73.68v2.47a.94.94 0 00.94.94h.15l3.66-.82s-3.42.05-4.75-2.59zM109.37 9.97l1.09 65.23a1.23 1.23 0 001.4-1 1.69 1.69 0 000-.23zM116.8 27.93l1.09-16.54h10.59l10.59 22.29-9.67-23.73h-12.97"/>
    <path d="M154.28 9.97s4 .28 4.51 1.45V9.97zM117.4 68.47l1.7 8.4h-1.7v-8.4z" fill="#fff"/>
    <path d="M158.79 14.83s-3 40.85.41 61.8c0 0-1.26-49.09-.41-61.8z" fill="#f8f8f9"/>
    <path d="M130.49 76.63l-.92-17.29L143 76.02l-10.66-12.13a.79.79 0 00-1.12-.07.82.82 0 00-.26.56zM165.71 3.22l3.04 2 .72-2h-3.76zM170.84 21.82l2.29-6.92 46.28-2.55-46.86.9a1.75 1.75 0 00-1.71 1.77zM220.33 33.38c-.19 1-1.19 3.39-2.63 3.82l1.13.09a1.46 1.46 0 001.56-1.32v-.14a19.72 19.72 0 00-.06-2.45zM171.57 36.52l13.6-.57a1.55 1.55 0 011.61 1.49v.09l-.88 37.15-.2-36.22a1.62 1.62 0 00-1.58-1.62z" fill="#fff"/>
    <path d="M5.54 75.43a4.76 4.76 0 013.59-2.74l12.21-1.93-14.56 1.46a1.45 1.45 0 00-1.38 1.52.22.22 0 010 .08zM35.26 75.43l7.81 7.93-.14-2.56s-6.93-5.3-7.67-5.37zM27.87 89.39l.65 14a.4.4 0 01-.38.43.32.32 0 01-.17 0L22 101.97l4.54.85a1 1 0 001.23-.69 1.1 1.1 0 000-.31zM43.57 91.52l.3 4.77s-4 12.78-4.32 13.15zM42.09 117.62l3.45 17.23-1.66-12.7-1.79-4.53zM19.19 121.61l-.62 24.11a.7.7 0 00.65.72l9.36.66a26.79 26.79 0 00-8.28-1.4.71.71 0 01-.7-.69zM6.14 149.91l.57 2.47a1.53 1.53 0 00.57.88l1.42 1.08-1.43-.23a1.39 1.39 0 01-1.39-1.39v-.13zM50.08 107.8l1.37-20.35A1.59 1.59 0 0153 86.02l43.71-1.4h-44a2.59 2.59 0 00-2.59 2.57zM50 126.87l1 2.1a2.23 2.23 0 00.8 1l1.5 1h-1a2.23 2.23 0 01-2.3-2.18zM98.56 92.18l-1 38.47a2 2 0 001.44-1.92zM112.9 152.16l12.59-65.94a3.7 3.7 0 011.71-2.45l2.74-1.66-4.66 1.59a1.23 1.23 0 00-.82 1zM130.49 140.54l13.12-.82a.46.46 0 01.49.42l.78 8.22-1-6.17a2 2 0 00-2-1.65zM157.08 147.56l-.09.62a3 3 0 01-.34 1l-.12.22h.17a.64.64 0 00.64-.64.49.49 0 000-.12zM130.79 131.66l10.92.54a.58.58 0 00.62-.55.47.47 0 000-.17l-3.25-16 2.38 14a1.77 1.77 0 01-1.44 2.06 1.73 1.73 0 01-.32 0zM144.88 80.97s6.71 46.53 11.65 63.1zM161 82.11v-2a2 2 0 011.1-1.81c2.35-1.22 8.67-3.54 20.55-1.7a2.06 2.06 0 01.72.25l14.51 8.45-14.48-9.39s-12.3-3.33-23.62 2.21zM197.86 87.33s-1.87 11.77 0 19.44a121.32 121.32 0 010-19.44z" fill="#fffbfd"/>
    <path fill="#fffbfd" d="M188.69 116.63l8.99-10.73.19.87-9.18 9.86zM177.11 108.02l8-1.47v-18.9L178 86.02l5.84 1.85a1.2 1.2 0 01.84 1.15l-.4 16.1a1.06 1.06 0 01-.77 1zM164 111.27s.23 29.37-2.61 40.15a.52.52 0 00.37.64.5.5 0 00.21 0l8.24-1.34-9.8 2.75a.37.37 0 01-.47-.43 210.81 210.81 0 004.06-41.77zM182 134.12l7.18 15.31 6.51 2.09-6.92-1.15a.66.66 0 01-.51-.42zM206.63 152.16s7.2-26.44 0-73c.07-.05 3.83 40.01 0 73zM222.42 78.24l15.8 13.11a2.42 2.42 0 01.89 1.74l.57 8.34.32-9.26a1.26 1.26 0 00-.42-1c-2.3-2.06-13.01-11.47-17.16-12.93zM219.14 136.35l7.83-3.33a2.45 2.45 0 001.47-2.24l-.18-20-.19 18.78a4.32 4.32 0 01-2.51 3.87zM239.79 137.08s-.42 5.14-1.82 6.24l1.85-1.49z"/>
  </g>
</svg>
