<svg id="Layer_1" xmlns="http://www.w3.org/2000/svg" xmlns:xlink="http://www.w3.org/1999/xlink" viewBox="0 0 941 646.44"><defs><style>.cls-1{fill:#483318;}.cls-2{fill:url(#linear-gradient);}.cls-3{fill:url(#linear-gradient-2);}.cls-4{fill:#413000;}.cls-16,.cls-17,.cls-18,.cls-19,.cls-21,.cls-5,.cls-6{stroke:#c2b59b;}.cls-10,.cls-11,.cls-16,.cls-17,.cls-18,.cls-19,.cls-21,.cls-5,.cls-6,.cls-7,.cls-8,.cls-9{stroke-miterlimit:10;stroke-width:5px;}.cls-5{fill:url(#linear-gradient-3);}.cls-6{fill:none;}.cls-10,.cls-11,.cls-7,.cls-8,.cls-9{stroke:#939598;}.cls-7{fill:url(#linear-gradient-4);}.cls-8{fill:url(#linear-gradient-5);}.cls-9{fill:url(#linear-gradient-6);}.cls-10{fill:url(#linear-gradient-7);}.cls-11{fill:url(#linear-gradient-8);}.cls-12{fill:#f0daac;}.cls-13{fill:url(#linear-gradient-9);}.cls-14{fill:url(#linear-gradient-10);}.cls-15{fill:url(#linear-gradient-11);}.cls-16{fill:url(#linear-gradient-12);}.cls-17{fill:url(#linear-gradient-13);}.cls-18{fill:url(#linear-gradient-14);}.cls-19{fill:url(#linear-gradient-15);}.cls-20{fill:#726658;}.cls-21{fill:url(#linear-gradient-16);}.cls-22{fill:url(#radial-gradient);}.cls-23{fill:url(#radial-gradient-2);}.cls-24{fill:url(#radial-gradient-3);}.cls-25{fill:url(#radial-gradient-4);}.cls-26{fill:url(#radial-gradient-5);}.cls-27{fill:url(#radial-gradient-6);}.cls-28{fill:#f8f8f9;}.cls-29{fill:#fff;}.cls-30{fill:#fffbfd;}</style><linearGradient id="linear-gradient" x1="29.49" y1="493.78" x2="970.49" y2="493.78" gradientTransform="matrix(1, 0, 0, -1, 0, 1000)" gradientUnits="userSpaceOnUse"><stop offset="0.01" stop-color="#886441"/><stop offset="0.14" stop-color="#634522"/><stop offset="0.31" stop-color="#735229"/><stop offset="0.65" stop-color="#603b0f"/><stop offset="0.8" stop-color="#886441"/><stop offset="1" stop-color="#603b0f"/><stop offset="1" stop-color="#5f4421"/></linearGradient><linearGradient id="linear-gradient-2" x1="460.79" y1="522.88" x2="460.79" y2="522.88" xlink:href="#linear-gradient"/><linearGradient id="linear-gradient-3" x1="218.31" y1="368.15" x2="460.86" y2="368.15" gradientTransform="matrix(1, 0, 0, -1, 0, 1000)" gradientUnits="userSpaceOnUse"><stop offset="0.01" stop-color="#f6e8d7"/><stop offset="1" stop-color="#d8cdbb"/></linearGradient><linearGradient id="linear-gradient-4" x1="562.5" y1="771.7" x2="562.5" y2="508.17" gradientTransform="matrix(1, 0, 0, -1, 0, 1000)" gradientUnits="userSpaceOnUse"><stop offset="0.01" stop-color="#f3f4f4"/><stop offset="0.29" stop-color="#d7d5d6"/><stop offset="0.49" stop-color="#cecccd"/><stop offset="0.5" stop-color="#c8c6c7"/><stop offset="0.5" stop-color="#c3c2c2"/><stop offset="0.51" stop-color="#c2c1c0"/><stop offset="0.54" stop-color="#c2c1c0"/><stop offset="0.58" stop-color="#c9c8c8"/><stop offset="0.68" stop-color="#d5d5d5"/><stop offset="0.8" stop-color="#ddd"/><stop offset="1" stop-color="#dfdfe0"/></linearGradient><linearGradient id="linear-gradient-5" x1="259.91" y1="771.7" x2="259.91" y2="514.02" xlink:href="#linear-gradient-4"/><linearGradient id="linear-gradient-6" x1="419.37" y1="777.44" x2="419.37" y2="508.28" xlink:href="#linear-gradient-4"/><linearGradient id="linear-gradient-7" x1="671.8" y1="797.57" x2="671.8" y2="750.36" xlink:href="#linear-gradient-4"/><linearGradient id="linear-gradient-8" x1="785.5" y1="763.64" x2="785.5" y2="494.82" xlink:href="#linear-gradient-4"/><linearGradient id="linear-gradient-9" x1="338.94" y1="282.69" x2="338.94" y2="261.59" gradientTransform="matrix(1, 0, 0, -1, -29.49, 807.79)" gradientUnits="userSpaceOnUse"><stop offset="0.03" stop-color="#d3d1d3"/><stop offset="0.26" stop-color="#cac8cb"/><stop offset="0.62" stop-color="#b4b1b5"/><stop offset="1" stop-color="#989498"/></linearGradient><linearGradient id="linear-gradient-10" x1="426.72" y1="415.72" x2="451.02" y2="415.72" gradientTransform="matrix(1, 0, 0, -1, -29.49, 807.79)" gradientUnits="userSpaceOnUse"><stop offset="0" stop-color="#d3d1d3"/><stop offset="0.24" stop-color="#cac8cb"/><stop offset="0.61" stop-color="#b4b1b5"/><stop offset="1" stop-color="#989498"/></linearGradient><linearGradient id="linear-gradient-11" x1="426.72" y1="331.41" x2="451.02" y2="331.41" xlink:href="#linear-gradient-10"/><linearGradient id="linear-gradient-12" x1="551.58" y1="511.47" x2="551.58" y2="213.71" gradientTransform="matrix(1, 0, 0, -1, 0, 1000)" gradientUnits="userSpaceOnUse"><stop offset="0.01" stop-color="#f6e8d7"/><stop offset="0.46" stop-color="#f3e6d5"/><stop offset="0.7" stop-color="#ece0cf"/><stop offset="0.9" stop-color="#e2d7c6"/><stop offset="1" stop-color="#dcd1bf"/></linearGradient><linearGradient id="linear-gradient-13" x1="892.27" y1="508.16" x2="892.27" y2="212.55" xlink:href="#linear-gradient-12"/><linearGradient id="linear-gradient-14" x1="128.05" y1="539.02" x2="128.05" y2="192.61" xlink:href="#linear-gradient-12"/><linearGradient id="linear-gradient-15" x1="731.67" y1="520.43" x2="731.67" y2="211.19" xlink:href="#linear-gradient-12"/><linearGradient id="linear-gradient-16" x1="317.4" y1="483.2" x2="317.4" y2="298.73" xlink:href="#linear-gradient-12"/><radialGradient id="radial-gradient" cx="364.34" cy="434.07" r="19.81" gradientTransform="matrix(1, 0, 0, -1, -29.49, 807.79)" gradientUnits="userSpaceOnUse"><stop offset="0.03" stop-color="#d3d1d3"/><stop offset="0.44" stop-color="#cececf"/><stop offset="0.79" stop-color="#c1c3c5"/><stop offset="1" stop-color="#b4b9bb"/></radialGradient><radialGradient id="radial-gradient-2" cx="268.38" cy="340.06" r="19.81" xlink:href="#radial-gradient"/><radialGradient id="radial-gradient-3" cx="314.77" cy="390.96" r="19.81" xlink:href="#radial-gradient"/><radialGradient id="radial-gradient-4" cx="364.34" cy="340.06" r="19.81" xlink:href="#radial-gradient"/><radialGradient id="radial-gradient-5" cx="268.38" cy="434.07" r="19.81" xlink:href="#radial-gradient"/><radialGradient id="radial-gradient-6" cx="-68.53" cy="565.59" r="0" gradientTransform="matrix(1, 0, 0, -1, 0, 1000)" xlink:href="#radial-gradient"/></defs><g id="Layer_7" data-name="Layer 7"><path class="cls-1" d="M141.87,463l58.38-230.78a6.55,6.55,0,0,1,6.63-4.94l130.29,5.63a6.57,6.57,0,0,1,5.9,4.37l12.79,36.34C358.92,278.88,361,229,361,229c.16-3.5,93.38,3.55,93.38,3.55a5.49,5.49,0,0,0,.81,0l76.4-1.21c2.69-.08,7.86.87,8.71,3.42l7.55,18.37c1.77,5.32,8.06,6.79,10.21,2.31a5.65,5.65,0,0,0,.49-2l1.45-17a6.26,6.26,0,0,1,.41-1.81c.86-2.16,2.44-3.68,4.86-3.63l74.13,1.47a6.53,6.53,0,0,0,5.71-3.12l9.41-15.34a6.54,6.54,0,0,1,5.58-3.12h37.06c4.34,0-3.06,18.35-4.24,22.53v5.59c-1.19,4.24,8.82,2.12,13.22,2l186.6-4.69a6.55,6.55,0,0,1,6.71,6.55V369.37a6.55,6.55,0,0,1-6.55,6.55H851.86a6.55,6.55,0,0,0-6.55,6.55V492.2a6.56,6.56,0,0,0,6.13,6.54l31.51,2a57.44,57.44,0,0,1,25.33,7.76l56.55,33.15a6.55,6.55,0,0,1,3.24,5.65l-2.15,105,2.15,112a6.56,6.56,0,0,1-2.59,5.22l-66.13,50.22a6.54,6.54,0,0,1-4.22,1.33l-69.9-2.72a6.51,6.51,0,0,1-.76-.07l-73.29-11.49a6.58,6.58,0,0,1-5.15-4.24l-14.25-39.44c-2.4-6.63-12.14-5.31-12.69,1.71l-2.43,31a6.55,6.55,0,0,1-4.92,5.84l-71,18a6.54,6.54,0,0,1-8.15-6.35v-5.11a6.55,6.55,0,0,0-6.24-6.54l-41.8-2a6.56,6.56,0,0,1-6.14-5.4l-3.07-17.4a6.55,6.55,0,0,0-6.53-5.41l-25.93.33a6.55,6.55,0,0,0-6.35,5.33L531.6,802.7a6.55,6.55,0,0,1-5.7,5.28l-67.1,7.53a6.55,6.55,0,0,1-7.27-7l1.5-22.34a6.55,6.55,0,0,0-6.53-7l-195.19-.1a6.53,6.53,0,0,1-4.69-2l-13.56-14a6.55,6.55,0,0,0-10.9,2.47l-6,17.77a6.46,6.46,0,0,1-2.33,3.18l-69.19,50.78a6.59,6.59,0,0,1-5.42,1.09L42.3,815a6.54,6.54,0,0,1-5-7c3.18-34.67,24.45-218-.65-315.26-1-3.79-4.26-10.45-.39-11L136.41,467.9A6.56,6.56,0,0,0,141.87,463Z" transform="translate(-29.49 -192.21)"/><path class="cls-2" d="M141.16,447.06l60-237a2.24,2.24,0,0,1,2.27-1.69l136.7,5.91a2.23,2.23,0,0,1,2,1.5l13.75,39.08c3.06,5.24,5.16-44.6,5.16-44.6.16-3.5,93.38,3.55,93.38,3.55a5.49,5.49,0,0,0,.81,0l76.4-1.21c2.69-.08,7.86.87,8.71,3.42l7.55,18.37c1.88,5.64,8.85,7,10.55,1.42l.09-.49,1.55-18.11a1.86,1.86,0,0,1,.09-.47c.76-2.58,2.42-4.5,5.14-4.45l76.59,1.52a2.24,2.24,0,0,0,2-1.07l12-19.5a2.25,2.25,0,0,1,1.91-1.07h45.16a2.24,2.24,0,0,1,2.16,2.85l-6.9,24.58a2.25,2.25,0,0,0,2.22,2.85l196.85-5a2.24,2.24,0,0,1,2.3,2.24V354.9a2.24,2.24,0,0,1-2.24,2.24H847.58a2.24,2.24,0,0,0-2.24,2.24V477.47a2.25,2.25,0,0,0,2.1,2.24l37.09,2.39a50.9,50.9,0,0,1,22.3,6.79l.26.17,62.52,47.73a2.25,2.25,0,0,1,.88,1.81l-4.64,102.13c-.07,1.62-.09,3.25-.06,4.87l2.31,102.1a2.26,2.26,0,0,1-.89,1.76l-69.07,52.45a2.26,2.26,0,0,1-1.44.46L825,799.59a1.15,1.15,0,0,1-.26,0l-76-11.92a2.24,2.24,0,0,1-1.76-1.45L725,725.59a2.25,2.25,0,0,0-4.35.59l-4.24,53.92a2.25,2.25,0,0,1-1.69,2l-79.41,20.08a2.24,2.24,0,0,1-2.79-2.17V785.26a2.24,2.24,0,0,0-2.14-2.24l-49.34-2.37a2.24,2.24,0,0,1-2.1-1.85l-4.3-24.39a2.24,2.24,0,0,0-2.24-1.85l-33.11.42a2.25,2.25,0,0,0-2.18,1.82L531,787a2.24,2.24,0,0,1-2,1.81l-75.38,8.46a2.24,2.24,0,0,1-2.49-2.38l2.15-32.08a2.24,2.24,0,0,0-2.24-2.39l-201.61-.1a2.25,2.25,0,0,1-1.61-.68l-19.74-20.32a2.24,2.24,0,0,0-3.73.85l-8.69,25.74a2.24,2.24,0,0,1-.8,1.09L143,819.8a2.24,2.24,0,0,1-1.86.37L38.66,795.34A2.25,2.25,0,0,1,37,793c2.1-22,20.64-226.46-7.37-326.44a2.25,2.25,0,0,1,1.85-2.84l107.84-14.94A2.23,2.23,0,0,0,141.16,447.06Z" transform="translate(-29.49 -192.21)"/><path class="cls-3" d="M460.79,477.12" transform="translate(-29.49 -192.21)"/></g><g id="Layer_6" data-name="Layer 6"><path class="cls-4" d="M416.62,520.11H242.22a18.32,18.32,0,0,0-18.41,18.22V701.7A18.16,18.16,0,0,0,229,714.35l33.85,34.76a18.53,18.53,0,0,0,13.26,5.58h174.4a18.32,18.32,0,0,0,18.41-18.22V573.1a18.16,18.16,0,0,0-5.15-12.65l-33.85-34.76A18.55,18.55,0,0,0,416.62,520.11Z" transform="translate(-29.49 -192.21)"/><path class="cls-4" d="M647.66,769.46l-12.09-65.1a.14.14,0,0,0,0-.06L597.33,496.22a6.12,6.12,0,0,0-8.45-4.47l-6.09,2.62-.41.16L518,516.88a6.07,6.07,0,0,0-4,4.7l-31.3,182.76a.14.14,0,0,1,0,.06L469,783.29a4.92,4.92,0,0,0,5.53,5.68l48.45-6.41a4.91,4.91,0,0,0,4.22-4l5.72-33.46a4.92,4.92,0,0,1,4.87-4.08h47.34a4.93,4.93,0,0,1,4.87,4l4.21,23.6a4.94,4.94,0,0,0,4.58,4l43.78,2.58A4.92,4.92,0,0,0,647.66,769.46ZM568.41,626.2l12.78,68.16a6.07,6.07,0,0,1-6,7.16h-32a1.44,1.44,0,0,1-1.43-1.72l14.65-73.67C557.7,619.59,567.17,619.64,568.41,626.2Z" transform="translate(-29.49 -192.21)"/><path class="cls-4" d="M830.37,788.29c10.25-96.74,11-194.21.48-293,.61-.05,1.09-.11,1.57-.11,10.48,0,21,0,31.45-.09,9.79-.05,31.25,0,32.11.5,17.76,9.87,69.28,48.41,69.18,54-.44,24-1.74,88.05-1.89,93.33-.3,10,1.57,91.93,1.33,101.7,0,1.5-10,8.37-14.41,11.34l-25.76,17.43q-12.4,8.4-24.83,16.75a4,4,0,0,1-2.15.59c-1.28,0-2.55-.2-3.83-.24l-23.76-.64c-4.77-.14-9.54-.31-14.31-.47L842,788.85c-3.49-.12-7-.27-10.47-.41C831.2,788.43,830.91,788.36,830.37,788.29ZM883.23,719l22.62-10c5.28-2.34,8.81-8.49,8.83-15.39.12-32.17.34-64.22.31-96.24,0-6.86-3.49-13-8.73-15.39L879.61,569.8c0,.82-.09,1.42-.08,2,.06,2.4.17,4.8.23,7.21q.32,12.57.61,25.13.28,11.52.57,23,.31,12.57.61,25.13.29,11.63.57,23.26.33,14.08.65,28.16.16,7,.32,14C883.1,718.06,883.16,718.43,883.23,719Z" transform="translate(-29.49 -192.21)"/><path class="cls-4" d="M55,477.69c-.18-3.24,1.86-6.06,4.63-6.39,10.53-1.26,34.26-4,36.91-4.32,5.79-.67,39.21-4.47,44.58-5.13,2.28-.28,64.82,40.25,64.91,42.47.46,11.44,4.56,53,4.18,60.84-.14,3-13.52,43.25-17,51.26a6.9,6.9,0,0,0-.12,5.15c3.09,8.21,11.9,31.5,15.63,41.26.66,1.73,7.56,45.75,7.79,51.65.32,8.29-9,49.26-10.48,50.24-6.07,4.1-14,12.67-24.39,21.52q-16.41,11-32.8,22c-.8.54-45.59-8.66-50.92-9.78-4.27-.9-26.84-5.72-36.54-7.86-2.55-.56-4.34-3.23-4.2-6.25,1.17-24.78,6.3-129.61,6.19-144.76S56.58,505.48,55,477.69ZM114.2,708c0,3.49-3,46.33,0,46.1,9.67-.75,28.76,5.14,31.14,4.94,0,0,.4-88.08,0-93.86-.15-2.12-13.77-1.88-24.32-6-3.35-1.32-6.82,1.6-6.82,5.73Zm28-120.76c.72-10,1.5-71.46-1.4-71.67-8.18-.58-17.39.47-25.57,0-2.93-.17.08,54.21,0,64.49C115.19,583.38,142,590.48,142.19,587.28Z" transform="translate(-29.49 -192.21)"/><path class="cls-4" d="M768,648.66l36.43-38.38a2.87,2.87,0,0,0,.69-2.74c-1.28-4.81-4.29-23.17.36-81.69a2.88,2.88,0,0,0-1.31-2.65c-7-4.52-38.15-24.46-56.41-36.09a2.86,2.86,0,0,0-.8-.35c-4.86-1.27-49.57-12.09-93.79,8.43h0a2.86,2.86,0,0,0-1.55,3.48c5.15,16.26,32.92,116.18,0,291.2a1.8,1.8,0,0,0,2.21,2.08l56-14.73a2.91,2.91,0,0,0,2.15-2.44l10.36-82.38a2.9,2.9,0,0,1,5.54-.76L764,777a2.88,2.88,0,0,0,2.11,1.7l58.15,11.23a1.79,1.79,0,0,0,2-2.48L767.44,651.79A2.89,2.89,0,0,1,768,648.66Zm-48.38-40.11-4.3-78.64a1.8,1.8,0,0,1,2.37-1.8l29.65,10.2a2.9,2.9,0,0,1,2,2.85L746.83,602a2.87,2.87,0,0,1-2.2,2.67l-22.81,5.56A1.78,1.78,0,0,1,719.61,608.55Z" transform="translate(-29.49 -192.21)"/><path class="cls-4" d="M652.87,421.16c-2.23-93.42,2-191,2-191h0c0-2.64-.07-4.12-.22-4.12H580.81a2.5,2.5,0,0,0-2.5,2.55l2.06,90a2.5,2.5,0,0,1-4.82,1l-36.92-92a2.5,2.5,0,0,0-2.32-1.57H483.36l4.87,275.2h53.46a2.5,2.5,0,0,0,2.5-2.5v-48.8a2.5,2.5,0,0,1,4.44-1.57l42.25,51.94a2.51,2.51,0,0,0,1.94.92h61.86a2.49,2.49,0,0,0,2.49-2.63Z" transform="translate(-29.49 -192.21)"/><path class="cls-4" d="M316.56,494.27l62-15.64a3.15,3.15,0,0,0,2.25-3.72L329,226.83a3.06,3.06,0,0,0-3-2.48H219.58a3.05,3.05,0,0,0-2.94,2.38L156,478.38a3.14,3.14,0,0,0,2.44,3.86l70.32,12.15a3,3,0,0,0,3.5-2.68l4.48-34a3.07,3.07,0,0,1,3-2.72h58.12a3,3,0,0,1,2.85,2.07L313,492.29A3,3,0,0,0,316.56,494.27ZM245.29,407l19.78-36.63a3,3,0,0,1,5.49.47l12.8,36.63a3.13,3.13,0,0,1-2.85,4.21H247.93A3.14,3.14,0,0,1,245.29,407Z" transform="translate(-29.49 -192.21)"/><path class="cls-4" d="M389.64,221.41l70.64,4.84a5.33,5.33,0,0,1,4.91,5.21l3.51,127.37,4.67,128.26a5.33,5.33,0,0,1-4.93,5.56l-33.8,2.16-37.33,4.29a5.3,5.3,0,0,1-5.85-5.34V322.41c0-.14,0-.29,0-.43L384,227.19A5.33,5.33,0,0,1,389.64,221.41Z" transform="translate(-29.49 -192.21)"/><path class="cls-4" d="M675.12,201,662,250.32a1.54,1.54,0,0,0,2.61,1.44l22.58-23a1.58,1.58,0,0,0,.36-.58l8.94-26.39a1.52,1.52,0,0,0-1.47-2H676.62A1.55,1.55,0,0,0,675.12,201Z" transform="translate(-29.49 -192.21)"/><path class="cls-4" d="M693,257.06v80.48a7.1,7.1,0,0,0,7.12,7.08h44.68a7.1,7.1,0,0,1,7.12,7.08V502.13a7.09,7.09,0,0,0,6.6,7.06l69.69,5.06a7.1,7.1,0,0,0,7.64-7.06v-154a7.11,7.11,0,0,1,7.28-7.08l41.39.94a7.1,7.1,0,0,0,7.28-7.08V251.13a7.1,7.1,0,0,0-7.35-7.08L699.82,250A7.12,7.12,0,0,0,693,257.06Z" transform="translate(-29.49 -192.21)"/><path class="cls-5" d="M409.14,514.56H236.53a18.22,18.22,0,0,0-18.22,18.22V696.15a18.25,18.25,0,0,0,5.1,12.65l33.5,34.76A18.23,18.23,0,0,0,270,749.14H442.64a18.22,18.22,0,0,0,18.22-18.22V567.55a18.25,18.25,0,0,0-5.1-12.65l-33.5-34.76A18.25,18.25,0,0,0,409.14,514.56Z" transform="translate(-29.49 -192.21)"/><path class="cls-6" d="M218.31,688.9V531a16.46,16.46,0,0,1,16.46-16.46H402.92a14,14,0,0,1,14,14V690.67a12.83,12.83,0,0,1-12.83,12.83H232.92A14.59,14.59,0,0,1,218.31,688.9Z" transform="translate(-29.49 -192.21)"/><path class="cls-6" d="M458.22,743.68,420.85,708a11.27,11.27,0,0,0-8.77-4.53h-155" transform="translate(-29.49 -192.21)"/><path class="cls-7" d="M644.21,415.15c-2.21-89.46,2-182.9,2-182.9h0c0-2.52-.07-3.95-.21-3.95h-73.1a2.42,2.42,0,0,0-2.47,2.44l2,86.17a2.49,2.49,0,0,1-4.77.94L531.2,229.8a2.47,2.47,0,0,0-2.29-1.5H476.53l4.81,263.53h52.89a2.43,2.43,0,0,0,2.47-2.39V442.71a2.49,2.49,0,0,1,4.39-1.51l41.8,49.74a2.49,2.49,0,0,0,1.92.88H646a2.42,2.42,0,0,0,2.47-2.52Z" transform="translate(-29.49 -192.21)"/><path class="cls-8" d="M307.58,485.81l61.34-14.92a3,3,0,0,0,2.22-3.55L319.92,230.66A3,3,0,0,0,317,228.3H211.63a3,3,0,0,0-2.91,2.27l-60,240.09a3,3,0,0,0,2.42,3.69l69.57,11.59a3,3,0,0,0,3.46-2.55l4.43-32.48a3,3,0,0,1,3-2.59h57.5a3,3,0,0,1,2.82,2l12.19,33.63A3,3,0,0,0,307.58,485.81Zm-70.52-83.25,19.57-34.95a3,3,0,0,1,5.44.44L274.73,403a3,3,0,0,1-2.82,4H239.68A3,3,0,0,1,237.06,402.56Z" transform="translate(-29.49 -192.21)"/><path class="cls-9" d="M380.71,222.57l69.89,4.69a5.22,5.22,0,0,1,4.86,5.05l3.48,123.44,4.63,124.3a5.2,5.2,0,0,1-4.88,5.39l-33.44,2.09-36.93,4.16a5.21,5.21,0,0,1-5.79-5.18v-166c0-.14,0-.28,0-.41l-7.33-91.86A5.2,5.2,0,0,1,380.71,222.57Z" transform="translate(-29.49 -192.21)"/><path class="cls-10" d="M668.15,203.45l-11.64,44.46a1.37,1.37,0,0,0,2.31,1.3l20-20.68a1.56,1.56,0,0,0,.32-.52l7.92-23.77a1.38,1.38,0,0,0-1.3-1.81H669.48A1.37,1.37,0,0,0,668.15,203.45Z" transform="translate(-29.49 -192.21)"/><path class="cls-11" d="M687.14,249.29v80.06a7,7,0,0,0,7.05,7H738.4a7,7,0,0,1,7.05,7.05V493.1a7.05,7.05,0,0,0,6.53,7l68.95,5a7,7,0,0,0,7.56-7V344.88a7,7,0,0,1,7.21-7l40.95.94a7.05,7.05,0,0,0,7.21-7V243.4a7,7,0,0,0-7.27-7L694,242.25A7.06,7.06,0,0,0,687.14,249.29Z" transform="translate(-29.49 -192.21)"/><path class="cls-12" d="M41.4,522.07" transform="translate(-29.49 -192.21)"/><ellipse class="cls-13" cx="309.45" cy="535.65" rx="18.73" ry="10.55"/><ellipse class="cls-14" cx="409.38" cy="392.07" rx="12.15" ry="16.7"/><ellipse class="cls-15" cx="409.38" cy="476.38" rx="12.15" ry="16.7"/><path class="cls-16" d="M640.08,766.74l-12-65.1a.14.14,0,0,0,0-.06L590.22,493.5a6.06,6.06,0,0,0-8.37-4.47l-6,2.62-.41.16-63.82,22.35a6.06,6.06,0,0,0-4,4.7l-31,182.76a.14.14,0,0,1,0,.06l-13.54,78.89a4.89,4.89,0,0,0,5.47,5.68l48-6.41a4.89,4.89,0,0,0,4.18-4l5.66-33.46a4.9,4.9,0,0,1,4.83-4.08h46.89a4.88,4.88,0,0,1,4.82,4l4.17,23.6a4.9,4.9,0,0,0,4.53,4L635,772.52A4.91,4.91,0,0,0,640.08,766.74Zm-78.5-143.26,12.65,68.16a6.06,6.06,0,0,1-6,7.16H536.6a1.45,1.45,0,0,1-1.42-1.72l14.51-73.67C551,616.87,560.36,616.92,561.58,623.48Z" transform="translate(-29.49 -192.21)"/><path class="cls-17" d="M824.87,785.08c10.25-96.74,11-194.21.48-293,.61-.05,1.09-.11,1.57-.11,10.48,0,21,0,31.45-.09,9.79-.05,31.25,0,32.11.5,17.76,9.87,69.28,48.41,69.18,54-.44,24-1.74,88.05-1.89,93.33-.3,10,1.57,91.93,1.33,101.7,0,1.5-10,8.37-14.41,11.34l-25.76,17.43q-12.4,8.4-24.83,16.75a4,4,0,0,1-2.15.59c-1.28,0-2.55-.2-3.83-.24l-23.76-.64c-4.77-.14-9.54-.31-14.31-.47l-13.58-.46c-3.49-.12-7-.27-10.47-.41C825.7,785.22,825.41,785.15,824.87,785.08Zm52.86-69.27,22.62-10c5.28-2.34,8.81-8.49,8.83-15.39.12-32.17.34-64.22.31-96.24,0-6.86-3.49-13-8.73-15.39l-26.65-12.16c0,.82-.09,1.42-.08,2,.06,2.4.17,4.8.23,7.21q.32,12.57.61,25.13.28,11.52.57,23,.31,12.57.61,25.13.29,11.63.57,23.26.33,14.08.65,28.16.16,7,.32,14A12.73,12.73,0,0,0,877.73,715.81Z" transform="translate(-29.49 -192.21)"/><path class="cls-18" d="M48,476.82c-.18-3.24,1.84-6.06,4.59-6.39,10.43-1.26,33.95-4,36.57-4.32,5.74-.67,38.86-4.47,44.18-5.13,2.26-.28,64.23,40.25,64.32,42.47.45,11.44,4.51,53,4.15,60.84-.14,3-13.4,43.25-16.85,51.26a7,7,0,0,0-.12,5.15c3.06,8.21,11.79,31.5,15.49,41.26.66,1.73,7.49,45.75,7.71,51.65.31,8.29-8.95,49.26-10.38,50.24-6,4.1-13.91,12.67-24.17,21.52q-16.26,11-32.5,22c-.79.54-45.18-8.66-50.46-9.78-4.23-.9-26.6-5.72-36.21-7.86-2.53-.56-4.3-3.23-4.16-6.25,1.16-24.78,6.24-129.61,6.14-144.76S49.56,504.61,48,476.82Zm58.63,230.35c0,3.49-3,46.33,0,46.1,9.58-.75,28.5,5.14,30.86,4.94,0,0,.4-88.08,0-93.86-.15-2.12-13.65-1.88-24.1-6-3.32-1.32-6.76,1.6-6.76,5.73Zm27.73-120.76c.72-10,1.49-71.46-1.39-71.67-8.1-.58-17.23.47-25.34,0-2.91-.17.08,54.21,0,64.49C107.64,582.52,134.17,589.61,134.39,586.41Z" transform="translate(-29.49 -192.21)"/><path class="cls-19" d="M760.44,645.45l36.1-38.38a2.93,2.93,0,0,0,.69-2.74c-1.27-4.81-4.25-23.17.35-81.69a2.9,2.9,0,0,0-1.3-2.65c-7-4.52-37.81-24.46-55.9-36.09a2.93,2.93,0,0,0-.79-.35c-4.81-1.27-49.13-12.09-93,8.43h0a2.86,2.86,0,0,0-1.53,3.48c5.11,16.26,32.63,116.18,0,291.2a1.79,1.79,0,0,0,2.19,2.08L702.7,774a2.9,2.9,0,0,0,2.13-2.44L715.1,689.2a2.87,2.87,0,0,1,5.49-.76l35.95,85.3a2.85,2.85,0,0,0,2.09,1.7l57.63,11.23a1.8,1.8,0,0,0,2-2.48L759.91,648.58A2.85,2.85,0,0,1,760.44,645.45Zm-48-40.11-4.26-78.64a1.78,1.78,0,0,1,2.35-1.8L740,535.1a2.89,2.89,0,0,1,1.94,2.85l-2.44,60.8a2.86,2.86,0,0,1-2.18,2.67L714.68,607A1.76,1.76,0,0,1,712.49,605.34Z" transform="translate(-29.49 -192.21)"/><path class="cls-20" d="M743.61,506.19" transform="translate(-29.49 -192.21)"/><path class="cls-6" d="M416.88,703.51" transform="translate(-29.49 -192.21)"/><path class="cls-6" d="M460.86,749.14" transform="translate(-29.49 -192.21)"/><path class="cls-21" d="M232.32,516.8H402.49a11.85,11.85,0,0,1,11.85,11.85V689.42a11.85,11.85,0,0,1-11.85,11.85H232.32a11.85,11.85,0,0,1-11.85-11.85V528.65A11.84,11.84,0,0,1,232.32,516.8Z" transform="translate(-29.49 -192.21)"/><circle class="cls-22" cx="334.85" cy="373.72" r="19.81"/><circle class="cls-23" cx="238.89" cy="467.73" r="19.81"/><circle class="cls-24" cx="285.28" cy="416.83" r="19.81"/><circle class="cls-25" cx="334.85" cy="467.73" r="19.81"/><circle class="cls-26" cx="238.89" cy="373.72" r="19.81"/><path class="cls-27" d="M-68.53,434.41" transform="translate(-29.49 -192.21)"/></g><g id="Layer_5" data-name="Layer 5"><polygon class="cls-28" points="261.65 38.55 281.41 39.96 327.65 222.08 288.12 38.55 261.65 38.55"/><path class="cls-28" d="M273.05,409.23l-34.72.44,43.95,3.14-8-23.54-14.38-38.51-25.71,51.41,24-37.7a1.54,1.54,0,0,1,2.71.35l9.63,26.33,4.94,13.37C276.56,406.92,275.66,409.19,273.05,409.23Z" transform="translate(-29.49 -192.21)"/><path class="cls-28" d="M383.14,289.47l-2.35-61.17h50.35L381.64,225a3.57,3.57,0,0,0-3.79,3.87Z" transform="translate(-29.49 -192.21)"/><path class="cls-28" d="M385,477.12v9.56a3.66,3.66,0,0,0,4.23,3.61l14.12-3.17S390.32,487.35,385,477.12Z" transform="translate(-29.49 -192.21)"/><path class="cls-28" d="M452.32,230.76l4.24,252.18h0A4.79,4.79,0,0,0,462,478Z" transform="translate(-29.49 -192.21)"/><polyline class="cls-28" points="451.53 108.08 455.77 44.15 496.71 44.15 537.65 130.32 500.24 38.55 450.12 38.55"/><path class="cls-29" d="M626,230.76s15.58,1.07,17.41,5.59v-5.59Z" transform="translate(-29.49 -192.21)"/><polygon class="cls-29" points="453.89 264.79 460.43 297.26 453.89 297.26 453.89 264.79"/><path class="cls-28" d="M643.38,249.64S631.65,407.55,645,488.52C645,488.52,640.08,298.75,643.38,249.64Z" transform="translate(-29.49 -192.21)"/><path class="cls-29" d="M534,488.52l-3.53-66.81L582.31,486,541.13,439.1a3.06,3.06,0,0,0-5.35,1.9Z" transform="translate(-29.49 -192.21)"/><polygon class="cls-29" points="640.63 12.55 652.36 20.28 655.18 12.55 640.63 12.55"/><path class="cls-29" d="M690,276.65l8.86-26.74,178.9-9.84-181.17,3.48a6.72,6.72,0,0,0-6.59,6.72v26.38Z" transform="translate(-29.49 -192.21)"/><path class="cls-29" d="M881.29,321.35c-.74,3.77-4.62,13.08-10.18,14.74l4.36.36a5.59,5.59,0,0,0,6-5.71S881.58,319.88,881.29,321.35Z" transform="translate(-29.49 -192.21)"/><path class="cls-29" d="M692.79,333.47l52.57-2.2a6,6,0,0,1,6.22,6.11L748.2,481l-.68-140a6.27,6.27,0,0,0-6.11-6.24Z" transform="translate(-29.49 -192.21)"/><path class="cls-30" d="M51,483.91h0a18.33,18.33,0,0,1,13.85-10.6L112,465.82l-56.26,5.64a5.63,5.63,0,0,0-5.29,6.19Z" transform="translate(-29.49 -192.21)"/><path class="cls-30" d="M165.85,483.91,196,514.56l-.54-9.92S168.67,484.17,165.85,483.91Z" transform="translate(-29.49 -192.21)"/><path class="cls-30" d="M137.28,537.85l2.5,54.09a1.61,1.61,0,0,1-2.11,1.61l-23.22-7.25L132,589.58a4,4,0,0,0,4.88-3.78Z" transform="translate(-29.49 -192.21)"/><path class="cls-30" d="M198,546.11l1.18,18.42s-15.29,49.41-16.71,50.82Z" transform="translate(-29.49 -192.21)"/><polygon class="cls-30" points="162.76 454.8 176.09 521.39 169.65 472.32 162.76 454.8"/><path class="cls-30" d="M103.73,662.41l-2.4,93.22a2.72,2.72,0,0,0,2.52,2.78L140,761c-.58-.82-18-5.43-32-5.42a2.7,2.7,0,0,1-2.72-2.66Z" transform="translate(-29.49 -192.21)"/><path class="cls-30" d="M53.26,771.82l2.22,9.54a6.05,6.05,0,0,0,2.21,3.42l5.45,4.16-5.53-.88a5.39,5.39,0,0,1-5.36-5.9Z" transform="translate(-29.49 -192.21)"/><path class="cls-30" d="M223.14,609l5.27-78.66a6.13,6.13,0,0,1,6-5.72l169-5.24H233.14a10,10,0,0,0-10,10V609Z" transform="translate(-29.49 -192.21)"/><path class="cls-30" d="M222.91,682.76l3.58,8.27a8.67,8.67,0,0,0,3.1,3.73l5.79,3.89h-3.82a8.65,8.65,0,0,1-8.65-8.65Z" transform="translate(-29.49 -192.21)"/><path class="cls-30" d="M410.55,548.65l-3.9,148.72h0a7.57,7.57,0,0,0,5.69-7.44Z" transform="translate(-29.49 -192.21)"/><path class="cls-30" d="M242.2,591.12" transform="translate(-29.49 -192.21)"/><path class="cls-30" d="M466,780.53l48.7-254.91a14.22,14.22,0,0,1,6.59-9.49l10.59-6.43-18,6.17a4.85,4.85,0,0,0-3.2,3.76Z" transform="translate(-29.49 -192.21)"/><path class="cls-30" d="M534,735.59l50.72-3.18a1.81,1.81,0,0,1,1.92,1.64l3,31.78-4-23.85a7.65,7.65,0,0,0-7.55-6.39Z" transform="translate(-29.49 -192.21)"/><path class="cls-30" d="M636.76,762.73l-.33,2.4a11.23,11.23,0,0,1-1.31,4l-.48.88h.52a2.47,2.47,0,0,0,2.43-3Z" transform="translate(-29.49 -192.21)"/><path class="cls-30" d="M535.15,701.27l42.19,2.09a2.31,2.31,0,0,0,2.38-2.77l-12.58-61.71,9.22,54.31a6.92,6.92,0,0,1-6.83,8.08Z" transform="translate(-29.49 -192.21)"/><path class="cls-30" d="M589.61,505.17s25.94,179.87,45,244Z" transform="translate(-29.49 -192.21)"/><path class="cls-30" d="M651.85,509.7v-7.82a7.88,7.88,0,0,1,4.25-7c9.11-4.74,33.52-13.7,79.45-6.6a8,8,0,0,1,2.77,1l56.12,32.67-56-36.29s-47.53-12.88-91.29,8.53Z" transform="translate(-29.49 -192.21)"/><path class="cls-30" d="M794.43,529.88s-7.24,45.53,0,75.18C794.43,605.06,790.91,565.88,794.43,529.88Z" transform="translate(-29.49 -192.21)"/><polygon class="cls-30" points="729.47 450.96 764.2 409.5 764.94 412.85 729.47 450.96"/><path class="cls-30" d="M714.2,609.7,745,604.05V531.11l-27.29-6.31L740.32,532a4.6,4.6,0,0,1,3.21,4.5L742,598.71a4.07,4.07,0,0,1-3,3.83Z" transform="translate(-29.49 -192.21)"/><path class="cls-30" d="M663.49,622.44s.86,113.53-10.1,155.22a2,2,0,0,0,2.24,2.48L687.49,775l-37.9,10.64a1.44,1.44,0,0,1-1.81-1.69C650.55,771.06,663.49,706.5,663.49,622.44Z" transform="translate(-29.49 -192.21)"/><path class="cls-30" d="M733.14,710.76,760.9,770,786,778l-26.72-4.43a2.6,2.6,0,0,1-2-1.62Z" transform="translate(-29.49 -192.21)"/><path class="cls-30" d="M828.32,780.53s27.85-102.21.16-282.4C828.48,498.13,843.14,653,828.32,780.53Z" transform="translate(-29.49 -192.21)"/><path class="cls-30" d="M889.38,494.76l61.07,50.67a9.56,9.56,0,0,1,3.44,6.72l2.19,32.25,1.33-35.81a5,5,0,0,0-1.64-3.85C946.81,536.78,905.39,500.41,889.38,494.76Z" transform="translate(-29.49 -192.21)"/><path class="cls-30" d="M876.67,719.41,907,706.5a9.34,9.34,0,0,0,5.67-8.65L912,620.4,911.2,693a16.69,16.69,0,0,1-9.69,15Z" transform="translate(-29.49 -192.21)"/><path class="cls-30" d="M956.51,722.23s-1.63,19.86-7,24.09l7.15-5.74Z" transform="translate(-29.49 -192.21)"/></g></svg>