<svg width="1015" height="1006" viewBox="0 0 1015 1006" fill="none" xmlns="http://www.w3.org/2000/svg">
<path d="M720.525 1005.01C654.813 1005.01 596.145 987.314 541.15 950.911C494.605 920.102 458.512 881.152 426.669 846.787C406.439 824.957 387.39 804.401 368.77 789.139C322.38 751.118 277.779 726.9 239.793 719.107C231.067 717.316 222.633 716.41 214.726 716.41C186.036 716.41 162.281 727.901 139.97 752.574C133.394 759.851 132.39 765.168 132.904 771.391C135.851 807.098 187.211 861.515 214.054 882.713C225.747 891.948 227.84 909.043 218.731 920.896L170.632 983.482C165.342 990.368 157.432 993.97 149.443 993.97C143.678 993.97 137.873 992.095 132.973 988.229C131.756 987.269 102.841 964.322 73.2945 930.304C29.5402 879.933 5.35932 830.219 1.42424 782.545C-2.27293 737.774 12.0037 696.157 42.7111 662.197C89.7621 610.162 149.216 582.657 214.645 582.657C231.368 582.657 248.632 584.459 265.958 588.012C325.499 600.227 387.999 632.902 451.724 685.13C477.395 706.173 500.483 731.093 522.812 755.192C580.521 817.469 630.362 871.254 720.637 871.254C725.84 871.254 731.218 871.075 736.62 870.72C787.112 867.397 826.448 852.968 850.372 828.994C868.4 810.925 876.883 788.715 875.586 762.985C874.14 734.299 860.029 705.827 836.873 684.874C809.578 660.173 772.066 647.118 728.393 647.118C725.59 647.118 722.726 647.172 719.876 647.281C699.773 648.042 679.709 648.426 660.238 648.426C533.024 648.427 419.48 632.182 322.76 600.143C230.813 569.685 154.132 525.334 94.8476 468.316C49.2958 424.509 23.0554 375.109 16.8554 321.49C12.2393 281.558 19.3961 239.842 37.5514 200.853C59.936 152.785 101.643 123.077 132.69 106.621C169.498 87.1082 212.066 75.4346 249.476 74.5913C252.507 74.5241 255.589 74.4885 258.639 74.4885C347.482 74.4885 427.635 103.335 479.229 127.534C551.923 161.63 609.997 199.719 656.774 243.977C710.73 295.029 763.361 323.144 804.971 323.144C817.033 323.144 828.086 320.706 837.824 315.898C868.048 300.972 886.023 263.757 882.554 223.293C880.874 203.715 872.574 175.056 820.103 152.299C784.669 136.932 748.569 133.534 747.53 133.441C732.848 132.223 721.864 119.221 722.96 104.305L728.77 25.1873C729.821 10.8907 741.591 0 755.507 0C756.174 0 756.846 0.0247192 757.522 0.0754395C759.846 0.250916 815.082 4.64526 871.999 29.3294C908.047 44.9642 937.995 65.5844 961.009 90.6155C992.185 124.522 1010.01 165.262 1014 211.707C1022.16 306.946 974.586 397.139 895.605 436.14C867.727 449.906 837.168 456.888 804.78 456.888C783.273 456.889 761.121 453.756 738.941 447.581C682.199 431.78 624.266 396.175 566.749 341.756C530.362 307.33 483.611 276.964 423.826 248.922C384.255 230.362 323.487 208.238 258.712 208.238C256.613 208.238 254.514 208.261 252.405 208.309C216.15 209.126 167.934 234.177 156.866 257.946C138.071 298.306 147.219 334.32 185.656 371.285C230.628 414.538 290.544 448.763 363.741 473.008C447.216 500.661 546.911 514.679 660.058 514.679C677.944 514.679 696.415 514.324 714.954 513.622C719.527 513.451 724.131 513.363 728.639 513.363C823.639 513.363 886.46 551.318 922.434 583.155C973.12 628.018 1004.07 691.074 1007.35 756.158C1010.44 817.469 989.14 875.592 947.366 919.821C900.547 969.388 830.629 998.563 745.166 1004.19C736.881 1004.73 728.601 1005.01 720.545 1005.01H720.525Z" fill="#DDE7DC"/>
<path d="M107.411 756.594C83.6843 745.132 61.6131 729.729 39.0389 715.688C30.0266 735.579 26.2981 757.273 28.1684 779.917C30.7895 811.68 44.1542 845.012 67.9669 879.362C89.8816 864.933 110.122 848.124 130.246 831.164C117.442 812.22 107.703 792.02 106.158 773.298C105.668 767.388 106.085 761.858 107.411 756.594Z" fill="#8FBC8E"/>
<path d="M162.84 640.394C159.779 633.059 156 626.366 152.281 619.533C119.165 630.66 88.9303 650.983 62.4959 680.219C54.0885 689.516 47.1725 699.497 41.7745 710.021C64.0649 723.937 85.9033 739.271 109.325 750.705C111.675 744.842 115.264 739.273 120.186 733.828C139.542 712.424 160.868 698.728 184.57 692.59C177.607 675.077 170.098 657.776 162.84 640.394Z" fill="#64A466"/>
<path d="M325.726 635.974C303.597 625.916 281.869 618.674 260.636 614.316C224.572 606.922 190.277 608.093 158.524 617.556C164.115 627.298 168.198 637.521 172.583 647.896C178.666 662.29 184.776 676.688 190.511 691.233C207.472 687.794 225.622 688.082 245.116 692.079C259.879 695.108 275.428 700.281 291.531 707.466C300.517 682.673 311.708 658.274 325.726 635.974Z" fill="#A6D5AE"/>
<path d="M488.496 851.854C501.873 834.855 516.411 818.869 530.676 802.644C521.488 793.133 512.406 783.336 503.249 773.455C486.758 755.656 469.836 737.405 452.04 720.952C433.267 735.524 413.539 748.961 396.642 765.659C394.599 767.677 392.56 769.703 390.515 771.724C408.901 787.527 427.066 807.118 446.206 827.774C456.846 839.255 467.904 851.191 479.612 863.091C482.574 859.345 485.542 855.605 488.496 851.854Z" fill="#64A466"/>
<path d="M632.859 880.302C594.679 863.537 563.757 836.522 534.161 806.229C519.322 823.224 504.196 839.962 490.096 857.615C487.726 860.581 485.396 863.582 483.063 866.578C513.642 897.295 548.685 927.441 592.056 948.525C595.486 942.037 598.953 935.576 602.709 929.259C612.506 912.781 622.834 896.634 632.859 880.302Z" fill="#A6D5AE"/>
<path d="M761.576 895.141C754.072 896.186 746.334 896.981 738.354 897.506C698.981 900.092 666.158 894.037 637.437 882.222C626.522 899.959 615.243 917.468 604.782 935.486C601.968 940.332 599.374 945.514 596.774 950.767C631.949 967.1 672.545 977.442 720.544 977.439C727.985 977.439 735.62 977.19 743.426 976.677C758.512 975.686 772.804 973.929 786.354 971.515C778.188 946.018 767.858 921.096 761.576 895.141Z" fill="#8FBC8E"/>
<path d="M904.782 603.287C891.881 591.869 875.322 579.739 854.789 569.199C853.301 572.09 851.838 574.994 850.389 577.9C843.902 590.917 836.841 603.515 829.982 616.325C825.911 623.93 822.012 631.632 818.134 639.349C855.481 657.954 881.107 687.771 893.654 720.486C918.818 713.484 943.563 705.095 968.247 696.498C955.605 661.349 933.837 629.005 904.782 603.287Z" fill="#8FBC8E"/>
<path d="M715.783 540.551C705.143 540.954 694.62 541.229 684.191 541.407C686.942 567.738 688.481 594.193 689.585 620.666C699.212 620.479 708.915 620.206 718.701 619.835C755.459 618.442 787.165 625.148 813.4 637.268C817.92 628.281 822.493 619.32 827.371 610.526C835.182 596.439 842.025 581.342 849.778 566.886C815.858 550.396 771.649 538.447 715.783 540.551Z" fill="#64A466"/>
<path d="M545.144 536.395C541.434 562.626 536.573 588.692 531.8 614.773C580.012 619.524 630.856 621.496 684.17 620.651C683.049 594.178 681.464 567.725 678.645 541.397C631.936 542.006 587.393 540.331 545.144 536.395Z" fill="#A6D5AE"/>
<path d="M379.065 588.09C424.929 600.111 474.165 608.843 526.562 614.25C531.339 588.174 536.173 562.11 539.833 535.879C495.409 531.521 453.567 524.624 414.436 515.237C404.114 540.149 391.109 563.901 379.065 588.09Z" fill="#8FBC8E"/>
<path d="M268.375 462.116C259.259 487.141 251.119 512.533 242.899 537.894C270.366 551.518 299.786 563.551 331.095 573.922C345.118 578.566 359.515 582.857 374.252 586.813C386.3 562.672 399.259 538.943 409.505 514.055C390.834 509.449 372.794 504.268 355.404 498.508C324.092 488.137 295.044 475.982 268.375 462.116Z" fill="#64A466"/>
<path d="M175.999 170.027C168.221 155.624 161.3 140.56 153.091 126.35C150.412 127.649 147.749 128.979 145.125 130.371C117.721 144.897 81.0239 170.87 61.8202 212.107C52.6109 231.887 46.6227 252.397 43.9489 272.893C69.6191 277.471 95.6787 279.415 121.718 281.576C123.398 269.85 127.005 257.979 132.595 245.975C142.009 225.758 164.9 208.069 190.661 196.228C185.674 187.551 180.755 178.836 175.999 170.027Z" fill="#64A466"/>
<path d="M321.456 155.036C324.958 139.297 328.745 123.659 333.325 108.211C306.897 103.471 278.905 100.785 250.072 101.432C221.095 102.085 188.49 110.111 158.643 123.728C166.552 137.59 173.346 152.174 180.983 166.219C186.003 175.452 191.183 184.593 196.426 193.697C215.115 185.86 234.866 181.134 251.808 180.751C273.467 180.263 294.696 182.119 315 185.495C317.094 175.33 319.201 165.166 321.456 155.036Z" fill="#A6D5AE"/>
<path d="M452.365 185.709C459.994 175.584 467.457 165.466 474.557 154.992C472.372 153.947 470.173 152.905 467.959 151.867C434.711 136.274 389.668 118.925 338.426 109.15C333.928 124.408 330.149 139.847 326.729 155.39C324.46 165.703 322.327 176.051 320.197 186.396C360.989 193.755 397.75 207.105 426.256 219.836C435.075 208.553 443.748 197.15 452.365 185.709Z" fill="#8FBC8E"/>
<path d="M596.179 227.731C562.578 202.223 523.842 178.899 479.085 157.182C478.143 158.688 477.203 160.171 476.257 161.596C468.636 173.075 459.902 183.867 451.6 194.845C444.74 203.912 437.842 212.948 430.851 221.912C432.281 222.568 433.712 223.222 435.095 223.872C488.195 248.778 531.621 275.613 567.109 305.5C576.549 279.477 586.013 253.467 596.179 227.731Z" fill="#64A466"/>
<path d="M737.264 333.455C705.854 319.128 672.413 295.633 638.461 263.508C626.555 252.242 613.859 241.387 600.313 230.9C590.143 256.748 580.679 282.876 571.216 309.004C575.974 313.114 580.591 317.28 585.06 321.508C620.838 355.358 656.55 381.429 691.768 399.464C706.917 377.463 723.003 356.014 737.264 333.455Z" fill="#A6D5AE"/>
<path d="M855.615 139.759C870.47 118.015 885.324 96.2687 899.013 73.7893C887.501 66.473 874.97 59.8505 861.442 53.9835C808.617 31.0736 757.678 27.0096 755.535 26.8478L749.723 105.967C750.118 105.995 790.331 109.437 830.658 126.927C839.785 130.884 848.096 135.16 855.615 139.759Z" fill="#8FBC8E"/>
<path d="M987.26 213.705C983.807 173.454 968.37 138.163 941.377 108.808C930.443 96.9147 917.648 86.1199 903.147 76.4783C889.44 98.9207 874.584 120.639 859.741 142.367C890.219 162.299 906.503 188.092 909.288 220.578C909.518 223.249 909.663 225.909 909.74 228.557C916.204 229.167 922.743 229.26 929.203 229.315C941.875 229.419 954.535 229.766 967.153 231.055C973.974 231.75 980.972 232.704 988.043 233.568C988.071 226.987 987.83 220.363 987.26 213.705Z" fill="#A6D5AE"/>
<path d="M963.457 236.682C950.026 235.451 936.62 235.335 923.15 235.079C918.703 234.995 914.234 234.847 909.789 234.496C909.285 275.383 891.057 312.469 861.516 332.934C864.585 339.233 867.955 345.391 871.289 351.487C878.177 364.084 884.75 376.83 891.475 389.514C893.863 394.019 896.273 398.513 898.688 403.003C952.082 369.607 985.766 307.578 987.928 239.526C979.656 238.544 971.453 237.415 963.457 236.682Z" fill="#64A466"/>
<path d="M885.34 391.143C878.344 377.84 871.283 364.595 864.168 351.36C861.494 346.384 858.845 341.367 856.371 336.268C854.159 337.598 851.899 338.85 849.577 339.996C819.452 354.871 782.411 352.952 741.808 335.467C727.493 358.091 711.35 379.602 696.164 401.676C712.925 409.949 729.569 416.397 746.05 420.988C795.507 434.759 843.158 431.418 883.852 411.322C887.088 409.723 890.241 407.994 893.356 406.202C890.67 401.19 887.987 396.175 885.34 391.143Z" fill="#8FBC8E"/>
<path d="M121.034 287.423C95.0044 285.23 68.9472 283.304 43.2569 278.855C41.9566 291.994 42.0227 305.098 43.5105 317.963C48.5244 361.315 68.813 401.871 103.849 438.689C106.32 436.785 108.837 434.941 111.374 433.15C124.168 424.123 137.256 415.445 150.218 406.664C156.83 402.184 163.531 397.848 170.277 393.584C169.244 392.612 168.204 391.644 167.184 390.663C133.271 358.047 117.858 323.461 121.034 287.423Z" fill="#8FBC8E"/>
<path d="M156.725 408.333C144.015 416.865 131.314 425.472 118.704 434.155C114.907 436.77 111.067 439.451 107.321 442.276C109.279 444.265 111.272 446.249 113.317 448.217C148.542 482.094 190.364 511.314 238.285 535.595C246.531 510.205 254.726 484.797 263.894 459.748C229.904 441.645 199.875 420.707 174.05 397.08C168.228 400.757 162.445 404.493 156.725 408.333Z" fill="#A6D5AE"/>
<path d="M969.975 701.495C945.319 710.094 920.613 718.527 895.499 725.602C899.463 737.293 901.786 749.293 902.389 761.234C903.357 780.445 900.23 806.944 882.453 832.269C886.222 835.359 890.028 838.391 893.775 841.447C905.987 851.416 917.431 862.23 928.481 873.498C932.472 877.57 936.474 881.754 940.524 885.951C970.115 847.721 982.803 801.877 980.55 757.184C979.596 738.272 975.978 719.543 969.975 701.495Z" fill="#A6D5AE"/>
<path d="M922.904 876.896C911.286 865.14 899.201 854.034 886.369 843.653C883.797 841.573 881.213 839.489 878.65 837.38C875.832 840.955 872.711 844.499 869.238 847.98C845.704 871.566 810.854 887.334 767.438 894.268C773.874 920.108 784.193 944.959 792.253 970.407C858.313 957.453 905.762 928.119 936.539 890.937C931.958 886.206 927.432 881.481 922.904 876.896Z" fill="#64A466"/>
<path d="M448.291 717.519C443.869 713.523 439.39 709.647 434.848 705.927C399.254 676.753 364.258 654.069 330.196 638.04C316.162 660.304 305.044 684.795 296.164 709.583C324.735 722.921 354.97 742.484 385.643 767.622C386.003 767.916 386.361 768.225 386.72 768.523C390.132 765.158 393.535 761.784 396.998 758.471C412.813 743.337 430.923 730.878 448.291 717.519Z" fill="#8FBC8E"/>
<path d="M133.035 835.207C112.905 852.122 92.6845 868.91 70.8394 883.441C77.5929 892.879 85.1184 902.39 93.4365 911.965C121.304 944.047 148.324 965.504 149.46 966.402L197.559 903.815C183.996 893.102 154.836 866.131 133.035 835.207Z" fill="#A6D5AE"/>
</svg>
