<svg width="1000" height="1000" viewBox="0 0 1000 1000" fill="none" xmlns="http://www.w3.org/2000/svg">
<path d="M725.03 842.98C739.36 847.4 753.68 851.83 768.01 856.25C766.61 865.22 764.94 874.16 763.87 883.16C762.35 895.95 760.62 908.77 760.18 921.61C759.72 935.19 760.39 948.84 761.08 962.43C761.71 974.97 763 987.48 764.01 1000C636.01 1000 508.01 1000 380.01 1000C380.97 998.54 381.68 996.82 382.92 995.65C392.56 986.5 402.27 977.41 412.02 968.38C438.6 943.77 465.11 919.08 491.84 894.65C506.91 880.87 522.18 867.29 537.71 854.03C557.27 837.33 577.2 821.06 596.93 804.55C598.78 803 600.36 801.13 602.07 799.41C614.76 805.06 627.36 810.92 640.17 816.28C648.32 819.69 656.77 822.37 665.09 825.38C666.44 825.98 667.73 826.76 669.13 827.16C687.75 832.46 706.39 837.71 725.03 842.98Z" fill="#454443"/>
<path d="M334.28 824.75C352.66 817.14 371.05 809.52 389.43 801.92C390.94 801.29 392.48 800.72 394 800.12C395.03 801.56 395.88 803.18 397.11 804.43C406.33 813.81 415.59 823.14 424.89 832.43C439.23 846.77 453.6 861.07 467.98 875.36C469.92 877.29 472.03 879.05 474.43 881.22C466.01 888.91 457.96 896.09 450.11 903.47C430.49 921.92 410.99 940.49 391.39 958.96C386.19 963.86 380.7 968.43 375.52 973.35C366.27 982.16 357.15 991.11 347.98 1000C311.98 1000 275.98 1000 239.98 1000C239.31 984.25 238.92 968.49 237.89 952.77C237.17 941.73 235.83 930.71 234.32 919.75C232.83 908.95 231.35 898.09 228.8 887.52C226.61 878.44 222.94 869.72 219.92 860.83C233.01 852.62 247.83 849.03 262.45 844.96C266.43 843.85 270.51 843.12 274.54 842.22C294.47 836.4 314.37 830.57 334.28 824.75Z" fill="#454443"/>
<path d="M348 1000C357.17 991.11 366.28 982.15 375.54 973.35C380.71 968.43 386.21 963.85 391.41 958.96C411.01 940.49 430.51 921.92 450.13 903.47C457.98 896.08 466.03 888.91 474.45 881.22C472.05 879.05 469.94 877.29 468 875.36C453.62 861.07 439.25 846.76 424.91 832.43C415.61 823.13 406.35 813.8 397.13 804.43C395.9 803.18 395.05 801.57 394.02 800.12C400.92 795.32 407.82 790.51 414.71 785.71C419.78 791.2 424.85 796.68 429.92 802.17C431.32 803.76 432.73 805.35 434.13 806.94C438.73 811.68 443.32 816.42 447.92 821.16C450.92 824.17 453.93 827.17 456.93 830.18C457.56 830.81 458.19 831.44 458.82 832.08C460.59 834.03 462.36 835.99 464.12 837.94C472.39 847 480.67 856.06 488.94 865.12C490.94 864.05 492.94 862.99 494.94 861.92C500.01 857.31 505.07 852.7 510.13 848.09C510.78 847.46 511.44 846.83 512.09 846.2C515.72 842.85 519.35 839.49 522.98 836.14C523.64 835.74 524.3 835.35 524.96 834.95C528.68 831.66 532.39 828.37 536.11 825.07C537.14 824.08 538.17 823.09 539.2 822.09C541.17 820.42 543.14 818.74 545.11 817.07C546.73 815.71 548.35 814.34 549.97 812.98C552 811.31 554.09 809.72 556.03 807.97C563.74 801.03 571.4 794.04 579.08 787.06C579.69 786.08 580.31 785.11 580.92 784.13C587.96 789.22 594.99 794.32 602.03 799.41C600.32 801.13 598.74 803 596.89 804.55C577.16 821.05 557.23 837.32 537.67 854.03C522.14 867.29 506.87 880.87 491.8 894.65C465.07 919.09 438.56 943.77 411.98 968.38C402.23 977.41 392.52 986.5 382.88 995.65C381.65 996.82 380.93 998.54 379.97 1000C369.33 1000 358.67 1000 348 1000Z" fill="#7A7570"/>
<path d="M764 1000C763 987.48 761.7 974.97 761.07 962.43C760.39 948.84 759.71 935.19 760.17 921.61C760.61 908.76 762.34 895.95 763.86 883.16C764.93 874.15 766.6 865.21 768 856.25C793.83 866.82 810.58 885.66 818.71 912.21C825.13 933.18 827.45 954.83 828.92 976.6C829.45 984.39 829.64 992.2 829.99 1000C808 1000 786 1000 764 1000Z" fill="#3D3C3A"/>
<path d="M219.93 860.83C222.95 869.71 226.63 878.43 228.81 887.52C231.36 898.1 232.84 908.96 234.33 919.75C235.84 930.71 237.18 941.73 237.9 952.77C238.93 968.49 239.33 984.26 239.99 1000C215.66 1000 191.32 1000 166.99 1000C168.26 970.53 170.2 941.12 178.45 912.58C185.09 889.64 198.17 871.72 219.93 860.83Z" fill="#3D3C3A"/>
<path d="M259.77 486.89C259.67 477.43 259.68 467.97 259.44 458.52C258.02 401.69 270.69 348.65 305.5 302.95C341.69 255.44 388.53 222.54 447.96 210.97C490.19 202.75 532.56 204.02 573.95 217.17C595.36 223.97 615.03 234.5 633.44 247.35C659.36 265.46 681.95 286.89 699.28 313.55C727.97 357.68 738.96 406.52 737.76 458.58C737.59 466.06 737.01 473.53 736.61 481C735.74 482.24 734.27 483.39 734.09 484.73C732.72 494.53 732.22 504.48 730.28 514.15C727.37 528.72 723.9 543.21 719.96 557.53C715.39 574.1 711.17 590.92 704.75 606.8C696.25 627.85 685.74 648.09 676.16 668.71C675.21 670.76 674.76 673.05 674.07 675.23C673.62 675.71 673.08 676.14 672.73 676.69C654.68 705.49 627.59 724.25 599.71 742.01C591.34 747.34 582.22 751.47 573.44 756.16C572.04 756.07 570.46 755.51 569.27 755.96C552.68 762.37 535.76 766.75 517.88 768.27C500.68 769.73 483.84 768.68 467.14 765.08C453.09 762.05 439.25 758.11 425.28 754.68C424.25 754.43 423 755.06 421.86 755.28C407.44 746.74 392.47 738.98 378.72 729.47C360.68 716.98 343.28 703.45 330.48 685.1C329.82 684.15 329.21 683.17 328.58 682.2C328.31 680.34 328.55 678.22 327.7 676.67C317.39 657.75 305.86 639.4 296.8 619.91C287.95 600.88 280.25 581.08 274.5 560.91C268.73 540.66 265.98 519.55 261.93 498.82C261.18 494.85 260.5 490.87 259.77 486.89ZM325.22 503.09C323.84 503.54 321.42 503.75 321.24 504.49C318.41 516.16 316.92 528.09 318.26 540C318.92 545.9 321.01 552.05 323.99 557.2C329.88 567.4 340.51 571.84 350.84 575.99C370.44 583.87 390.32 581.5 409.73 575.47C432.21 568.48 454.33 560.36 476.7 553.02C486.58 549.78 497.31 547.87 507.14 550.56C527.41 556.1 547.28 563.21 567.14 570.16C582.05 575.38 597.16 579.85 612.91 580.84C630.51 581.94 646.71 576.58 660.96 566.27C667.78 561.34 672.33 554.59 674.35 545.92C677.58 532.03 675.15 518.61 672.42 505.14C672.17 503.92 670.11 503.07 668.89 502.05C663.83 490.17 657.01 479.77 645.24 473.41C604.85 451.59 561.93 438.13 516.01 435.24C461.37 431.8 409.99 444.15 360.81 467.55C344.45 475.31 331.35 485.5 325.22 503.09Z" fill="#454443"/>
<path d="M334.28 824.75C314.37 830.57 294.47 836.4 274.56 842.22C271.31 836.49 268.28 830.62 264.77 825.05C244.56 793.01 224.23 761.04 203.94 729.04C205.04 728.75 206.3 728.72 207.2 728.14C221.75 718.85 236.28 709.52 250.74 700.09C251.85 699.37 252.44 697.85 253.27 696.69C280.28 739.38 307.28 782.06 334.28 824.75Z" fill="#7C7671"/>
<path d="M536.12 825.07C532.4 828.36 528.69 831.65 524.97 834.95C524.31 835.35 523.65 835.74 522.99 836.14C519.36 839.49 515.73 842.85 512.1 846.2C511.34 846.07 510.59 845.95 509.83 845.82C509.93 846.58 510.04 847.34 510.14 848.09C505.08 852.7 500.01 857.31 494.95 861.92C492.95 862.99 490.95 864.05 488.94 865.12C480.67 856.06 472.39 847 464.11 837.94C465.53 833.1 462.33 832.44 458.81 832.08C458.18 831.45 457.55 830.82 456.92 830.18C456.2 825.52 451.38 820.69 447.91 821.16C443.31 816.42 438.72 811.68 434.12 806.94C434.51 803.76 434.15 801.25 429.91 802.16C424.84 796.67 419.77 791.19 414.7 785.7C416.14 784.5 417.59 783.3 419.03 782.1C419.47 782.61 419.92 783.12 420.36 783.63C420.79 783.21 421.21 782.78 421.64 782.36C421.13 781.91 420.63 781.47 420.12 781.02C421.83 777.34 423.53 773.66 425.24 769.98C445.43 774.3 465.44 780.16 485.86 782.5C505.87 784.8 526.32 783.75 546.13 778.41C554.76 776.08 563.31 773.47 571.9 770.98C574.34 774.95 576.78 778.92 579.22 782.88C579.18 784.27 579.15 785.65 579.11 787.04C571.43 794.01 563.77 801.01 556.06 807.95C554.11 809.7 552.02 811.29 550 812.96C545.95 812.59 544.67 813.67 545.14 817.05C543.17 818.72 541.2 820.4 539.22 822.07C535.44 822.21 535.11 822.52 536.12 825.07Z" fill="#454443"/>
<path d="M725.03 842.98C706.39 837.71 687.74 832.46 669.11 827.16C667.71 826.76 666.41 825.98 665.07 825.38C685.37 793.32 705.66 761.24 725.98 729.19C730.07 722.74 734.27 716.36 738.42 709.94C741.69 711.87 745.01 713.71 748.22 715.73C761.5 724.12 774.75 732.57 788.01 741C768.76 771.5 749.49 801.99 730.32 832.53C728.25 835.83 726.78 839.49 725.03 842.98Z" fill="#7C7671"/>
<path d="M674.08 675.24C674.76 673.06 675.22 670.78 676.17 668.72C685.74 648.1 696.25 627.86 704.76 606.81C711.18 590.93 715.4 574.11 719.97 557.54C723.92 543.22 727.38 528.73 730.29 514.16C732.22 504.49 732.73 494.53 734.1 484.74C734.29 483.41 735.75 482.25 736.62 481.01C736.28 484.76 738.15 487.28 740.53 490.11C761.06 514.58 771.8 542.35 766.04 574.59C758.88 614.72 737.78 645.87 703.12 667.5C694.36 672.97 684.49 675.39 674.08 675.24Z" fill="#3D3C3B"/>
<path d="M259.77 486.89C260.5 490.87 261.18 494.85 261.96 498.82C266.01 519.56 268.76 540.67 274.53 560.91C280.28 581.07 287.98 600.88 296.83 619.91C305.89 639.4 317.42 657.75 327.73 676.67C328.57 678.21 328.34 680.34 328.61 682.2C325.61 675.74 319.76 675 313.57 674.18C300.04 672.39 288.76 665.51 278.77 656.75C252.3 633.55 234.65 605.13 230.62 569.66C226.98 537.6 237.59 510.09 259.77 486.89Z" fill="#3D3C3B"/>
<path d="M164.59 666.05C158.68 656.85 152.62 647.74 146.95 638.39C144.84 634.91 145.63 631.02 148.92 628.49C160.79 619.38 172.74 610.38 184.83 601.57C188.82 598.66 192.34 600.9 194.6 604.36C200.67 613.68 206.43 623.2 212.32 632.64C202.15 640.26 192.09 648.05 181.75 655.43C176.28 659.34 170.32 662.54 164.59 666.05Z" fill="#7C7772"/>
<path d="M780.95 643.42C787.02 633.78 792.9 624 799.26 614.56C801.51 611.22 805.14 611.18 808.52 613.69C819.87 622.12 831.29 630.45 842.57 638.97C847.08 642.37 848.09 646 845.24 650.75C839.68 659.99 833.61 668.92 827.76 677.98C814.08 668.41 800.36 658.9 786.75 649.22C784.55 647.66 782.87 645.37 780.95 643.42Z" fill="#7C7772"/>
<path d="M571.9 770.99C563.31 773.47 554.76 776.09 546.13 778.42C526.32 783.76 505.87 784.81 485.86 782.51C465.44 780.16 445.43 774.31 425.24 769.99C424.99 766.52 424.96 763.02 424.38 759.61C424.12 758.07 422.74 756.72 421.88 755.29C423.03 755.07 424.27 754.44 425.3 754.69C439.26 758.12 453.11 762.06 467.16 765.09C483.86 768.69 500.7 769.73 517.9 768.28C535.78 766.76 552.71 762.38 569.29 755.97C570.48 755.51 572.06 756.08 573.46 756.17C572.93 761.1 572.41 766.05 571.9 770.99Z" fill="#3C3B3A"/>
<path d="M780.95 643.42C782.87 645.37 784.55 647.66 786.75 649.23C800.35 658.91 814.07 668.42 827.76 677.99C821.78 687.64 815.8 697.28 809.82 706.93C808.2 706.15 806.46 705.54 804.98 704.55C790.18 694.72 775.43 684.84 760.66 674.97C767.42 664.44 774.19 653.93 780.95 643.42Z" fill="#464544"/>
<path d="M164.59 666.05C170.32 662.54 176.28 659.34 181.74 655.44C192.08 648.05 202.14 640.27 212.31 632.65C218.86 643.1 225.41 653.55 231.96 664C230.35 664.77 228.61 665.35 227.15 666.33C214.05 675.07 201.01 683.9 187.91 692.64C186.28 693.73 184.4 694.43 182.63 695.31C176.61 685.55 170.6 675.8 164.59 666.05Z" fill="#464544"/>
<path d="M253.28 696.7C252.45 697.85 251.86 699.37 250.75 700.1C236.29 709.53 221.76 718.86 207.21 728.15C206.3 728.73 205.04 728.76 203.95 729.05C199.96 722.37 195.96 715.69 191.97 709.01C193.19 708.55 194.55 708.31 195.6 707.6C207.66 699.43 219.63 691.12 231.72 683.01C234.68 681.02 238.01 679.59 241.17 677.91C245.19 684.17 249.23 690.43 253.28 696.7Z" fill="#464544"/>
<path d="M788.01 741.01C774.75 732.58 761.5 724.13 748.22 715.74C745.01 713.71 741.69 711.87 738.42 709.95C742.6 703.29 746.78 696.63 750.95 689.98C753.34 690.88 755.99 691.37 758.06 692.74C772.26 702.08 786.35 711.6 800.47 721.06C796.32 727.7 792.16 734.36 788.01 741.01Z" fill="#464544"/>
<path d="M241.15 677.9C237.99 679.59 234.66 681.02 231.7 683C219.61 691.12 207.64 699.42 195.58 707.59C194.53 708.3 193.17 708.54 191.95 709C188.84 704.43 185.73 699.86 182.62 695.3C184.39 694.42 186.27 693.72 187.9 692.63C201 683.89 214.04 675.06 227.14 666.32C228.61 665.34 230.34 664.76 231.95 663.99C235.02 668.63 238.08 673.27 241.15 677.9Z" fill="#7C7671"/>
<path d="M800.47 721.05C786.35 711.59 772.26 702.06 758.06 692.73C755.98 691.36 753.33 690.87 750.95 689.97C754.19 684.97 757.42 679.96 760.66 674.96C775.43 684.83 790.18 694.72 804.98 704.54C806.46 705.53 808.2 706.13 809.82 706.92C806.7 711.63 803.59 716.34 800.47 721.05Z" fill="#7C7671"/>
<path d="M579.11 787.06C579.15 785.67 579.18 784.29 579.22 782.9C579.8 783.31 580.38 783.72 580.96 784.13C580.33 785.11 579.72 786.08 579.11 787.06Z" fill="#454443"/>
<path d="M420.12 781.03C420.63 781.48 421.13 781.92 421.64 782.37C421.21 782.79 420.79 783.22 420.36 783.64C419.92 783.13 419.47 782.62 419.03 782.11C419.39 781.75 419.75 781.39 420.12 781.03Z" fill="#454443"/>
<path d="M447.91 821.16C451.38 820.69 456.21 825.51 456.92 830.18C453.92 827.17 450.92 824.17 447.91 821.16Z" fill="#454443"/>
<path d="M458.82 832.08C462.35 832.44 465.55 833.1 464.12 837.94C462.36 835.98 460.59 834.03 458.82 832.08Z" fill="#454443"/>
<path d="M545.13 817.07C544.66 813.69 545.94 812.61 549.99 812.98C548.37 814.34 546.75 815.71 545.13 817.07Z" fill="#454443"/>
<path d="M429.91 802.16C434.15 801.25 434.51 803.76 434.12 806.94C432.72 805.35 431.31 803.75 429.91 802.16Z" fill="#454443"/>
<path d="M488.95 865.11C490.95 864.04 492.95 862.98 494.96 861.91C492.95 862.98 490.95 864.04 488.95 865.11Z" fill="#454443"/>
<path d="M536.12 825.07C535.11 822.52 535.44 822.21 539.21 822.09C538.18 823.08 537.15 824.08 536.12 825.07Z" fill="#454443"/>
<path d="M510.15 848.08C510.05 847.32 509.94 846.56 509.84 845.81C510.6 845.94 511.35 846.06 512.11 846.19C511.46 846.82 510.8 847.45 510.15 848.08Z" fill="#454443"/>
<path d="M523 836.13C523.66 835.73 524.32 835.34 524.98 834.94C524.31 835.34 523.65 835.74 523 836.13Z" fill="#454443"/>
<path d="M325.22 503.09C331.35 485.5 344.46 475.31 360.79 467.54C409.97 444.13 461.35 431.78 515.99 435.23C561.92 438.12 604.83 451.58 645.22 473.4C656.99 479.76 663.81 490.17 668.87 502.04C669.12 504.35 669.72 506.68 669.57 508.97C667.49 540.56 644.94 557.19 618.45 558.92C604.28 559.85 590.87 555.37 577.66 550.63C562.47 545.18 547.32 539.6 532 534.54C514.79 528.86 497.21 525.24 479.16 530.16C465.86 533.79 452.65 537.81 439.58 542.17C421.78 548.1 404.57 555.69 385.77 558.57C360.62 562.43 324.8 546.42 324.17 508.06C324.31 507.37 324.44 506.67 324.58 505.98C324.79 505.02 325 504.05 325.22 503.09ZM602.01 501.38C602.27 501.38 602.54 501.38 602.8 501.38C602.8 497.89 602.99 494.39 602.77 490.91C601.93 478 592.05 467.77 580.04 467.21C567.78 466.64 557.15 475.58 555.39 488.72C554.4 496.12 554.04 503.67 554.25 511.13C554.63 524.51 565.11 534.63 577.91 534.71C590.23 534.79 600.93 524.71 601.97 511.86C602.24 508.39 602.01 504.88 602.01 501.38ZM389.7 498.2C390.24 504.84 390.27 509.87 391.12 514.77C393.17 526.62 403.48 534.99 415.11 534.71C426.95 534.42 437.38 525.29 438.07 513.17C438.58 504.27 438.04 495.16 436.71 486.34C435.08 475.56 424.7 467.42 414.1 467.2C403.23 466.98 393.37 474.46 390.88 485.47C389.83 490.11 389.97 495.02 389.7 498.2Z" fill="#F9CFB1"/>
<path d="M325.22 503.09C325.01 504.05 324.79 505.02 324.58 505.98C324.44 506.67 324.31 507.37 324.17 508.06C324.8 546.42 360.62 562.42 385.77 558.57C404.57 555.69 421.78 548.1 439.58 542.17C452.66 537.81 465.87 533.78 479.16 530.16C497.21 525.24 514.8 528.86 532 534.54C547.32 539.6 562.47 545.18 577.66 550.63C590.87 555.37 604.28 559.85 618.45 558.92C644.94 557.19 667.49 540.56 669.57 508.97C669.72 506.69 669.12 504.35 668.87 502.04C670.09 503.06 672.15 503.91 672.4 505.13C675.13 518.6 677.56 532.01 674.33 545.91C672.31 554.58 667.76 561.33 660.94 566.26C646.69 576.57 630.49 581.93 612.89 580.83C597.15 579.85 582.04 575.37 567.12 570.15C547.26 563.2 527.39 556.09 507.12 550.55C497.29 547.86 486.56 549.77 476.68 553.01C454.31 560.35 432.19 568.47 409.71 575.46C390.29 581.5 370.42 583.86 350.82 575.98C340.49 571.83 329.86 567.39 323.97 557.19C321 552.04 318.91 545.89 318.24 539.99C316.91 528.07 318.39 516.14 321.22 504.48C321.42 503.75 323.84 503.54 325.22 503.09Z" fill="#3D3C3A"/>
<path d="M602.01 501.38C602.01 504.87 602.25 508.38 601.97 511.85C600.93 524.7 590.23 534.78 577.91 534.7C565.11 534.62 554.63 524.5 554.25 511.12C554.04 503.66 554.4 496.1 555.39 488.71C557.15 475.58 567.79 466.63 580.04 467.2C592.05 467.76 601.93 477.99 602.77 490.9C603 494.38 602.8 497.88 602.8 501.37C602.53 501.38 602.27 501.38 602.01 501.38Z" fill="#292522"/>
<path d="M389.7 498.2C389.97 495.02 389.82 490.11 390.87 485.47C393.36 474.46 403.22 466.98 414.09 467.2C424.69 467.42 435.07 475.56 436.7 486.34C438.03 495.16 438.57 504.27 438.06 513.17C437.37 525.28 426.94 534.42 415.1 534.71C403.47 534.99 393.17 526.61 391.11 514.77C390.27 509.87 390.24 504.83 389.7 498.2Z" fill="#282522"/>
<path d="M324.17 508.06C324.31 507.37 324.44 506.67 324.58 505.98C324.44 506.67 324.3 507.37 324.17 508.06Z" fill="#454443"/>
</svg>
