<svg id="e4064589-c85b-4eaa-b8ed-06d76ee0d28d" data-name="Layer 1" xmlns="http://www.w3.org/2000/svg" xmlns:xlink="http://www.w3.org/1999/xlink" viewBox="0 0 784 1395"><defs><clipPath id="bb2557c6-ec2e-4da4-a393-34d1b16a545e" transform="translate(66)"><rect width="652" height="1395" fill="none"/></clipPath><linearGradient id="f1a2341f-6bf6-45ce-badb-004339c12010" x1="260" y1="392.35" x2="260" y2="70.14" gradientTransform="translate(66 396)" gradientUnits="userSpaceOnUse"><stop offset="0.01" stop-color="#1e394c"/><stop offset="0.5" stop-color="#234054"/><stop offset="1" stop-color="#2d4c61"/></linearGradient><linearGradient id="af813363-af10-4b00-a7f0-36922a1db219" x1="408.94" y1="392.35" x2="408.94" y2="164.06" gradientTransform="translate(66 396)" gradientUnits="userSpaceOnUse"><stop offset="0" stop-color="#2b495e"/><stop offset="0.55" stop-color="#304d5c"/><stop offset="1" stop-color="#395559"/></linearGradient><linearGradient id="e32e1f75-b722-4575-a3d6-f2badbf36cd8" x1="260" y1="-42.09" x2="260" y2="295.21" gradientTransform="translate(66 396)" gradientUnits="userSpaceOnUse"><stop offset="0" stop-color="#8baaad"/><stop offset="0.37" stop-color="#6a888e"/><stop offset="1" stop-color="#34515b"/></linearGradient><linearGradient id="fba7ebe2-4125-4a63-ab7e-2fa6a8933e60" x1="260" y1="152.12" x2="260" y2="-138.92" gradientTransform="translate(66 396)" gradientUnits="userSpaceOnUse"><stop offset="0" stop-color="#8baaad"/><stop offset="0.03" stop-color="#90afb1"/><stop offset="0.21" stop-color="#a5c3c1"/><stop offset="0.41" stop-color="#b4d2cc"/><stop offset="0.64" stop-color="#bcdad3"/><stop offset="1" stop-color="#bfddd5"/></linearGradient><linearGradient id="afeb79ea-904b-4a54-acfa-43ed2e08000d" x1="56.64" y1="386.4" x2="56.64" y2="485.36" gradientTransform="translate(66 396)" gradientUnits="userSpaceOnUse"><stop offset="0" stop-color="#3d5e38"/><stop offset="0.46" stop-color="#76904f"/><stop offset="0.81" stop-color="#9bb15d"/><stop offset="1" stop-color="#a9bd63"/></linearGradient><linearGradient id="e0860c1b-a722-4a27-9da6-e45b8c11c421" x1="317.99" y1="474.29" x2="317.99" y2="999" xlink:href="#afeb79ea-904b-4a54-acfa-43ed2e08000d"/><linearGradient id="acb7d0b3-bdb6-4f9a-98bb-9311bb3ad49e" x1="-132" y1="693.13" x2="652" y2="693.13" gradientTransform="translate(66 396)" gradientUnits="userSpaceOnUse"><stop offset="0" stop-color="#83a7a5"/><stop offset="0.02" stop-color="#85a9a6"/><stop offset="0.45" stop-color="#aeccc3"/><stop offset="0.79" stop-color="#c8e1d5"/><stop offset="1" stop-color="#d1e9dc"/></linearGradient><linearGradient id="b0a0a15b-86b4-4037-b247-0ccce0081462" x1="489" y1="522.5" x2="534" y2="522.5" gradientTransform="translate(66 396)" gradientUnits="userSpaceOnUse"><stop offset="0" stop-color="#754c24"/><stop offset="1" stop-color="#c69c6d"/></linearGradient><linearGradient id="fef7acdd-60a5-4591-9b7f-99153cc8c619" x1="417.31" y1="382.29" x2="601.16" y2="382.29" gradientTransform="translate(66 396)" gradientUnits="userSpaceOnUse"><stop offset="0" stop-color="#3d5e38"/><stop offset="0.25" stop-color="#43643b"/><stop offset="0.44" stop-color="#567442"/><stop offset="0.64" stop-color="#738e4e"/><stop offset="0.83" stop-color="#9cb25e"/><stop offset="1" stop-color="#a9bd63"/></linearGradient><linearGradient id="ba85ef2f-a198-4ced-b888-6bda4ecb42ad" x1="420.87" y1="537.88" x2="464.74" y2="537.88" xlink:href="#b0a0a15b-86b4-4037-b247-0ccce0081462"/><linearGradient id="eecab793-a86a-4205-8c8b-6a7726a68609" x1="344.85" y1="525.87" x2="387.65" y2="525.87" xlink:href="#b0a0a15b-86b4-4037-b247-0ccce0081462"/><linearGradient id="b232efb4-a1ba-40d0-88ad-528339fb36ee" x1="274.35" y1="389.26" x2="458.13" y2="389.26" xlink:href="#fef7acdd-60a5-4591-9b7f-99153cc8c619"/><linearGradient id="a943597c-8532-48fd-9c00-27e1958aaf7f" x1="348.6" y1="397.8" x2="537" y2="397.8" xlink:href="#fef7acdd-60a5-4591-9b7f-99153cc8c619"/><linearGradient id="b5d50dda-14a3-4d8d-a43e-14421bb186a3" x1="0.88" y1="408.15" x2="24.17" y2="408.15" xlink:href="#b0a0a15b-86b4-4037-b247-0ccce0081462"/><linearGradient id="f1b77fc9-b194-4d6e-82ae-f52cc5fc6476" x1="-37.2" y1="332.05" x2="60.21" y2="332.05" xlink:href="#fef7acdd-60a5-4591-9b7f-99153cc8c619"/><linearGradient id="e7038e89-cea4-4699-88b1-01c3510cc63b" x1="-35.33" y1="410.5" x2="-12.04" y2="410.5" xlink:href="#b0a0a15b-86b4-4037-b247-0ccce0081462"/><linearGradient id="abf222f1-6837-4be0-a640-b2b2547a7f55" x1="-75.59" y1="408.1" x2="-52.92" y2="408.1" xlink:href="#b0a0a15b-86b4-4037-b247-0ccce0081462"/><linearGradient id="a5d633e4-0264-4b5e-8622-796f75d79d95" x1="-112.94" y1="335.71" x2="-15.57" y2="335.71" xlink:href="#fef7acdd-60a5-4591-9b7f-99153cc8c619"/><linearGradient id="bc1ed004-7b14-4adb-b02d-be7445f82abf" x1="-72.45" y1="338.42" x2="24.93" y2="338.42" xlink:href="#fef7acdd-60a5-4591-9b7f-99153cc8c619"/><linearGradient id="b51f4714-861b-4765-84ff-4bc426126830" x1="-16.62" y1="305.11" x2="537.63" y2="305.11" gradientTransform="translate(66 396)" gradientUnits="userSpaceOnUse"><stop offset="0.01" stop-color="#886441"/><stop offset="0.14" stop-color="#634522"/><stop offset="0.31" stop-color="#735229"/><stop offset="0.65" stop-color="#603b0f"/><stop offset="0.8" stop-color="#886441"/><stop offset="1" stop-color="#5f4421"/></linearGradient><linearGradient id="bb336bc5-ce34-4351-b204-75e08c5a67bf" x1="94.59" y1="379.18" x2="237.45" y2="379.18" gradientTransform="translate(66 396)" gradientUnits="userSpaceOnUse"><stop offset="0.01" stop-color="#f6e8d7"/><stop offset="1" stop-color="#d8cdbb"/></linearGradient><linearGradient id="e4c99cd9-a819-4611-82fc-3d058c403c84" x1="297.34" y1="141.47" x2="297.34" y2="296.69" gradientTransform="translate(66 396)" gradientUnits="userSpaceOnUse"><stop offset="0.01" stop-color="#f3f4f4"/><stop offset="0.29" stop-color="#d7d5d6"/><stop offset="0.49" stop-color="#cecccd"/><stop offset="0.5" stop-color="#c8c6c7"/><stop offset="0.5" stop-color="#c3c2c2"/><stop offset="0.51" stop-color="#c2c1c0"/><stop offset="0.54" stop-color="#c2c1c0"/><stop offset="0.58" stop-color="#c9c8c8"/><stop offset="0.68" stop-color="#d5d5d5"/><stop offset="0.8" stop-color="#ddd"/><stop offset="1" stop-color="#dfdfe0"/></linearGradient><linearGradient id="e3259673-292c-4fe7-9cfc-5666e5309cec" x1="119.08" y1="141.47" x2="119.08" y2="293.24" xlink:href="#e4c99cd9-a819-4611-82fc-3d058c403c84"/><linearGradient id="ac4e2fda-d7b0-400d-ab87-422a8df7b0ed" x1="213" y1="138.08" x2="213" y2="296.62" xlink:href="#e4c99cd9-a819-4611-82fc-3d058c403c84"/><linearGradient id="b90cb05f-da26-496f-b580-53253e0fec49" x1="361.69" y1="126.21" x2="361.69" y2="154.01" xlink:href="#e4c99cd9-a819-4611-82fc-3d058c403c84"/><linearGradient id="b5c6a38a-3eee-47bb-a4c3-fa167cf9f723" x1="428.67" y1="146.26" x2="428.67" y2="304.61" xlink:href="#e4c99cd9-a819-4611-82fc-3d058c403c84"/><linearGradient id="ed7bc5c8-335b-47e8-bdf0-550b09ad9612" x1="165.64" y1="429.5" x2="165.64" y2="441.92" gradientTransform="translate(66 396)" gradientUnits="userSpaceOnUse"><stop offset="0.03" stop-color="#d3d1d3"/><stop offset="0.26" stop-color="#cac8cb"/><stop offset="0.62" stop-color="#b4b1b5"/><stop offset="1" stop-color="#989498"/></linearGradient><linearGradient id="fcf78c26-7003-434b-92de-42a8f593dd33" x1="217.34" y1="351.16" x2="231.65" y2="351.16" gradientTransform="translate(66 396)" gradientUnits="userSpaceOnUse"><stop offset="0" stop-color="#d3d1d3"/><stop offset="0.24" stop-color="#cac8cb"/><stop offset="0.61" stop-color="#b4b1b5"/><stop offset="1" stop-color="#989498"/></linearGradient><linearGradient id="e4591a7c-ac86-4eb2-ad01-f6fa52b307d8" x1="217.34" y1="400.8" x2="231.65" y2="400.8" xlink:href="#fcf78c26-7003-434b-92de-42a8f593dd33"/><linearGradient id="e48069bb-852b-4d0f-93c8-e624a577e674" x1="290.86" y1="294.79" x2="290.86" y2="470.13" gradientTransform="translate(66 396)" gradientUnits="userSpaceOnUse"><stop offset="0.01" stop-color="#f6e8d7"/><stop offset="0.46" stop-color="#f3e6d5"/><stop offset="0.7" stop-color="#ece0cf"/><stop offset="0.9" stop-color="#e2d7c6"/><stop offset="1" stop-color="#dcd1bf"/></linearGradient><linearGradient id="bc5931f2-d717-4619-9596-40a6fe07437b" x1="491.55" y1="296.75" x2="491.55" y2="470.89" xlink:href="#e48069bb-852b-4d0f-93c8-e624a577e674"/><linearGradient id="f14bc8a3-9dd8-428b-979d-11f35130acc8" x1="41.39" y1="278.54" x2="41.39" y2="482.57" xlink:href="#e48069bb-852b-4d0f-93c8-e624a577e674"/><linearGradient id="b583db51-8bd9-499b-8459-2fbf2fcb115a" x1="396.97" y1="289.47" x2="396.97" y2="471.63" xlink:href="#e48069bb-852b-4d0f-93c8-e624a577e674"/><linearGradient id="e2e7693f-001d-4b66-8418-74e29843dd97" x1="152.96" y1="311.4" x2="152.96" y2="420.09" xlink:href="#e48069bb-852b-4d0f-93c8-e624a577e674"/><radialGradient id="e5f062cf-2cbc-4939-89cb-1f0d7a6e34f6" cx="-322.01" cy="-33.94" r="1" gradientTransform="translate(4004.56 1133.29) scale(11.67)" gradientUnits="userSpaceOnUse"><stop offset="0.03" stop-color="#d3d1d3"/><stop offset="0.44" stop-color="#cececf"/><stop offset="0.79" stop-color="#c1c3c5"/><stop offset="1" stop-color="#b4b9bb"/></radialGradient><radialGradient id="a9a9fe99-b737-46a3-a5dd-b288deac5c8e" cx="-322.01" cy="-33.94" r="1" gradientTransform="translate(3948.05 1188.78) scale(11.67)" xlink:href="#e5f062cf-2cbc-4939-89cb-1f0d7a6e34f6"/><radialGradient id="b1e1e7d5-750c-4e03-ae73-7fe5daffbcc4" cx="-322.01" cy="-33.94" r="1" gradientTransform="translate(3975.36 1158.68) scale(11.67)" xlink:href="#e5f062cf-2cbc-4939-89cb-1f0d7a6e34f6"/><radialGradient id="a6f5238d-1b36-4cd5-83d8-0e78a78df699" cx="-322.01" cy="-33.94" r="1" gradientTransform="translate(4004.56 1188.66) scale(11.67)" xlink:href="#e5f062cf-2cbc-4939-89cb-1f0d7a6e34f6"/><radialGradient id="a305a65a-3ab5-4dfa-a00c-5c2bbb995011" cx="-322.01" cy="-33.94" r="1" gradientTransform="translate(3948.05 1133.41) scale(11.67)" xlink:href="#e5f062cf-2cbc-4939-89cb-1f0d7a6e34f6"/></defs><g clip-path="url(#bb2557c6-ec2e-4da4-a393-34d1b16a545e)"><path d="M-66,782.82l784,5.53-178.75-55.3L404.4,720.51,226.69,654.63S110.66,618-1.19,488.36c0,0-41.81-20.37-64.81-22.22Z" transform="translate(66)" fill="url(#f1a2341f-6bf6-45ce-badb-004339c12010)"/><path d="M231.88,656.55l148.48,27.36s167.25-28.24,212.2-61.7c0,0,100.35-79.6,125.44-58.63V788.35l-177.71-53.2L405.45,723.64S271.55,673.1,231.88,656.55Z" transform="translate(66)" fill="url(#af813363-af10-4b00-a7f0-36922a1db219)"/><path d="M-66,385.87l20.16,12.74,32.89,14.29a62,62,0,0,0,60-5.83l76.16-52.57s34.49-11.5,90.94,66.93c0,0,115,111.89,196.52,126.53l143.21-9.41L718,543.65v19.93s-13.59-19.8-125.44,58.63c0,0-10.45,35.55-209.07,69L231.88,656.55S145,647.82,10.48,501.28a80.64,80.64,0,0,0-29.27-20.23c-16.85-6.78-40.66-15.71-47.21-14.91Z" transform="translate(66)" fill="url(#e32e1f75-b722-4575-a3d6-f2badbf36cd8)"/><path d="M-66,280.13l78.4,41.95,175.31-21,87.6-39.84a46.39,46.39,0,0,1,54,11.56C368.75,317.55,452,403.89,504.75,401.56l158.89-63.79L718,341V548l-164.12-9.41-128.76,9.2c-11.64,1.26-28.11-1.1-43.46-6.59-38.33-13.72-115.23-56.49-216.64-171-37.48-42.32-98.26,99.33-209,36.59L-66,391.1Z" transform="translate(66)" fill="url(#fba7ebe2-4125-4a63-ab7e-2fa6a8933e60)"/><path d="M329.23,275.74,718,243.59V341l-54.36-3.26L504.75,401.56S445.36,410.3,329.23,275.74Z" transform="translate(66)" fill="#f9f9e1"/><path d="M-66,280.13V130.72L718,36.6v207L329.23,275.74c-10.15-11.8-26.48-16.19-67.66-1.56l-73.55,27-201,7.29Z" transform="translate(66)" fill="#dfefe4"/><path d="M-66,137.42,718,73.2V0H-66Z" transform="translate(66)" fill="#cfe9e0"/><path d="M-66,881.36H292.85s75-4-77.65-51.05c0,0-132.76-53.15-281.2-47.49Z" transform="translate(66)" fill="url(#afeb79ea-904b-4a54-acfa-43ed2e08000d)"/><path d="M57.35,1062.46,373.61,927.39A580.09,580.09,0,0,1,586,876c47.92-2.3,100.12-4.67,132-5.71V1395H339.34l274.13-63.79s92-39.74,38.67-106.66l-149.48-30.33-244.5-47.12L60.49,1109.52C48.42,1106.6,45.92,1067.3,57.35,1062.46Z" transform="translate(66)" fill="url(#e0860c1b-a722-4a27-9da6-e45b8c11c421)"/><path d="M-66,1395H339.34s833.92-128.22,0-234.56l-242.11-52.3s-101.08-11.07,3.21-55L354.52,943a768.12,768.12,0,0,1,230.34-59.65L718,870.3V788.36l-729.64-5.11S181.85,816.46,297.78,868c0,0,28.22,10.46-4.93,13.41H-66" transform="translate(66)" fill="url(#acb7d0b3-bdb6-4f9a-98bb-9311bb3ad49e)"/><path d="M600,903H555v31h45Z" transform="translate(66)" fill="url(#b0a0a15b-86b4-4037-b247-0ccce0081462)"/><path d="M667.16,903l-30.8-54.17h24.5l-41.55-63,21.41,1.27L579.13,653.58l-65.6,134.78,18.89-1.25-42.8,61.72h26.14L483.31,903Z" transform="translate(66)" fill="url(#fef7acdd-60a5-4591-9b7f-99153cc8c619)"/><path d="M530.74,921.61H486.87v24.53h43.87Z" transform="translate(66)" fill="url(#ba85ef2f-a198-4ced-b888-6bda4ecb42ad)"/><path d="M453.65,909.91h-42.8v23.92h42.8Z" transform="translate(66)" fill="url(#eecab793-a86a-4205-8c8b-6a7726a68609)"/><path d="M524.13,909.91l-30.79-54.15h24.5l-41.54-63L497.7,794,436.14,660.6,370.56,795.33l18.89-1.27-42.79,61.7h26.13l-32.44,54.15Z" transform="translate(66)" fill="url(#b232efb4-a1ba-40d0-88ad-528339fb36ee)"/><path d="M603,921.61,571.44,866.1h25.12L554,801.55l21.93,1.3L512.79,666,445.57,804.13l19.35-1.28L421.05,866.1h26.79L414.6,921.61Z" transform="translate(66)" fill="url(#a943597c-8532-48fd-9c00-27e1958aaf7f)"/><path d="M-13,308.47,258.05,275l-70.34,26.08-175.31,21Z" transform="translate(66)" fill="#f9f9e1"/><path d="M90.17,797.65H66.88v13H90.17Z" transform="translate(66)" fill="url(#b5d50dda-14a3-4d8d-a43e-14421bb186a3)"/><path d="M126.21,794.09,109.89,765.4h13l-22-33.37,11.34.66L79.57,662,44.82,733.36l10-.67L32.14,765.4H46L28.8,794.09Z" transform="translate(66)" fill="url(#f1b77fc9-b194-4d6e-82ae-f52cc5fc6476)"/><path d="M54,800H30.67v13H54Z" transform="translate(66)" fill="url(#e7038e89-cea4-4699-88b1-01c3510cc63b)"/><path d="M13.08,797.76H-9.59v12.68H13.08Z" transform="translate(66)" fill="url(#abf222f1-6837-4be0-a640-b2b2547a7f55)"/><path d="M50.43,797.76,34.11,769.07h13l-22-33.36,11.34.67L3.8,665.66l-34.74,71.39,10-.67-22.67,32.69h13.85l-17.18,28.69Z" transform="translate(66)" fill="url(#a5d633e4-0264-4b5e-8622-796f75d79d95)"/><path d="M90.93,800.46,74.62,771.78h13l-22-33.36,11.33.66L44.3,668.37,9.57,739.75l10-.67-22.68,32.7H10.74L-6.45,800.46Z" transform="translate(66)" fill="url(#bc1ed004-7b14-4adb-b02d-be7445f82abf)"/><path d="M115.56,675.72,150,539.79a3.87,3.87,0,0,1,3.9-2.91l76.74,3.32a3.86,3.86,0,0,1,3.48,2.57l7.53,21.4c1.8,3.09,3-26.27,3-26.27.1-2.06,55,2.09,55,2.09a1.93,1.93,0,0,0,.48,0l45-.71c1.58,0,4.63.51,5.13,2l4.45,10.82c1,3.13,4.74,4,6,1.35a3.2,3.2,0,0,0,.29-1.17l.85-10a3.87,3.87,0,0,1,.24-1.07,3,3,0,0,1,2.87-2.13l43.66.86A3.83,3.83,0,0,0,412,538.1l5.54-9a3.88,3.88,0,0,1,3.29-1.84h21.83c2.56,0-1.8,10.81-2.5,13.27v3.29c-.7,2.5,5.2,1.25,7.79,1.19l109.91-2.77a3.87,3.87,0,0,1,3.95,3.79v74.53a3.86,3.86,0,0,1-3.86,3.86H533.74a3.85,3.85,0,0,0-3.85,3.85h0v64.63a3.88,3.88,0,0,0,3.61,3.85L552.06,698A34.1,34.1,0,0,1,567,702.52l33.3,19.53a3.84,3.84,0,0,1,1.91,3.33L601,787.25l1.26,65.94a3.86,3.86,0,0,1-1.52,3.08l-39,29.57a3.9,3.9,0,0,1-2.49.79L518.06,885h-.45l-43.16-6.76a3.88,3.88,0,0,1-3-2.5L463,852.49a3.86,3.86,0,0,0-7.48,1l-1.43,18.23a3.85,3.85,0,0,1-2.9,3.44l-41.84,10.58a3.85,3.85,0,0,1-4.8-3.74v-3a3.87,3.87,0,0,0-3.68-3.85L376.27,874a3.86,3.86,0,0,1-3.62-3.18l-1.8-10.25a3.86,3.86,0,0,0-3.85-3.18l-15.27.19a3.86,3.86,0,0,0-3.74,3.14l-2.88,15.11a3.85,3.85,0,0,1-3.35,3.11l-39.53,4.44A3.86,3.86,0,0,1,298,880a4,4,0,0,1,0-.69l.88-13.16a3.85,3.85,0,0,0-3.57-4.11H295l-115-.06a3.84,3.84,0,0,1-2.76-1.18l-8-8.22a3.86,3.86,0,0,0-6.42,1.46l-3.53,10.46a3.85,3.85,0,0,1-1.37,1.88l-40.76,29.91a3.9,3.9,0,0,1-3.19.64L56.91,883A3.84,3.84,0,0,1,54,878.9c1.87-20.42,14.4-128.43-.38-185.68-.58-2.24-2.51-6.16-.23-6.48l59-8.17A3.84,3.84,0,0,0,115.56,675.72Z" transform="translate(66)" fill="#483318"/><path d="M115.14,666.32l35.31-139.59a1.33,1.33,0,0,1,1.34-1l80.52,3.48a1.31,1.31,0,0,1,1.19.88l8.1,23c1.8,3.09,3-26.27,3-26.27.1-2.06,55,2.09,55,2.09h.47l45-.72c1.59,0,4.63.52,5.13,2L354.65,541c1.11,3.32,5.21,4.1,6.21.84l.06-.29.91-10.67a1.37,1.37,0,0,1,.05-.28c.45-1.52,1.43-2.65,3-2.62l45.11.9a1.34,1.34,0,0,0,1.16-.63l7-11.49a1.33,1.33,0,0,1,1.13-.63H446a1.32,1.32,0,0,1,1.28,1.68l-4.07,14.48a1.32,1.32,0,0,0,.93,1.63,1.24,1.24,0,0,0,.38.05l116-2.92a1.32,1.32,0,0,1,1.35,1.29V612a1.31,1.31,0,0,1-1.31,1.31H531.22a1.31,1.31,0,0,0-1.31,1.31h0v69.56a1.33,1.33,0,0,0,1.23,1.32L553,687a29.85,29.85,0,0,1,13.13,4l.16.1,36.82,28.11a1.34,1.34,0,0,1,.52,1.06l-2.73,60.16c0,1-.06,1.91,0,2.87l1.36,60.14a1.36,1.36,0,0,1-.52,1L561,875.33a1.34,1.34,0,0,1-.84.27L517.92,874h-.15L473,867a1.33,1.33,0,0,1-1-.85l-13-35.78a1.32,1.32,0,0,0-2.56.35L454,862.48a1.32,1.32,0,0,1-1,1.18l-46.78,11.82a1.31,1.31,0,0,1-1.6-.94,1.24,1.24,0,0,1,0-.33v-8.69a1.31,1.31,0,0,0-1.26-1.32l-29.06-1.4a1.32,1.32,0,0,1-1.24-1.09l-2.53-14.36a1.31,1.31,0,0,0-1.32-1.09l-19.5.25a1.31,1.31,0,0,0-1.28,1.07l-3.61,19a1.34,1.34,0,0,1-1.15,1.07l-44.4,5a1.32,1.32,0,0,1-1.46-1.18,1.62,1.62,0,0,1,0-.22l1.27-18.9a1.33,1.33,0,0,0-1.24-1.4h-.08L179,850.85a1.35,1.35,0,0,1-.95-.4l-11.63-12a1.31,1.31,0,0,0-1.85,0,1.34,1.34,0,0,0-.34.54l-5.12,15.16a1.31,1.31,0,0,1-.47.64l-42.35,31.08a1.35,1.35,0,0,1-1.1.22L54.77,871.46a1.34,1.34,0,0,1-1-1.41c1.24-13,12.16-133.39-4.34-192.28a1.32,1.32,0,0,1,.91-1.63l.18,0L114,667.3A1.29,1.29,0,0,0,115.14,666.32Z" transform="translate(66)" fill="url(#b51f4714-861b-4765-84ff-4bc426126830)"/><path d="M277.39,709.34H174.67a10.8,10.8,0,0,0-10.85,10.74V816.3a10.67,10.67,0,0,0,3,7.45l19.93,20.48a11,11,0,0,0,7.81,3.28H297.33a10.78,10.78,0,0,0,10.84-10.72h0V740.56a10.74,10.74,0,0,0-3-7.46l-20-20.47A10.92,10.92,0,0,0,277.39,709.34Z" transform="translate(66)" fill="#413000"/><path d="M413.47,856.21l-7.12-38.34h0l-22.52-122.6a3.61,3.61,0,0,0-4.22-2.87,3.52,3.52,0,0,0-.78.24l-3.59,1.54-.24.1-37.95,13.16a3.61,3.61,0,0,0-2.36,2.77L316.27,817.86h0l-8,46.47a2.9,2.9,0,0,0,2.37,3.33,3,3,0,0,0,.89,0L340,863.93a2.91,2.91,0,0,0,2.48-2.38l3.37-19.71a2.9,2.9,0,0,1,2.87-2.4H376.6a2.9,2.9,0,0,1,2.87,2.38l2.48,13.9a2.93,2.93,0,0,0,2.7,2.38l25.78,1.52a2.92,2.92,0,0,0,3.08-2.73A3.07,3.07,0,0,0,413.47,856.21Zm-46.68-84.38L374.32,812a3.58,3.58,0,0,1-2.88,4.16,3.68,3.68,0,0,1-.66.06H351.94a.85.85,0,0,1-.85-.85.76.76,0,0,1,0-.15l8.63-43.39a3.6,3.6,0,0,1,7.06,0Z" transform="translate(66)" fill="#413000"/><path d="M521.09,867.3a811.52,811.52,0,0,0,.28-172.59c.36,0,.64-.07.92-.07h18.53c5.77,0,18.41,0,18.91.3,10.46,5.81,40.81,28.51,40.75,31.78-.26,14.15-1,51.86-1.11,55-.18,5.89.92,54.14.78,59.9,0,.88-5.91,4.93-8.49,6.68l-15.17,10.27-14.63,9.86a2.24,2.24,0,0,1-1.26.35c-.76,0-1.5-.12-2.26-.14l-14-.38c-2.81-.08-5.62-.18-8.43-.28l-8-.27c-2.06-.07-4.11-.16-6.17-.24A1.87,1.87,0,0,0,521.09,867.3Zm31.13-40.8,13.33-5.91c3.11-1.38,5.18-5,5.2-9.06.07-18.95.2-37.83.18-56.69,0-4-2.06-7.66-5.14-9.07l-15.7-7.16c0,.48-.05.84-.05,1.19,0,1.42.1,2.83.14,4.25.12,4.93.23,9.86.36,14.8.11,4.52.23,9,.33,13.56.13,4.94.24,9.87.36,14.81q.16,6.84.34,13.7.2,8.3.38,16.58c.07,2.74.13,5.49.19,8.22,0,.22,0,.44.08.78Z" transform="translate(66)" fill="#413000"/><path d="M64.42,684.36a3.4,3.4,0,0,1,2.73-3.76c6.2-.75,20.17-2.37,21.74-2.55l26.25-3c1.35-.17,38.18,23.71,38.24,25,.27,6.74,2.68,31.23,2.46,35.84-.08,1.74-8,25.47-10,30.19a4.09,4.09,0,0,0-.07,3c1.82,4.84,7,18.56,9.21,24.31.39,1,4.45,26.94,4.59,30.42.19,4.88-5.32,29-6.17,29.59-3.58,2.42-8.27,7.46-14.37,12.67l-19.32,13c-.47.32-26.85-5.1-30-5.76-2.52-.53-15.81-3.37-21.52-4.63A3.48,3.48,0,0,1,65.7,865c.69-14.59,3.71-76.34,3.65-85.26S65.33,700.73,64.42,684.36ZM99.26,820c0,2-1.76,27.28,0,27.15,5.7-.44,16.94,3,18.35,2.91,0,0,.23-51.88,0-55.28-.09-1.25-8.11-1.11-14.33-3.56-2-.78-4,1-4,3.38Zm16.49-71.13c.42-5.92.88-42.09-.82-42.22-4.82-.34-10.25.28-15.07,0-1.72-.1,0,31.93,0,38,0,2,15.75,6.14,15.89,4.26Z" transform="translate(66)" fill="#413000"/><path d="M484.35,785.06l21.45-22.6a1.7,1.7,0,0,0,.41-1.62c-.75-2.83-2.53-13.65.21-48.11a1.7,1.7,0,0,0-.77-1.57c-4.15-2.66-22.47-14.4-33.23-21.25a1.33,1.33,0,0,0-.47-.21c-2.86-.75-29.19-7.12-55.24,5h0a1.68,1.68,0,0,0-.91,2c3,9.58,19.39,68.43,0,171.52a1.06,1.06,0,0,0,.82,1.24,1.11,1.11,0,0,0,.48,0l32.9-8.7a1.72,1.72,0,0,0,1.27-1.44l6.1-48.52a1.71,1.71,0,0,1,3.27-.45L482,860.62a1.71,1.71,0,0,0,1.24,1l34.25,6.61a1.06,1.06,0,0,0,1.17-1.46L484,786.9A1.69,1.69,0,0,1,484.35,785.06Zm-28.5-23.62-2.53-46.32a1.06,1.06,0,0,1,1-1.11,1,1,0,0,1,.38,0l17.47,6a1.69,1.69,0,0,1,1.15,1.67l-1.45,35.81a1.71,1.71,0,0,1-1.29,1.58l-13.44,3.27a1,1,0,0,1-1.25-.65A1,1,0,0,1,455.85,761.44Z" transform="translate(66)" fill="#413000"/><path d="M416.54,651.06c-1.31-55,1.2-112.5,1.2-112.5a8.93,8.93,0,0,0-.13-2.42H374.1a1.47,1.47,0,0,0-1.47,1.47v0l1.21,53a1.47,1.47,0,0,1-2.84.59l-21.75-54.17a1.45,1.45,0,0,0-1.36-.92H316.7l2.87,162.09h31.49a1.47,1.47,0,0,0,1.47-1.47V668a1.47,1.47,0,0,1,2.61-.93L380,697.68a1.48,1.48,0,0,0,1.14.54h36.44a1.46,1.46,0,0,0,1.46-1.46v-.08Z" transform="translate(66)" fill="#413000"/><path d="M218.45,694.13,255,684.91a1.85,1.85,0,0,0,1.33-2.19L225.8,536.6a1.8,1.8,0,0,0-1.74-1.46H161.33a1.79,1.79,0,0,0-1.73,1.4L123.87,684.77a1.85,1.85,0,0,0,1.38,2.22h0l41.42,7.16a1.8,1.8,0,0,0,2.05-1.49s0-.06,0-.09l2.64-20.06a1.81,1.81,0,0,1,1.77-1.6h34.23a1.77,1.77,0,0,1,1.68,1.22L216.36,693A1.76,1.76,0,0,0,218.45,694.13Zm-42-51.41,11.65-21.57a1.76,1.76,0,0,1,2.35-.77,1.78,1.78,0,0,1,.88,1L198.9,643a1.85,1.85,0,0,1-1.08,2.37,1.81,1.81,0,0,1-.6.11H178a1.84,1.84,0,0,1-1.77-1.91,2,2,0,0,1,.25-.85Z" transform="translate(66)" fill="#413000"/><path d="M261.5,533.41l41.61,2.85a3.14,3.14,0,0,1,2.89,3.07l2.06,75,2.76,75.55a3.14,3.14,0,0,1-2.91,3.27L288,694.44,266,697a3.12,3.12,0,0,1-3.43-2.77,2.3,2.3,0,0,1,0-.37V592.65l-4.37-55.83a3.14,3.14,0,0,1,2.87-3.4A2.26,2.26,0,0,1,261.5,533.41Z" transform="translate(66)" fill="#413000"/><path d="M429.65,521.37l-7.74,29.07a.91.91,0,0,0,1.53.85l13.3-13.53a.75.75,0,0,0,.21-.34l5.27-15.54a.89.89,0,0,0-.55-1.13.84.84,0,0,0-.31,0H430.53A.91.91,0,0,0,429.65,521.37Z" transform="translate(66)" fill="#413000"/><path d="M440.15,554.41v47.4a4.18,4.18,0,0,0,4.19,4.17h26.32a4.18,4.18,0,0,1,4.19,4.17h0v88.61a4.18,4.18,0,0,0,3.89,4.15l41,3a4.19,4.19,0,0,0,4.49-3.85c0-.1,0-.21,0-.31V611a4.17,4.17,0,0,1,4.19-4.17h.09l24.38.55a4.18,4.18,0,0,0,4.29-4.07V550.92a4.18,4.18,0,0,0-4.2-4.18h-.13l-108.72,3.49A4.2,4.2,0,0,0,440.15,554.41Z" transform="translate(66)" fill="#413000"/><path d="M273,706.08H171.32a10.72,10.72,0,0,0-10.73,10.71V813a10.72,10.72,0,0,0,3,7.45L183.32,841a10.75,10.75,0,0,0,7.73,3.28H292.71a10.72,10.72,0,0,0,10.74-10.72h0V737.29a10.72,10.72,0,0,0-3-7.45l-19.73-20.48A10.79,10.79,0,0,0,273,706.08Z" transform="translate(66)" stroke="#c2b59b" stroke-miterlimit="10" stroke-width="5" fill="url(#bb336bc5-ce34-4351-b204-75e08c5a67bf)"/><path d="M160.59,808.76v-93a9.69,9.69,0,0,1,9.69-9.69h99a8.22,8.22,0,0,1,8.23,8.21h0v95.5a7.55,7.55,0,0,1-7.56,7.56H169.19a8.6,8.6,0,0,1-8.6-8.58Z" transform="translate(66)" fill="none" stroke="#c2b59b" stroke-miterlimit="10" stroke-width="5"/><path d="M301.89,841l-22-21a6.61,6.61,0,0,0-5.17-2.67H183.44" transform="translate(66)" fill="none" stroke="#c2b59b" stroke-miterlimit="10" stroke-width="5"/><path d="M411.44,647.52c-1.3-52.69,1.19-107.73,1.19-107.73a9,9,0,0,0-.12-2.32H369.45a1.43,1.43,0,0,0-1.46,1.42v0l1.21,50.75a1.45,1.45,0,0,1-1.47,1.45,1.43,1.43,0,0,1-1.34-.9l-21.51-51.86a1.46,1.46,0,0,0-1.35-.88H312.68l2.83,155.22h31.15a1.43,1.43,0,0,0,1.46-1.4h0V663.76a1.46,1.46,0,0,1,2.58-.89l24.62,29.29a1.49,1.49,0,0,0,1.13.52h36A1.43,1.43,0,0,0,414,691.4v-.2Z" transform="translate(66)" stroke="#939598" stroke-miterlimit="10" stroke-width="5" fill="url(#e4c99cd9-a819-4611-82fc-3d058c403c84)"/><path d="M213.16,689.14l36.13-8.79a1.76,1.76,0,0,0,1.31-2.09l-30.17-139.4a1.76,1.76,0,0,0-1.72-1.39H156.65a1.75,1.75,0,0,0-1.71,1.34L119.58,680.22a1.77,1.77,0,0,0,1.29,2.14l.14,0,41,6.83a1.74,1.74,0,0,0,2-1.46v0l2.61-19.13a1.77,1.77,0,0,1,1.75-1.53h33.87a1.77,1.77,0,0,1,1.66,1.17l7.18,19.8A1.74,1.74,0,0,0,213.16,689.14Zm-41.53-49,11.52-20.59a1.77,1.77,0,0,1,3.21.26l7.46,20.59a1.77,1.77,0,0,1-1.08,2.26,1.7,1.7,0,0,1-.59.1h-19a1.76,1.76,0,0,1-1.52-2.65Z" transform="translate(66)" stroke="#939598" stroke-miterlimit="10" stroke-width="5" fill="url(#e3259673-292c-4fe7-9cfc-5666e5309cec)"/><path d="M256.24,534.09l41.16,2.77a3.07,3.07,0,0,1,2.87,3l2.05,72.71L305,685.75a3.05,3.05,0,0,1-2.87,3.17l-19.7,1.24-21.75,2.44a3.06,3.06,0,0,1-3.39-2.69c0-.12,0-.24,0-.36v-98L253,537.4a3.07,3.07,0,0,1,2.81-3.31Z" transform="translate(66)" stroke="#939598" stroke-miterlimit="10" stroke-width="5" fill="url(#ac4e2fda-d7b0-400d-ab87-422a8df7b0ed)"/><path d="M425.54,522.83,418.68,549a.8.8,0,0,0,.59,1,.78.78,0,0,0,.78-.22l11.78-12.18a1,1,0,0,0,.19-.3l4.66-14a.82.82,0,0,0-.51-1,1,1,0,0,0-.25,0h-9.6A.81.81,0,0,0,425.54,522.83Z" transform="translate(66)" stroke="#939598" stroke-miterlimit="10" stroke-width="5" fill="url(#b90cb05f-da26-496f-b580-53253e0fec49)"/><path d="M436.73,549.83V597a4.15,4.15,0,0,0,4.15,4.15h26A4.15,4.15,0,0,1,471,605.3h0v88.15a4.16,4.16,0,0,0,3.85,4.14l40.61,3a4.14,4.14,0,0,0,4.49-3.77,3,3,0,0,0,0-.42V606.13a4.15,4.15,0,0,1,4.16-4.14h.09l24.12.55a4.15,4.15,0,0,0,4.24-4.06V546.4a4.14,4.14,0,0,0-4.14-4.14h-.14l-107.56,3.46A4.16,4.16,0,0,0,436.73,549.83Z" transform="translate(66)" stroke="#939598" stroke-miterlimit="10" stroke-width="5" fill="url(#b5c6a38a-3eee-47bb-a4c3-fa167cf9f723)"/><path d="M231.64,837.92c6.09,0,11-2.78,11-6.21s-4.94-6.21-11-6.21-11,2.78-11,6.21S225.54,837.92,231.64,837.92Z" transform="translate(66)" fill="url(#ed7bc5c8-335b-47e8-bdf0-550b09ad9612)"/><path d="M290.49,757c4,0,7.16-4.41,7.16-9.84s-3.2-9.84-7.16-9.84-7.15,4.41-7.15,9.84S286.54,757,290.49,757Z" transform="translate(66)" fill="url(#fcf78c26-7003-434b-92de-42a8f593dd33)"/><path d="M290.49,806.64c4,0,7.16-4.41,7.16-9.84s-3.2-9.84-7.16-9.84-7.15,4.41-7.15,9.84S286.54,806.64,290.49,806.64Z" transform="translate(66)" fill="url(#e4591a7c-ac86-4eb2-ad01-f6fa52b307d8)"/><path d="M409,854.61l-7-38.34h0L379.7,693.71a3.55,3.55,0,0,0-4.93-2.63l-3.55,1.54-.24.1-37.59,13.16a3.57,3.57,0,0,0-2.34,2.77l-18.32,107.6h0l-8,46.47A2.89,2.89,0,0,0,308,866.1l28.27-3.77a2.89,2.89,0,0,0,2.46-2.38L342,840.24a2.87,2.87,0,0,1,2.84-2.4h27.62a2.88,2.88,0,0,1,2.84,2.38l2.45,13.89a2.88,2.88,0,0,0,2.67,2.38L406,858a2.89,2.89,0,0,0,3-2.73A2.93,2.93,0,0,0,409,854.61Zm-46.24-84.38,7.45,40.15a3.56,3.56,0,0,1-2.85,4.15,3.49,3.49,0,0,1-.65.06H348.06a.85.85,0,0,1-.85-.85.76.76,0,0,1,0-.15l8.55-43.39a3.56,3.56,0,0,1,7,0Z" transform="translate(66)" stroke="#c2b59b" stroke-miterlimit="10" stroke-width="5" fill="url(#e48069bb-852b-4d0f-93c8-e624a577e674)"/><path d="M517.85,865.41a811.52,811.52,0,0,0,.28-172.59c.36,0,.64-.07.93-.07h18.52c5.77,0,18.41,0,18.91.29,10.46,5.82,40.81,28.52,40.75,31.79-.26,14.15-1,51.86-1.11,55-.18,5.89.92,54.15.78,59.9,0,.88-5.91,4.93-8.49,6.68l-15.17,10.26q-7.31,5-14.62,9.87a2.36,2.36,0,0,1-1.27.35c-.76,0-1.5-.12-2.26-.14l-14-.38c-2.81-.08-5.62-.18-8.43-.28l-8-.27-6.17-.24A1.67,1.67,0,0,0,517.85,865.41ZM549,824.61l13.33-5.91c3.11-1.38,5.18-5,5.2-9.07.07-18.94.2-37.82.18-56.68,0-4-2.06-7.66-5.14-9.07l-15.7-7.16c0,.49,0,.84,0,1.19,0,1.42.1,2.83.14,4.25.12,4.93.23,9.86.36,14.8.11,4.52.23,9,.33,13.56.13,4.94.24,9.87.36,14.81q.18,6.84.34,13.7.2,8.29.38,16.58c.07,2.74.13,5.49.19,8.23A6.7,6.7,0,0,0,549,824.61Z" transform="translate(66)" stroke="#c2b59b" stroke-miterlimit="10" stroke-width="5" fill="url(#bc5931f2-d717-4619-9596-40a6fe07437b)"/><path d="M60.29,683.85a3.44,3.44,0,0,1,2.7-3.77c6.15-.74,20-2.36,21.54-2.54,3.38-.4,22.89-2.63,26-3,1.33-.17,37.83,23.7,37.88,25,.27,6.74,2.66,31.23,2.44,35.84-.08,1.73-7.89,25.47-9.92,30.19a4.09,4.09,0,0,0-.07,3c1.8,4.84,6.94,18.56,9.12,24.3.39,1,4.41,27,4.54,30.43.19,4.88-5.27,29-6.11,29.59-3.54,2.41-8.19,7.46-14.24,12.67l-19.14,13c-.46.32-26.61-5.1-29.72-5.76-2.49-.53-15.67-3.37-21.33-4.63a3.47,3.47,0,0,1-2.45-3.68c.69-14.6,3.68-76.34,3.62-85.26S61.19,700.22,60.29,683.85ZM94.82,819.52c0,2.06-1.74,27.29,0,27.16,5.64-.45,16.79,3,18.18,2.91,0,0,.24-51.88,0-55.29-.09-1.25-8-1.1-14.2-3.55-2-.78-4,.94-4,3.38Zm16.34-71.12c.42-5.92.87-42.09-.82-42.22-4.77-.34-10.15.28-14.93,0-1.71-.1,0,31.93,0,38C95.4,746.1,111,750.28,111.16,748.4Z" transform="translate(66)" stroke="#c2b59b" stroke-miterlimit="10" stroke-width="5" fill="url(#f14bc8a3-9dd8-428b-979d-11f35130acc8)"/><path d="M479.9,783.17l21.26-22.61a1.7,1.7,0,0,0,.41-1.61c-.75-2.83-2.5-13.65.2-48.11a1.73,1.73,0,0,0-.76-1.57c-4.11-2.66-22.27-14.4-32.93-21.25a1.92,1.92,0,0,0-.46-.21c-2.83-.75-28.94-7.12-54.75,5h0a1.67,1.67,0,0,0-.9,2.05c3,9.58,19.22,68.43,0,171.52a1,1,0,0,0,.83,1.23,1,1,0,0,0,.46,0l32.66-8.67a1.7,1.7,0,0,0,1.25-1.44L453.22,809a1.69,1.69,0,0,1,3.24-.45l21.17,50.24a1.69,1.69,0,0,0,1.23,1l33.95,6.62a1.06,1.06,0,0,0,1.23-.86,1.12,1.12,0,0,0-.07-.6L479.59,785A1.65,1.65,0,0,1,479.9,783.17Zm-28.24-23.63-2.51-46.31a1,1,0,0,1,.85-1.13,1.07,1.07,0,0,1,.53.07l17.31,6a1.71,1.71,0,0,1,1.14,1.68l-1.43,35.81a1.71,1.71,0,0,1-1.29,1.58L453,760.51a1,1,0,0,1-1.28-.6A1.15,1.15,0,0,1,451.66,759.54Z" transform="translate(66)" stroke="#c2b59b" stroke-miterlimit="10" stroke-width="5" fill="url(#b583db51-8bd9-499b-8459-2fbf2fcb115a)"/><path d="M168.84,707.4H269.07a7,7,0,0,1,7,7v94.69a7,7,0,0,1-7,7H168.84a7,7,0,0,1-7-7V714.38A7,7,0,0,1,168.84,707.4Z" transform="translate(66)" stroke="#c2b59b" stroke-miterlimit="10" stroke-width="5" fill="url(#e2e7693f-001d-4b66-8418-74e29843dd97)"/><path d="M246.6,748a11.67,11.67,0,1,0-11.67-11.67h0A11.66,11.66,0,0,0,246.58,748Z" transform="translate(66)" fill="url(#e5f062cf-2cbc-4939-89cb-1f0d7a6e34f6)"/><path d="M190.08,803.37a11.67,11.67,0,1,0-11.67-11.67h0a11.66,11.66,0,0,0,11.66,11.66Z" transform="translate(66)" fill="url(#a9a9fe99-b737-46a3-a5dd-b288deac5c8e)"/><path d="M217.4,773.39a11.67,11.67,0,1,0-11.67-11.67h0A11.66,11.66,0,0,0,217.4,773.39Z" transform="translate(66)" fill="url(#b1e1e7d5-750c-4e03-ae73-7fe5daffbcc4)"/><path d="M246.6,803.37a11.67,11.67,0,1,0-11.67-11.67h0a11.66,11.66,0,0,0,11.66,11.66Z" transform="translate(66)" fill="url(#a6f5238d-1b36-4cd5-83d8-0e78a78df699)"/><path d="M190.08,748a11.67,11.67,0,1,0-11.67-11.67h0A11.66,11.66,0,0,0,190.06,748Z" transform="translate(66)" fill="url(#a305a65a-3ab5-4dfa-a00c-5c2bbb995011)"/><path d="M203.48,538.92l11.64.83L242.35,647,219.07,538.9Z" transform="translate(66)" fill="#f8f8f9"/><path d="M192.83,644l-20.45.26,25.88,1.85-4.7-13.87-8.47-22.68L170,639.88l14.15-22.21a.9.9,0,0,1,1.25-.23.87.87,0,0,1,.34.44l5.68,15.51,2.9,7.87C194.89,642.68,194.36,644,192.83,644Z" transform="translate(66)" fill="#f8f8f9"/><path d="M257.67,573.5l-1.38-36h29.65l-29.15-1.93a2.11,2.11,0,0,0-2.24,2,1.61,1.61,0,0,0,0,.31Z" transform="translate(66)" fill="#f8f8f9"/><path d="M258.78,684v5.64a2.15,2.15,0,0,0,2.15,2.15,1.87,1.87,0,0,0,.34,0l8.31-1.87S261.9,690.05,258.78,684Z" transform="translate(66)" fill="#f8f8f9"/><path d="M298.42,538.92l2.49,148.53a2.83,2.83,0,0,0,3.19-2.4,2.9,2.9,0,0,0,0-.51Z" transform="translate(66)" fill="#f8f8f9"/><path d="M315.32,579.87l2.5-37.65h24.11L366.05,593l-22-54H314.49" transform="translate(66)" fill="#f8f8f9"/><path d="M400.69,538.92s9.18.63,10.26,3.29v-3.29Z" transform="translate(66)" fill="#fff"/><path d="M316.71,672.17l3.85,19.13h-3.85Z" transform="translate(66)" fill="#fff"/><path d="M411,550s-6.91,93,.93,140.7C411.88,690.74,409,579,411,550Z" transform="translate(66)" fill="#f8f8f9"/><path d="M346.5,690.74l-2.08-39.35L375,689.25l-24.25-27.62a1.8,1.8,0,0,0-3.15,1.12Z" transform="translate(66)" fill="#fff"/><path d="M426.7,523.6l6.91,4.56,1.66-4.56Z" transform="translate(66)" fill="#fff"/><path d="M438.39,566l5.22-15.75L549,544.4l-106.71,2.05a4,4,0,0,0-3.88,4Z" transform="translate(66)" fill="#fff"/><path d="M551.08,592.28c-.44,2.22-2.72,7.7-6,8.68l2.57.21a3.3,3.3,0,0,0,3.56-3c0-.11,0-.23,0-.34S551.25,591.41,551.08,592.28Z" transform="translate(66)" fill="#fff"/><path d="M440.05,599.41l31-1.29a3.52,3.52,0,0,1,3.66,3.36v.24l-2,84.59-.4-82.48a3.69,3.69,0,0,0-3.6-3.68Z" transform="translate(66)" fill="#fff"/><path d="M62,688a10.78,10.78,0,0,1,8.15-6.24L98,677.37l-33.14,3.32a3.32,3.32,0,0,0-3.12,3.51s0,.09,0,.14Z" transform="translate(66)" fill="#fffbfd"/><path d="M129.69,688l17.78,18.06-.32-5.85S131.35,688.18,129.69,688Z" transform="translate(66)" fill="#fffbfd"/><path d="M112.86,719.79l1.47,31.86a.94.94,0,0,1-.82,1,.85.85,0,0,1-.42,0l-13.68-4.27,10.34,1.93a2.32,2.32,0,0,0,2.8-1.7,1.86,1.86,0,0,0,.07-.52Z" transform="translate(66)" fill="#fffbfd"/><path d="M148.6,724.66l.69,10.85s-9,29.1-9.84,29.93Z" transform="translate(66)" fill="#fffbfd"/><path d="M145.24,784.09l7.85,39.22-3.8-28.9Z" transform="translate(66)" fill="#fffbfd"/><path d="M93.1,793.16l-1.42,54.91a1.6,1.6,0,0,0,1.49,1.63l21.3,1.5c-.34-.48-10.6-3.2-18.85-3.19a1.59,1.59,0,0,1-1.6-1.57Z" transform="translate(66)" fill="#fffbfd"/><path d="M63.37,857.6l1.31,5.62a3.64,3.64,0,0,0,1.3,2l3.21,2.45-3.26-.52A3.17,3.17,0,0,1,62.76,864a3,3,0,0,1,0-.31Z" transform="translate(66)" fill="#fffbfd"/><path d="M163.43,761.72l3.1-46.33A3.61,3.61,0,0,1,170,712l99.54-3.09H169.32a5.88,5.88,0,0,0-5.9,5.86h0v46.94Z" transform="translate(66)" fill="#fffbfd"/><path d="M163.29,805.15,165.4,810a5.07,5.07,0,0,0,1.83,2.19l3.41,2.3h-2.25a5.1,5.1,0,0,1-5.1-5.1Z" transform="translate(66)" fill="#fffbfd"/><path d="M273.81,726.16l-2.29,87.59a4.48,4.48,0,0,0,3.35-4.38Z" transform="translate(66)" fill="#fffbfd"/><path d="M306.45,862.73l28.69-150.14A8.35,8.35,0,0,1,339,707l6.23-3.79-10.59,3.64a2.85,2.85,0,0,0-1.89,2.21Z" transform="translate(66)" fill="#fffbfd"/><path d="M346.5,836.26l29.88-1.87a1.07,1.07,0,0,1,1.13,1l1.77,18.72-2.35-14a4.5,4.5,0,0,0-4.45-3.77Z" transform="translate(66)" fill="#fffbfd"/><path d="M407.05,852.25l-.19,1.41a6.62,6.62,0,0,1-.78,2.33l-.28.52h.31a1.46,1.46,0,0,0,1.46-1.46,1.27,1.27,0,0,0,0-.28Z" transform="translate(66)" fill="#fffbfd"/><path d="M347.2,816.05l24.85,1.23a1.36,1.36,0,0,0,1.43-1.29,2,2,0,0,0,0-.34l-7.4-36.35,5.43,32a4.07,4.07,0,0,1-3.34,4.7,3.68,3.68,0,0,1-.66.06Z" transform="translate(66)" fill="#fffbfd"/><path d="M379.28,700.54s15.28,106,26.52,143.7Z" transform="translate(66)" fill="#fffbfd"/><path d="M415.94,703.21v-4.6a4.64,4.64,0,0,1,2.5-4.13c5.37-2.79,19.75-8.07,46.8-3.89a4.75,4.75,0,0,1,1.63.58l33.05,19.24-33-21.37s-28-7.59-53.77,5Z" transform="translate(66)" fill="#fffbfd"/><path d="M499.92,715.1s-4.27,26.82,0,44.28C499.92,759.38,497.85,736.3,499.92,715.1Z" transform="translate(66)" fill="#fffbfd"/><path d="M479,781.83l20.45-24.42.44,2Z" transform="translate(66)" fill="#fffbfd"/><path d="M452.66,762.11l18.16-3.33v-43l-16.08-3.71,13.31,4.21a2.7,2.7,0,0,1,1.89,2.65L469,755.6a2.43,2.43,0,0,1-1.75,2.26Z" transform="translate(66)" fill="#fffbfd"/><path d="M422.8,769.62s.5,66.87-5.95,91.42a1.17,1.17,0,0,0,1.32,1.46l18.76-3-22.32,6.27a.86.86,0,0,1-1.06-.6.9.9,0,0,1,0-.4C415.17,857.15,422.8,819.13,422.8,769.62Z" transform="translate(66)" fill="#fffbfd"/><path d="M463.82,821.64l16.35,34.87,14.76,4.75-15.74-2.61a1.55,1.55,0,0,1-1.18-.95Z" transform="translate(66)" fill="#fffbfd"/><path d="M519.88,862.73s16.4-60.2.09-166.33C520,696.4,528.61,787.62,519.88,862.73Z" transform="translate(66)" fill="#fffbfd"/><path d="M555.84,694.41l36,29.85a5.61,5.61,0,0,1,2,4l1.29,19,.78-21.09a2.93,2.93,0,0,0-1-2.27C589.67,719.16,565.28,697.74,555.84,694.41Z" transform="translate(66)" fill="#fffbfd"/><path d="M548.36,826.73l17.83-7.6a5.49,5.49,0,0,0,3.34-5.1l-.39-45.61-.44,42.74A9.83,9.83,0,0,1,563,820Z" transform="translate(66)" fill="#fffbfd"/><path d="M595.38,828.39s-1,11.7-4.14,14.19l4.21-3.38Z" transform="translate(66)" fill="#fffbfd"/></g></svg>