<svg data-name="Layer 1" xmlns="http://www.w3.org/2000/svg" xmlns:xlink="http://www.w3.org/1999/xlink" viewBox="0 0 784 1395">
  <defs>
    <linearGradient id="i" x1="260" y1="392.35" x2="260" y2="70.14" gradientTransform="translate(66 396)" gradientUnits="userSpaceOnUse">
      <stop offset=".01" stop-color="#1e394c"/>
      <stop offset=".5" stop-color="#234054"/>
      <stop offset="1" stop-color="#2d4c61"/>
    </linearGradient>
    <linearGradient id="j" x1="408.94" y1="392.35" x2="408.94" y2="164.06" gradientTransform="translate(66 396)" gradientUnits="userSpaceOnUse">
      <stop offset="0" stop-color="#2b495e"/>
      <stop offset=".55" stop-color="#304d5c"/>
      <stop offset="1" stop-color="#395559"/>
    </linearGradient>
    <linearGradient id="k" x1="260" y1="-42.09" x2="260" y2="295.21" gradientTransform="translate(66 396)" gradientUnits="userSpaceOnUse">
      <stop offset="0" stop-color="#8baaad"/>
      <stop offset=".37" stop-color="#6a888e"/>
      <stop offset="1" stop-color="#34515b"/>
    </linearGradient>
    <linearGradient id="l" x1="260" y1="152.12" x2="260" y2="-138.92" gradientTransform="translate(66 396)" gradientUnits="userSpaceOnUse">
      <stop offset="0" stop-color="#8baaad"/>
      <stop offset=".03" stop-color="#90afb1"/>
      <stop offset=".21" stop-color="#a5c3c1"/>
      <stop offset=".41" stop-color="#b4d2cc"/>
      <stop offset=".64" stop-color="#bcdad3"/>
      <stop offset="1" stop-color="#bfddd5"/>
    </linearGradient>
    <linearGradient id="a" x1="56.64" y1="386.4" x2="56.64" y2="485.36" gradientTransform="translate(66 396)" gradientUnits="userSpaceOnUse">
      <stop offset="0" stop-color="#3d5e38"/>
      <stop offset=".46" stop-color="#76904f"/>
      <stop offset=".81" stop-color="#9bb15d"/>
      <stop offset="1" stop-color="#a9bd63"/>
    </linearGradient>
    <linearGradient id="m" x1="317.99" y1="474.29" x2="317.99" y2="999" xlink:href="#a"/>
    <linearGradient id="n" x1="-132" y1="693.13" x2="652" y2="693.13" gradientTransform="translate(66 396)" gradientUnits="userSpaceOnUse">
      <stop offset="0" stop-color="#83a7a5"/>
      <stop offset=".02" stop-color="#85a9a6"/>
      <stop offset=".45" stop-color="#aeccc3"/>
      <stop offset=".79" stop-color="#c8e1d5"/>
      <stop offset="1" stop-color="#d1e9dc"/>
    </linearGradient>
    <linearGradient id="b" x1="489" y1="522.5" x2="534" y2="522.5" gradientTransform="translate(66 396)" gradientUnits="userSpaceOnUse">
      <stop offset="0" stop-color="#754c24"/>
      <stop offset="1" stop-color="#c69c6d"/>
    </linearGradient>
    <linearGradient id="c" x1="417.31" y1="382.29" x2="601.16" y2="382.29" gradientTransform="translate(66 396)" gradientUnits="userSpaceOnUse">
      <stop offset="0" stop-color="#3d5e38"/>
      <stop offset=".25" stop-color="#43643b"/>
      <stop offset=".44" stop-color="#567442"/>
      <stop offset=".64" stop-color="#738e4e"/>
      <stop offset=".83" stop-color="#9cb25e"/>
      <stop offset="1" stop-color="#a9bd63"/>
    </linearGradient>
    <linearGradient id="o" x1="420.87" y1="537.88" x2="464.74" y2="537.88" xlink:href="#b"/>
    <linearGradient id="p" x1="344.85" y1="525.87" x2="387.65" y2="525.87" xlink:href="#b"/>
    <linearGradient id="q" x1="274.35" y1="389.26" x2="458.13" y2="389.26" xlink:href="#c"/>
    <linearGradient id="r" x1="348.6" y1="397.8" x2="537" y2="397.8" xlink:href="#c"/>
    <linearGradient id="s" x1=".88" y1="408.15" x2="24.17" y2="408.15" xlink:href="#b"/>
    <linearGradient id="t" x1="-37.2" y1="332.05" x2="60.21" y2="332.05" xlink:href="#c"/>
    <linearGradient id="u" x1="-35.33" y1="410.5" x2="-12.04" y2="410.5" xlink:href="#b"/>
    <linearGradient id="v" x1="-75.59" y1="408.1" x2="-52.92" y2="408.1" xlink:href="#b"/>
    <linearGradient id="w" x1="-112.94" y1="335.71" x2="-15.57" y2="335.71" xlink:href="#c"/>
    <linearGradient id="x" x1="-72.45" y1="338.42" x2="24.93" y2="338.42" xlink:href="#c"/>
    <linearGradient id="y" x1="-16.62" y1="305.11" x2="537.63" y2="305.11" gradientTransform="translate(66 396)" gradientUnits="userSpaceOnUse">
      <stop offset=".01" stop-color="#886441"/>
      <stop offset=".14" stop-color="#634522"/>
      <stop offset=".31" stop-color="#735229"/>
      <stop offset=".65" stop-color="#603b0f"/>
      <stop offset=".8" stop-color="#886441"/>
      <stop offset="1" stop-color="#5f4421"/>
    </linearGradient>
    <linearGradient id="z" x1="94.59" y1="379.18" x2="237.45" y2="379.18" gradientTransform="translate(66 396)" gradientUnits="userSpaceOnUse">
      <stop offset=".01" stop-color="#f6e8d7"/>
      <stop offset="1" stop-color="#d8cdbb"/>
    </linearGradient>
    <linearGradient id="d" x1="297.34" y1="141.47" x2="297.34" y2="296.69" gradientTransform="translate(66 396)" gradientUnits="userSpaceOnUse">
      <stop offset=".01" stop-color="#f3f4f4"/>
      <stop offset=".29" stop-color="#d7d5d6"/>
      <stop offset=".49" stop-color="#cecccd"/>
      <stop offset=".5" stop-color="#c8c6c7"/>
      <stop offset=".5" stop-color="#c3c2c2"/>
      <stop offset=".51" stop-color="#c2c1c0"/>
      <stop offset=".54" stop-color="#c2c1c0"/>
      <stop offset=".58" stop-color="#c9c8c8"/>
      <stop offset=".68" stop-color="#d5d5d5"/>
      <stop offset=".8" stop-color="#ddd"/>
      <stop offset="1" stop-color="#dfdfe0"/>
    </linearGradient>
    <linearGradient id="A" x1="119.08" y1="141.47" x2="119.08" y2="293.24" xlink:href="#d"/>
    <linearGradient id="B" x1="213" y1="138.08" x2="213" y2="296.62" xlink:href="#d"/>
    <linearGradient id="C" x1="361.69" y1="126.21" x2="361.69" y2="154.01" xlink:href="#d"/>
    <linearGradient id="D" x1="428.67" y1="146.26" x2="428.67" y2="304.61" xlink:href="#d"/>
    <linearGradient id="E" x1="165.64" y1="429.5" x2="165.64" y2="441.92" gradientTransform="translate(66 396)" gradientUnits="userSpaceOnUse">
      <stop offset=".03" stop-color="#d3d1d3"/>
      <stop offset=".26" stop-color="#cac8cb"/>
      <stop offset=".62" stop-color="#b4b1b5"/>
      <stop offset="1" stop-color="#989498"/>
    </linearGradient>
    <linearGradient id="e" x1="217.34" y1="351.16" x2="231.65" y2="351.16" gradientTransform="translate(66 396)" gradientUnits="userSpaceOnUse">
      <stop offset="0" stop-color="#d3d1d3"/>
      <stop offset=".24" stop-color="#cac8cb"/>
      <stop offset=".61" stop-color="#b4b1b5"/>
      <stop offset="1" stop-color="#989498"/>
    </linearGradient>
    <linearGradient id="F" x1="217.34" y1="400.8" x2="231.65" y2="400.8" xlink:href="#e"/>
    <linearGradient id="f" x1="290.86" y1="294.79" x2="290.86" y2="470.13" gradientTransform="translate(66 396)" gradientUnits="userSpaceOnUse">
      <stop offset=".01" stop-color="#f6e8d7"/>
      <stop offset=".46" stop-color="#f3e6d5"/>
      <stop offset=".7" stop-color="#ece0cf"/>
      <stop offset=".9" stop-color="#e2d7c6"/>
      <stop offset="1" stop-color="#dcd1bf"/>
    </linearGradient>
    <linearGradient id="G" x1="491.55" y1="296.75" x2="491.55" y2="470.89" xlink:href="#f"/>
    <linearGradient id="H" x1="41.39" y1="278.54" x2="41.39" y2="482.57" xlink:href="#f"/>
    <linearGradient id="I" x1="396.97" y1="289.47" x2="396.97" y2="471.63" xlink:href="#f"/>
    <linearGradient id="J" x1="152.96" y1="311.4" x2="152.96" y2="420.09" xlink:href="#f"/>
    <radialGradient id="g" cx="-322.01" cy="-33.94" r="1" gradientTransform="translate(4004.56 1133.29) scale(11.67)" gradientUnits="userSpaceOnUse">
      <stop offset=".03" stop-color="#d3d1d3"/>
      <stop offset=".44" stop-color="#cececf"/>
      <stop offset=".79" stop-color="#c1c3c5"/>
      <stop offset="1" stop-color="#b4b9bb"/>
    </radialGradient>
    <radialGradient id="K" cx="-322.01" cy="-33.94" r="1" gradientTransform="translate(3948.05 1188.78) scale(11.67)" xlink:href="#g"/>
    <radialGradient id="L" cx="-322.01" cy="-33.94" r="1" gradientTransform="translate(3975.36 1158.68) scale(11.67)" xlink:href="#g"/>
    <radialGradient id="M" cx="-322.01" cy="-33.94" r="1" gradientTransform="translate(4004.56 1188.66) scale(11.67)" xlink:href="#g"/>
    <radialGradient id="N" cx="-322.01" cy="-33.94" r="1" gradientTransform="translate(3948.05 1133.41) scale(11.67)" xlink:href="#g"/>
    <clipPath id="h" transform="translate(66)">
      <path fill="none" d="M0 0h652v1395H0z"/>
    </clipPath>
  </defs>
  <g clip-path="url(#h)">
    <path d="M-66 782.82l784 5.53-178.75-55.3-134.85-12.54-177.71-65.88S110.66 618-1.19 488.36c0 0-41.81-20.37-64.81-22.22z" transform="translate(66)" fill="url(#i)"/>
    <path d="M231.88 656.55l148.48 27.36s167.25-28.24 212.2-61.7c0 0 100.35-79.6 125.44-58.63v224.77l-177.71-53.2-134.84-11.51s-133.9-50.54-173.57-67.09z" transform="translate(66)" fill="url(#j)"/>
    <path d="M-66 385.87l20.16 12.74 32.89 14.29a62 62 0 0060-5.83l76.16-52.57s34.49-11.5 90.94 66.93c0 0 115 111.89 196.52 126.53l143.21-9.41 164.12 5.1v19.93s-13.59-19.8-125.44 58.63c0 0-10.45 35.55-209.07 69l-151.61-34.66S145 647.82 10.48 501.28a80.64 80.64 0 00-29.27-20.23c-16.85-6.78-40.66-15.71-47.21-14.91z" transform="translate(66)" fill="url(#k)"/>
    <path d="M-66 280.13l78.4 41.95 175.31-21 87.6-39.84a46.39 46.39 0 0154 11.56C368.75 317.55 452 403.89 504.75 401.56l158.89-63.79L718 341v207l-164.12-9.41-128.76 9.2c-11.64 1.26-28.11-1.1-43.46-6.59-38.33-13.72-115.23-56.49-216.64-171-37.48-42.32-98.26 99.33-209 36.59L-66 391.1z" transform="translate(66)" fill="url(#l)"/>
    <path d="M395.23 275.74L784 243.59V341l-54.36-3.26-158.89 63.82s-59.39 8.74-175.52-125.82z" fill="#f9f9e1"/>
    <path d="M0 280.13V130.72L784 36.6v207l-388.77 32.14c-10.15-11.8-26.48-16.19-67.66-1.56l-73.55 27-201 7.29z" fill="#dfefe4"/>
    <path d="M0 137.42L784 73.2V0H0z" fill="#cfe9e0"/>
    <path d="M-66 881.36h358.85s75-4-77.65-51.05c0 0-132.76-53.15-281.2-47.49z" transform="translate(66)" fill="url(#a)"/>
    <path d="M57.35 1062.46l316.26-135.07A580.09 580.09 0 01586 876c47.92-2.3 100.12-4.67 132-5.71V1395H339.34l274.13-63.79s92-39.74 38.67-106.66l-149.48-30.33-244.5-47.12-197.67-37.58c-12.07-2.92-14.57-42.22-3.14-47.06z" transform="translate(66)" fill="url(#m)"/>
    <path d="M-66 1395h405.34s833.92-128.22 0-234.56l-242.11-52.3s-101.08-11.07 3.21-55L354.52 943a768.12 768.12 0 01230.34-59.65L718 870.3v-81.94l-729.64-5.11S181.85 816.46 297.78 868c0 0 28.22 10.46-4.93 13.41H-66" transform="translate(66)" fill="url(#n)"/>
    <path d="M600 903h-45v31h45z" transform="translate(66)" fill="url(#b)"/>
    <path d="M667.16 903l-30.8-54.17h24.5l-41.55-63 21.41 1.27-61.59-133.52-65.6 134.78 18.89-1.25-42.8 61.72h26.14L483.31 903z" transform="translate(66)" fill="url(#c)"/>
    <path d="M530.74 921.61h-43.87v24.53h43.87z" transform="translate(66)" fill="url(#o)"/>
    <path d="M453.65 909.91h-42.8v23.92h42.8z" transform="translate(66)" fill="url(#p)"/>
    <path d="M524.13 909.91l-30.79-54.15h24.5l-41.54-63 21.4 1.24-61.56-133.4-65.58 134.73 18.89-1.27-42.79 61.7h26.13l-32.44 54.15z" transform="translate(66)" fill="url(#q)"/>
    <path d="M603 921.61l-31.56-55.51h25.12L554 801.55l21.93 1.3L512.79 666l-67.22 138.13 19.35-1.28-43.87 63.25h26.79l-33.24 55.51z" transform="translate(66)" fill="url(#r)"/>
    <path d="M53 308.47L324.05 275l-70.34 26.08-175.31 21z" fill="#f9f9e1"/>
    <path d="M90.17 797.65H66.88v13h23.29z" transform="translate(66)" fill="url(#s)"/>
    <path d="M126.21 794.09l-16.32-28.69h13l-22-33.37 11.34.66L79.57 662l-34.75 71.36 10-.67-22.68 32.71H46l-17.2 28.69z" transform="translate(66)" fill="url(#t)"/>
    <path d="M54 800H30.67v13H54z" transform="translate(66)" fill="url(#u)"/>
    <path d="M13.08 797.76H-9.59v12.68h22.67z" transform="translate(66)" fill="url(#v)"/>
    <path d="M50.43 797.76l-16.32-28.69h13l-22-33.36 11.34.67L3.8 665.66l-34.74 71.39 10-.67-22.67 32.69h13.85l-17.18 28.69z" transform="translate(66)" fill="url(#w)"/>
    <path d="M90.93 800.46l-16.31-28.68h13l-22-33.36 11.33.66-32.65-70.71-34.73 71.38 10-.67-22.68 32.7h13.85l-17.19 28.68z" transform="translate(66)" fill="url(#x)"/>
    <path d="M181.56 675.72L216 539.79a3.87 3.87 0 013.9-2.91l76.74 3.32a3.86 3.86 0 013.48 2.57l7.53 21.4c1.8 3.09 3-26.27 3-26.27.1-2.06 55 2.09 55 2.09a1.93 1.93 0 00.48 0l45-.71c1.58 0 4.63.51 5.13 2l4.45 10.82c1 3.13 4.74 4 6 1.35a3.2 3.2 0 00.29-1.17l.85-10a3.87 3.87 0 01.24-1.07 3 3 0 012.87-2.13l43.66.86a3.83 3.83 0 003.38-1.84l5.54-9a3.88 3.88 0 013.29-1.84h21.83c2.56 0-1.8 10.81-2.5 13.27v3.29c-.7 2.5 5.2 1.25 7.79 1.19l109.91-2.77a3.87 3.87 0 013.95 3.79v74.53a3.86 3.86 0 01-3.86 3.86h-24.21a3.85 3.85 0 00-3.85 3.85v64.63a3.88 3.88 0 003.61 3.85l18.56 1.25a34.1 34.1 0 0114.94 4.52l33.3 19.53a3.84 3.84 0 011.91 3.33L667 787.25l1.26 65.94a3.86 3.86 0 01-1.52 3.08l-39 29.57a3.9 3.9 0 01-2.49.79L584.06 885h-.45l-43.16-6.76a3.88 3.88 0 01-3-2.5L529 852.49a3.86 3.86 0 00-7.48 1l-1.43 18.23a3.85 3.85 0 01-2.9 3.44l-41.84 10.58a3.85 3.85 0 01-4.8-3.74v-3a3.87 3.87 0 00-3.68-3.85l-24.6-1.15a3.86 3.86 0 01-3.62-3.18l-1.8-10.25a3.86 3.86 0 00-3.85-3.18l-15.27.19a3.86 3.86 0 00-3.74 3.14l-2.88 15.11a3.85 3.85 0 01-3.35 3.11l-39.53 4.44A3.86 3.86 0 01364 880a4 4 0 010-.69l.88-13.16a3.85 3.85 0 00-3.57-4.11H361l-115-.06a3.84 3.84 0 01-2.76-1.18l-8-8.22a3.86 3.86 0 00-6.42 1.46l-3.53 10.46a3.85 3.85 0 01-1.37 1.88l-40.76 29.91a3.9 3.9 0 01-3.19.64L122.91 883a3.84 3.84 0 01-2.91-4.1c1.87-20.42 14.4-128.43-.38-185.68-.58-2.24-2.51-6.16-.23-6.48l59-8.17a3.84 3.84 0 003.17-2.85z" fill="#483318"/>
    <path d="M115.14 666.32l35.31-139.59a1.33 1.33 0 011.34-1l80.52 3.48a1.31 1.31 0 011.19.88l8.1 23c1.8 3.09 3-26.27 3-26.27.1-2.06 55 2.09 55 2.09h.47l45-.72c1.59 0 4.63.52 5.13 2l4.45 10.81c1.11 3.32 5.21 4.1 6.21.84l.06-.29.91-10.67a1.37 1.37 0 01.05-.28c.45-1.52 1.43-2.65 3-2.62l45.11.9a1.34 1.34 0 001.16-.63l7-11.49a1.33 1.33 0 011.13-.63H446a1.32 1.32 0 011.28 1.68l-4.07 14.48a1.32 1.32 0 00.93 1.63 1.24 1.24 0 00.38.05l116-2.92a1.32 1.32 0 011.35 1.29V612a1.31 1.31 0 01-1.31 1.31h-29.34a1.31 1.31 0 00-1.31 1.31v69.56a1.33 1.33 0 001.23 1.32L553 687a29.85 29.85 0 0113.13 4l.16.1 36.82 28.11a1.34 1.34 0 01.52 1.06l-2.73 60.16c0 1-.06 1.91 0 2.87l1.36 60.14a1.36 1.36 0 01-.52 1L561 875.33a1.34 1.34 0 01-.84.27l-42.24-1.6h-.15L473 867a1.33 1.33 0 01-1-.85l-13-35.78a1.32 1.32 0 00-2.56.35L454 862.48a1.32 1.32 0 01-1 1.18l-46.78 11.82a1.31 1.31 0 01-1.6-.94 1.24 1.24 0 010-.33v-8.69a1.31 1.31 0 00-1.26-1.32l-29.06-1.4a1.32 1.32 0 01-1.24-1.09l-2.53-14.36a1.31 1.31 0 00-1.32-1.09l-19.5.25a1.31 1.31 0 00-1.28 1.07l-3.61 19a1.34 1.34 0 01-1.15 1.07l-44.4 5a1.32 1.32 0 01-1.46-1.18 1.62 1.62 0 010-.22l1.27-18.9a1.33 1.33 0 00-1.24-1.4h-.08l-118.76-.1a1.35 1.35 0 01-.95-.4l-11.63-12a1.31 1.31 0 00-1.85 0 1.34 1.34 0 00-.34.54l-5.12 15.16a1.31 1.31 0 01-.47.64l-42.35 31.08a1.35 1.35 0 01-1.1.22l-60.42-14.63a1.34 1.34 0 01-1-1.41c1.24-13 12.16-133.39-4.34-192.28a1.32 1.32 0 01.91-1.63h.18L114 667.3a1.29 1.29 0 001.14-.98z" transform="translate(66)" fill="url(#y)"/>
    <path d="M343.39 709.34H240.67a10.8 10.8 0 00-10.85 10.74v96.22a10.67 10.67 0 003 7.45l19.93 20.48a11 11 0 007.81 3.28h102.77a10.78 10.78 0 0010.84-10.72v-96.23a10.74 10.74 0 00-3-7.46l-20-20.47a10.92 10.92 0 00-7.78-3.29zM479.47 856.21l-7.12-38.34-22.52-122.6a3.61 3.61 0 00-4.22-2.87 3.52 3.52 0 00-.78.24l-3.59 1.54-.24.1-37.95 13.16a3.61 3.61 0 00-2.36 2.77l-18.42 107.65-8 46.47a2.9 2.9 0 002.37 3.33 3 3 0 00.89 0l28.47-3.73a2.91 2.91 0 002.48-2.38l3.37-19.71a2.9 2.9 0 012.87-2.4h27.88a2.9 2.9 0 012.87 2.38l2.48 13.9a2.93 2.93 0 002.7 2.38l25.78 1.52a2.92 2.92 0 003.08-2.73 3.07 3.07 0 00-.04-.68zm-46.68-84.38l7.53 40.17a3.58 3.58 0 01-2.88 4.16 3.68 3.68 0 01-.66.06h-18.84a.85.85 0 01-.85-.85.76.76 0 010-.15l8.63-43.39a3.6 3.6 0 017.06 0zM587.09 867.3a811.52 811.52 0 00.28-172.59c.36 0 .64-.07.92-.07h18.53c5.77 0 18.41 0 18.91.3 10.46 5.81 40.81 28.51 40.75 31.78-.26 14.15-1 51.86-1.11 55-.18 5.89.92 54.14.78 59.9 0 .88-5.91 4.93-8.49 6.68l-15.17 10.27-14.63 9.86a2.24 2.24 0 01-1.26.35c-.76 0-1.5-.12-2.26-.14l-14-.38c-2.81-.08-5.62-.18-8.43-.28l-8-.27c-2.06-.07-4.11-.16-6.17-.24a1.87 1.87 0 00-.65-.17zm31.13-40.8l13.33-5.91c3.11-1.38 5.18-5 5.2-9.06.07-18.95.2-37.83.18-56.69 0-4-2.06-7.66-5.14-9.07l-15.7-7.16c0 .48-.05.84-.05 1.19 0 1.42.1 2.83.14 4.25.12 4.93.23 9.86.36 14.8.11 4.52.23 9 .33 13.56.13 4.94.24 9.87.36 14.81q.16 6.84.34 13.7.2 8.3.38 16.58c.07 2.74.13 5.49.19 8.22 0 .22 0 .44.08.78zM130.42 684.36a3.4 3.4 0 012.73-3.76c6.2-.75 20.17-2.37 21.74-2.55l26.25-3c1.35-.17 38.18 23.71 38.24 25 .27 6.74 2.68 31.23 2.46 35.84-.08 1.74-8 25.47-10 30.19a4.09 4.09 0 00-.07 3c1.82 4.84 7 18.56 9.21 24.31.39 1 4.45 26.94 4.59 30.42.19 4.88-5.32 29-6.17 29.59-3.58 2.42-8.27 7.46-14.37 12.67l-19.32 13c-.47.32-26.85-5.1-30-5.76-2.52-.53-15.81-3.37-21.52-4.63a3.48 3.48 0 01-2.49-3.68c.69-14.59 3.71-76.34 3.65-85.26s-4.02-79.01-4.93-95.38zM165.26 820c0 2-1.76 27.28 0 27.15 5.7-.44 16.94 3 18.35 2.91 0 0 .23-51.88 0-55.28-.09-1.25-8.11-1.11-14.33-3.56-2-.78-4 1-4 3.38zm16.49-71.13c.42-5.92.88-42.09-.82-42.22-4.82-.34-10.25.28-15.07 0-1.72-.1 0 31.93 0 38 0 2 15.75 6.14 15.89 4.26zM550.35 785.06l21.45-22.6a1.7 1.7 0 00.41-1.62c-.75-2.83-2.53-13.65.21-48.11a1.7 1.7 0 00-.77-1.57c-4.15-2.66-22.47-14.4-33.23-21.25a1.33 1.33 0 00-.47-.21c-2.86-.75-29.19-7.12-55.24 5a1.68 1.68 0 00-.91 2c3 9.58 19.39 68.43 0 171.52a1.06 1.06 0 00.82 1.24 1.11 1.11 0 00.48 0l32.9-8.7a1.72 1.72 0 001.27-1.44l6.1-48.52a1.71 1.71 0 013.27-.45L548 860.62a1.71 1.71 0 001.24 1l34.25 6.61a1.06 1.06 0 001.17-1.46L550 786.9a1.69 1.69 0 01.35-1.84zm-28.5-23.62l-2.53-46.32a1.06 1.06 0 011-1.11 1 1 0 01.38 0l17.47 6a1.69 1.69 0 011.15 1.67l-1.45 35.81a1.71 1.71 0 01-1.29 1.58l-13.44 3.27a1 1 0 01-1.25-.65 1 1 0 01-.04-.25z" fill="#413000"/>
    <path d="M482.54 651.06c-1.31-55 1.2-112.5 1.2-112.5a8.93 8.93 0 00-.13-2.42H440.1a1.47 1.47 0 00-1.47 1.47l1.21 53a1.47 1.47 0 01-2.84.59l-21.75-54.17a1.45 1.45 0 00-1.36-.92H382.7l2.87 162.09h31.49a1.47 1.47 0 001.47-1.47V668a1.47 1.47 0 012.61-.93L446 697.68a1.48 1.48 0 001.14.54h36.44a1.46 1.46 0 001.46-1.46v-.08zM284.45 694.13l36.55-9.22a1.85 1.85 0 001.33-2.19L291.8 536.6a1.8 1.8 0 00-1.74-1.46h-62.73a1.79 1.79 0 00-1.73 1.4l-35.73 148.23a1.85 1.85 0 001.38 2.22l41.42 7.16a1.8 1.8 0 002.05-1.49v-.09l2.64-20.06a1.81 1.81 0 011.77-1.6h34.23a1.77 1.77 0 011.68 1.22l7.32 20.87a1.76 1.76 0 002.09 1.13zm-42-51.41l11.65-21.57a1.76 1.76 0 012.35-.77 1.78 1.78 0 01.88 1L264.9 643a1.85 1.85 0 01-1.08 2.37 1.81 1.81 0 01-.6.11H244a1.84 1.84 0 01-1.77-1.91 2 2 0 01.25-.85zM327.5 533.41l41.61 2.85a3.14 3.14 0 012.89 3.07l2.06 75 2.76 75.55a3.14 3.14 0 01-2.91 3.27L354 694.44 332 697a3.12 3.12 0 01-3.43-2.77 2.3 2.3 0 010-.37V592.65l-4.37-55.83a3.14 3.14 0 012.87-3.4 2.26 2.26 0 01.43-.01zM495.65 521.37l-7.74 29.07a.91.91 0 001.53.85l13.3-13.53a.75.75 0 00.21-.34l5.27-15.54a.89.89 0 00-.55-1.13.84.84 0 00-.31 0h-10.83a.91.91 0 00-.88.62zM506.15 554.41v47.4a4.18 4.18 0 004.19 4.17h26.32a4.18 4.18 0 014.19 4.17v88.61a4.18 4.18 0 003.89 4.15l41 3a4.19 4.19 0 004.49-3.85V611a4.17 4.17 0 014.19-4.17h.09l24.38.55a4.18 4.18 0 004.29-4.07v-52.39a4.18 4.18 0 00-4.2-4.18h-.13l-108.72 3.49a4.2 4.2 0 00-3.98 4.18z" fill="#413000"/>
    <path d="M273 706.08H171.32a10.72 10.72 0 00-10.73 10.71V813a10.72 10.72 0 003 7.45L183.32 841a10.75 10.75 0 007.73 3.28h101.66a10.72 10.72 0 0010.74-10.72h0v-96.27a10.72 10.72 0 00-3-7.45l-19.73-20.48a10.79 10.79 0 00-7.72-3.28z" transform="translate(66)" stroke="#c2b59b" stroke-miterlimit="10" stroke-width="5" fill="url(#z)"/>
    <path d="M226.59 808.76v-93a9.69 9.69 0 019.69-9.69h99a8.22 8.22 0 018.23 8.21h0v95.5a7.55 7.55 0 01-7.56 7.56H235.19a8.6 8.6 0 01-8.6-8.58z" fill="none" stroke="#c2b59b" stroke-miterlimit="10" stroke-width="5"/>
    <path d="M367.89 841l-22-21a6.61 6.61 0 00-5.17-2.67h-91.28" fill="none" stroke="#c2b59b" stroke-miterlimit="10" stroke-width="5"/>
    <path d="M411.44 647.52c-1.3-52.69 1.19-107.73 1.19-107.73a9 9 0 00-.12-2.32h-43.06a1.43 1.43 0 00-1.46 1.42v0l1.21 50.75a1.45 1.45 0 01-1.47 1.45 1.43 1.43 0 01-1.34-.9l-21.51-51.86a1.46 1.46 0 00-1.35-.88h-30.85l2.83 155.22h31.15a1.43 1.43 0 001.46-1.4h0v-27.51a1.46 1.46 0 012.58-.89l24.62 29.29a1.49 1.49 0 001.13.52h36a1.43 1.43 0 001.55-1.28v-.2z" transform="translate(66)" stroke="#939598" stroke-miterlimit="10" stroke-width="5" fill="url(#d)"/>
    <path d="M213.16 689.14l36.13-8.79a1.76 1.76 0 001.31-2.09l-30.17-139.4a1.76 1.76 0 00-1.72-1.39h-62.06a1.75 1.75 0 00-1.71 1.34l-35.36 141.41a1.77 1.77 0 001.29 2.14h.14l41 6.83a1.74 1.74 0 002-1.46v0l2.61-19.13a1.77 1.77 0 011.75-1.53h33.87a1.77 1.77 0 011.66 1.17l7.18 19.8a1.74 1.74 0 002.08 1.1zm-41.53-49l11.52-20.59a1.77 1.77 0 013.21.26l7.46 20.59a1.77 1.77 0 01-1.08 2.26 1.7 1.7 0 01-.59.1h-19a1.76 1.76 0 01-1.52-2.65z" transform="translate(66)" stroke="#939598" stroke-miterlimit="10" stroke-width="5" fill="url(#A)"/>
    <path d="M256.24 534.09l41.16 2.77a3.07 3.07 0 012.87 3l2.05 72.71 2.68 73.18a3.05 3.05 0 01-2.87 3.17l-19.7 1.24-21.75 2.44a3.06 3.06 0 01-3.39-2.69v-98.36L253 537.4a3.07 3.07 0 012.81-3.31z" transform="translate(66)" stroke="#939598" stroke-miterlimit="10" stroke-width="5" fill="url(#B)"/>
    <path d="M425.54 522.83L418.68 549a.8.8 0 00.59 1 .78.78 0 00.78-.22l11.78-12.18a1 1 0 00.19-.3l4.66-14a.82.82 0 00-.51-1 1 1 0 00-.25 0h-9.6a.81.81 0 00-.78.53z" transform="translate(66)" stroke="#939598" stroke-miterlimit="10" stroke-width="5" fill="url(#C)"/>
    <path d="M436.73 549.83V597a4.15 4.15 0 004.15 4.15h26a4.15 4.15 0 014.12 4.15h0v88.15a4.16 4.16 0 003.85 4.14l40.61 3a4.14 4.14 0 004.49-3.77 3 3 0 000-.42v-90.27a4.15 4.15 0 014.16-4.14h.09l24.12.55a4.15 4.15 0 004.24-4.06V546.4a4.14 4.14 0 00-4.14-4.14h-.14l-107.56 3.46a4.16 4.16 0 00-3.99 4.11z" transform="translate(66)" stroke="#939598" stroke-miterlimit="10" stroke-width="5" fill="url(#D)"/>
    <path d="M231.64 837.92c6.09 0 11-2.78 11-6.21s-4.94-6.21-11-6.21-11 2.78-11 6.21 4.9 6.21 11 6.21z" transform="translate(66)" fill="url(#E)"/>
    <path d="M290.49 757c4 0 7.16-4.41 7.16-9.84s-3.2-9.84-7.16-9.84-7.15 4.41-7.15 9.84 3.2 9.84 7.15 9.84z" transform="translate(66)" fill="url(#e)"/>
    <path d="M290.49 806.64c4 0 7.16-4.41 7.16-9.84s-3.2-9.84-7.16-9.84-7.15 4.41-7.15 9.84 3.2 9.84 7.15 9.84z" transform="translate(66)" fill="url(#F)"/>
    <path d="M409 854.61l-7-38.34h0l-22.3-122.56a3.55 3.55 0 00-4.93-2.63l-3.55 1.54-.24.1-37.59 13.16a3.57 3.57 0 00-2.34 2.77l-18.32 107.6h0l-8 46.47a2.89 2.89 0 003.27 3.38l28.27-3.77a2.89 2.89 0 002.46-2.38l3.27-19.71a2.87 2.87 0 012.84-2.4h27.62a2.88 2.88 0 012.84 2.38l2.45 13.89a2.88 2.88 0 002.67 2.38L406 858a2.89 2.89 0 003-2.73 2.93 2.93 0 000-.66zm-46.24-84.38l7.45 40.15a3.56 3.56 0 01-2.85 4.15 3.49 3.49 0 01-.65.06h-18.65a.85.85 0 01-.85-.85.76.76 0 010-.15l8.55-43.39a3.56 3.56 0 017 0z" transform="translate(66)" stroke="#c2b59b" stroke-miterlimit="10" stroke-width="5" fill="url(#f)"/>
    <path d="M517.85 865.41a811.52 811.52 0 00.28-172.59c.36 0 .64-.07.93-.07h18.52c5.77 0 18.41 0 18.91.29 10.46 5.82 40.81 28.52 40.75 31.79-.26 14.15-1 51.86-1.11 55-.18 5.89.92 54.15.78 59.9 0 .88-5.91 4.93-8.49 6.68l-15.17 10.26q-7.31 5-14.62 9.87a2.36 2.36 0 01-1.27.35c-.76 0-1.5-.12-2.26-.14l-14-.38c-2.81-.08-5.62-.18-8.43-.28l-8-.27-6.17-.24a1.67 1.67 0 00-.65-.17zm31.15-40.8l13.33-5.91c3.11-1.38 5.18-5 5.2-9.07.07-18.94.2-37.82.18-56.68 0-4-2.06-7.66-5.14-9.07l-15.7-7.16v1.19c0 1.42.1 2.83.14 4.25.12 4.93.23 9.86.36 14.8.11 4.52.23 9 .33 13.56.13 4.94.24 9.87.36 14.81q.18 6.84.34 13.7.2 8.29.38 16.58c.07 2.74.13 5.49.19 8.23a6.7 6.7 0 00.03.77z" transform="translate(66)" stroke="#c2b59b" stroke-miterlimit="10" stroke-width="5" fill="url(#G)"/>
    <path d="M60.29 683.85a3.44 3.44 0 012.7-3.77c6.15-.74 20-2.36 21.54-2.54 3.38-.4 22.89-2.63 26-3 1.33-.17 37.83 23.7 37.88 25 .27 6.74 2.66 31.23 2.44 35.84-.08 1.73-7.89 25.47-9.92 30.19a4.09 4.09 0 00-.07 3c1.8 4.84 6.94 18.56 9.12 24.3.39 1 4.41 27 4.54 30.43.19 4.88-5.27 29-6.11 29.59-3.54 2.41-8.19 7.46-14.24 12.67l-19.14 13c-.46.32-26.61-5.1-29.72-5.76-2.49-.53-15.67-3.37-21.33-4.63a3.47 3.47 0 01-2.45-3.68c.69-14.6 3.68-76.34 3.62-85.26s-3.96-79.01-4.86-95.38zm34.53 135.67c0 2.06-1.74 27.29 0 27.16 5.64-.45 16.79 3 18.18 2.91 0 0 .24-51.88 0-55.29-.09-1.25-8-1.1-14.2-3.55-2-.78-4 .94-4 3.38zm16.34-71.12c.42-5.92.87-42.09-.82-42.22-4.77-.34-10.15.28-14.93 0-1.71-.1 0 31.93 0 38-.01 1.92 15.59 6.1 15.75 4.22z" transform="translate(66)" stroke="#c2b59b" stroke-miterlimit="10" stroke-width="5" fill="url(#H)"/>
    <path d="M479.9 783.17l21.26-22.61a1.7 1.7 0 00.41-1.61c-.75-2.83-2.5-13.65.2-48.11a1.73 1.73 0 00-.76-1.57c-4.11-2.66-22.27-14.4-32.93-21.25a1.92 1.92 0 00-.46-.21c-2.83-.75-28.94-7.12-54.75 5h0a1.67 1.67 0 00-.9 2.05c3 9.58 19.22 68.43 0 171.52a1 1 0 00.83 1.23 1 1 0 00.46 0l32.66-8.67a1.7 1.7 0 001.25-1.44l6.05-48.5a1.69 1.69 0 013.24-.45l21.17 50.24a1.69 1.69 0 001.23 1l33.95 6.62a1.06 1.06 0 001.23-.86 1.12 1.12 0 00-.07-.6L479.59 785a1.65 1.65 0 01.31-1.83zm-28.24-23.63l-2.51-46.31a1 1 0 01.85-1.13 1.07 1.07 0 01.53.07l17.31 6a1.71 1.71 0 011.14 1.68l-1.43 35.81a1.71 1.71 0 01-1.29 1.58L453 760.51a1 1 0 01-1.28-.6 1.15 1.15 0 01-.06-.37z" transform="translate(66)" stroke="#c2b59b" stroke-miterlimit="10" stroke-width="5" fill="url(#I)"/>
    <path d="M168.84 707.4h100.23a7 7 0 017 7v94.69a7 7 0 01-7 7H168.84a7 7 0 01-7-7v-94.71a7 7 0 017-6.98z" transform="translate(66)" stroke="#c2b59b" stroke-miterlimit="10" stroke-width="5" fill="url(#J)"/>
    <path d="M246.6 748a11.67 11.67 0 10-11.67-11.67A11.66 11.66 0 00246.58 748z" transform="translate(66)" fill="url(#g)"/>
    <path d="M190.08 803.37a11.67 11.67 0 10-11.67-11.67 11.66 11.66 0 0011.66 11.66z" transform="translate(66)" fill="url(#K)"/>
    <path d="M217.4 773.39a11.67 11.67 0 10-11.67-11.67 11.66 11.66 0 0011.67 11.67z" transform="translate(66)" fill="url(#L)"/>
    <path d="M246.6 803.37a11.67 11.67 0 10-11.67-11.67 11.66 11.66 0 0011.66 11.66z" transform="translate(66)" fill="url(#M)"/>
    <path d="M190.08 748a11.67 11.67 0 10-11.67-11.67A11.66 11.66 0 00190.06 748z" transform="translate(66)" fill="url(#N)"/>
    <path d="M269.48 538.92l11.64.83L308.35 647l-23.28-108.1zM258.83 644l-20.45.26 25.88 1.85-4.7-13.87-8.47-22.68L236 639.88l14.15-22.21a.9.9 0 011.25-.23.87.87 0 01.34.44l5.68 15.51 2.9 7.87c.57 1.42.04 2.74-1.49 2.74zM323.67 573.5l-1.38-36h29.65l-29.15-1.93a2.11 2.11 0 00-2.24 2 1.61 1.61 0 000 .31zM324.78 684v5.64a2.15 2.15 0 002.15 2.15 1.87 1.87 0 00.34 0l8.31-1.87s-7.68.13-10.8-5.92zM364.42 538.92l2.49 148.53a2.83 2.83 0 003.19-2.4 2.9 2.9 0 000-.51zM381.32 579.87l2.5-37.65h24.11L432.05 593l-22-54h-29.56" fill="#f8f8f9"/>
    <path d="M466.69 538.92s9.18.63 10.26 3.29v-3.29zM382.71 672.17l3.85 19.13h-3.85z" fill="#fff"/>
    <path d="M477 550s-6.91 93 .93 140.7c-.05.04-2.93-111.7-.93-140.7z" fill="#f8f8f9"/>
    <path d="M412.5 690.74l-2.08-39.35L441 689.25l-24.25-27.62a1.8 1.8 0 00-3.15 1.12zM492.7 523.6l6.91 4.56 1.66-4.56zM504.39 566l5.22-15.75L615 544.4l-106.71 2.05a4 4 0 00-3.88 4zM617.08 592.28c-.44 2.22-2.72 7.7-6 8.68l2.57.21a3.3 3.3 0 003.56-3v-.34c0-.11.04-6.42-.13-5.55zM506.05 599.41l31-1.29a3.52 3.52 0 013.66 3.36v.24l-2 84.59-.4-82.48a3.69 3.69 0 00-3.6-3.68z" fill="#fff"/>
    <path d="M128 688a10.78 10.78 0 018.15-6.24l27.85-4.39-33.14 3.32a3.32 3.32 0 00-3.12 3.51v.14zM195.69 688l17.78 18.06-.32-5.85s-15.8-12.03-17.46-12.21zM178.86 719.79l1.47 31.86a.94.94 0 01-.82 1 .85.85 0 01-.42 0l-13.68-4.27 10.34 1.93a2.32 2.32 0 002.8-1.7 1.86 1.86 0 00.07-.52zM214.6 724.66l.69 10.85s-9 29.1-9.84 29.93zM211.24 784.09l7.85 39.22-3.8-28.9zM159.1 793.16l-1.42 54.91a1.6 1.6 0 001.49 1.63l21.3 1.5c-.34-.48-10.6-3.2-18.85-3.19a1.59 1.59 0 01-1.6-1.57zM129.37 857.6l1.31 5.62a3.64 3.64 0 001.3 2l3.21 2.45-3.26-.52a3.17 3.17 0 01-3.17-3.15 3 3 0 010-.31zM229.43 761.72l3.1-46.33A3.61 3.61 0 01236 712l99.54-3.09H235.32a5.88 5.88 0 00-5.9 5.86v46.94zM229.29 805.15l2.11 4.85a5.07 5.07 0 001.83 2.19l3.41 2.3h-2.25a5.1 5.1 0 01-5.1-5.1zM339.81 726.16l-2.29 87.59a4.48 4.48 0 003.35-4.38zM372.45 862.73l28.69-150.14A8.35 8.35 0 01405 707l6.23-3.79-10.59 3.64a2.85 2.85 0 00-1.89 2.21zM412.5 836.26l29.88-1.87a1.07 1.07 0 011.13 1l1.77 18.72-2.35-14a4.5 4.5 0 00-4.45-3.77zM473.05 852.25l-.19 1.41a6.62 6.62 0 01-.78 2.33l-.28.52h.31a1.46 1.46 0 001.46-1.46 1.27 1.27 0 000-.28zM413.2 816.05l24.85 1.23a1.36 1.36 0 001.43-1.29 2 2 0 000-.34l-7.4-36.35 5.43 32a4.07 4.07 0 01-3.34 4.7 3.68 3.68 0 01-.66.06zM445.28 700.54s15.28 106 26.52 143.7zM481.94 703.21v-4.6a4.64 4.64 0 012.5-4.13c5.37-2.79 19.75-8.07 46.8-3.89a4.75 4.75 0 011.63.58l33.05 19.24-33-21.37s-28-7.59-53.77 5zM565.92 715.1s-4.27 26.82 0 44.28c0 0-2.07-23.08 0-44.28z" fill="#fffbfd"/>
    <path d="M545 781.83l20.45-24.42.44 2zM518.66 762.11l18.16-3.33v-43l-16.08-3.71 13.31 4.21a2.7 2.7 0 011.89 2.65L535 755.6a2.43 2.43 0 01-1.75 2.26zM488.8 769.62s.5 66.87-5.95 91.42a1.17 1.17 0 001.32 1.46l18.76-3-22.32 6.27a.86.86 0 01-1.06-.6.9.9 0 010-.4c1.62-7.62 9.25-45.64 9.25-95.15zM529.82 821.64l16.35 34.87 14.76 4.75-15.74-2.61a1.55 1.55 0 01-1.18-.95zM585.88 862.73s16.4-60.2.09-166.33c.03 0 8.64 91.22-.09 166.33zM621.84 694.41l36 29.85a5.61 5.61 0 012 4l1.29 19 .78-21.09a2.93 2.93 0 00-1-2.27c-5.24-4.74-29.63-26.16-39.07-29.49zM614.36 826.73l17.83-7.6a5.49 5.49 0 003.34-5.1l-.39-45.61-.44 42.74A9.83 9.83 0 01629 820zM661.38 828.39s-1 11.7-4.14 14.19l4.21-3.38z" fill="#fffbfd"/>
  </g>
</svg>
