<svg width="43" height="42" viewBox="0 0 43 42" fill="none" xmlns="http://www.w3.org/2000/svg">
<path d="M21.6015 5.17391C20.184 5.17391 18.8206 5.35581 17.5111 5.71961C16.2017 6.08341 14.9665 6.60215 13.8056 7.27585C12.6446 7.94955 11.6052 8.75125 10.6872 9.68095C9.76927 10.6107 8.96606 11.6549 8.27759 12.8136C7.58913 13.9724 7.0694 15.1985 6.71842 16.492C6.36744 17.7855 6.17844 19.1531 6.15145 20.5949C6.15145 22.0096 6.33369 23.3705 6.69817 24.6775C7.06265 25.9844 7.58238 27.2173 8.25734 28.3761C8.93231 29.5348 9.73552 30.5723 10.667 31.4886C11.5984 32.4048 12.6446 33.2065 13.8056 33.8937C14.9665 34.5808 16.195 35.0996 17.4909 35.4499C18.7868 35.8002 20.157 35.9889 21.6015 36.0158C23.0189 36.0158 24.3823 35.8339 25.6918 35.4701C27.0012 35.1063 28.2364 34.5876 29.3973 33.9139C30.5583 33.2402 31.5977 32.4385 32.5157 31.5088C33.4336 30.5791 34.2368 29.5348 34.9253 28.3761C35.6138 27.2173 36.1335 25.9912 36.4845 24.6977C36.8355 23.4042 37.0245 22.0366 37.0515 20.5949C37.0515 19.1801 36.8692 17.8192 36.5047 16.5122C36.1403 15.2053 35.6205 13.9791 34.9456 12.8339C34.2706 11.6886 33.4606 10.6443 32.5157 9.70116C31.5707 8.75799 30.5313 7.95629 29.3973 7.29606C28.2634 6.63584 27.0349 6.11709 25.712 5.73982C24.3891 5.36255 23.0189 5.17391 21.6015 5.17391ZM21.6015 2.58691C23.2619 2.58691 24.8548 2.8025 26.3802 3.23366C27.9056 3.66483 29.3433 4.27116 30.6933 5.05265C32.0432 5.83414 33.2581 6.77058 34.3381 7.86197C35.418 8.95336 36.363 10.1728 37.173 11.5201C37.9829 12.8675 38.5904 14.2958 38.9954 15.8049C39.4003 17.3139 39.6163 18.9106 39.6433 20.5949C39.6433 22.2522 39.4273 23.8421 38.9954 25.3646C38.5634 26.8872 37.9559 28.3222 37.173 29.6696C36.39 31.017 35.4518 32.2296 34.3583 33.3075C33.2649 34.3855 32.0432 35.3286 30.6933 36.1371C29.3433 36.9455 27.9124 37.5518 26.4005 37.9561C24.8885 38.3603 23.2889 38.5759 21.6015 38.6028C19.941 38.6028 18.3481 38.3872 16.8227 37.9561C15.2973 37.5249 13.8596 36.9186 12.5096 36.1371C11.1597 35.3556 9.94476 34.4191 8.86482 33.3277C7.78487 32.2364 6.83991 31.017 6.02995 29.6696C5.21999 28.3222 4.61252 26.8939 4.20754 25.3848C3.80256 23.8758 3.58657 22.2791 3.55957 20.5949C3.55957 18.9376 3.77556 17.3476 4.20754 15.8251C4.63952 14.3025 5.24699 12.8675 6.02995 11.5201C6.81291 10.1728 7.75112 8.9601 8.84457 7.88218C9.93801 6.80426 11.1597 5.86109 12.5096 5.05265C13.8596 4.24421 15.2905 3.63788 16.8024 3.23366C18.3144 2.82945 19.914 2.61386 21.6015 2.58691ZM19.8195 30.0132L17.9971 28.1942L25.4893 20.6959L17.9971 13.1977L19.8195 11.3787L29.1543 20.6959L19.8195 30.0132Z" fill="white"/>
</svg>
