<svg id="be563109-cbd7-4d5f-9282-357cdf682fd5" data-name="silver" xmlns="http://www.w3.org/2000/svg" viewBox="0 0 156.43 188.69"><path id="b21423ba-d8ea-422b-abfd-276619b0e169" data-name="silver handle r" d="M196.84,67.12c-.41-.52.42.33,0,0a5,5,0,0,0-1.57-5.83,5.72,5.72,0,0,0-3.7-1.35c-3.27,0-5.91,2.36-5.91,5.23s2.65,5.2,5.92,5.23a24.72,24.72,0,0,1,2.28,11.18,11.62,11.62,0,0,1-3.92,7.85c-.73.69-1.46,1.34-2.15,1.94a18.77,18.77,0,0,1-11.1,4.18l-2.76.17.4,8.37c11.22-3.09,13.11,4.06,12.8,10.39a28.61,28.61,0,0,1-4.5,13.58c-11.91,19.13-25.33,22.19-25.33,22.19l-5,5.24c40.14-4.28,41.28-44.53,41.28-44.53C213.31,89.76,202.71,74.62,196.84,67.12Zm3.83,22.61c-1.7,13.55-7.54,14.93-9.1,16.75-1.67-6.16-4.16-6.2-7.44-7.29,3.55-.52,7.81-5.14,10.31-8.24a13.76,13.76,0,0,0,3.25-9.26,32,32,0,0,0-3.36-11.77l1.26,1.26C199.8,75.4,201.37,84.16,200.67,89.73Z" transform="translate(-48.57 -59.94)" fill="#b1b3b6"/><path id="e0c4d77d-f73f-4a8d-bded-2a2cae7ed991" data-name="silver handle l" d="M56.74,68.36c.41-.52-.42.33,0,0a5,5,0,0,1,1.57-5.83A5.72,5.72,0,0,1,62,61.18c3.27,0,5.91,2.36,5.91,5.23s-2.65,5.2-5.92,5.23a24.72,24.72,0,0,0-2.28,11.18,11.64,11.64,0,0,0,3.92,7.85c.73.69,1.46,1.34,2.15,1.94a18.77,18.77,0,0,0,11.1,4.18l2.76.17-.4,8.37c-11.22-3.09-13.11,4.06-12.8,10.39A28.65,28.65,0,0,0,71,129.3c11.91,19.13,25.33,22.19,25.33,22.19l5,5.23C61.1,152.45,60,112.2,60,112.2,40.27,91,50.87,75.85,56.74,68.36ZM52.91,91c1.7,13.55,7.55,14.93,9.1,16.74,1.67-6.15,4.16-6.19,7.44-7.28-3.55-.53-7.81-5.14-10.31-8.24a13.78,13.78,0,0,1-3.25-9.27,31.91,31.91,0,0,1,3.36-11.76L58,72.42C53.78,76.64,52.21,85.4,52.91,91Z" transform="translate(-48.57 -59.94)" fill="#b1b3b6"/><path id="a24046e7-4a3c-4af5-bd79-b8a35eca5b99" data-name="silver base" d="M155.41,245.31V233.92a1.46,1.46,0,0,0-1.51-1.4H99.77a1.46,1.46,0,0,0-1.51,1.4v11.39H97.18a1.52,1.52,0,0,0-1.58,1.46v.87a1,1,0,0,0,1.07,1h60.44a.93.93,0,0,0,1-.88v-1a1.53,1.53,0,0,0-1.59-1.47Z" transform="translate(-48.57 -59.94)" fill="#58595b"/><path id="a7b17e88-5c79-4303-99d8-0ac60535ab30" data-name="silver shaft" d="M141.93,224.44v-9.32a.38.38,0,0,0-.09-.25c-.88-1.16-8.57-11.67-7-24.59a.15.15,0,0,1,0-.07c.21-.73,3.65-12.78.1-21.79a.44.44,0,0,0-.4-.27H119.14a.42.42,0,0,0-.39.27c-3.55,9-.11,21.06.1,21.79a.15.15,0,0,1,0,.07c1.53,12.92-6.15,23.43-7,24.59a.38.38,0,0,0-.09.25v9.32a.41.41,0,0,1-.18.34l-10.14,7a.41.41,0,0,0,.23.75H152a.41.41,0,0,0,.24-.75l-10.14-7A.41.41,0,0,1,141.93,224.44Z" transform="translate(-48.57 -59.94)" fill="#cccccb"/><path id="e2ccb7ef-94d5-4a8d-a49e-57650b766e0e" data-name="silver cup" d="M178.67,79.85H74.4s-1.25,78.77,44.46,84.23h15.35C179.92,158.62,178.67,79.85,178.67,79.85Z" transform="translate(-48.57 -59.94)" fill="#cccccb"/><path id="a2a46268-b97b-48a2-90ca-12500006dae4" data-name="silver shade 1" d="M74.63,79.85H179s1.2,77.42-44,84.53l-16.21-.3S165,145.74,165.43,84.94Z" transform="translate(-48.57 -59.94)" fill="#bcbec0"/><path id="f52778ac-7a2e-4f81-b1b2-098af1450864" data-name="silver band" d="M118.56,168v-3.65a.3.3,0,0,1,.3-.29h15.92a.29.29,0,0,1,.29.3l0,3.64a.29.29,0,0,1-.29.29h-15.9A.3.3,0,0,1,118.56,168Z" transform="translate(-48.57 -59.94)" fill="#b1b3b6"/><rect id="a151e4a3-a6d3-40f1-b3ce-7c84780ba14e" data-name="silver rim" x="22.41" y="9.61" width="111.68" height="10.3" rx="3.64" fill="#dcddde"/><rect id="ada83774-9268-4f57-9b0b-0fb780f55c23" data-name="silver shade 2" x="63.17" y="155.18" width="30.18" height="9.32" fill="#bcbec0"/><path id="a3f33aaf-0110-432b-b93f-f0cee1562d7d" data-name="silver highlight 1" d="M82.29,79.85s-4.64,47.23,14.94,65.67c0,0-14-32.83-8.94-65.67Z" transform="translate(-48.57 -59.94)" fill="#e6e7e8"/></svg>