<svg id="b5476d35-cea7-4554-ac3a-aeb3dc9f459c" data-name="Layer 1" xmlns="http://www.w3.org/2000/svg" viewBox="0 0 539.98 517.09"><g id="be2fe8df-97d4-4260-9d4b-b5e2d40ef86a" data-name="Layer 1"><polygon points="1.82 194.35 185.82 158.35 268.29 0 352.99 158.35 539.35 194.35 405.94 326.35 437.7 512.35 268.29 440.47 100.82 512.35 119.82 326.35 1.82 194.35" fill="#f8c23e"/><polygon points="268.29 261.35 268.29 0 185.82 158.35 268.29 261.35" fill="#f68c14"/><polygon points="1.82 194.35 268.29 261.35 185.82 158.35 1.82 194.35" fill="#f9ce0e"/><polygon points="119.82 326.35 268.29 261.35 1.82 194.35 119.82 326.35" fill="#f58613"/><polygon points="100.82 512.35 268.29 261.35 119.82 326.35 100.82 512.35" fill="#ffb91d"/><polygon points="268.29 440.47 268.29 261.35 100.82 512.35 268.29 440.47" fill="#ff9018"/><polygon points="268.29 261.35 268.29 440.47 437.7 512.35 268.29 261.35" fill="#fca41c"/><polygon points="437.7 512.35 268.29 261.35 405.94 326.35 437.7 512.35" fill="#e98516"/><polygon points="268.29 261.35 405.94 326.35 539.35 194.35 268.29 261.35" fill="#ee972d"/><polygon points="268.29 261.35 539.35 194.35 352.99 158.35 268.29 261.35" fill="#f9e75d"/><polygon points="268.29 261.35 352.99 158.35 268.29 0 268.29 261.35" fill="#f8c23e"/><path d="M528.55,215.26,278.68,275.51a1,1,0,0,1-1.17-.79.59.59,0,0,1,0-.13L275,26.69l-1.4,247.88a1,1,0,0,1-1.05.95l-.14,0-248.49-61,247.37,63.93a1,1,0,0,1,.65,1.26.72.72,0,0,1-.09.2l-154.52,235S262.67,299.7,274.71,282a1,1,0,0,1,1.4-.19.69.69,0,0,1,.19.19L439.46,520.71,279.25,279.93a1,1,0,0,1,.36-1.37,1,1,0,0,1,.21-.09Z" transform="translate(-7.21 -16.45)" fill="#fff" opacity="0.24" style="isolation:isolate"/><path d="M24.42,207.79l164.39-32.17A8.91,8.91,0,0,0,195,171L267.69,31.44a8.92,8.92,0,0,1,15.78-.09L358.2,171a8.92,8.92,0,0,0,6.18,4.56L530,207.6a8.92,8.92,0,0,1,4.6,15.1L416.45,339.53a8.91,8.91,0,0,0-2.52,7.85L442.16,512.7a8.91,8.91,0,0,1-12.28,9.71L279,458.41a9,9,0,0,0-7,0L122,522.82a8.94,8.94,0,0,1-12.4-9.11l17.06-167a8.89,8.89,0,0,0-2.23-6.86l-105-117.36a8.91,8.91,0,0,1,4.94-14.7Z" transform="translate(-7.21 -16.45)" fill="none" stroke="#f79a31" stroke-miterlimit="10" stroke-width="20"/></g></svg>