<svg width="387" height="252" viewBox="0 0 387 252" fill="none" xmlns="http://www.w3.org/2000/svg">
<path d="M148.67 0H149.494V53.51L147.84 54.532V0H148.67Z" fill="#9A4C23"/>
<path d="M123.752 25.01L124.391 24.488L148.096 53.164L147.588 53.849L147.078 54.532L123.108 25.54L123.752 25.01Z" fill="#C35D28"/>
<path d="M173.838 24.376L175.09 25.452L150.03 54.645L149.525 53.972L149.494 53.924V52.7379L173.838 24.376Z" fill="#9A4C23"/>
<path d="M0.313477 249.701H99.4604L148.625 177.162V56.232L148.667 53.226L147.419 53.009L0.313477 249.701ZM97.0975 248.621L83.3895 222.831L145.467 176.882L97.0975 248.621Z" fill="#D3732F"/>
<path d="M148.667 53.325V176.946L197.837 249.485H296.977L150.025 53.009L148.667 53.325ZM151.565 176.852L213.632 222.796L199.933 248.58L151.565 176.852Z" fill="#9A4C23"/>
<path d="M213.856 222.418L199.846 248.72L150.824 176.351L213.856 222.418Z" fill="#C0BB98"/>
<path d="M83.1294 222.418L97.1394 248.72L146.163 176.351L83.1294 222.418Z" fill="#D0CBA7"/>
<path d="M148.116 177.504L197.285 250.049L98.9075 250.264C98.9075 250.264 151.315 177.567 148.116 177.504Z" fill="#552A11"/>
<path fill-rule="evenodd" clip-rule="evenodd" d="M342.038 174.173C344.434 153.773 327.437 145.575 327.437 145.575C327.437 145.575 330.837 150.374 333.238 155.986C335.634 161.602 333.721 166.955 320.84 182.372C305.38 200.877 320.359 221.25 335.13 226.126C340.474 218.093 345.04 208.941 346.016 199.073C340.918 201.613 339.757 193.56 342.038 174.173Z" fill="#F2AA23"/>
<path fill-rule="evenodd" clip-rule="evenodd" d="M359.038 193.974C356.133 184.801 346.435 185.973 348.64 186.371C350.835 186.774 352.641 194.768 346.835 198.615C346.552 198.802 346.283 198.943 346.016 199.072C345.04 208.94 340.474 218.092 335.13 226.125C340.017 227.739 344.885 227.663 348.616 225.256C359.541 218.208 362.836 205.972 359.038 193.974Z" fill="#EB782F"/>
<path fill-rule="evenodd" clip-rule="evenodd" d="M351.119 200.091C351.011 204.978 347.89 206.768 344.455 207.04C343.01 212.019 340.791 216.771 338.196 221.23C339.807 221.556 341.325 221.554 342.348 221.491C345.713 221.282 349.553 220.987 351.934 213.805C354.534 205.943 351.195 196.557 351.119 200.091Z" fill="#B44625"/>
<path fill-rule="evenodd" clip-rule="evenodd" d="M341.985 207.002C333.834 206.155 335.819 190.514 335.819 190.514C335.819 190.514 330.229 204.005 330.384 210.937C330.54 218.103 334.604 220.501 338.196 221.231C340.791 216.772 343.009 212.02 344.455 207.041C343.639 207.11 342.805 207.086 341.985 207.002Z" fill="#D05627"/>
<path d="M308.153 251.28C311.884 245.974 311.694 239.856 308.239 233.593H307.146C301.248 233.593 296.465 237.549 296.465 242.436C296.465 247.319 301.247 251.28 307.146 251.28H308.153Z" fill="#827D6F"/>
<path d="M308.239 233.594C311.694 239.857 311.885 245.975 308.153 251.281H342.833C351.397 246.153 359.558 240.459 366.819 233.594H308.239Z" fill="#5F5849"/>
<path d="M376.157 233.594H366.819C359.557 240.458 351.397 246.153 342.833 251.281H376.157C382.053 251.281 386.835 247.32 386.835 242.437C386.834 237.55 382.052 233.594 376.157 233.594Z" fill="#4C473B"/>
<path d="M307.625 240.586C307.197 239.731 306.346 239.107 305.496 239.055C304.784 239.005 304.153 239.329 303.728 239.958C303.086 240.838 303.316 242.381 303.458 243.302L303.51 243.642L304.875 243.487C304.859 243.385 304.843 243.253 304.816 243.093C304.739 242.576 304.525 241.192 304.846 240.743C305.06 240.437 305.263 240.415 305.404 240.426C305.76 240.453 306.184 240.776 306.398 241.217C307.511 243.307 307.299 245.657 305.838 247.499C305.473 247.966 305.05 248.119 304.513 247.988C303.192 247.679 301.647 245.769 301.289 243.998C300.957 242.39 301.215 239.244 302.549 237.758C303.065 237.174 303.689 236.92 304.456 236.987L304.575 235.62C303.377 235.516 302.324 235.935 301.519 236.841C299.799 238.767 299.558 242.414 299.939 244.273C300.384 246.496 302.222 248.734 304.004 249.275C304.065 249.293 304.126 249.313 304.187 249.327C305.249 249.579 306.215 249.239 306.914 248.358C308.698 246.105 308.97 243.126 307.625 240.586Z" fill="#5F5849"/>
</svg>
